<svg width="44" height="58" viewBox="0 0 44 58" fill="none" xmlns="http://www.w3.org/2000/svg">
<path d="M29.116 16.675V4.611C29.116 2.059 27.057 0 24.505 0H4.611C2.059 0 0 2.059 0 4.611V53.389C0 55.941 2.059 58 4.611 58H24.534C27.086 58 29.145 55.941 29.145 53.389V41.296C29.145 40.658 28.623 40.136 27.985 40.136C27.347 40.136 26.825 40.658 26.825 41.296V47.357H2.32V10.817H26.796V16.675C26.796 17.313 27.318 17.835 27.956 17.835C28.594 17.835 29.116 17.313 29.116 16.675ZM26.796 49.706V53.389C26.796 54.665 25.752 55.68 24.505 55.68H4.611C3.335 55.68 2.32 54.665 2.32 53.389V49.706H26.796ZM2.32 8.526V4.611C2.32 3.335 3.335 2.32 4.611 2.32H24.505C25.781 2.32 26.796 3.335 26.796 4.611V8.526H2.32Z" fill="#7A3CDF"/>
<rect x="9" y="22" width="32.47" height="14" fill="#F2A819"/>
<rect x="9" y="23" width="2.47" height="12" rx="1.235" fill="#7A3CDF"/>
<rect x="34" y="23" width="2.47" height="12" rx="1.235" fill="#7A3CDF"/>
<rect x="14" y="23" width="2.47" height="12" rx="1.235" fill="#7A3CDF"/>
<rect x="39" y="23" width="2.47" height="12" rx="1.235" fill="#7A3CDF"/>
<rect x="24" y="23" width="2.47" height="12" rx="1.235" fill="#7A3CDF"/>
<rect x="19" y="23" width="2.47" height="8" rx="1.235" fill="#7A3CDF"/>
<rect x="29" y="23" width="2.47" height="10" rx="1.235" fill="#7A3CDF"/>
</svg>
