<svg width="49" height="40" viewBox="0 0 49 40" fill="none" xmlns="http://www.w3.org/2000/svg">
<path d="M20 0C8.95833 0 0 8.95833 0 20C0 31.0417 8.95833 40 20 40C31.0417 40 40 31.0417 40 20C40 8.95833 30.9375 0 20 0ZM20 31.3542C16.25 31.3542 12.6042 29.4792 10.5208 26.25C10.5208 23.125 16.875 21.3542 20 21.3542C23.125 21.3542 29.375 23.125 29.4792 26.25C27.2917 29.375 23.75 31.3542 20 31.3542ZM20 8.95833C22.6042 8.95833 24.6875 11.0417 24.6875 13.6458C24.6875 16.25 22.6042 18.3333 20 18.3333C17.3958 18.3333 15.3125 16.25 15.3125 13.6458C15.2083 11.0417 17.2917 8.95833 20 8.95833Z" fill="#7A3CDF"/>
<path d="M39.5833 30.2083C44.7609 30.2083 48.9583 26.0109 48.9583 20.8333C48.9583 15.6556 44.7609 11.4583 39.5833 11.4583C34.4056 11.4583 30.2083 15.6556 30.2083 20.8333C30.2083 26.0109 34.4056 30.2083 39.5833 30.2083Z" fill="#25BA96"/>
<path d="M34.5833 20.7291C34.5833 19.6874 35.4166 18.8541 36.4583 18.8541H38.9583V17.7083H36.4583C34.7916 17.7083 33.3333 19.0624 33.3333 20.8333C33.3333 22.4999 34.6874 23.9583 36.4583 23.9583H38.9583V22.8124H36.4583C35.4166 22.7083 34.5833 21.8749 34.5833 20.7291ZM37.0833 21.3541H41.9791V20.1041H37.0833V21.3541ZM42.7083 17.7083H40.2083V18.8541H42.7083C43.7499 18.8541 44.5833 19.6874 44.5833 20.7291C44.5833 21.7708 43.7499 22.6041 42.7083 22.6041H40.2083V23.7499H42.7083C44.3749 23.7499 45.8333 22.3958 45.8333 20.6249C45.7291 19.0624 44.3749 17.7083 42.7083 17.7083Z" fill="#F9F8FC"/>
</svg>
