<svg width="40" height="29" viewBox="0 0 40 29" fill="none" xmlns="http://www.w3.org/2000/svg">
<g clip-path="url(#clip0)">
<path d="M33.7494 20.669H6.25062C5.13229 20.669 4.23364 19.7704 4.23364 18.652V6.31055C4.23364 5.19223 5.13229 4.29358 6.25062 4.29358H33.7494C34.8677 4.29358 35.7663 5.19223 35.7663 6.31055V18.652C35.7663 19.7704 34.8677 20.669 33.7494 20.669Z" fill="#F5BE53"/>
<path d="M37.1842 24.7629C38.7419 24.7629 40 23.5047 40 21.9471V2.81578C40 1.25811 38.7419 0 37.1842 0H2.81578C1.25811 0 0 1.25811 0 2.81578V21.9471C0 23.5047 1.25811 24.7629 2.81578 24.7629H9.60559V26.8996H0.838742C0.399401 26.8996 0.0399401 27.2591 0.0399401 27.6985C0.0399401 28.1378 0.399401 28.4973 0.838742 28.4973H9.60559H30.4144H39.1812C39.6206 28.4973 39.98 28.1378 39.98 27.6985C39.98 27.2591 39.6206 26.8996 39.1812 26.8996H30.4144V24.7629H37.1842ZM2.81578 23.1653C2.15676 23.1653 1.5976 22.6261 1.5976 21.9471V2.81578C1.5976 2.13679 2.13679 1.5976 2.81578 1.5976H37.2042C37.8632 1.5976 38.4224 2.13679 38.4224 2.81578V21.9471C38.4224 22.6061 37.8832 23.1653 37.2042 23.1653H30.4144H9.60559H2.81578ZM28.7968 26.8996H11.2032V24.7629H28.8168V26.8996H28.7968Z" fill="#7A3CDF"/>
<path d="M36.5453 18.672V6.31053C36.5453 4.75286 35.3071 3.49475 33.7694 3.49475H6.21077C4.69305 3.49475 3.43494 4.75286 3.43494 6.31053V18.652C3.43494 20.2097 4.67308 21.4678 6.21077 21.4678H33.7694C35.3071 21.4678 36.5453 20.2097 36.5453 18.672ZM5.01257 18.672V6.31053C5.01257 5.65152 5.55176 5.09235 6.21077 5.09235H33.7694C34.4284 5.09235 34.9676 5.63155 34.9676 6.31053V18.652C34.9676 19.311 34.4284 19.8702 33.7694 19.8702H6.21077C5.55176 19.8702 5.01257 19.331 5.01257 18.672Z" fill="#7A3CDF"/>
<path d="M15.6365 11.6824C15.317 11.3629 14.8177 11.3629 14.4982 11.6824C14.1787 12.0019 14.1787 12.5012 14.4982 12.8207L19.7303 18.0528C19.8901 18.2126 20.0898 18.2925 20.2895 18.2925C20.4892 18.2925 20.6889 18.2126 20.8487 18.0528C21.1682 17.7333 21.1682 17.2341 20.8487 16.9145L15.6365 11.6824Z" fill="#7A3CDF"/>
<path d="M25.6415 12.1617L20.4093 6.92958C20.0898 6.61006 19.5905 6.61006 19.271 6.92958C18.9515 7.2491 18.9515 7.74835 19.271 8.06787L24.5032 13.3C24.6629 13.4598 24.8626 13.5397 25.0623 13.5397C25.262 13.5397 25.4617 13.4598 25.6215 13.3C25.961 12.9805 25.961 12.4613 25.6415 12.1617Z" fill="#7A3CDF"/>
<path d="M15.8961 7.24916C15.5766 6.92964 15.0774 6.92964 14.7578 7.24916C14.4383 7.56868 14.4383 8.06793 14.7578 8.38745L24.2236 17.8533C24.3834 18.013 24.5831 18.0929 24.7828 18.0929C24.9825 18.0929 25.1822 18.013 25.342 17.8533C25.6615 17.5337 25.6615 17.0345 25.342 16.715L15.8961 7.24916Z" fill="#7A3CDF"/>
</g>
<defs>
<clipPath id="clip0">
<rect width="40" height="28.4973" fill="white"/>
</clipPath>
</defs>
</svg>
