<svg width="40" height="34" viewBox="0 0 40 34" fill="none" xmlns="http://www.w3.org/2000/svg">
<g clip-path="url(#clip0)">
<path opacity="0.8" d="M30.58 30.7799C32.0159 30.7799 33.18 29.6159 33.18 28.1799C33.18 26.744 32.0159 25.58 30.58 25.58C29.144 25.58 27.98 26.744 27.98 28.1799C27.98 29.6159 29.144 30.7799 30.58 30.7799Z" fill="#7A3CDF"/>
<path opacity="0.8" d="M34.2199 30.7799C35.6558 30.7799 36.8199 29.6159 36.8199 28.1799C36.8199 26.744 35.6558 25.58 34.2199 25.58C32.7839 25.58 31.6199 26.744 31.6199 28.1799C31.6199 29.6159 32.7839 30.7799 34.2199 30.7799Z" fill="#F5BE53"/>
<path d="M37.5199 11.0799H35.8599L32.5599 1.67993C32.0999 0.379932 30.6799 -0.300068 29.3799 0.139932L1.67993 9.81993C1.05993 10.0399 0.539933 10.4999 0.259933 11.0999C-0.040067 11.6999 -0.060067 12.3799 0.159933 12.9999L5.65993 28.7999V31.4199C5.65993 32.7999 6.77993 33.9199 8.15993 33.9199H37.5199C38.8999 33.9199 40.0199 32.7999 40.0199 31.4199V13.5799C39.9999 12.1999 38.8799 11.0799 37.5199 11.0799ZM33.1399 8.17993L34.1599 11.0999H24.7999L33.1399 8.17993ZM5.65993 23.9399L3.73993 18.4399L5.65993 17.7799V23.9399ZM5.65993 13.5799L2.43993 14.6999L1.65993 12.4799C1.57993 12.2599 1.59993 12.0199 1.69993 11.7999C1.79993 11.5799 1.97993 11.4199 2.19993 11.3399L29.9199 1.65993C30.0199 1.61993 30.1199 1.61993 30.2199 1.61993C30.5799 1.61993 30.9399 1.83993 31.0599 2.21993L31.8399 4.43993L12.7799 11.0799H8.15993C6.77993 11.0799 5.65993 12.1999 5.65993 13.5799ZM38.3999 31.4199C38.3999 31.9199 37.9999 32.3199 37.4999 32.3199H8.15993C7.65993 32.3199 7.25993 31.9199 7.25993 31.4199V17.2199V13.5799C7.25993 13.3199 7.37993 13.0799 7.55993 12.9199C7.71993 12.7799 7.91993 12.6999 8.15993 12.6999H8.21993H20.2399H37.5199C38.0199 12.6999 38.4199 13.0999 38.4199 13.5999V31.4199H38.3999Z" fill="#7A3CDF"/>
<path d="M10.3599 16.8799H25.8399C26.2799 16.8799 26.6399 16.5199 26.6399 16.0799C26.6399 15.6399 26.2799 15.2799 25.8399 15.2799H10.3599C9.91994 15.2799 9.55994 15.6399 9.55994 16.0799C9.55994 16.5199 9.91994 16.8799 10.3599 16.8799Z" fill="#7A3CDF"/>
<path d="M33.3599 19.22H10.3599C9.91994 19.22 9.55994 19.58 9.55994 20.02C9.55994 20.46 9.91994 20.82 10.3599 20.82H33.3599C33.7999 20.82 34.1599 20.46 34.1599 20.02C34.1599 19.58 33.8199 19.22 33.3599 19.22Z" fill="#7A3CDF"/>
</g>
<defs>
<clipPath id="clip0">
<rect width="40" height="33.9" fill="white"/>
</clipPath>
</defs>
</svg>
