<svg width="25" height="40" viewBox="0 0 25 40" fill="none" xmlns="http://www.w3.org/2000/svg">
<path d="M24.1757 12.0879C24.1757 5.45455 18.7811 0.03996 12.1478 0C12.1278 0 12.1078 0 12.0878 0C5.53439 0 0.119808 5.29471 -7.16974e-05 11.8482C-0.0600117 14.9051 1.01891 17.8222 3.03689 20.0999C4.23569 21.4585 4.91501 23.1768 4.95497 24.955C4.33559 25.4545 3.93599 26.2138 3.93599 27.0729C3.93599 27.8122 4.23569 28.4715 4.71521 28.971C4.23569 29.4506 3.93599 30.1099 3.93599 30.8492V30.9291C3.93599 32.1678 4.77515 33.2068 5.91401 33.5065C5.91401 33.6264 5.91401 33.7263 5.91401 33.8462C5.91401 37.2428 8.67126 40 12.0679 40C15.4645 40 18.2217 37.2428 18.2217 33.8462C18.2217 33.7263 18.2217 33.6264 18.2217 33.5065C19.3606 33.2068 20.1997 32.1678 20.1997 30.9291V30.8492C20.1997 30.1099 19.9 29.4506 19.4205 28.971C19.9 28.4915 20.1997 27.8122 20.1997 27.0729C20.1997 26.2138 19.8001 25.4545 19.1807 24.955C19.2207 23.1568 19.88 21.4585 21.0389 20.1598C23.0768 17.962 24.1757 15.0849 24.1757 12.0879ZM12.0878 38.4016C9.57036 38.4016 7.53239 36.3636 7.53239 33.8462C7.53239 33.7662 7.53239 33.6863 7.53239 33.6064H16.6433C16.6433 33.6863 16.6433 33.7662 16.6433 33.8462C16.6433 36.3636 14.6053 38.4016 12.0878 38.4016ZM18.6213 30.9291C18.6213 31.5285 18.1418 32.008 17.5424 32.008H17.3426H6.83309H6.63329C6.03389 32.008 5.55437 31.5285 5.55437 30.9291V30.8492C5.55437 30.2498 6.03389 29.7702 6.63329 29.7702H17.5624C18.1618 29.7702 18.6413 30.2498 18.6413 30.8492V30.9291H18.6213ZM5.55437 27.0729C5.55437 26.5734 5.89403 26.1538 6.35357 26.014H17.8421C18.3016 26.1538 18.6413 26.5734 18.6413 27.0729C18.6413 27.6923 18.1418 28.1718 17.5424 28.1718H6.65327C6.05387 28.1918 5.55437 27.6923 5.55437 27.0729ZM17.6223 24.3756C17.5823 24.3756 17.5424 24.3756 17.5024 24.3756H6.65327C6.61331 24.3756 6.57335 24.3756 6.53339 24.3756C6.37355 22.4176 5.57435 20.5395 4.23569 19.041C2.49743 17.0629 1.55837 14.5255 1.59833 11.8881C1.71821 6.19381 6.41351 1.5984 12.0878 1.5984C12.1078 1.5984 12.1278 1.5984 12.1478 1.5984C17.902 1.61838 22.5773 6.33367 22.5773 12.0879C22.5773 14.6853 21.6183 17.1828 19.88 19.1009C18.5614 20.5594 17.7821 22.3976 17.6223 24.3756Z" fill="#7A3CDF"/>
<path d="M17.4824 10.8692H12.5673L13.3865 4.57549C13.4065 4.37569 13.2666 4.17589 13.0469 4.15591C12.907 4.13593 12.7671 4.21585 12.6872 4.31575L6.71319 14.8053C6.61329 14.9851 6.65325 15.2049 6.83307 15.3247C6.89301 15.3647 6.95295 15.3847 7.03287 15.3847H11.868L11.2087 21.6984C11.1887 21.8982 11.3486 22.078 11.5484 22.098C11.6882 22.118 11.8281 22.038 11.888 21.9181L17.7621 11.4486C17.8221 11.3287 17.8421 11.1889 17.7621 11.069C17.7422 10.9491 17.6223 10.8692 17.4824 10.8692Z" fill="#F2A819"/>
</svg>
