<svg width="40" height="34" viewBox="0 0 40 34" fill="none" xmlns="http://www.w3.org/2000/svg">
<g clip-path="url(#clip0)">
<path d="M40 11.3511V7.39327C40 5.88649 38.7745 4.66097 37.2677 4.66097H20.894C20.5726 4.66097 20.2511 4.52034 20.0502 4.27926L17.2175 0.96434C16.7152 0.341537 15.9518 0 15.1482 0H2.7323C1.22551 0 0 1.22551 0 2.7323V30.658C0 32.1647 1.22551 33.3903 2.7323 33.3903H37.2677C38.7745 33.3903 40 32.1647 40 30.658V30.4972C40 30.4972 40 30.4972 40 30.4771V11.3511ZM38.3928 30.4972C38.3928 31.1602 37.8503 31.6826 37.1873 31.6826H2.81266C2.14967 31.6826 1.60723 31.1401 1.60723 30.4771V11.3712C1.60723 10.7082 2.14967 10.1657 2.81266 10.1657H37.1873C37.8503 10.1657 38.3928 10.7082 38.3928 11.3511V30.4972ZM38.3928 8.81969C38.0311 8.63888 37.6293 8.53842 37.1873 8.53842H2.81266C2.39076 8.53842 1.96886 8.63888 1.60723 8.81969V2.7323C1.60723 2.10949 2.10949 1.60723 2.7323 1.60723H15.1683C15.4897 1.60723 15.8111 1.74787 16.0121 1.98895L18.8448 5.30387C19.3672 5.90658 20.1105 6.26821 20.9141 6.26821H37.2878C37.9106 6.26821 38.4129 6.77047 38.4129 7.39327V8.81969H38.3928Z" fill="#7A3CDF"/>
<path opacity="0.9" d="M23.6062 14.5254C22.6821 14.5254 21.8584 14.8067 21.115 15.3893C20.7333 15.6705 20.4119 16.0322 20.1105 16.434C19.8092 16.0322 19.4676 15.6705 19.106 15.3893C18.3627 14.8267 17.5389 14.5254 16.6148 14.5254C15.3893 14.5254 14.2642 15.0076 13.4405 15.9116C12.6369 16.7956 12.1748 18.001 12.1748 19.2868C12.1748 20.6329 12.6771 21.8584 13.7419 23.1442C14.7062 24.3094 16.0723 25.4747 17.6796 26.8408C18.222 27.3029 18.8448 27.8252 19.4877 28.3878C19.6484 28.5284 19.8694 28.6088 20.1105 28.6088C20.3315 28.6088 20.5525 28.5284 20.7333 28.3878C21.3762 27.8252 21.999 27.3029 22.5415 26.8408C24.1487 25.4747 25.5148 24.3094 26.4792 23.1442C27.544 21.8584 28.0462 20.6128 28.0462 19.2868C28.0462 17.9809 27.6042 16.7755 26.7805 15.9116C25.9568 15.0076 24.8318 14.5254 23.6062 14.5254Z" fill="#F2A819"/>
</g>
<defs>
<clipPath id="clip0">
<rect width="40" height="33.3702" fill="white"/>
</clipPath>
</defs>
</svg>
