<svg width="41" height="40" viewBox="0 0 41 40" fill="none" xmlns="http://www.w3.org/2000/svg">
<g clip-path="url(#clip0)">
<path d="M39.3781 11.5947H19.1374C18.696 11.5947 18.335 11.9558 18.335 12.3971V15.0451C18.335 15.4864 18.696 15.8475 19.1374 15.8475H20.7422L20.9829 19.4784C21.003 19.8996 21.344 20.2407 21.7853 20.2407C22.2266 20.2407 22.5877 19.8796 22.5877 19.4383C22.5877 19.4182 22.5877 19.3981 22.5877 19.3781L22.347 15.8475H36.1685L34.6639 38.3951H23.8515L23.8114 37.673C23.7913 37.2517 23.4302 36.9107 23.009 36.9107C22.5677 36.9107 22.2066 37.2718 22.2066 37.7131C22.2066 37.7331 22.2066 37.7532 22.2066 37.7733L22.3069 39.2577C22.3269 39.679 22.688 39.9999 23.1093 39.9999H35.4262C35.8475 39.9999 36.2086 39.679 36.2286 39.2577L37.7733 15.8475H39.3781C39.8194 15.8475 40.1805 15.4864 40.1805 15.0451V12.3971C40.1805 11.9558 39.8194 11.5947 39.3781 11.5947ZM38.5757 14.2427H37.031H21.4844H19.9398V13.1995H38.5757V14.2427Z" fill="#7A3CDF"/>
<path d="M25.7171 25.1356H1.88562C1.88562 23.0293 2.74821 21.1035 4.13236 19.7194C5.51651 18.3352 7.42223 17.4727 9.54861 17.4727H18.0742C22.2868 17.4927 25.7171 20.9029 25.7171 25.1356Z" fill="#F5BE53"/>
<path d="M26.5196 25.9379H1.08325V25.1355C1.08325 22.8888 1.9659 20.7624 3.55065 19.1576C5.15547 17.5528 7.28185 16.6902 9.52859 16.6902H18.0542C22.7081 16.6902 26.4995 20.4816 26.4995 25.1355V25.9379H26.5196ZM2.74825 24.3331H24.8746C24.4734 20.9229 21.5847 18.295 18.0742 18.295H9.54865C7.72317 18.295 5.99799 19.0172 4.69408 20.301C3.59077 21.4043 2.92879 22.8085 2.74825 24.3331Z" fill="#7A3CDF"/>
<path d="M23.8917 33.0584C22.9489 33.0584 22.4273 32.5569 22.0863 32.236C21.7854 31.9551 21.6851 31.8548 21.3842 31.8548C21.1034 31.8548 20.983 31.9551 20.6821 32.236C20.3411 32.5569 19.8195 33.0584 18.8767 33.0584C17.9338 33.0584 17.4123 32.5569 17.0713 32.236C16.7704 31.9551 16.6701 31.8548 16.3691 31.8548C16.0883 31.8548 15.9679 31.9551 15.667 32.236C15.326 32.5569 14.8045 33.0584 13.8616 33.0584C12.9188 33.0584 12.3972 32.5569 12.0562 32.236C11.7553 31.9551 11.655 31.8548 11.3541 31.8548C11.0733 31.8548 10.9529 31.9551 10.652 32.236C10.311 32.5569 9.78941 33.0584 8.84658 33.0584C7.90375 33.0584 7.38219 32.5569 7.04116 32.236C6.74026 31.9551 6.63996 31.8548 6.33906 31.8548C6.05822 31.8548 5.93786 31.9551 5.63695 32.236C5.29593 32.5569 4.77436 33.0584 3.83154 33.0584C2.88871 33.0584 2.36714 32.5569 2.02612 32.236C1.72522 31.9551 1.62492 31.8548 1.32401 31.8548C0.88269 31.8548 0.521606 31.4937 0.521606 31.0524C0.521606 30.6111 0.88269 30.25 1.32401 30.25C2.26684 30.25 2.78841 30.7515 3.12943 31.0725C3.43033 31.3533 3.53063 31.4536 3.83154 31.4536C4.13244 31.4536 4.23274 31.3533 4.53364 31.0725C4.87467 30.7515 5.39623 30.25 6.33906 30.25C7.28189 30.25 7.80345 30.7515 8.14447 31.0725C8.44538 31.3533 8.54568 31.4536 8.84658 31.4536C9.12742 31.4536 9.24778 31.3533 9.54869 31.0725C9.88971 30.7515 10.4113 30.25 11.3541 30.25C12.2969 30.25 12.8185 30.7515 13.1595 31.0725C13.4604 31.3533 13.5607 31.4536 13.8616 31.4536C14.1625 31.4536 14.2628 31.3533 14.5637 31.0725C14.9048 30.7515 15.4263 30.25 16.3691 30.25C17.312 30.25 17.8335 30.7515 18.1746 31.0725C18.4755 31.3533 18.5758 31.4536 18.8767 31.4536C19.1575 31.4536 19.2779 31.3533 19.5788 31.0725C19.9198 30.7515 20.4414 30.25 21.3842 30.25C22.327 30.25 22.8486 30.7515 23.1896 31.0725C23.4905 31.3533 23.5908 31.4536 23.8917 31.4536C24.1926 31.4536 24.2929 31.3533 24.5938 31.0725C24.9348 30.7515 25.4564 30.25 26.3992 30.25C26.8406 30.25 27.2016 30.6111 27.2016 31.0524C27.2016 31.4937 26.8406 31.8548 26.3992 31.8548C26.1184 31.8548 25.998 31.9551 25.6971 32.236C25.3561 32.5569 24.8345 33.0584 23.8917 33.0584Z" fill="#7A3CDF"/>
<path d="M25.7171 35.0654C25.7171 37.3523 20.4012 39.1978 13.8615 39.1978C7.32193 39.1978 2.00598 37.3523 2.00598 35.0654H25.7171Z" fill="#F5BE53"/>
<path d="M13.8616 40.0001C7.72317 40.0001 1.20361 38.275 1.20361 35.0653V34.2629H26.5196V35.0653C26.5196 38.275 20 40.0001 13.8616 40.0001ZM3.24975 35.8678C4.49348 37.0914 8.3651 38.3953 13.8616 38.3953C16.9308 38.3953 19.8195 37.9741 21.986 37.2318C22.9087 36.9109 23.9318 36.4294 24.4935 35.8678H3.24975Z" fill="#7A3CDF"/>
<path d="M25.1554 28.4455H2.46736C1.54459 28.4455 0.802368 27.7032 0.802368 26.7805C0.802368 25.8577 1.54459 25.1155 2.46736 25.1155H25.1554C26.0782 25.1155 26.8204 25.8577 26.8204 26.7805C26.8004 27.7032 26.0581 28.4455 25.1554 28.4455Z" fill="#F5BE53"/>
<path d="M25.1555 29.2478H2.4674C1.10331 29.2478 0 28.1445 0 26.7804C0 25.4163 1.10331 24.313 2.4674 24.313H25.1555C26.5196 24.313 27.6229 25.4163 27.6229 26.7804C27.6028 28.1445 26.4995 29.2478 25.1555 29.2478ZM2.4674 25.9379C2.00602 25.9379 1.60481 26.319 1.60481 26.8005C1.60481 27.2819 1.98596 27.663 2.4674 27.663H25.1555C25.6168 27.663 26.0181 27.2819 26.0181 26.8005C26.0181 26.319 25.6369 25.9379 25.1555 25.9379H2.4674Z" fill="#7A3CDF"/>
<path d="M29.6088 6.70015V11.5948H28.004V6.981L23.4504 1.30397C23.1695 0.962943 23.2297 0.461438 23.5707 0.180596C23.9118 -0.100247 24.4133 -0.0400662 24.6941 0.300957L29.4283 6.19865C29.5487 6.33907 29.6088 6.51961 29.6088 6.70015Z" fill="#7A3CDF"/>
</g>
<defs>
<clipPath id="clip0">
<rect width="40.1805" height="40" fill="white"/>
</clipPath>
</defs>
</svg>
