<svg width="42" height="40" viewBox="0 0 42 40" fill="none" xmlns="http://www.w3.org/2000/svg">
<g clip-path="url(#clip0)">
<path d="M41.5168 12.6458C41.5376 12.6041 41.5376 12.5625 41.5584 12.5208C41.5584 12.5 41.5584 12.4791 41.5584 12.4583C41.5584 12.4166 41.5584 12.3958 41.5584 12.3541C41.5584 12.3333 41.5584 12.3333 41.5584 12.3125C41.5584 12.2916 41.5584 12.2916 41.5584 12.2708C41.5584 12.25 41.5584 12.2291 41.5584 12.2083C41.5584 12.1666 41.5376 12.1458 41.5376 12.1041C41.5376 12.0833 41.5376 12.0833 41.5168 12.0625C41.496 12.0208 41.4753 11.9791 41.4545 11.9375C41.3089 11.6875 41.0179 11.5 40.706 11.5208C38.8142 11.6041 36.9847 10.9583 35.571 9.70829L35.5502 9.68746C35.4671 9.60413 35.3631 9.52079 35.2592 9.41663C35.1552 9.31246 35.0721 9.22913 34.9889 9.12496L34.9681 9.10413C33.7207 7.68746 33.0763 5.85413 33.1594 3.95829C33.1594 3.91663 33.1594 3.87496 33.1594 3.85413C33.1594 3.83329 33.1594 3.81246 33.1594 3.79163C33.1594 3.77079 33.1386 3.72913 33.1386 3.70829C33.1386 3.68746 33.1178 3.66663 33.1178 3.62496C33.1178 3.60413 33.097 3.58329 33.097 3.56246C33.0763 3.52079 33.0763 3.49996 33.0555 3.45829C33.0347 3.43746 33.0347 3.43746 33.0139 3.41663C32.9931 3.39579 32.9723 3.37496 32.9515 3.33329C32.9307 3.31246 32.9099 3.29163 32.8891 3.27079C32.8684 3.24996 32.8476 3.22913 32.8268 3.22913C32.806 3.20829 32.7852 3.20829 32.7644 3.18746C32.7436 3.16663 32.7228 3.16663 32.702 3.14579C32.6812 3.12496 32.6397 3.12496 32.6189 3.12496C32.5981 3.12496 32.5773 3.10413 32.5357 3.10413C32.4941 3.10413 32.4734 3.08329 32.4318 3.08329C32.411 3.08329 32.3902 3.08329 32.3694 3.08329C32.2239 3.08329 32.0784 3.10413 31.9328 3.18746C31.912 3.18746 31.912 3.20829 31.8912 3.20829C30.2904 4.22913 28.3986 4.58329 26.5483 4.20829C26.5275 4.20829 26.5275 4.20829 26.5067 4.20829C26.382 4.18746 26.2365 4.14579 26.1117 4.10413C26.0078 4.08329 25.9038 4.04163 25.7791 3.99996H25.7583C25.7375 3.99996 25.7167 3.97913 25.6959 3.97913C23.908 3.37496 22.432 2.12496 21.5588 0.437459C21.538 0.395793 21.5172 0.374959 21.4964 0.333293C21.4964 0.312459 21.4756 0.312459 21.4756 0.291626C21.4549 0.270793 21.4341 0.249959 21.4133 0.229126C21.3925 0.208293 21.3717 0.187459 21.3509 0.166626C21.3301 0.145793 21.3301 0.145793 21.3093 0.145793C21.2885 0.124959 21.247 0.104126 21.2262 0.0832926C21.2054 0.0832926 21.1846 0.0624593 21.1638 0.0624593C21.143 0.041626 21.1014 0.041626 21.0806 0.0207926C21.0599 0.0207926 21.0183 -4.06895e-05 20.9975 -4.06895e-05C20.9767 -4.06895e-05 20.9559 -0.020874 20.9143 -0.020874C20.8935 -0.020874 20.852 -0.020874 20.8312 -0.020874C20.8104 -0.020874 20.7688 -0.020874 20.748 -0.020874C20.7272 -0.020874 20.6856 -0.020874 20.6649 -4.06895e-05C20.6441 -4.06895e-05 20.6233 -4.06895e-05 20.5817 0.0207926C20.5401 0.0207926 20.5193 0.041626 20.4985 0.0624593C20.4777 0.0624593 20.457 0.0832926 20.4362 0.0832926C20.3946 0.104126 20.3738 0.124959 20.3322 0.145793C20.3114 0.145793 20.3114 0.166626 20.2906 0.166626C20.2698 0.187459 20.2491 0.208293 20.2283 0.229126C20.2075 0.249959 20.1867 0.270793 20.1659 0.291626C20.1659 0.312459 20.1451 0.312459 20.1451 0.333293C20.1243 0.374959 20.1035 0.395793 20.0827 0.437459C19.2096 2.12496 17.7335 3.37496 15.9456 3.97913C15.9248 3.97913 15.904 3.99996 15.8832 3.99996H15.8624C15.7377 4.04163 15.6338 4.08329 15.5298 4.10413C15.4051 4.14579 15.2596 4.16663 15.1348 4.20829C15.114 4.20829 15.114 4.20829 15.0932 4.20829C13.243 4.58329 11.3303 4.22913 9.7503 3.20829C9.70872 3.18746 9.68793 3.16663 9.64635 3.16663C9.62556 3.16663 9.60477 3.14579 9.60477 3.14579C9.58398 3.14579 9.56319 3.12496 9.54241 3.12496C9.50083 3.12496 9.48004 3.10413 9.43846 3.10413C9.41767 3.10413 9.41767 3.10413 9.39688 3.10413C9.3553 3.10413 9.31372 3.10413 9.27214 3.10413C9.25135 3.10413 9.23056 3.10413 9.20977 3.10413C9.16819 3.10413 9.1474 3.10413 9.10582 3.12496C9.08503 3.12496 9.06424 3.14579 9.02267 3.14579C9.00187 3.14579 8.98108 3.16663 8.93951 3.16663C8.91872 3.18746 8.89793 3.18746 8.87714 3.20829C8.85635 3.22913 8.83556 3.22913 8.81477 3.24996C8.79398 3.27079 8.77319 3.29163 8.7524 3.29163C8.73161 3.31246 8.71082 3.33329 8.69003 3.35413C8.66924 3.37496 8.64845 3.39579 8.62766 3.43746C8.60687 3.45829 8.60687 3.45829 8.58608 3.47913C8.56529 3.49996 8.5445 3.54163 8.5445 3.58329C8.5445 3.60413 8.52371 3.62496 8.52371 3.62496C8.52371 3.64579 8.50292 3.68746 8.50292 3.70829C8.50292 3.72913 8.48213 3.74996 8.48213 3.79163C8.48213 3.81246 8.48213 3.83329 8.48213 3.85413C8.48213 3.89579 8.48213 3.91663 8.48213 3.95829C8.56529 5.85413 7.92081 7.68746 6.67344 9.10413L6.65265 9.12496C6.56949 9.20829 6.48633 9.31246 6.38238 9.41663C6.27844 9.52079 6.17449 9.60413 6.09133 9.68746L6.07054 9.70829C4.65685 10.9583 2.82736 11.6041 0.935504 11.5208C0.62366 11.5 0.332605 11.6666 0.187078 11.9375C0.166288 11.9791 0.145499 12.0208 0.124709 12.0625C0.124709 12.0833 0.124709 12.0833 0.103919 12.1041C0.0831299 12.1458 0.0831299 12.1666 0.0831299 12.2083C0.0831299 12.2291 0.0831299 12.25 0.0831299 12.2708C0.0831299 12.2916 0.0831299 12.2916 0.0831299 12.3125C0.0831299 12.3333 0.0831299 12.3333 0.0831299 12.3541C0.0831299 12.3958 0.0831299 12.4166 0.0831299 12.4583C0.0831299 12.4791 0.0831299 12.5 0.0831299 12.5208C0.0831299 12.5625 0.10392 12.6041 0.124709 12.6458V12.6666C0.166288 12.7916 0.228657 12.8958 0.332605 13C1.66314 14.2708 2.51552 16.0208 2.61946 17.9166C2.61946 17.9375 2.61946 17.9375 2.61946 17.9583C2.61946 18.0833 2.64025 18.2291 2.64025 18.3541V24.8541C2.64025 31.1458 8.06634 36.4166 15.3219 37.1875C15.3843 37.2083 15.4674 37.2291 15.5298 37.2291C15.5506 37.2291 15.5922 37.2291 15.613 37.2291C15.8001 37.25 16.008 37.25 16.2159 37.2708C17.7959 37.4583 19.2096 38.3333 20.1035 39.6458C20.1243 39.6875 20.1659 39.7083 20.1867 39.75C20.1867 39.75 20.1867 39.75 20.2075 39.7708C20.2075 39.7708 20.2075 39.7708 20.2283 39.7916C20.2698 39.8333 20.2906 39.8541 20.3322 39.875C20.353 39.8958 20.3946 39.9166 20.4362 39.9375C20.4362 39.9375 20.457 39.9375 20.457 39.9583C20.457 39.9583 20.4777 39.9583 20.4777 39.9791C20.4985 39.9791 20.5193 40 20.5193 40C20.5401 40 20.5401 40 20.5609 40.0208C20.5817 40.0208 20.5817 40.0208 20.6025 40.0416H20.6233C20.6441 40.0416 20.6441 40.0416 20.6649 40.0416C20.7064 40.0416 20.7272 40.0416 20.7688 40.0416C20.8104 40.0416 20.8312 40.0416 20.8727 40.0416C20.8935 40.0416 20.8935 40.0416 20.9143 40.0416H20.9351C20.9559 40.0416 20.9559 40.0416 20.9767 40.0208C20.9975 40.0208 20.9975 40.0208 21.0183 40C21.0391 40 21.0599 39.9791 21.0599 39.9791C21.0599 39.9791 21.0806 39.9791 21.0806 39.9583C21.0806 39.9583 21.1014 39.9583 21.1014 39.9375C21.143 39.9166 21.1638 39.8958 21.2054 39.875C21.247 39.8541 21.2885 39.8125 21.3093 39.7916C21.3093 39.7916 21.3301 39.7916 21.3301 39.7708C21.3301 39.7708 21.3301 39.7708 21.3509 39.75C21.3717 39.7291 21.4133 39.6875 21.4341 39.6458C22.328 38.3333 23.7417 37.4583 25.3217 37.2708C25.5296 37.25 25.7167 37.25 25.9246 37.2291C25.9454 37.2291 25.9662 37.2291 26.0078 37.2291C26.0909 37.2291 26.1533 37.2083 26.2157 37.1875C33.4713 36.4166 38.8973 31.1458 38.8973 24.8541V18.3541C38.8973 18.2291 38.8973 18.1041 38.9181 17.9583C38.9181 17.9375 38.9181 17.9166 38.9181 17.9166C39.0221 16.0208 39.8537 14.2708 41.2674 13C41.3713 12.9166 41.4337 12.7916 41.4753 12.6666C41.496 12.6666 41.496 12.6458 41.5168 12.6458ZM16.3822 35.6041C16.3614 35.6041 16.3406 35.6041 16.3198 35.6041C16.1327 35.5833 15.9456 35.5833 15.7585 35.5625C15.7377 35.5625 15.7377 35.5625 15.7169 35.5625C9.18898 34.9583 4.28263 30.375 4.28263 24.8541V20.8333H19.9372V37.0833C18.9185 36.2916 17.6919 35.7708 16.3822 35.6041ZM25.8207 35.5625C25.7999 35.5625 25.7999 35.5625 25.7791 35.5625C25.592 35.5833 25.4049 35.5833 25.2178 35.6041C25.197 35.6041 25.1762 35.6041 25.1762 35.6041C23.8664 35.75 22.6399 36.2708 21.6004 37.0833V20.8333H37.255V24.8541C37.255 30.375 32.3486 34.9583 25.8207 35.5625ZM37.2758 17.8541C37.255 18.0416 37.255 18.2083 37.255 18.3541V19.1666H4.28263V18.3541C4.28263 18.2083 4.28263 18.0416 4.26184 17.8541V17.8333C4.15789 16.1041 3.57579 14.4583 2.57788 13.0833C4.26184 12.8125 5.82106 12.0833 7.11002 10.9375C7.11002 10.9375 7.11002 10.9375 7.13081 10.9166C7.23476 10.8125 7.3595 10.7083 7.48423 10.5833C7.60897 10.4583 7.71292 10.3333 7.81687 10.2291C7.81687 10.2291 7.81687 10.2291 7.83766 10.2083C9.08503 8.81246 9.83346 7.08329 10.0414 5.27079C11.164 5.77079 12.3698 6.02079 13.5964 6.02079C14.1785 6.02079 14.7814 5.95829 15.3635 5.83329C15.3843 5.83329 15.4051 5.83329 15.4259 5.81246C15.5922 5.77079 15.7377 5.72913 15.904 5.70829C16.0288 5.66663 16.1743 5.62496 16.3198 5.58329C16.3614 5.58329 16.403 5.56246 16.4446 5.54163C18.1909 4.95829 19.7085 3.85413 20.7688 2.37496C21.8499 3.85413 23.3467 4.95829 25.1138 5.54163C25.1554 5.56246 25.197 5.56246 25.2386 5.58329C25.3841 5.62496 25.5296 5.66663 25.6544 5.70829C25.8207 5.74996 25.9662 5.79163 26.1325 5.83329C26.1533 5.83329 26.1741 5.83329 26.1949 5.85413C26.777 5.97913 27.3799 6.04163 27.962 6.04163C29.1886 6.04163 30.3944 5.79163 31.517 5.29163C31.7249 7.12496 32.4734 8.85413 33.7207 10.2291C33.7207 10.2291 33.7207 10.2291 33.7415 10.25C33.8455 10.375 33.9494 10.4791 34.0742 10.6041C34.1989 10.7291 34.3236 10.8333 34.4276 10.9375C34.4276 10.9375 34.4276 10.9375 34.4484 10.9583C35.7373 12.1041 37.2965 12.8541 38.9805 13.1041C37.9618 14.4791 37.3797 16.125 37.2758 17.8541Z" fill="#7A3CDF"/>
<path d="M20.8104 25.0833C23.6578 25.0833 25.9662 22.7701 25.9662 19.9167C25.9662 17.0632 23.6578 14.75 20.8104 14.75C17.9629 14.75 15.6545 17.0632 15.6545 19.9167C15.6545 22.7701 17.9629 25.0833 20.8104 25.0833Z" fill="#F5BA47"/>
<path opacity="0.9" d="M23.8873 8.85421C23.8457 8.72921 23.7417 8.64587 23.5962 8.62504L21.8083 8.45837L21.1015 6.79171C21.0391 6.66671 20.9351 6.58337 20.7896 6.58337C20.6649 6.58337 20.5401 6.66671 20.4778 6.79171L19.7709 8.45837L17.983 8.62504C17.8583 8.64587 17.7335 8.72921 17.692 8.85421C17.6504 8.97921 17.692 9.12504 17.7959 9.20837L19.1472 10.3959L18.7522 12.1667C18.7314 12.2917 18.773 12.4375 18.877 12.5C18.9393 12.5417 19.0017 12.5625 19.0641 12.5625C19.1264 12.5625 19.1888 12.5417 19.2304 12.5209L20.7688 11.6042L22.3073 12.5209C22.4112 12.5834 22.5567 12.5834 22.6607 12.5C22.7646 12.4167 22.827 12.2917 22.7854 12.1667L22.3904 10.3959L23.7417 9.20837C23.8873 9.12504 23.9288 8.97921 23.8873 8.85421Z" fill="#F5BA47"/>
<path opacity="0.9" d="M13.2846 14.0417C13.243 13.9167 13.1391 13.8334 12.9935 13.8125L11.2056 13.6459L10.4988 11.9792C10.4364 11.8542 10.3325 11.7709 10.187 11.7709C10.0622 11.7709 9.93748 11.8542 9.87511 11.9792L9.16826 13.6459L7.38035 13.8125C7.25561 13.8334 7.13088 13.9167 7.0893 14.0417C7.04772 14.1667 7.0893 14.3125 7.19325 14.3959L8.54457 15.5834L8.14957 17.3542C8.12878 17.4792 8.17036 17.625 8.27431 17.6875C8.33667 17.7292 8.39904 17.75 8.46141 17.75C8.52378 17.75 8.58615 17.7292 8.62773 17.7084L10.1662 16.7917L11.7046 17.7084C11.8085 17.7709 11.9541 17.7709 12.058 17.6875C12.162 17.6042 12.2243 17.4792 12.1828 17.3542L11.7878 15.5834L13.1391 14.3959C13.2846 14.2917 13.3262 14.1667 13.2846 14.0417Z" fill="#F5BA47"/>
<path d="M34.1989 14.0417C34.1573 13.9167 34.0534 13.8334 33.9079 13.8125L32.1199 13.6459L31.4131 11.9792C31.3507 11.8542 31.2468 11.7709 31.1013 11.7709C30.9765 11.7709 30.8518 11.8542 30.7894 11.9792L30.0826 13.6459L28.2947 13.8125C28.1699 13.8334 28.0452 13.9167 28.0036 14.0417C27.962 14.1667 28.0036 14.3125 28.1076 14.3959L29.4589 15.5834L29.0639 17.3542C29.0431 17.4792 29.0847 17.625 29.1886 17.6875C29.251 17.7292 29.3133 17.75 29.3757 17.75C29.4381 17.75 29.5005 17.7292 29.542 17.7084L31.0805 16.7917L32.6189 17.7084C32.7228 17.7709 32.8684 17.7709 32.9723 17.6875C33.0763 17.6042 33.1386 17.4792 33.0971 17.3542L32.7021 15.5834L34.0534 14.3959C34.2197 14.2917 34.2405 14.1667 34.1989 14.0417Z" fill="#F5BA47"/>
</g>
<defs>
<clipPath id="clip0">
<rect width="41.5584" height="40" fill="white"/>
</clipPath>
</defs>
</svg>
