<svg width="41" height="40" viewBox="0 0 41 40" fill="none" xmlns="http://www.w3.org/2000/svg">
<g clip-path="url(#clip0)">
<path d="M35.9843 9.04995H30.9305V6.79726C30.9305 3.05583 27.8746 0 24.1332 0H16.572C12.8306 0 9.77473 3.05583 9.77473 6.79726V9.04995H4.72086C2.11557 9.04995 0 11.1459 0 13.7512V35.2791C0 37.8844 2.11557 40 4.72086 40H36.0039C38.6092 40 40.7248 37.8844 40.7248 35.2791V13.7512C40.7052 11.1459 38.5896 9.04995 35.9843 9.04995ZM11.3418 6.79726C11.3418 3.91773 13.6925 1.56709 16.572 1.56709H24.1332C27.0127 1.56709 29.3634 3.91773 29.3634 6.79726V9.04995H11.3418V6.79726ZM5.75906 38.4329H4.72086C2.97747 38.4329 1.56709 37.0225 1.56709 35.2791V13.7512C1.56709 12.0078 2.97747 10.5975 4.72086 10.5975H5.75906V38.4329ZM33.3007 38.4329H7.32615V10.617H9.77473H30.9305H33.3007V38.4329ZM39.1381 35.2791C39.1381 37.0225 37.7277 38.4329 35.9843 38.4329H34.8678V10.617H36.0039C37.7473 10.617 39.1577 12.0274 39.1577 13.7708V35.2791H39.1381Z" fill="#7A3CDF"/>
<path d="M27.6591 20.5876H24.2507V17.7081C24.2507 17.14 23.7806 16.6699 23.2125 16.6699H17.4926C16.9246 16.6699 16.4544 17.14 16.4544 17.7081V20.5681H13.046C12.4779 20.5681 12.0078 21.0382 12.0078 21.6063V27.3457C12.0078 27.9138 12.4779 28.3839 13.046 28.3839H16.4544V31.2439C16.4544 31.8119 16.9246 32.2821 17.4926 32.2821H23.2321C23.8002 32.2821 24.2703 31.8119 24.2703 31.2439V28.3839H27.6787C28.2468 28.3839 28.7169 27.9138 28.7169 27.3457V21.6063C28.6777 21.0382 28.2272 20.5876 27.6591 20.5876Z" fill="#F5BE53"/>
</g>
<defs>
<clipPath id="clip0">
<rect width="40.7052" height="40" fill="white"/>
</clipPath>
</defs>
</svg>
