<svg width="34" height="40" viewBox="0 0 34 40" fill="none" xmlns="http://www.w3.org/2000/svg">
<path d="M16.9764 4.58055V19.0657C16.9764 19.5077 16.6148 19.8693 16.1728 19.8693H5.08289C4.72126 19.8693 4.39981 19.6283 4.31945 19.2867C3.5962 16.6951 3.21448 14.0029 3.21448 11.2907C3.21448 10.6077 3.23457 9.92459 3.29484 9.24152C3.31493 8.94016 3.51583 8.6589 3.7971 8.55845L15.8915 3.8372C16.4139 3.61621 16.9764 4.01801 16.9764 4.58055Z" fill="#F5BE53"/>
<path d="M28.3677 19.8694C28.9101 19.8694 29.312 20.4118 29.1311 20.9342C28.4682 22.8629 27.5842 24.7313 26.5194 26.4992C24.4099 29.9949 21.5771 33.0688 18.2421 35.4796C17.7198 35.8613 16.9764 35.4796 16.9764 34.8166V20.673C16.9764 20.231 17.3381 19.8694 17.7801 19.8694H28.3677Z" fill="#F5BE53"/>
<path d="M33.1693 6.24807L17.2978 0.0401296C17.117 -0.040232 16.896 -0.040232 16.7152 0.0401296L0.803616 6.26816C0.542441 6.36861 0.341537 6.60969 0.301356 6.91105C0.100452 8.33747 0 9.80407 0 11.2908C0 23.4455 6.64992 34.0733 16.5746 39.8794C16.8157 40.02 17.1371 40.02 17.3782 39.8794C27.3029 34.0733 33.9528 23.4455 33.9528 11.2908C33.9528 9.80407 33.8523 8.33747 33.6514 6.89096C33.6313 6.60969 33.4505 6.36861 33.1693 6.24807ZM31.7227 17.5791C31.5821 18.2621 31.4214 18.9452 31.2205 19.6283C31.12 19.9698 31.0196 20.3113 30.9191 20.6328C30.1758 22.9633 29.1713 25.2335 27.9056 27.343C27.0618 28.7292 26.1175 30.0552 25.0929 31.3008C22.9232 33.9126 20.3114 36.1828 17.4184 37.9909C17.1572 38.1516 16.8358 38.1516 16.5746 37.9909C13.3802 36.002 10.5676 33.4706 8.27725 30.5374C7.47363 29.5128 6.75038 28.448 6.0673 27.343C4.98242 25.5349 4.07835 23.6062 3.37519 21.6373C2.20994 18.3224 1.60723 14.8267 1.60723 11.2908C1.60723 10.226 1.6675 9.14108 1.76796 8.07629C1.80814 7.77494 1.98895 7.53385 2.27022 7.41331L16.7152 1.788C16.896 1.70763 17.117 1.70763 17.2978 1.788L31.6826 7.41331C31.9638 7.51376 32.1647 7.77494 32.1848 8.07629C32.2853 9.14108 32.3456 10.226 32.3456 11.3108C32.3656 13.4203 32.1446 15.5097 31.7227 17.5791Z" fill="#7A3CDF"/>
</svg>
