<svg width="41" height="40" viewBox="0 0 41 40" fill="none" xmlns="http://www.w3.org/2000/svg">
<g clip-path="url(#clip0)">
<path opacity="0.8" d="M20.1303 12.0901C22.8987 12.0901 25.1429 9.84594 25.1429 7.07759C25.1429 4.30925 22.8987 2.06506 20.1303 2.06506C17.362 2.06506 15.1178 4.30925 15.1178 7.07759C15.1178 9.84594 17.362 12.0901 20.1303 12.0901Z" fill="#F1A81E"/>
<path d="M38.8371 17.1829C38.5363 16.8821 38.0551 16.8621 37.7343 17.1428L26.1052 27.2681L18.0451 25.6841L24.7418 21.9749C24.9624 21.8546 25.1027 21.6541 25.1428 21.4135C25.1829 21.1729 25.1027 20.9323 24.9423 20.7518C24.8621 20.6716 23.198 18.827 20.3509 18.827C18.2456 18.827 10.5664 22.1353 9.70424 22.5162C9.64409 22.5363 9.60399 22.5764 9.54384 22.6165L0.320782 29.634C-0.0401198 29.9147 -0.10027 30.416 0.180432 30.7568C0.441083 31.1177 0.942336 31.1779 1.30324 30.9172L10.4461 23.9598C13.6341 22.5764 19.0476 20.431 20.3709 20.431C21.4737 20.431 22.3358 20.7919 22.9173 21.1528L15.3383 25.3433C15.0376 25.5037 14.8772 25.8245 14.9373 26.1654C14.9975 26.5062 15.2581 26.7669 15.5789 26.827L26.1854 28.9122C26.426 28.9523 26.6867 28.8922 26.8671 28.7318L38.1554 18.8872C38.396 19.3082 38.5163 19.7894 38.4962 20.2907C38.4762 21.0325 38.1353 21.7343 37.5338 22.2556C37.5138 22.2756 37.5138 22.2756 37.4937 22.2957L27.6291 32.1603H10.4461C10.2456 32.1603 10.0451 32.2405 9.88469 32.4009L3.66915 38.6165C3.34835 38.9373 3.34835 39.4385 3.66915 39.7593C3.82955 39.9197 4.03006 39.9999 4.23056 39.9999C4.43106 39.9999 4.63156 39.9197 4.79196 39.7593L10.7669 33.7844H27.9699C28.1704 33.7844 28.3709 33.7042 28.5313 33.5438L38.6165 23.4586C39.5388 22.6365 40.0601 21.5338 40.1002 20.3508C40.1403 19.1679 39.6792 18.025 38.8371 17.1829Z" fill="#7A3CDF"/>
<path d="M5.85462 17.1028H28.1905C28.6316 17.1028 28.9925 16.7419 28.9925 16.3008V13.995H31.2982C31.7393 13.995 32.1002 13.6341 32.1002 13.193V0.802005C32.1002 0.360902 31.7393 0 31.2982 0H8.96239C8.52128 0 8.16038 0.360902 8.16038 0.802005V3.10777H5.85462C5.41351 3.10777 5.05261 3.46867 5.05261 3.90977V16.3008C5.05261 16.7419 5.41351 17.1028 5.85462 17.1028ZM9.76439 1.60401H30.4962V12.391H9.76439V1.60401ZM6.65662 4.71178H8.16038V13.193C8.16038 13.6341 8.52128 13.995 8.96239 13.995H27.3885V15.4987H6.65662V4.71178Z" fill="#7A3CDF"/>
<path d="M21.9549 4.47119C21.594 4.17044 21.0928 3.98999 20.5113 3.98999H17.8447V5.3133H16.5214V6.61656H17.8447V10.1654H19.1279V7.95992H20.4111C21.0727 7.95992 21.594 7.81957 21.9549 7.49876C22.1955 7.31831 22.3559 6.99751 22.4361 6.61656H23.7595V5.33335H22.4361C22.3359 4.97245 22.1955 4.69174 21.9549 4.47119ZM20.9725 6.63661C20.8121 6.77696 20.5915 6.85716 20.2908 6.85716H19.1279V5.05265H20.2908C20.5715 5.05265 20.8121 5.13285 20.9725 5.2732C21.1329 5.41355 21.2131 5.6341 21.2131 5.9549C21.2131 6.25566 21.1128 6.49626 20.9725 6.63661Z" fill="#7A3CDF"/>
</g>
<defs>
<clipPath id="clip0">
<rect width="40.1003" height="40" fill="white"/>
</clipPath>
</defs>
</svg>
