<svg width="40" height="40" viewBox="0 0 40 40" fill="none" xmlns="http://www.w3.org/2000/svg">
<g clip-path="url(#clip0)">
<path opacity="0.9" d="M24.6509 38.3927H14.6057V26.5996C14.6057 26.3585 14.7865 26.1777 15.0276 26.1777H24.229C24.4701 26.1777 24.6509 26.3585 24.6509 26.5996V38.3927Z" fill="#F2A819"/>
<path d="M38.895 20.0502L19.789 0.120542C19.6283 -0.0401808 19.3671 -0.0401808 19.2064 0.120542L0.120535 20.0502C-0.12055 20.3114 0.0602636 20.7333 0.401801 20.7333H5.56503V39.5982C5.56503 39.8192 5.74585 40 5.96684 40H33.1291C33.3501 40 33.5309 39.8192 33.5309 39.5982V20.7333H38.6138C38.9754 20.7333 39.1562 20.2913 38.895 20.0502ZM31.9236 37.991C31.9236 38.212 31.7428 38.3928 31.5218 38.3928H7.57408C7.35308 38.3928 7.17227 38.212 7.17227 37.991V20.6128L19.5078 7.7549L31.8433 20.6128C31.8634 20.6328 31.9036 20.6529 31.9437 20.673V37.991H31.9236ZM32.6469 19.1261L19.789 5.72577C19.6283 5.56504 19.3671 5.56504 19.2064 5.72577L6.34856 19.1261H3.23455L19.5078 2.14967L35.781 19.1261H32.6469Z" fill="#7A3CDF"/>
<path d="M18.7042 20.5927H14.6057V24.7715H18.7042V20.5927Z" fill="#7A3CDF"/>
<path d="M18.7041 14.887V18.9854H14.686C15.0276 16.9161 16.6549 15.2687 18.7041 14.887Z" fill="#7A3CDF"/>
<path d="M24.5906 18.9855H20.3314V14.8469C21.4364 14.9876 22.4409 15.5099 23.2043 16.2733C23.9075 16.9966 24.4098 17.9408 24.5906 18.9855Z" fill="#7A3CDF"/>
<path d="M24.6509 20.5927H20.3114V24.7715H24.6509V20.5927Z" fill="#7A3CDF"/>
</g>
<defs>
<clipPath id="clip0">
<rect width="39.0156" height="40" fill="white"/>
</clipPath>
</defs>
</svg>
