<svg width="51" height="40" viewBox="0 0 51 40" fill="none" xmlns="http://www.w3.org/2000/svg">
<path d="M25.1127 23.0263L0.28336 12.2343C-0.0772323 12.0798 -0.102989 11.5647 0.28336 11.3844L25.0097 0.0514523C25.1385 -6.09169e-05 25.2673 -6.09169e-05 25.396 0.0514523L50.1481 11.4101C50.5087 11.5647 50.5087 12.1055 50.1481 12.2601L25.4991 23.0263C25.3703 23.0779 25.2415 23.0779 25.1127 23.0263ZM4.37866 11.7707L25.293 20.8628L46.0528 11.7707L25.2157 2.21501L4.37866 11.7707Z" fill="#7A3CDF"/>
<path d="M25.2158 33.0971C18.107 33.0971 10.7406 31.2942 10.4315 27.8685V27.817C10.4315 27.7655 10.4315 27.6882 10.4315 27.6367V15.0933H12.0542L25.2931 20.8627L38.4547 15.0933H40.0001V27.9201C39.6137 31.3199 32.2731 33.0971 25.2158 33.0971ZM12.4663 27.6882C12.6208 28.873 17.1025 31.0366 25.2158 31.0366C33.3034 31.0366 37.7593 28.8988 37.9653 27.714V17.5917L25.3188 23.1036L12.4663 17.5401V27.6367C12.4663 27.6625 12.4663 27.6625 12.4663 27.6882Z" fill="#7A3CDF"/>
<path d="M45.512 36.0849C46.4392 35.4152 47.0573 34.3335 47.0573 33.0971C47.0573 31.4487 45.9498 30.0579 44.4559 29.5942V14.1403C44.4559 13.6252 44.0696 13.1873 43.5802 13.11L25.3703 10.5086C24.8036 10.4313 24.2885 10.8177 24.2112 11.3843C24.134 11.951 24.5203 12.4661 25.087 12.5434L42.4212 15.016V29.5427C40.9015 29.9806 39.7682 31.3972 39.7682 33.0714C39.7682 34.3077 40.3864 35.3895 41.3136 36.0592L38.841 38.5318L40.3091 39.9999L43.4257 36.8834L46.5422 39.9999L48.0103 38.5318L45.512 36.0849Z" fill="#F2A819" fill-opacity="0.8"/>
</svg>
