<svg width="40" height="36" viewBox="0 0 40 36" fill="none" xmlns="http://www.w3.org/2000/svg">
<g clip-path="url(#clip0)">
<path d="M36.2526 0H24.7789C22.7368 0 21.0526 1.68421 21.0526 3.74737V8.18947C21.0526 10.2526 22.7368 11.9368 24.8 11.9368H27.221V14.8632L32.3579 11.9368H36.2526C38.3158 11.9368 40 10.2526 40 8.18947V3.74737C40 1.68421 38.3158 0 36.2526 0Z" fill="#F5BE53"/>
<path d="M36.5053 5.09473H24.5684C24.1053 5.09473 23.7263 4.71579 23.7263 4.25263C23.7263 3.78947 24.1053 3.41052 24.5684 3.41052H36.5053C36.9684 3.41052 37.3474 3.78947 37.3474 4.25263C37.3474 4.71579 36.9684 5.09473 36.5053 5.09473Z" fill="#7A3CDF"/>
<path d="M30.5263 8.48414H24.5473C24.0841 8.48414 23.7052 8.10519 23.7052 7.64203C23.7052 7.17887 24.0841 6.79993 24.5473 6.79993H30.5263C30.9894 6.79993 31.3684 7.17887 31.3684 7.64203C31.3684 8.10519 30.9894 8.48414 30.5263 8.48414Z" fill="#7A3CDF"/>
<path d="M34.9473 27.2C33.3684 25.6211 31.7894 24.0421 30.2105 22.4842C29.5579 21.8526 28.8421 21.5158 28.1052 21.5158C27.3684 21.5158 26.6526 21.8316 26 22.4842C25.5158 22.9684 25.0315 23.4316 24.5684 23.9158C24.1684 24.3158 23.7684 24.7158 23.3894 25.1158L23.0736 25.4316C22.9052 25.6 22.7579 25.6842 22.6105 25.6842C22.5052 25.6842 22.4 25.6421 22.2736 25.5789C21.6421 25.2211 20.9684 24.9474 20.3368 24.5684C17.4947 22.7789 15.0947 20.4632 12.9684 17.8737C11.9158 16.5895 10.9894 15.2 10.3368 13.6421C10.2105 13.3263 10.2315 13.1158 10.4842 12.8632C10.5894 12.7579 10.6947 12.6526 10.821 12.5474C11.221 12.1474 11.621 11.7684 12.021 11.3684C12.4842 10.9053 12.9473 10.4421 13.4105 9.97895C14.7579 8.63158 14.7579 7.03158 13.4105 5.66316C12.6315 4.88421 11.8736 4.12632 11.0947 3.34737C10.2736 2.52632 9.4947 1.72632 8.6947 0.947368C8.04207 0.315789 7.32628 0 6.58944 0C5.8526 0 5.13681 0.315789 4.48417 0.947368C3.99996 1.43158 3.53681 1.89474 3.0526 2.37895C2.6526 2.77895 2.2526 3.17895 1.8526 3.55789C1.74733 3.66316 1.64207 3.76842 1.53681 3.87368C0.61049 4.75789 0.126279 5.83158 0.0420689 7.09474C-0.126352 9.1579 0.378911 11.0947 1.0947 12.9895C2.54733 16.9053 4.75786 20.4 7.4526 23.5789C11.0736 27.8947 15.4105 31.3053 20.4842 33.7684C22.7579 34.8842 25.1368 35.7263 27.7052 35.8737C27.8526 35.8737 28.021 35.8947 28.1684 35.8947C29.7473 35.8947 31.1158 35.4105 32.2526 34.1474C32.2947 34.1053 32.3158 34.0632 32.3579 34.0421C32.7368 33.6211 33.1368 33.2211 33.5368 32.8421C34 32.3789 34.4842 31.9368 34.9473 31.4526C36.2526 30.1263 36.2526 28.5053 34.9473 27.2ZM4.50523 3.32632C4.88417 2.94737 5.28417 2.54737 5.66312 2.16842C5.87365 1.95789 6.21049 1.70526 6.58944 1.70526C6.96838 1.70526 7.30523 1.95789 7.51575 2.16842C8.04207 2.69474 8.56839 3.22105 9.0947 3.74737C9.36839 4.02105 9.62102 4.27368 9.8947 4.54737C10.2736 4.94737 10.6736 5.32632 11.0526 5.70526C11.4315 6.08421 11.8105 6.46316 12.2105 6.86316C12.9052 7.57895 12.9052 8.10526 12.2105 8.8L11.7894 9.22105C11.4736 9.53684 11.1579 9.87368 10.821 10.1895L4.2526 3.57895C4.33681 3.49474 4.42102 3.41053 4.50523 3.32632ZM30.9684 33.0526C30.2315 33.8737 29.3684 34.2316 28.1473 34.2316C28.021 34.2316 27.8947 34.2316 27.7684 34.2105C25.7473 34.1053 23.7263 33.4947 21.2 32.2737C16.421 29.9579 12.2315 26.6737 8.73681 22.5263C5.93681 19.2 3.95786 15.9158 2.67365 12.4211C1.8947 10.3579 1.59996 8.75789 1.70523 7.26316C1.76838 6.37895 2.08417 5.68421 2.6947 5.11579C2.82102 5.01053 2.92628 4.88421 3.0526 4.77895L9.62102 11.3474C9.51575 11.4526 9.41049 11.5579 9.30523 11.6421L9.28417 11.6632C8.54733 12.4 8.37891 13.3263 8.77891 14.2737C9.43154 15.8105 10.3368 17.2842 11.6631 18.9053C14.1052 21.9158 16.6526 24.2105 19.4315 25.9579C19.8736 26.2316 20.3158 26.4421 20.7368 26.6526C20.9894 26.7789 21.221 26.8842 21.4315 27.0105C21.8105 27.2211 22.1894 27.3263 22.5894 27.3263C23.221 27.3263 23.7684 27.0737 24.2736 26.5684C24.3789 26.4632 24.4631 26.3579 24.5684 26.2737L31.1579 32.8632C31.0947 32.9263 31.0315 32.9895 30.9684 33.0526ZM33.7263 30.2947C33.4315 30.5895 33.1368 30.8842 32.821 31.1789C32.6526 31.3474 32.4842 31.4947 32.3368 31.6632L25.7684 25.0947C26.2526 24.6105 26.7368 24.1474 27.2 23.6632C27.4105 23.4526 27.7473 23.2 28.1052 23.2C28.4631 23.2 28.8 23.4526 29.0315 23.6632C30.5894 25.2 32.1894 26.8 33.7473 28.3789C34.4 29.0526 34.4 29.6 33.7263 30.2947Z" fill="#7A3CDF"/>
</g>
<defs>
<clipPath id="clip0">
<rect width="40" height="35.9158" fill="white"/>
</clipPath>
</defs>
</svg>
