<svg width="38" height="40" viewBox="0 0 38 40" fill="none" xmlns="http://www.w3.org/2000/svg">
<g clip-path="url(#clip0)">
<path opacity="0.9" d="M0 11.3724V9.18539C0 8.07002 0.896665 7.15149 2.0339 7.15149H3.49918V13.4063H2.0339C0.896665 13.4063 0 12.4877 0 11.3724Z" fill="#F1A81E"/>
<path opacity="0.9" d="M37.9006 11.3724V9.18539C37.9006 8.07002 37.0039 7.15149 35.8667 7.15149H34.3795V13.4063H35.8667C36.982 13.4063 37.9006 12.4877 37.9006 11.3724Z" fill="#F1A81E"/>
<path d="M29.5899 0H8.26673C5.13934 0 2.58057 2.55878 2.58057 5.68617V31.4926C2.58057 32.6299 3.21479 33.5921 4.1552 34.0951V37.1132C4.1552 38.7097 5.46739 40.0219 7.06389 40.0219H9.25088C10.8474 40.0219 12.1596 38.7097 12.1596 37.1132V34.4451H25.7408V37.1132C25.7408 38.7097 27.053 40.0219 28.6495 40.0219H30.8364C32.4329 40.0219 33.7451 38.7097 33.7451 37.1132V34.0951C34.6637 33.5921 35.276 32.6299 35.276 31.5145V5.68617C35.276 2.55878 32.7173 0 29.5899 0ZM4.35203 5.68617C4.35203 3.52105 6.12349 1.74959 8.2886 1.74959H29.5899C31.755 1.74959 33.5264 3.52105 33.5264 5.68617V31.4926C33.5264 32.1487 32.9797 32.6955 32.3236 32.6955H5.55487C4.89877 32.6955 4.35203 32.1487 4.35203 31.4926V5.68617ZM10.41 37.1132C10.41 37.7474 9.8851 38.2723 9.25088 38.2723H7.06389C6.42966 38.2723 5.90479 37.7474 5.90479 37.1132V34.62H10.41V37.1132ZM31.9955 37.1132C31.9955 37.7474 31.4707 38.2723 30.8364 38.2723H28.6495C28.0152 38.2723 27.4904 37.7474 27.4904 37.1132V34.62H31.9955V37.1132Z" fill="#6E54A3"/>
<path opacity="0.9" d="M30.8365 7.15149H7.21704V19.2893H30.8365V7.15149Z" fill="#F1A81E"/>
<path d="M13.4717 5.33626H24.4067C24.8878 5.33626 25.2815 4.9426 25.2815 4.46147C25.2815 3.98033 24.8878 3.58667 24.4067 3.58667H13.4717C12.9906 3.58667 12.5969 3.98033 12.5969 4.46147C12.5969 4.9426 12.9906 5.33626 13.4717 5.33626Z" fill="#6E54A3"/>
<path d="M22.3728 26.8999H15.4838C15.0027 26.8999 14.609 27.2936 14.609 27.7747C14.609 28.2558 15.0027 28.6495 15.4838 28.6495H22.3728C22.854 28.6495 23.2476 28.2558 23.2476 27.7747C23.2476 27.2936 22.854 26.8999 22.3728 26.8999Z" fill="#6E54A3"/>
<path d="M9.90701 30.5304C11.4379 30.5304 12.6626 29.2838 12.6626 27.7748C12.6626 26.2439 11.416 25.0192 9.90701 25.0192C8.37612 25.0192 7.15141 26.2657 7.15141 27.7748C7.12954 29.3057 8.37612 30.5304 9.90701 30.5304ZM9.90701 26.7688C10.4756 26.7688 10.913 27.228 10.913 27.7748C10.913 28.3434 10.4538 28.7808 9.90701 28.7808C9.33839 28.7808 8.901 28.3215 8.901 27.7748C8.87913 27.2061 9.33839 26.7688 9.90701 26.7688Z" fill="#6E54A3"/>
<path d="M27.9934 25.0192C26.4625 25.0192 25.2378 26.2657 25.2378 27.7748C25.2378 29.3057 26.4844 30.5304 27.9934 30.5304C29.5243 30.5304 30.749 29.2838 30.749 27.7748C30.749 26.2439 29.5243 25.0192 27.9934 25.0192ZM27.9934 28.7808C27.4248 28.7808 26.9874 28.3215 26.9874 27.7748C26.9874 27.2061 27.4467 26.7688 27.9934 26.7688C28.562 26.7688 28.9994 27.228 28.9994 27.7748C28.9994 28.3434 28.562 28.7808 27.9934 28.7808Z" fill="#6E54A3"/>
</g>
<defs>
<clipPath id="clip0">
<rect width="37.9005" height="40" fill="white"/>
</clipPath>
</defs>
</svg>
