<svg width="43" height="40" viewBox="0 0 43 40" fill="none" xmlns="http://www.w3.org/2000/svg">
<g clip-path="url(#clip0)">
<path d="M29.5106 13.3192V10.8299C29.5106 9.51073 28.4468 8.4469 27.1276 8.4469H16.9787C15.6595 8.4469 14.5957 9.51073 14.5957 10.8299V13.3192H9.40422C5.06379 13.3192 1.53188 16.8512 1.53188 21.1916V23.9575C0.638261 24.3618 0.0212402 25.2767 0.0212402 26.3192C0.0212402 27.766 1.19145 28.9363 2.63826 28.9363H8.08507C9.53188 28.9363 10.7021 27.766 10.7021 26.3192C10.7021 25.2554 10.0638 24.3618 9.17018 23.9363V22.2554C9.17018 21.4469 9.82975 20.8086 10.617 20.8086H14.0851C14.5957 20.8086 15.0638 21.0426 15.3404 21.4469C16.851 23.7022 19.3617 25.0426 22.0638 25.0426C24.7659 25.0426 27.2766 23.7022 28.7872 21.4469C29.0638 21.0426 29.5319 20.8086 30.0425 20.8086H42.5744V13.3192H29.5106ZM8.04252 27.2341H2.61698C2.10635 27.2341 1.70209 26.8299 1.70209 26.3192C1.70209 25.8086 2.10635 25.4043 2.61698 25.4043H8.06379C8.57443 25.4043 8.97869 25.8086 8.97869 26.3192C8.95741 26.8299 8.55315 27.2341 8.04252 27.2341ZM40.8723 19.1278H30.0425C28.9574 19.1278 27.9574 19.6597 27.3617 20.532C26.1702 22.298 24.1702 23.3618 22.0425 23.3618C19.9149 23.3618 17.9149 22.298 16.7234 20.532C16.1276 19.6597 15.1276 19.1278 14.0425 19.1278H10.5744C8.82975 19.1278 7.4255 20.5533 7.4255 22.2767V23.7022H3.21273V21.1916C3.21273 17.7873 5.97869 15.0214 9.38294 15.0214H16.2766V10.8299C16.2766 10.4469 16.5744 10.149 16.9574 10.149H27.1063C27.4893 10.149 27.7872 10.4469 27.7872 10.8299V15.0214H40.851V19.1278H40.8723Z" fill="#7A3CDF"/>
<path d="M30.2978 2.19149L23.8085 2.70213V1.76596C23.8085 0.787234 23.0212 0 22.0425 0C21.0638 0 20.2766 0.787234 20.2766 1.76596V2.68085L13.7872 2.17021C12.8085 2.17021 12.0212 2.95745 12.0212 3.93617V4.29787C12.0212 5.2766 12.8085 6.06383 13.7872 6.06383L20.2766 5.55319V13.4043C20.2766 14.383 21.0638 15.1702 22.0425 15.1702C23.0212 15.1702 23.8085 14.383 23.8085 13.4043V5.57447L30.2978 6.08511C31.2766 6.08511 32.0638 5.29787 32.0638 4.31915V3.95745C32.0638 2.97872 31.2766 2.19149 30.2978 2.19149Z" fill="#F2A819" fill-opacity="0.8"/>
<path d="M6.97873 32.1064C6.14894 30.8085 5.29788 29.7234 5.29788 29.7234L5.06383 29.4255L4.82979 29.7234C4.82979 29.7447 3.97873 30.8085 3.14894 32.1064C2.00001 33.8936 1.42554 35.234 1.42554 36.1064C1.42554 38.2553 3.06384 39.9787 5.08511 39.9787C7.10639 39.9787 8.74469 38.234 8.74469 36.1064C8.68086 35.234 8.10639 33.8936 6.97873 32.1064Z" fill="#F2A819" fill-opacity="0.8"/>
</g>
<defs>
<clipPath id="clip0">
<rect width="42.5745" height="40" fill="white"/>
</clipPath>
</defs>
</svg>
