<svg width="126" height="81" viewBox="0 0 126 81" fill="none" xmlns="http://www.w3.org/2000/svg">
<g clip-path="url(#clip0)">
<path d="M126 80.0845H0V81H126V80.0845Z" fill="#85848B"/>
<path d="M99.8244 63.9188C99.8244 64.6231 95.6959 66.6762 90.792 66.6762C85.888 66.6762 82.0669 64.6231 82.0669 63.9188C82.0669 63.2146 86.0417 63.4414 90.9504 63.4414C95.8592 63.4414 99.8244 63.2134 99.8244 63.9188Z" fill="#504F60"/>
<path opacity="0.2" d="M99.8244 63.9188C99.8244 64.6231 95.6959 66.6762 90.792 66.6762C85.888 66.6762 82.0669 64.6231 82.0669 63.9188" fill="black"/>
<path d="M50.4383 50.9964C51.2342 51.0979 52.0602 51.1623 52.8225 50.9165C52.9425 50.8795 53.0746 50.7971 53.0626 50.6777C53.054 50.6344 53.0355 50.5935 53.0086 50.5584C52.7212 50.1298 52.4798 49.6726 52.2883 49.194C52.2807 49.1691 52.2651 49.1473 52.2439 49.1319C52.219 49.123 52.1918 49.123 52.167 49.1319C51.8153 49.2239 51.5116 49.4495 51.1622 49.5461C50.9841 49.5947 50.7982 49.6085 50.6148 49.5867C50.4563 49.5688 50.2402 49.4387 50.0962 49.4554C50.1778 49.977 50.3771 50.4641 50.4383 50.9964Z" fill="#7A3CDF"/>
<path d="M65.4911 49.675C66.0158 49.3169 66.5596 48.9409 66.8693 48.3882C66.8914 48.3552 66.9043 48.3169 66.9065 48.2772C66.9012 48.2382 66.8859 48.2012 66.8621 48.1698C66.5671 47.7034 66.1872 47.2958 65.742 46.9678C65.5098 47.1309 65.2999 47.3235 65.1178 47.5407C64.9857 47.6792 64.6208 47.8988 64.6172 48.1101C64.6172 48.2295 64.7564 48.3679 64.8213 48.4682C64.9089 48.5971 64.9917 48.7284 65.071 48.8621C65.1166 48.9278 65.5332 49.6487 65.4911 49.675Z" fill="#7A3CDF"/>
<path d="M53.5583 52.5947C53.5677 52.7177 53.5337 52.8401 53.4623 52.9409C53.4062 52.9969 53.3369 53.038 53.2606 53.0603C52.1477 53.4565 50.8596 52.9624 49.7492 53.3527C49.5211 53.4327 49.305 53.5485 49.0757 53.6248C48.8024 53.7066 48.5203 53.7562 48.2354 53.7729C47.8428 53.8099 47.4479 53.8337 47.0541 53.8445C46.7549 53.8655 46.4543 53.8394 46.1633 53.7669C46.0179 53.7299 45.8818 53.6628 45.7642 53.57C45.6465 53.4773 45.5497 53.3609 45.4803 53.2286C45.4199 53.1099 45.4079 52.9727 45.4467 52.8454C45.4641 52.8018 45.4888 52.7614 45.5199 52.726C45.5951 52.6421 45.6835 52.5707 45.7816 52.5148L46.191 52.2522C46.3829 52.1172 46.5915 52.0073 46.8116 51.9251C46.9737 51.8726 47.1453 51.8499 47.3098 51.8057C47.8848 51.6386 48.3242 51.185 48.7324 50.7494L49.2894 50.1585C49.3415 50.0935 49.4075 50.0409 49.4827 50.0045C49.5599 49.9789 49.642 49.9711 49.7228 49.9818C50.2639 50.0202 50.7863 50.1944 51.2414 50.4879C51.3577 50.5747 51.4833 50.6483 51.6159 50.7076C51.9425 50.8341 52.3614 50.7386 52.6628 50.5787C52.8056 50.5023 52.7744 50.4593 52.8344 50.3232C52.8944 50.1871 53.0409 50.1 53.1682 50.2241C53.2065 50.2671 53.2338 50.3187 53.2474 50.3745C53.3674 50.7684 53.3218 51.1922 53.3218 51.6052C53.3183 51.6698 53.3264 51.7345 53.3458 51.7962C53.3765 51.8584 53.413 51.9176 53.4551 51.9728C53.4636 51.9875 53.4712 52.0026 53.4779 52.0182C53.5513 52.2011 53.5789 52.3989 53.5583 52.5947Z" fill="#514E7F"/>
<path d="M53.5583 52.5946C53.5677 52.7176 53.5337 52.84 53.4623 52.9408C53.4062 52.9968 53.3369 53.0379 53.2606 53.0602C52.1477 53.4565 50.8596 52.9623 49.7492 53.3526C49.5211 53.4326 49.305 53.5484 49.0757 53.6248C48.8024 53.7065 48.5203 53.7561 48.2354 53.7728C47.8428 53.8098 47.4479 53.8336 47.0541 53.8444C46.7549 53.8655 46.4543 53.8393 46.1633 53.7668C46.0179 53.7298 45.8818 53.6627 45.7642 53.57C45.6465 53.4772 45.5497 53.3608 45.4803 53.2285C45.4199 53.1098 45.4079 52.9726 45.4467 52.8453C45.4641 52.8017 45.4888 52.7613 45.5199 52.7259C45.5847 52.8608 45.6315 53.0399 45.6723 53.1043C45.7275 53.1999 45.8025 53.2826 45.8923 53.347C45.9822 53.4114 46.0848 53.4561 46.1934 53.4779C46.3558 53.4879 46.5188 53.4672 46.6735 53.4171C47.682 53.1688 48.754 53.1652 49.7228 52.7892C50.0553 52.6591 50.3722 52.486 50.7216 52.4072C51.0709 52.3285 51.4419 52.3499 51.802 52.3201C52.371 52.2747 52.9221 52.1041 53.4827 52.0145C53.5551 52.1989 53.581 52.398 53.5583 52.5946Z" fill="#464353"/>
<path d="M68.0398 49.6022C67.987 50.0223 67.7193 50.384 67.4252 50.6908C67.1311 50.9975 66.7985 51.2733 66.5644 51.6266C66.2763 52.0647 66.1467 52.6078 65.7721 52.9778C65.6284 53.1124 65.4668 53.2268 65.2919 53.318C65.096 53.4329 64.8889 53.5277 64.6737 53.6009C64.1143 53.7788 63.5116 53.7382 62.927 53.6952C62.7372 53.6934 62.5493 53.6574 62.3724 53.589C62.2918 53.5483 62.2147 53.5012 62.1419 53.4481C61.9953 53.3584 61.872 53.2357 61.7817 53.09C61.7374 53.0108 61.725 52.9178 61.7469 52.8298C61.7803 52.7329 61.8377 52.6459 61.9138 52.5767C62.0453 52.4407 62.1866 52.3143 62.3363 52.1984C62.5419 52.0665 62.7271 51.9056 62.8862 51.7209C62.9838 51.5749 63.0556 51.4134 63.0987 51.2434C63.1837 50.9456 63.2356 50.6394 63.2535 50.3303C63.2529 50.1249 63.2742 49.92 63.3171 49.7191C63.406 49.404 63.6413 49.1223 63.6149 48.7965C63.6042 48.7498 63.6084 48.701 63.6269 48.6568C63.6548 48.6223 63.6938 48.5983 63.7373 48.5888C63.9208 48.516 64.1142 48.4714 64.3111 48.4563C64.4099 48.4495 64.509 48.4646 64.6011 48.5005C64.6933 48.5364 64.7763 48.5923 64.8442 48.664C64.9258 48.7618 64.9798 48.9027 65.0999 48.9409C65.1593 48.957 65.2217 48.9595 65.2823 48.948C65.5776 48.9182 65.8898 48.8812 66.1227 48.6914C66.2303 48.5954 66.3168 48.4783 66.3767 48.3474C66.4366 48.2166 66.4687 48.0748 66.4708 47.9311C66.4708 47.8224 66.4216 47.709 66.5908 47.6923C66.7181 47.6756 66.8189 47.8117 66.8838 47.8952C67.1179 48.2068 67.358 48.5327 67.4456 48.9122C67.4797 48.8991 67.5159 48.8922 67.5524 48.8919C67.6273 48.8913 67.7012 48.9086 67.7679 48.9425C67.8346 48.9764 67.8921 49.0258 67.9354 49.0865C68.031 49.2405 68.068 49.4234 68.0398 49.6022Z" fill="#514E7F"/>
<path d="M68.0398 49.6022C67.987 50.0223 67.7193 50.384 67.4252 50.6908C67.1311 50.9975 66.7985 51.2733 66.5644 51.6266C66.2763 52.0647 66.1467 52.6078 65.7721 52.9778C65.6284 53.1124 65.4668 53.2268 65.2919 53.318C65.0961 53.4329 64.8889 53.5277 64.6737 53.6009C64.1143 53.7788 63.5116 53.7382 62.927 53.6952C62.7372 53.6934 62.5493 53.6574 62.3724 53.589C62.2918 53.5483 62.2148 53.5012 62.1419 53.4481C61.9953 53.3584 61.872 53.2357 61.7817 53.09C61.8943 53.0362 62.0171 53.0069 62.1419 53.0041C62.4012 53.0184 62.5909 53.2619 62.8394 53.3371C63.1935 53.4433 63.5464 53.1951 63.9054 53.1103C64.1395 53.0554 64.3856 53.0697 64.6173 52.9909C64.8103 52.9167 64.9888 52.8093 65.1443 52.6734C65.3574 52.5219 65.5471 52.3401 65.7073 52.1339C65.8403 51.9277 65.951 51.708 66.0374 51.4786C66.227 51.0389 66.4501 50.6143 66.7049 50.2085C66.7426 50.1443 66.7881 50.085 66.8406 50.0319C66.897 49.9806 66.9606 49.9447 67.0242 49.8994C67.2643 49.7191 67.364 49.4219 67.448 49.1307C67.4708 49.0422 67.5025 48.9562 67.5428 48.874C67.6177 48.8734 67.6916 48.8907 67.7583 48.9246C67.825 48.9585 67.8825 49.0079 67.9258 49.0686C68.0291 49.2262 68.0697 49.4164 68.0398 49.6022Z" fill="#464353"/>
<path d="M42.8667 12.3865C43.1655 12.6092 43.4114 12.8944 43.587 13.2221C43.755 13.5491 44.7238 16.0868 44.6674 16.4557C44.9831 16.1394 46.228 16.088 46.5474 15.7717C46.6806 15.6392 47.3997 14.9779 47.5078 14.824C47.6158 14.67 48.4177 14.3465 48.5054 14.1842C48.8331 13.6005 46.1812 11.3886 46.521 10.8121C46.5398 10.7856 46.5494 10.7538 46.5486 10.7214C46.5408 10.6942 46.5254 10.6697 46.5041 10.651C46.2869 10.4301 45.9987 10.2929 45.737 10.1293C45.4753 9.9658 45.2232 9.73781 45.1524 9.43701C44.9028 9.55124 44.6737 9.70526 44.4741 9.89299C43.9875 10.3076 43.5093 10.7305 43.0396 11.1618C42.8559 11.3313 42.5005 11.5569 42.4153 11.7992C42.3145 12.0595 42.6914 12.2445 42.8667 12.3865Z" fill="#A1616A"/>
<path d="M47.1599 11.4471C46.753 11.719 46.3728 12.0283 46.0242 12.371C45.6953 12.6945 45.3832 13.0693 45.3039 13.5217C45.2703 13.6996 45.2751 13.8798 45.2475 14.06C45.1275 14.8419 44.448 15.4148 44.1479 16.1465C44.0609 16.3724 43.997 16.6063 43.957 16.8448C43.8727 17.297 43.8265 17.7553 43.8189 18.2151C43.8117 18.6604 44.2511 18.9671 44.412 19.3825C44.5728 19.7979 44.6161 20.2253 44.6977 20.6514C44.8514 21.4559 45.1335 22.2318 45.418 23.0029C46.0098 24.6286 47.9282 29.1227 48.52 30.7497C50.334 30.2973 55.1623 29.2576 56.7685 28.3039C57.304 27.9864 53.053 24.4042 53.6257 24.1571C53.6584 24.1521 53.6895 24.1395 53.7165 24.1204C53.7435 24.1014 53.7657 24.0763 53.7813 24.0473C53.7969 24.0182 53.8055 23.9859 53.8064 23.953C53.8073 23.9201 53.8005 23.8874 53.7865 23.8575C53.2139 21.3676 51.4228 19.3217 50.6101 16.8974C50.3279 16.0558 49.8213 15.3373 49.4372 14.5375C49.089 13.813 48.903 13.012 48.4864 12.3233C48.4079 12.1814 48.3051 12.0542 48.1827 11.9473C48.0788 11.8681 47.9665 11.8004 47.8478 11.7456C47.6101 11.631 47.3892 11.5629 47.1599 11.4471Z" fill="#514E7F"/>
<path d="M42.9627 12.1036C44.5307 12.1036 45.8018 10.8397 45.8018 9.28063C45.8018 7.72154 44.5307 6.45764 42.9627 6.45764C41.3947 6.45764 40.1235 7.72154 40.1235 9.28063C40.1235 10.8397 41.3947 12.1036 42.9627 12.1036Z" fill="#A1616A"/>
<path d="M45.8511 10.6067C45.9926 10.477 46.1703 10.3929 46.3608 10.3656C46.5514 10.3383 46.7457 10.3691 46.9183 10.4539C47.1104 10.553 47.2784 10.7535 47.2352 10.9636L48.6434 10.9851C48.8675 10.979 49.0916 10.9995 49.3109 11.046C49.5315 11.0938 49.7285 11.2166 49.8679 11.3933C49.8847 11.416 49.9039 11.4435 49.9327 11.4471C49.9561 11.4474 49.979 11.4398 49.9975 11.4256C50.2142 11.3175 50.4582 11.276 50.6986 11.3062C51.4597 11.3551 52.1632 11.7335 52.7598 12.2062C52.8674 12.2798 52.9509 12.3831 52.9999 12.5034C53.0492 12.6622 52.9903 12.8615 53.12 12.9749C53.12 14.2879 53.5738 15.515 53.8763 16.7946C53.9303 17.0226 54.15 17.2243 54.3025 17.4034C54.4908 17.6019 54.6446 17.8302 54.7574 18.079C55.0143 18.7427 54.6602 19.5233 54.9099 20.1894C55.0155 20.4711 55.2196 20.7026 55.3901 20.9473C55.6148 21.2299 55.7569 21.5685 55.8007 21.9261C55.8115 22.0861 55.7911 22.2472 55.8007 22.4036C55.8168 22.6187 55.857 22.8313 55.9207 23.0374C56.0232 23.4226 56.1304 23.8073 56.2424 24.1917C56.4249 24.8124 56.6626 25.482 57.222 25.8127C55.8715 26.0406 54.4477 26.2639 53.1608 25.7971C52.9813 25.7363 52.8109 25.6515 52.6542 25.5453C52.1896 25.2158 51.9651 24.6524 51.7646 24.1201C51.5413 23.5232 51.3145 22.9157 51.2688 22.2806C51.2693 22.0787 51.2406 21.8777 51.1836 21.6838C51.0528 21.3377 50.7034 21.1288 50.3865 20.9366C50.0286 20.7416 49.7044 20.491 49.4261 20.1941C49.288 20.0446 49.1823 19.8686 49.1154 19.6768C49.0485 19.485 49.0218 19.2817 49.0372 19.0793C49.0612 18.8823 49.1392 18.6925 49.1464 18.4944C49.1536 18.2962 49.0648 18.0694 48.8739 18.0169C47.8907 17.7209 47.4213 16.563 47.2028 15.5652C47.1085 15.0494 47.0663 14.5256 47.0768 14.0015L47.0636 12.9833C46.9279 12.8606 46.8187 12.7116 46.7428 12.5456C46.6668 12.3796 46.6257 12.2 46.6218 12.0176C46.6348 11.9112 46.6328 11.8036 46.6158 11.6977C46.5683 11.5684 46.491 11.4519 46.3901 11.3575C46.173 11.136 45.9912 10.8828 45.8511 10.6067Z" fill="#464353"/>
<path d="M42.8271 13.8344C42.7947 14.1496 42.8667 14.4731 42.7959 14.7822C42.7683 14.9016 42.7202 15.0209 42.6854 15.1319C42.579 15.5769 42.625 16.0445 42.8163 16.4605C43.0073 16.8724 43.2359 17.266 43.4994 17.6362C43.5885 17.7626 43.6618 17.8993 43.7178 18.0433C43.7633 18.1944 43.7914 18.3502 43.8019 18.5076C43.8714 19.1397 43.9829 19.7665 44.1356 20.384C44.2701 20.9188 45.7971 25.4905 46.1524 25.9142C46.2169 26.008 46.3147 26.0741 46.4261 26.0992C46.5065 26.1022 46.5864 26.0858 46.659 26.0515L47.3793 25.7769C47.4406 25.7583 47.4974 25.7274 47.5462 25.6862C47.6137 25.6078 47.6504 25.5077 47.6494 25.4045C47.7011 24.822 46.1704 20.2181 45.976 19.6678C45.3877 18.0063 44.605 16.4044 44.222 14.6843C44.1152 14.2069 44.0588 13.4716 43.707 13.0908C43.5618 12.9332 43.611 13.0001 43.4369 13.0824C43.349 13.1204 43.2639 13.1647 43.1824 13.2149C43.0805 13.2854 42.9958 13.3775 42.9343 13.4847C42.8728 13.5919 42.8362 13.7114 42.8271 13.8344Z" fill="#464353"/>
<path d="M45.013 16.9868C45.2063 18.0026 45.4056 19.016 45.6037 20.0318L48.4224 19.2977C48.4452 19.0041 48.2879 18.7319 48.1823 18.4622C47.9254 17.8212 47.9194 17.1074 47.7117 16.4485C47.5545 15.9471 47.2807 15.4864 47.1331 14.9815C47.0478 14.6878 47.0046 14.3847 46.9206 14.0874C46.8305 13.7956 46.7198 13.5104 46.5893 13.234C46.431 12.8331 46.2247 12.4528 45.9746 12.1012C45.6145 12.2349 45.2303 12.3901 45.025 12.7135C44.9197 12.8958 44.8597 13.1004 44.8498 13.3104C44.8005 13.9394 45.0298 14.5721 44.9542 15.1975C44.8763 15.7932 44.8962 16.3975 45.013 16.9868Z" fill="#7A3CDF"/>
<path d="M48.4696 30.499C48.6281 31.0958 48.3988 31.7237 48.2115 32.3145C47.9295 33.2045 47.7373 34.1202 47.6377 35.048C47.6254 35.2841 47.5777 35.5171 47.496 35.7391C47.4072 35.9385 47.2559 36.1068 47.1527 36.2966C46.8694 36.7955 46.8766 37.4043 46.9378 37.9748C46.9786 38.3508 47.0398 38.7256 47.1155 39.0957C47.2079 39.5481 47.3219 40.0208 47.1887 40.4624C47.412 40.4135 47.5632 40.7011 47.5488 40.9267C47.5344 41.1523 47.4612 41.4042 47.5704 41.5988C47.8465 41.699 47.8489 42.0762 47.8405 42.3687C47.8451 42.8758 47.9096 43.3805 48.0326 43.8727C48.4504 45.87 48.8938 47.8619 49.3628 49.8481C50.3772 50.1608 51.562 50.4867 52.5296 50.0534C52.7097 49.9734 52.8898 49.8457 52.9306 49.6523C52.9411 49.5481 52.928 49.4429 52.8922 49.3444L52.4336 47.6852C52.3219 47.2841 52.2103 46.8699 52.2691 46.4581C52.3135 46.1514 52.448 45.8207 52.2967 45.5497C52.2451 45.4566 52.1635 45.3838 52.1034 45.2955C51.8633 44.9458 51.9894 44.4778 52.0086 44.0541C52.0161 43.959 52.0096 43.8633 51.9894 43.77C51.9565 43.6611 51.9106 43.5565 51.8525 43.4585C51.4736 42.7269 51.2916 41.9102 51.3243 41.0879C51.3387 40.983 51.3242 40.8761 51.2823 40.7787C51.2532 40.7385 51.2271 40.6962 51.2043 40.6522C51.1864 40.5756 51.1953 40.4952 51.2295 40.4242C51.0919 40.3204 50.9677 40.2001 50.8598 40.0661C50.9263 40.025 50.9826 39.9693 51.0244 39.9033C51.0662 39.8374 51.0924 39.7628 51.1009 39.6853C51.1095 39.6078 51.1002 39.5294 51.0738 39.456C51.0474 39.3826 51.0046 39.3161 50.9486 39.2616C50.9975 39.2518 51.0428 39.2287 51.0794 39.1948C51.1159 39.161 51.1423 39.1177 51.1556 39.0699C51.1689 39.022 51.1686 38.9714 51.1547 38.9237C51.1409 38.876 51.114 38.8331 51.077 38.7997C51.0182 38.7591 50.9402 38.7412 50.8982 38.6803C50.8333 38.592 50.8862 38.469 50.939 38.3747L51.2187 37.8722C51.4276 37.4986 51.4744 37.0366 51.6989 36.6785C52.0206 36.1569 52.2307 35.5756 52.4384 35.0003L53.2463 32.7836L53.7901 33.2528C53.9713 33.3903 54.1231 33.5624 54.2367 33.7589C54.314 33.953 54.3629 34.1572 54.382 34.3652C54.5812 35.5684 55.3423 36.6117 55.6245 37.797C55.6869 38.0608 55.7289 38.3377 55.8814 38.5633C55.9359 38.6326 55.9849 38.706 56.0278 38.7829C56.0675 38.9003 56.0882 39.0232 56.089 39.147C56.1142 39.3894 56.1916 39.6237 56.3159 39.8337C56.4401 40.0438 56.6084 40.2249 56.8093 40.3645C57.077 40.5472 57.4096 40.6725 57.5548 40.9614C57.5839 41.0508 57.6242 41.1362 57.6749 41.2156C57.8045 41.3708 58.0842 41.3887 58.1395 41.5832C58.1707 41.6919 58.113 41.822 58.1743 41.9175C58.2091 41.9617 58.2551 41.9959 58.3075 42.0165L59.089 42.4045C59.963 42.839 60.4096 43.8369 61.0542 44.5638C61.2768 44.8006 61.474 45.0598 61.6425 45.3373C61.921 45.8326 62.0494 46.4545 62.52 46.7697C62.6465 46.8349 62.7616 46.9199 62.8609 47.0215C63.0086 47.2149 62.9546 47.4859 62.9678 47.7294C62.981 47.9729 63.1683 48.2629 63.4012 48.1889C63.3196 48.4838 63.3196 48.7952 63.4012 49.0901C64.4236 49.0379 65.3987 48.6452 66.1695 47.9753C66.3976 47.7771 66.6173 47.524 66.6196 47.2232C66.6232 47.1713 66.6115 47.1195 66.586 47.074C66.5399 47.0153 66.479 46.9696 66.4096 46.9415C65.6785 46.5476 65.4588 45.6345 65.089 44.8932C64.7661 44.2391 64.2883 43.6757 63.8886 43.0682C63.0194 41.7611 62.4264 40.1795 61.1118 39.3165C60.8225 39.1267 60.4864 38.9584 60.3411 38.6445C60.2607 38.469 60.2511 38.2685 60.1875 38.087C60.1239 37.9056 59.9714 37.7289 59.7769 37.7289C59.885 37.4663 59.8633 37.1464 59.8706 36.8624C59.8779 36.7363 59.8633 36.6099 59.8273 36.4887C59.7774 36.3584 59.7125 36.2343 59.6341 36.1187C59.2911 35.5413 59.1196 34.8792 59.1395 34.2089C59.1491 33.8639 59.2103 33.5082 59.1058 33.1787C59.053 33.0128 58.9606 32.8612 58.897 32.7013C58.8011 32.4115 58.7505 32.1087 58.7469 31.8037L58.6749 30.6566C58.664 30.2745 58.6141 29.8946 58.526 29.5226C58.2859 28.6321 58.0458 24.902 57.2235 24.4818C56.4012 24.0616 54.9882 26.9324 54.0626 26.9885C53.6532 27.0054 53.2485 27.0831 52.8621 27.2188C52.2463 27.448 51.7301 27.8754 51.2271 28.2931L49.5248 29.7148C49.1647 30.0096 48.867 30.2913 48.4696 30.499Z" fill="#464353"/>
<path d="M40.2987 6.14609C40.6733 5.6376 41.3167 5.36783 41.9506 5.34515C42.5844 5.32247 43.2087 5.52062 43.7765 5.80113C43.9441 5.89589 44.1233 5.9689 44.3095 6.01837C44.6097 6.07925 44.9434 5.99808 45.2147 6.13773C45.5748 6.32753 45.6445 6.81095 45.6133 7.21202C45.582 7.61309 45.5064 8.05832 45.7213 8.40567C45.7975 8.50473 45.8669 8.60882 45.929 8.71722C46.0214 8.92372 45.9674 9.16245 45.9122 9.38089C45.7717 9.26152 45.6925 9.08128 45.5676 8.94282C45.4428 8.80435 45.2255 8.71125 45.0706 8.8151C44.9158 8.91894 44.9182 9.10754 44.9098 9.27704C44.9014 9.44654 44.8582 9.64946 44.6973 9.70437C44.6301 9.71957 44.5599 9.71439 44.4957 9.68949C44.4315 9.6646 44.3762 9.62113 44.3371 9.56471C44.0622 9.23049 44.1727 8.69693 43.9002 8.36032C43.7453 8.16933 43.4872 8.07623 43.3443 7.87569C43.2315 7.71813 43.2027 7.5176 43.1042 7.3481C43.0058 7.1786 42.7765 7.05446 42.6241 7.17144C42.572 7.22087 42.5286 7.27855 42.4956 7.34213C42.4005 7.47753 42.2623 7.5771 42.1033 7.62475C41.9443 7.6724 41.7737 7.66535 41.6193 7.60473C41.5012 7.53268 41.3735 7.47762 41.2399 7.4412C41.1525 7.43685 41.0655 7.4569 40.989 7.49909C40.9124 7.54127 40.8492 7.60392 40.8065 7.67993C40.7204 7.83181 40.6788 8.00467 40.6865 8.17888C40.6865 8.41761 40.7297 8.67186 40.5928 8.86284C40.5408 8.93474 40.4756 8.99628 40.4008 9.04428C40.2003 9.172 39.9206 9.25794 39.7357 9.11232C39.673 9.05429 39.6264 8.98121 39.6004 8.9001C39.5743 8.819 39.5696 8.73259 39.5868 8.64918C39.6228 8.48304 39.6702 8.31953 39.7285 8.15978C39.8341 7.78975 39.6961 7.37317 39.8113 7.02462C39.932 6.71072 40.0961 6.41505 40.2987 6.14609Z" fill="#464353"/>
<path d="M41.82 14.5674C41.802 14.6544 41.8112 14.7448 41.8464 14.8264C41.8821 14.882 41.9307 14.9282 41.9881 14.9613C42.3918 15.2113 42.851 15.3593 43.3254 15.3922C43.39 15.3933 43.4534 15.4097 43.5103 15.4399C43.6232 15.5139 43.6304 15.6787 43.5883 15.81C43.5323 15.9338 43.5033 16.0681 43.5031 16.2039C43.5379 16.4533 43.8356 16.562 44.0865 16.599C44.4383 16.6431 44.8236 16.6204 45.1021 16.402C45.2908 16.2309 45.4346 16.0166 45.5211 15.7777C46.2102 14.2033 46.4515 12.463 47.149 10.8933C47.2018 10.7908 47.2371 10.6803 47.2534 10.5663C47.2608 10.5092 47.2526 10.4512 47.2298 10.3983C47.207 10.3454 47.1704 10.2995 47.1238 10.2654C46.9941 10.1855 46.7924 10.2308 46.7048 10.1055C46.6616 10.0422 46.6664 9.95629 46.628 9.88945C46.5475 9.74741 46.3362 9.77008 46.1922 9.68772C46.0793 9.62804 46.0013 9.50509 45.8753 9.48122C45.8134 9.47775 45.7515 9.48867 45.6946 9.51312C45.6377 9.53757 45.5874 9.57487 45.5475 9.62207C45.1382 10.0017 44.9233 10.54 44.6952 11.0485C44.3469 11.8279 43.9391 12.5797 43.4755 13.2973C43.5295 13.2138 43.2162 12.5811 43.0937 12.5537C42.8789 12.5107 42.6039 12.8855 42.4875 13.0252C42.1221 13.4657 41.8905 14.0007 41.82 14.5674Z" fill="#7A3CDF"/>
<path opacity="0.1" d="M46.1813 9.79871C46.0951 9.80014 46.0103 9.82083 45.9332 9.85926C45.8561 9.89769 45.7887 9.95288 45.7359 10.0207C45.6075 10.1866 45.5823 10.4063 45.5499 10.6175C45.4406 11.2869 45.2004 11.9285 44.8428 12.5059" fill="black"/>
<path opacity="0.1" d="M46.7934 10.2749C46.6743 10.2775 46.558 10.311 46.4559 10.3719C46.3538 10.4328 46.2695 10.5191 46.2111 10.6223C46.1316 10.81 46.0822 11.009 46.0647 11.2119C45.9617 11.6619 45.7632 12.0847 45.4824 12.4521" fill="black"/>
<path d="M75.3239 33.6108V32.1283C75.3236 31.037 74.8874 29.9904 74.1112 29.2188C73.3349 28.4472 72.2823 28.0138 71.1847 28.0138H12.3023C11.2048 28.0138 10.1521 28.4472 9.37587 29.2188C8.59964 29.9904 8.1634 31.037 8.16309 32.1283V34.8618L75.3239 33.6108Z" fill="#33323D"/>
<path d="M28.6832 26.2759C28.6832 26.2759 28.5151 36.6439 30.3638 40.0554C32.2126 43.4668 33.0049 58.3075 33.0049 58.3075C33.0049 58.3075 52.3855 60.3009 65.8909 55.9202C79.3963 51.5395 108.133 49.7478 108.133 49.7478L103.291 17.2936C103.291 17.2936 79.3662 15.7682 65.7564 22.2222C52.1466 28.6763 28.6832 26.2759 28.6832 26.2759Z" fill="#8DD070"/>
<path opacity="0.1" d="M28.6832 26.2759C28.6832 26.2759 28.5151 36.6439 30.3638 40.0554C32.2126 43.4668 33.0049 58.3075 33.0049 58.3075C33.0049 58.3075 52.3855 60.3009 65.8909 55.9202C79.3963 51.5395 108.133 49.7478 108.133 49.7478L103.291 17.2936C103.291 17.2936 79.3662 15.7682 65.7564 22.2222C52.1466 28.6763 28.6832 26.2759 28.6832 26.2759Z" fill="#25BA96"/>
<path d="M32.9723 30.0633C32.9723 30.0633 32.3661 38.6182 33.8871 41.3517C35.4081 44.0851 35.4789 56.2878 35.4789 56.2878C35.4789 56.2878 52.9207 57.0923 65.3277 52.8931C77.7346 48.6938 103.807 45.9699 103.807 45.9699L100.844 19.429C100.844 19.429 79.2712 19.2082 66.6806 25.1192C54.09 31.0301 32.9723 30.0633 32.9723 30.0633Z" fill="#F5BE53"/>
<path opacity="0.1" d="M66.489 48.0337C68.9707 47.7264 70.4451 43.1869 69.7821 37.8946C69.1191 32.6023 66.5699 28.5612 64.0882 28.8685C61.6065 29.1759 60.1322 33.7153 60.7951 39.0076C61.4581 44.3 64.0073 48.3411 66.489 48.0337Z" fill="black"/>
<path opacity="0.2" d="M90.174 1.48376C90.174 1.48376 66.9315 7.33266 55.9711 17.6279C45.0107 27.9232 21.9375 32.798 21.9375 32.798C21.9375 32.798 24.9771 42.7161 27.7886 45.3994C30.6002 48.0827 35.9327 61.9673 35.9327 61.9673C35.9327 61.9673 54.9927 57.9495 66.4933 49.656C77.9939 41.3625 104.797 30.8882 104.797 30.8882L90.174 1.48376Z" fill="black"/>
<path d="M21.5884 31.3131C21.5884 31.3131 24.6268 41.2323 27.4359 43.9156C30.245 46.599 35.58 60.4823 35.58 60.4823C35.58 60.4823 54.6424 56.4657 66.1442 48.1722C77.646 39.8787 104.447 29.408 104.447 29.408L89.8237 0C89.8237 0 66.5824 5.84889 55.622 16.1441C44.6616 26.4394 21.5884 31.3131 21.5884 31.3131Z" fill="#8DD070"/>
<path opacity="0.1" d="M21.5884 31.3131C21.5884 31.3131 24.6268 41.2323 27.4359 43.9156C30.245 46.599 35.58 60.4823 35.58 60.4823C35.58 60.4823 54.6424 56.4657 66.1442 48.1722C77.646 39.8787 104.447 29.408 104.447 29.408L89.8237 0C89.8237 0 66.5824 5.84889 55.622 16.1441C44.6616 26.4394 21.5884 31.3131 21.5884 31.3131Z" fill="#25BA96"/>
<path d="M26.8354 33.6096C26.8354 33.6096 28.8991 41.9377 31.1908 44.0743C33.4825 46.211 37.3132 57.8013 37.3132 57.8013C37.3132 57.8013 54.1608 53.244 64.6734 45.4614C75.186 37.6788 99.162 27.1424 99.162 27.1424L88.1524 2.77759C88.1524 2.77759 67.5534 9.14811 57.3937 18.6161C47.234 28.0842 26.8354 33.6096 26.8354 33.6096Z" fill="#F5BE53"/>
<path opacity="0.1" d="M64.2851 40.4862C66.5522 39.4364 66.5545 34.6662 64.2902 29.8314C62.0259 24.9967 58.3525 21.9284 56.0854 22.9781C53.8183 24.0278 53.816 28.7981 56.0803 33.6328C58.3446 38.4675 62.018 41.5359 64.2851 40.4862Z" fill="black"/>
<path opacity="0.1" d="M76.9137 35.0659V76.2469C76.9137 76.7146 76.821 77.1777 76.641 77.6098C76.461 78.0419 76.1971 78.4345 75.8644 78.7651C75.5318 79.0958 75.1368 79.358 74.7022 79.5369C74.2676 79.7158 73.8018 79.8078 73.3315 79.8076H11.7468C10.7973 79.8073 9.88674 79.432 9.21543 78.7643C8.54411 78.0966 8.16699 77.1911 8.16699 76.2469V30.9144C9.9317 31.5662 9.9317 31.5662 11.7468 31.5113H73.3315C74.2803 31.5113 75.1903 31.8855 75.8619 32.552C76.5335 33.2184 76.9118 34.1225 76.9137 35.0659Z" fill="black"/>
<path d="M76.9137 35.59V76.7709C76.9134 77.7154 76.5358 78.6211 75.8641 79.2888C75.1923 79.9565 74.2813 80.3316 73.3315 80.3316H11.7468C10.7973 80.3313 9.88674 79.956 9.21543 79.2883C8.54411 78.6206 8.16699 77.7151 8.16699 76.7709V31.4373C9.9317 32.0878 9.9317 32.0878 11.7468 32.0341H73.3315C74.2805 32.0341 75.1907 32.4085 75.8624 33.0752C76.534 33.7419 76.9121 34.6463 76.9137 35.59Z" fill="#7A3CDF"/>
<path opacity="0.1" d="M76.7384 50.8149V63.9845H63.8933C62.1523 63.9612 60.4906 63.2572 59.2678 62.0248C58.045 60.7925 57.3594 59.1309 57.3594 57.3997C57.3594 55.6685 58.045 54.007 59.2678 52.7746C60.4906 51.5423 62.1523 50.8382 63.8933 50.8149H76.7384Z" fill="black"/>
<path d="M76.9137 50.464V63.6359H64.0686C62.3276 63.6126 60.6659 62.9086 59.4431 61.6763C58.2203 60.4439 57.5347 58.7823 57.5347 57.0512C57.5347 55.32 58.2203 53.6584 59.4431 52.426C60.6659 51.1937 62.3276 50.4897 64.0686 50.4664L76.9137 50.464Z" fill="#33323D"/>
<path opacity="0.1" d="M64.6843 59.9678C66.1104 59.9678 67.2665 58.8183 67.2665 57.4003C67.2665 55.9823 66.1104 54.8328 64.6843 54.8328C63.2582 54.8328 62.1021 55.9823 62.1021 57.4003C62.1021 58.8183 63.2582 59.9678 64.6843 59.9678Z" fill="black"/>
<path d="M64.8596 59.6193C66.2857 59.6193 67.4418 58.4698 67.4418 57.0518C67.4418 55.6338 66.2857 54.4843 64.8596 54.4843C63.4335 54.4843 62.2773 55.6338 62.2773 57.0518C62.2773 58.4698 63.4335 59.6193 64.8596 59.6193Z" fill="#F5BE53"/>
<path d="M99.2098 50.3506C99.3119 51.45 98.4751 52.5171 98.7188 53.5938C98.7717 53.8242 98.8713 54.0414 98.9073 54.2742C99.0082 54.914 98.6252 55.5192 98.2591 56.0539L95.1138 60.6423C94.9878 60.844 94.837 61.0293 94.6648 61.1938C94.0646 61.7261 93.1618 61.6712 92.3719 61.83C91.8166 61.9421 91.2923 62.1726 90.8353 62.5056C90.8162 62.5218 90.804 62.5447 90.8013 62.5696C90.7987 62.5944 90.8057 62.6194 90.8209 62.6393C90.9514 62.816 91.1244 62.9575 91.324 63.0507C91.5236 63.1439 91.7436 63.1859 91.9637 63.1728C92.0466 63.2815 91.9637 63.4402 91.8437 63.5178C91.6744 63.6372 91.4427 63.6658 91.4091 63.9499C91.3972 64.0491 91.4173 64.1494 91.4667 64.2364C91.5935 64.4294 91.7906 64.5659 92.0166 64.6172C93.1054 64.9478 94.2819 64.3665 95.097 63.5751C95.9121 62.7837 96.4968 61.7846 97.2963 60.9789C97.7392 60.5337 98.2422 60.1517 98.6984 59.7196C99.6084 58.8578 100.315 57.8098 100.999 56.7605C101.204 56.4442 101.41 56.1196 101.497 55.7531C101.583 55.3867 101.542 55.0166 101.64 54.6621C101.767 54.1966 102.109 53.8266 102.394 53.4362C102.952 52.6723 103.324 51.7377 103.251 50.7971C103.177 49.8565 102.59 48.9266 101.697 48.6067C101.42 48.4962 101.115 48.4777 100.827 48.5542C100.461 48.6664 100.191 48.9672 99.9409 49.2549L99.3407 49.9412C99.191 50.0918 99.0727 50.2703 98.9926 50.4664C98.9541 50.5649 98.945 50.6723 98.9663 50.7758C98.9875 50.8793 99.0383 50.9745 99.1126 51.0501" fill="#FBBEBE"/>
<path opacity="0.05" d="M99.2098 50.3506C99.3119 51.45 98.4751 52.5171 98.7188 53.5938C98.7717 53.8242 98.8713 54.0414 98.9073 54.2742C99.0082 54.914 98.6252 55.5192 98.2591 56.0539L95.1138 60.6423C94.9878 60.844 94.837 61.0293 94.6648 61.1938C94.0646 61.7261 93.1618 61.6712 92.3719 61.83C91.8166 61.9421 91.2923 62.1726 90.8353 62.5056C90.8162 62.5218 90.804 62.5447 90.8013 62.5696C90.7987 62.5944 90.8057 62.6194 90.8209 62.6393C90.9514 62.816 91.1244 62.9575 91.324 63.0507C91.5236 63.1439 91.7436 63.1859 91.9637 63.1728C92.0466 63.2815 91.9637 63.4402 91.8437 63.5178C91.6744 63.6372 91.4427 63.6658 91.4091 63.9499C91.3972 64.0491 91.4173 64.1494 91.4667 64.2364C91.5935 64.4294 91.7906 64.5659 92.0166 64.6172C93.1054 64.9478 94.2819 64.3665 95.097 63.5751C95.9121 62.7837 96.4968 61.7846 97.2963 60.9789C97.7392 60.5337 98.2422 60.1517 98.6984 59.7196C99.6084 58.8578 100.315 57.8098 100.999 56.7605C101.204 56.4442 101.41 56.1196 101.497 55.7531C101.583 55.3867 101.542 55.0166 101.64 54.6621C101.767 54.1966 102.109 53.8266 102.394 53.4362C102.952 52.6723 103.324 51.7377 103.251 50.7971C103.177 49.8565 102.59 48.9266 101.697 48.6067C101.42 48.4962 101.115 48.4777 100.827 48.5542C100.461 48.6664 100.191 48.9672 99.9409 49.2549L99.3407 49.9412C99.191 50.0918 99.0727 50.2703 98.9926 50.4664C98.9541 50.5649 98.945 50.6723 98.9663 50.7758C98.9875 50.8793 99.0383 50.9745 99.1126 51.0501" fill="black"/>
<path d="M101.59 78.6521C100.904 79.0687 100.048 79.0938 99.2495 78.9971C99.121 78.9816 98.9686 78.972 98.8893 79.0711C98.7693 79.2143 98.9109 79.4292 99.0574 79.5402C99.5283 79.8917 100.081 80.1181 100.665 80.1979C101.186 80.2713 101.711 80.306 102.237 80.3017C103.678 80.3268 105.119 80.3507 106.536 80.1454C106.62 80.1391 106.702 80.1155 106.776 80.0762C106.868 80.0123 106.931 79.9163 106.954 79.8076C107.051 79.4399 106.864 79.046 106.581 78.7906C106.297 78.5351 105.934 78.3931 105.578 78.2558L104.33 77.7724C104.037 77.659 103.568 77.3582 103.249 77.3821C102.652 77.4251 102.086 78.3633 101.59 78.6521Z" fill="#3F3D56"/>
<path opacity="0.05" d="M101.59 78.6521C100.904 79.0687 100.048 79.0938 99.2495 78.9971C99.121 78.9816 98.9686 78.972 98.8893 79.0711C98.7693 79.2143 98.9109 79.4292 99.0574 79.5402C99.5283 79.8917 100.081 80.1181 100.665 80.1979C101.186 80.2713 101.711 80.306 102.237 80.3017C103.678 80.3268 105.119 80.3507 106.536 80.1454C106.62 80.1391 106.702 80.1155 106.776 80.0762C106.868 80.0123 106.931 79.9163 106.954 79.8076C107.051 79.4399 106.864 79.046 106.581 78.7906C106.297 78.5351 105.934 78.3931 105.578 78.2558L104.33 77.7724C104.037 77.659 103.568 77.3582 103.249 77.3821C102.652 77.4251 102.086 78.3633 101.59 78.6521Z" fill="black"/>
<path d="M102.466 62.1725C101.946 62.8601 101.408 63.6539 101.537 64.5049C101.606 64.9633 101.865 65.3679 102.054 65.7917C102.311 66.367 102.446 66.9853 102.578 67.6013C102.772 68.5013 102.968 69.4037 103.087 70.318C103.222 71.3505 102.585 74.3382 102.526 75.3779C102.512 75.6286 102.482 75.8995 102.306 76.0798C102.238 76.1514 102.147 76.2087 102.115 76.3018C102.097 76.3915 102.112 76.4848 102.157 76.5644C102.45 77.2209 103.049 77.7103 103.718 77.9896C104.387 78.2689 105.999 78.7512 106.728 78.7762C106.824 78.7868 106.921 78.7741 107.011 78.7392C107.108 78.6805 107.184 78.5933 107.229 78.4898C107.752 77.4966 107.25 73.9658 107.257 72.845C107.264 71.9104 107.486 70.9817 107.446 70.0483C107.412 69.2986 107.205 68.5657 107.137 67.8185C107.017 66.5938 107.243 65.3632 107.47 64.1528C107.642 63.2241 107.817 62.2955 108.039 61.3788C108.174 60.8189 108.332 60.2543 108.639 59.7685C108.879 59.383 109.216 59.0607 109.496 58.6942C110.272 57.6822 110.617 56.4071 110.456 55.1443C110.44 55.025 108.656 55.5943 108.498 55.6624C107.857 55.9325 107.266 56.31 106.753 56.7784C106.34 57.17 106.015 57.6928 105.653 58.1308C105.142 58.7507 104.637 59.375 104.138 60.0037C103.569 60.7223 103.012 61.4452 102.466 62.1725Z" fill="#464353"/>
<path opacity="0.05" d="M102.466 62.1308C101.946 62.8184 101.408 63.6133 101.537 64.4632C101.606 64.9228 101.865 65.3274 102.054 65.7512C102.311 66.3253 102.446 66.9448 102.578 67.5595C102.772 68.4607 102.968 69.3631 103.087 70.2763C103.222 71.31 102.585 74.2965 102.526 75.3362C102.512 75.5868 102.482 75.859 102.306 76.0392C102.238 76.1097 102.147 76.167 102.115 76.2601C102.097 76.3498 102.112 76.4431 102.157 76.5227C102.45 77.1804 103.049 77.6686 103.718 77.9551C104.387 78.2415 105.999 78.491 106.728 78.5149C106.824 78.5254 106.921 78.5127 107.011 78.4779C107.108 78.4198 107.185 78.333 107.229 78.2296C107.752 77.2365 107.25 73.9324 107.257 72.8104C107.264 71.8746 107.486 70.9471 107.446 70.0125C107.412 69.2629 107.205 68.53 107.137 67.7839C107.017 66.5581 107.243 65.3274 107.47 64.117C107.642 63.1896 107.817 62.2609 108.039 61.343C108.174 60.7832 108.332 60.2186 108.639 59.7328C108.879 59.3472 109.216 59.0249 109.496 58.6585C110.273 57.6465 110.618 56.3714 110.456 55.1086C110.44 54.9892 108.656 55.5586 108.498 55.6266C107.857 55.8976 107.267 56.2755 106.753 56.7439C106.34 57.1342 106.015 57.657 105.653 58.0951C105.142 58.715 104.637 59.3397 104.138 59.9691C103.569 60.6821 103.012 61.4027 102.466 62.1308Z" fill="black"/>
<path d="M96.6821 47.0298C98.2912 47.0298 99.5957 45.7328 99.5957 44.1328C99.5957 42.5329 98.2912 41.2358 96.6821 41.2358C95.073 41.2358 93.7686 42.5329 93.7686 44.1328C93.7686 45.7328 95.073 47.0298 96.6821 47.0298Z" fill="#FBBEBE"/>
<path d="M99.3061 44.0111C99.5752 44.438 99.9282 44.8067 100.344 45.095C100.759 45.3833 101.229 45.5855 101.725 45.6894L101.505 46.4831C101.126 47.8463 100.7 49.2882 99.641 50.2336C99.761 49.7716 99.6074 49.2787 99.3457 48.8776C99.084 48.4765 98.7166 48.1614 98.3565 47.8499L96.6794 46.4056C96.631 46.3664 96.5903 46.3186 96.5594 46.2647C96.518 46.1629 96.518 46.049 96.5594 45.9472C96.773 45.2859 97.3829 44.8729 97.8799 44.4265C98.1293 44.1956 98.352 43.9378 98.5438 43.6578C98.8787 43.1827 99.0864 43.6602 99.3061 44.0111Z" fill="#FBBEBE"/>
<path d="M92.844 41.2203L92.7779 40.676C93.2377 40.7954 93.6747 40.4063 93.9688 40.004C94.2629 39.6017 94.5354 39.1279 94.9832 38.9595C95.527 38.7566 96.1033 39.0789 96.6231 39.3511C97.205 39.6722 97.8437 39.8788 98.5042 39.9598C98.6096 39.9633 98.7141 39.9802 98.8152 40.01C99.1537 40.1293 99.3146 40.5519 99.3638 40.935C99.413 41.3182 99.3998 41.7252 99.5667 42.0666C99.6867 42.3256 99.91 42.5178 100.047 42.7733C100.407 43.4584 100.059 44.3954 100.435 45.0675L99.5006 44.2164C99.4154 44.1388 99.2953 44.0576 99.2005 44.1233C99.1261 44.1758 99.1201 44.2892 99.0901 44.3799C99 44.6449 98.6663 44.7237 98.425 44.6186C98.1837 44.5136 98.0072 44.2856 97.8248 44.0779C97.4118 43.5933 96.9196 43.1672 96.3434 42.9607C96.0908 42.8668 95.821 42.8274 95.5519 42.8451C95.2829 42.8628 95.0207 42.9372 94.7827 43.0633C94.347 43.308 94.0276 43.8786 93.4934 43.8989C92.7611 43.9263 92.4562 42.5703 92.1177 42.0344C92.2416 41.9417 92.3287 41.8086 92.3638 41.6585C92.3989 41.5083 92.3798 41.3507 92.3098 41.2132C92.359 41.1929 92.8332 41.1368 92.844 41.2203Z" fill="#464353"/>
<path d="M56.8068 24.2836C56.5727 24.4906 56.3563 24.7166 56.1597 24.9592C55.9619 25.2052 55.8566 25.5121 55.862 25.827C55.8631 25.9183 55.8924 26.0071 55.9461 26.0812C55.9735 26.1167 56.0113 26.1428 56.0544 26.1559C56.0974 26.1689 56.1435 26.1683 56.1861 26.154C56.2344 26.1296 56.2757 26.0935 56.3062 26.049C56.4331 25.8974 56.5677 25.7524 56.7096 25.6145C56.7612 25.5632 56.8296 25.5095 56.8992 25.5286C56.9304 25.5396 56.9585 25.558 56.9809 25.5823C57.0616 25.6517 57.1204 25.7429 57.1501 25.8449C57.1922 26.0275 57.0853 26.2102 56.9641 26.3534C56.8428 26.4966 56.7 26.6339 56.6507 26.8141C56.6321 26.8617 56.6321 26.9145 56.6507 26.9621C56.6739 26.9966 56.7064 27.0239 56.7444 27.0409C56.9163 27.135 57.1069 27.1904 57.3027 27.2032C57.4986 27.216 57.6948 27.1859 57.8776 27.1149C58.1177 27.0183 58.3314 26.8523 58.5787 26.7664C58.6858 26.7373 58.7896 26.6973 58.8884 26.647C58.9592 26.6002 59.0199 26.5399 59.0671 26.4697C59.1143 26.3994 59.147 26.3205 59.1633 26.2376C59.1945 26.0719 59.2006 25.9025 59.1813 25.7351C59.1514 25.0866 59.0118 24.4478 58.7684 23.8455C58.7543 23.8067 58.7303 23.7721 58.6988 23.7453C58.6626 23.7234 58.621 23.7122 58.5787 23.713C58.2714 23.6808 57.7672 23.5244 57.4707 23.6378C57.367 23.6944 57.2775 23.7735 57.209 23.8694C57.1537 23.9303 56.8068 24.2036 56.8068 24.2836Z" fill="#A1616A"/>
<path d="M56.7092 24.0138C56.7092 23.7226 56.3491 23.0195 56.9217 22.973C56.9217 22.6614 56.4788 22.4681 56.5616 22.1374C56.588 22.0276 56.6816 21.9381 56.6924 21.8259C56.7285 21.5072 56.1498 21.3341 56.2459 21.0285C56.2819 20.9092 56.4091 20.8399 56.4367 20.7217C56.5016 20.446 56.0058 20.3231 55.9962 20.0402C55.9962 19.9447 56.0502 19.8552 56.0454 19.7597C56.0454 19.6403 55.9409 19.5496 55.8833 19.4457C55.7333 19.1796 55.8065 18.7677 55.5328 18.6305C55.7141 18.646 55.7729 18.3786 55.6984 18.2151C55.624 18.0515 55.4716 17.9095 55.4704 17.7281C55.4793 17.6623 55.4793 17.5957 55.4704 17.5299C55.4199 17.3557 55.133 17.3413 55.085 17.1718C55.0788 17.1068 55.0768 17.0414 55.079 16.9761C55.0598 16.8412 54.9205 16.7552 54.7897 16.717C54.6538 16.6941 54.5229 16.6476 54.4031 16.5798C54.3191 16.5165 54.2219 16.4115 54.1318 16.4604C54.0982 16.4807 54.0814 16.5189 54.0562 16.5475C53.9481 16.6729 53.7417 16.618 53.606 16.5261C53.205 16.2551 53.0058 15.7693 52.9205 15.2954C52.8353 14.8215 52.8377 14.3321 52.7309 13.863C52.6983 13.7168 52.6549 13.5732 52.6012 13.4333C52.5556 13.3139 52.4091 13.1265 52.3995 13.006C52.3779 12.7314 52.9493 12.9188 53.1666 12.9463C53.3776 12.9668 53.5862 13.0067 53.7897 13.0657C54.0069 13.1473 54.2197 13.2401 54.4271 13.3438C55.2939 13.7246 56.3407 13.7711 57.037 14.4109C57.2663 14.621 57.4596 14.8967 57.7573 14.9922C57.8938 15.0182 58.0285 15.0529 58.1606 15.0961C58.4908 15.2501 58.5424 15.6857 58.7225 16.0009C58.7791 16.0841 58.8285 16.1719 58.8701 16.2635C58.9048 16.3714 58.9211 16.4844 58.9181 16.5977L58.9434 17.4249C58.9842 18.8107 59.025 20.2001 58.8761 21.5776C58.8281 22.0324 58.7561 22.5003 58.8917 22.9372C58.9277 23.0565 58.9782 23.1687 59.0118 23.2893C59.0415 23.4306 59.0567 23.5746 59.0574 23.719L59.0766 24.255C59.0833 24.2966 59.0738 24.3393 59.0502 24.3743C59.0301 24.3905 59.0067 24.402 58.9815 24.408C58.9564 24.414 58.9302 24.4143 58.9049 24.4089C58.1546 24.3421 57.3959 23.9219 56.6876 24.1762" fill="#464353"/>
<path d="M90.9495 65.1948C95.8531 65.1948 99.8283 64.6236 99.8283 63.9188C99.8283 63.2141 95.8531 62.6428 90.9495 62.6428C86.0459 62.6428 82.0708 63.2141 82.0708 63.9188C82.0708 64.6236 86.0459 65.1948 90.9495 65.1948Z" fill="#504F60"/>
<path d="M98.5883 63.981C98.4322 63.3161 98.335 62.7324 98.335 62.7324C98.335 62.7324 98.371 62.009 98.0444 61.4659V61.2845V59.9476C98.1374 59.7048 98.2511 59.4704 98.3842 59.2469C98.6243 58.8268 98.3842 57.287 98.3842 57.287C98.3842 57.287 97.4874 55.1157 97.7047 53.7382C97.922 52.3608 95.8632 47.622 95.8632 47.622C95.8758 47.1649 95.9407 46.7108 96.0564 46.2684C96.0784 46.1753 96.0873 46.0797 96.0829 45.9843C96.0829 45.9723 96.0829 45.9616 96.0829 45.9497C96.0829 45.9377 96.0829 45.9568 96.0829 45.9604C96.0516 45.052 95.329 43.3499 95.329 43.3499L95.4262 40.1055C95.4262 40.1055 95.8872 38.1957 95.1357 35.6234C94.8728 34.7269 94.7047 34.0096 94.5979 33.4557C94.5859 33.3936 94.5739 33.3363 94.5642 33.2755C96.1117 33.0367 97.2941 32.8458 97.2941 32.8458C97.2941 32.8458 96.3962 29.1108 95.7899 28.4567C95.1837 27.8026 94.6987 25.7483 94.6987 25.7483C94.6987 25.7483 94.383 23.1115 94.8932 22.3404C95.4034 21.5693 95.4754 20.2396 95.4754 20.2396C95.4754 20.2396 96.6387 19.404 96.7851 19.0257C96.9316 18.6473 97.1729 17.8117 97.1729 17.3689C97.1729 16.926 97.0276 16.5333 97.0756 16.2946C97.1237 16.0559 96.7359 15.1737 96.9304 14.7536C96.9807 14.6245 97.0068 14.4874 97.0072 14.3489C97.0077 14.345 97.0077 14.341 97.0072 14.337C97.009 13.9693 96.9748 13.6023 96.9052 13.2412C96.5687 12.9587 96.176 12.75 95.7527 12.6289L95.7275 12.5286L95.6615 12.266C95.6247 12.2418 95.5866 12.2195 95.5474 12.1992V12.1037L95.5366 11.7241L95.7191 10.8718C96.0793 9.38931 94.0877 9.16848 94.0877 9.16848C93.9669 8.94108 93.766 8.76597 93.5234 8.6767C93.1237 8.53704 93.4574 10.9064 93.6435 11.064C93.7839 11.1834 94.2185 11.921 94.4286 12.2863L94.4622 12.346C94.4293 12.3754 94.3988 12.4073 94.371 12.4415L94.4466 12.9559L94.4586 13.0347C94.3266 13.1977 94.2194 13.3791 94.1405 13.5731C94.1405 13.5731 94.5006 13.9693 94.4322 14.4086C94.3638 14.8479 94.5438 15.4053 94.5522 15.4352C94.5306 15.4101 94.2749 15.1355 94.0192 15.2024C93.7635 15.2692 93.0492 15.4829 93.0492 15.4829C93.0492 15.4829 92.5162 15.576 92.569 15.693C92.6219 15.81 92.2089 16.3232 92.2089 16.3232L90.7755 14.972C90.7611 14.9314 90.7455 14.8908 90.7335 14.8527C90.675 14.6578 90.6348 14.458 90.6135 14.2558C90.7697 14.2189 90.923 14.1706 91.0721 14.1114C91.2227 14.06 91.3586 13.9732 91.4682 13.8583C91.6135 13.6876 91.6411 13.4561 91.6999 13.2436C91.8127 12.8282 92.06 12.4594 92.2317 12.0643C92.5224 11.3967 92.6161 10.6606 92.5018 9.94197C92.4798 9.72052 92.4045 9.50761 92.2821 9.32127C92.048 9.00137 91.6231 8.87126 91.3145 8.61582C91.006 8.36038 90.8067 7.97006 90.4466 7.78027C90.1213 7.60719 89.7263 7.62748 89.359 7.68716C88.6415 7.8048 87.9523 8.05413 87.3266 8.42245C87.1177 8.54181 86.8872 8.68863 86.6471 8.64447C86.4406 8.60747 86.2869 8.44394 86.1573 8.28637C86.1588 8.27985 86.1608 8.27346 86.1633 8.26728C86.1574 8.26146 86.1522 8.25506 86.1477 8.24818C85.9958 8.5834 85.9196 8.94765 85.9244 9.3153C85.9244 9.3726 85.9244 9.43467 85.9316 9.48599V9.54568C85.9316 9.56239 85.9316 9.5791 85.9316 9.59462C85.9316 9.62006 85.9279 9.64538 85.9208 9.66982C85.8906 9.74283 85.8447 9.80842 85.7863 9.86199C85.7423 9.91176 85.7021 9.96484 85.6663 10.0207C85.6663 10.0017 85.6783 9.98255 85.6855 9.96226C85.5939 10.0952 85.5423 10.2513 85.5366 10.4123C85.5299 10.5295 85.5686 10.6448 85.6447 10.7346C85.7165 10.8039 85.7949 10.8663 85.8788 10.9208C85.8502 11.0783 85.8358 11.2381 85.8356 11.3982C85.8383 11.8729 85.9641 12.3388 86.2009 12.751C86.4377 13.1631 86.7775 13.5075 87.1873 13.7509C87.2041 13.7903 87.2197 13.8309 87.2353 13.8703C87.419 14.3477 87.557 14.9088 87.4958 15.422C87.4958 15.459 87.485 15.4972 87.479 15.5342C87.473 15.5712 87.443 15.5736 87.4274 15.5939C87.4274 15.5939 85.0588 15.6178 84.5018 15.1164C83.9448 14.6151 83.0949 16.3423 83.0949 16.3423C83.0949 16.3423 82.2461 16.5059 82.0757 16.3423C81.9052 16.1788 80.9124 16.3196 80.9124 16.3196C80.5056 15.96 79.9763 15.7679 79.4322 15.7825C79.1025 15.5334 78.7387 15.3324 78.3518 15.1857L78.3254 15.1761C78.1546 15.1142 77.972 15.0914 77.7912 15.1093C77.7912 15.1093 76.6267 14.1544 76.2869 13.6387C75.9472 13.1231 74.3302 11.2192 74.323 11.2108V11.1189L74.305 10.842C74.2569 10.8495 74.2083 10.8535 74.1597 10.8539C74.1513 10.8265 74.1393 10.7942 74.1273 10.7572C74.0341 10.4871 73.9193 10.2249 73.7839 9.973C73.7839 9.973 73.7839 9.62326 73.886 9.53493C73.988 9.4466 73.844 8.16343 73.844 8.16343C73.844 8.16343 72.7948 5.7248 71.8548 7.54512C71.8548 7.54512 70.0781 8.72325 71.5691 10.0959C71.5691 10.0959 72.1693 10.3824 72.2485 10.6092C72.3038 10.756 72.5054 11.1678 72.6411 11.4448L72.7023 11.5641L72.6855 11.5785L72.7071 11.8076L72.7167 11.896C72.4358 12.0547 72.2449 12.2123 72.2918 12.3305C72.3745 12.5327 72.4313 12.7444 72.461 12.9607C72.461 12.9607 74.5234 15.5294 74.79 16.6264C74.79 16.6264 80.3206 19.8946 82.1393 20.1274L81.8176 21.7567C81.7707 22.1989 81.7466 22.6431 81.7455 23.0877C81.7695 23.4374 81.527 25.0249 81.527 25.0249C81.527 25.0249 81.2113 27.3597 80.9448 27.6868C80.6783 28.0138 80.7263 29.414 80.7263 29.414C80.6634 30.0843 80.5429 30.748 80.3662 31.3979C80.0997 32.2847 80.2929 33.3829 80.2929 33.3829C80.2929 33.3829 79.3722 35.4837 81.5787 34.0597C81.5787 34.0597 82.6591 33.9928 83.91 33.9499C83.91 33.9905 83.91 34.0322 83.91 34.0692C83.91 34.2292 83.91 34.4023 83.9016 34.5837C83.8848 35.7869 83.8776 37.4485 83.9328 38.6994C84.03 40.9172 84.7095 45.3063 84.7095 45.3063V47.5157C84.6656 47.7229 84.6439 47.9342 84.6447 48.146C84.6303 48.9234 84.8385 49.6888 85.2449 50.353L85.4154 51.8236C85.4154 51.8236 85.8139 52.7929 85.8212 53.3754C85.8196 53.4223 85.814 53.469 85.8044 53.515C85.7888 53.5892 85.7824 53.6649 85.7851 53.7406C85.7623 54.4091 86.1669 56.0086 86.1669 56.0086C86.1669 56.0086 86.1909 57.6188 86.4334 57.7131C86.6411 57.7931 86.1561 58.6406 86.012 58.8841C86.0082 58.8692 86.0054 58.854 86.0036 58.8387L85.9736 58.8864C85.9236 59.0168 85.8979 59.1552 85.898 59.2947C85.8843 59.4046 85.9023 59.5162 85.9499 59.6163C85.9975 59.7165 86.0728 59.8012 86.1669 59.8605C86.6279 60.141 86.8752 60.3737 86.4838 60.4668C86.3399 60.4891 86.1972 60.5189 86.0564 60.5564C86.0564 60.5385 86.042 60.5194 86.036 60.5027C85.9808 60.5241 85.9348 60.5638 85.9057 60.6152C85.8766 60.6665 85.8662 60.7263 85.8764 60.7844C85.8801 60.9737 85.9291 61.1595 86.0192 61.3263C86.407 62.1905 86.6759 62.5199 86.6759 62.5199L86.862 62.4996C86.8345 62.5703 86.7982 62.6373 86.7539 62.699C86.6831 62.7991 86.5893 62.8809 86.4802 62.9377C86.3786 62.9982 86.2653 63.0368 86.1477 63.0511C86.0162 63.0553 85.8871 63.0871 85.7688 63.1443C85.6505 63.2014 85.5456 63.2828 85.461 63.3829C85.2209 63.6945 85.0673 64.1182 85.545 64.4906L87.2797 65.0875C87.2797 65.0875 90.2641 65.473 90.1057 64.807C89.9472 64.1409 89.8512 63.5584 89.8512 63.5584C89.864 63.1517 89.7818 62.7476 89.6111 62.3779C89.5798 62.3175 89.5445 62.2593 89.5054 62.2036L89.6111 62.1929C89.6111 62.1929 89.8296 60.7211 90.1201 60.4418C90.1873 60.3773 90.2029 60.3224 90.1873 60.289C90.2173 60.209 90.1405 60.1625 90.0432 60.135L90.0216 60.1935C89.9266 60.1729 89.8296 60.1621 89.7323 60.1613C89.7323 60.1613 89.6351 59.3914 89.9508 59.1109C89.9763 59.0789 89.9949 59.042 90.0054 59.0026C90.0159 58.9632 90.0182 58.922 90.012 58.8817C90.0144 58.776 90.0031 58.6705 89.9784 58.5677C89.9753 58.5744 89.9717 58.5807 89.9676 58.5868C89.8091 57.8874 89.2713 56.7761 89.2713 56.7761C89.2713 56.7761 89.2473 56.0766 89.4418 55.7961C89.6363 55.5156 89.4166 51.9907 89.4166 51.9907C89.4166 51.9907 89.4898 50.2874 89.2713 49.4936C89.0528 48.6998 89.5378 47.7652 89.5378 47.7652C89.5378 47.7652 89.5378 47.7473 89.5378 47.7151V47.7031L89.5102 47.4346C89.5096 47.4401 89.5096 47.4457 89.5102 47.4513C89.461 47.0001 89.3686 46.1824 89.3001 45.8052C89.2029 45.2681 89.3254 42.7017 89.3254 42.7017L89.7611 41.6036L90.5378 43.4955L91.3626 46.0165C91.3626 46.0165 91.7707 46.5489 91.7803 47.0908C91.7803 47.117 91.7803 47.1433 91.7803 47.1696C91.7737 47.2254 91.7705 47.2816 91.7707 47.3379C91.7561 47.6564 91.844 47.9712 92.0216 48.2367C92.0216 48.2367 92.2401 49.4303 92.5799 49.7299C92.9196 50.0296 92.9196 50.6168 92.9196 50.6168C92.9196 50.6168 93.3314 52.3452 93.5198 52.646C93.6831 52.9015 93.6915 53.601 93.6903 53.8194C93.6903 53.8588 93.6903 53.8815 93.6903 53.8815C93.6903 53.8815 93.7479 54.4998 93.7455 55.0178C93.7455 55.0823 93.7455 55.1444 93.7455 55.2028C93.7461 55.1985 93.7461 55.1941 93.7455 55.1897C93.7454 55.3313 93.7285 55.4723 93.6951 55.6099L93.6879 55.6337C93.6879 55.6039 93.6879 55.5753 93.6963 55.5466C93.6119 55.8984 93.5716 56.2593 93.5763 56.6209C93.5654 57.2416 93.6603 57.9769 94.0384 58.4114C94.6939 59.1586 95.1057 59.0655 95.1057 59.0655C95.1057 59.0655 94.7911 59.9989 94.4022 60.1863C94.3875 60.1932 94.3737 60.2021 94.3614 60.2126C94.3614 60.1935 94.3542 60.1756 94.3518 60.1577C94.3084 60.2042 94.2753 60.2593 94.2547 60.3193C94.234 60.3794 94.2262 60.443 94.2317 60.5062C94.2041 60.9169 94.4646 61.5805 94.7119 61.8897C94.8037 61.9791 94.9163 62.0447 95.0396 62.0807C95.0201 62.0944 94.9997 62.1067 94.9784 62.1177C94.9352 62.1412 94.8907 62.1624 94.8452 62.1809C94.782 62.2076 94.7153 62.2249 94.6471 62.2323C94.5155 62.2357 94.3861 62.2672 94.2677 62.3244C94.1493 62.3816 94.0445 62.4633 93.9604 62.5641C93.7203 62.8744 93.5666 63.2982 94.0444 63.6706L95.7791 64.2674C95.7791 64.2674 98.7443 64.6458 98.5883 63.981Z" fill="url(#paint0_linear)"/>
<path d="M87.1941 65.0839L85.5134 64.4871C85.05 64.1147 85.1977 63.6909 85.4318 63.3794C85.5123 63.28 85.6134 63.199 85.7281 63.1417C85.8428 63.0845 85.9686 63.0524 86.0968 63.0475C86.2106 63.0331 86.32 62.9944 86.4174 62.9341C86.5239 62.8766 86.6152 62.7948 86.6839 62.6954C86.8065 62.5019 86.8726 62.2783 86.8748 62.0496C86.8748 62.0496 88.7187 61.5125 89.2229 62.0496C89.3129 62.1469 89.3881 62.2567 89.4462 62.3755C89.6137 62.7463 89.6957 63.1497 89.6863 63.556C89.6863 63.556 89.7799 64.1385 89.9324 64.8046C90.0848 65.4707 87.1941 65.0839 87.1941 65.0839Z" fill="#2D293D"/>
<path d="M95.4104 64.2602L93.7297 63.6634C93.2663 63.291 93.414 62.8672 93.6481 62.5569C93.728 62.4571 93.8288 62.3758 93.9434 62.3185C94.058 62.2613 94.1837 62.2294 94.3119 62.2251C94.3783 62.2183 94.4432 62.201 94.504 62.1737C94.5484 62.1551 94.5917 62.134 94.6337 62.1105C95.1031 61.8538 95.0911 61.2236 95.0911 61.2236C95.0911 61.2236 96.9338 60.6865 97.4392 61.2236C97.5068 61.2963 97.566 61.3764 97.6157 61.4623C97.9314 62.0054 97.8966 62.73 97.8966 62.73C97.8966 62.73 97.9902 63.3137 98.1367 63.9785C98.2831 64.6434 95.4104 64.2602 95.4104 64.2602Z" fill="#2D293D"/>
<path opacity="0.1" d="M89.2243 62.0484C89.3143 62.1456 89.3895 62.2554 89.4476 62.3742L86.6865 62.6929C86.8091 62.4994 86.8752 62.2759 86.8774 62.0472C86.8774 62.0472 88.7201 61.5112 89.2243 62.0484Z" fill="black"/>
<path opacity="0.1" d="M97.618 61.4646V61.9791C97.1882 62.6822 95.1102 62.5282 94.5063 62.1761C94.5507 62.1574 94.594 62.1363 94.636 62.1128C95.1054 61.8562 95.0934 61.2259 95.0934 61.2259C95.0934 61.2259 96.9361 60.6888 97.4415 61.2259C97.5092 61.2987 97.5684 61.3787 97.618 61.4646Z" fill="black"/>
<path d="M97.946 59.2469C97.8175 59.471 97.7079 59.7054 97.6182 59.9475V61.7917C97.1477 62.5616 94.7071 62.305 94.377 61.8848C94.0468 61.4647 93.7023 60.3713 94.0732 60.1815C94.4442 59.9917 94.7539 59.0607 94.7539 59.0607C94.7539 59.0607 94.3541 59.1538 93.7203 58.4065C93.0864 57.6593 93.2749 56.0025 93.3926 55.6062C93.5102 55.2099 93.3926 53.879 93.3926 53.879C93.3926 53.879 93.4166 52.9444 93.2293 52.6412C93.042 52.338 92.6423 50.612 92.6423 50.612C92.6423 50.612 92.6423 50.0283 92.3133 49.7251C91.9844 49.4219 91.7731 48.2307 91.7731 48.2307C91.5808 47.933 91.4981 47.5783 91.539 47.2268C91.6086 46.6431 91.1393 46.0129 91.1393 46.0129L90.3409 43.4907L89.5894 41.5999L89.1669 42.6969C89.1669 42.6969 89.0468 45.2644 89.1441 45.8004C89.2413 46.3363 89.3842 47.7616 89.3842 47.7616C89.3842 47.7616 88.9148 48.695 89.126 49.4888C89.3373 50.2825 89.2605 51.9883 89.2605 51.9883C89.2605 51.9883 89.4718 55.5119 89.2833 55.7924C89.0948 56.073 89.1188 56.7736 89.1188 56.7736C89.1188 56.7736 90.0792 58.8267 89.7767 59.1072C89.4742 59.3877 89.5654 60.1576 89.5654 60.1576C89.5654 60.1576 90.2221 60.1576 89.9412 60.4381C89.6603 60.7186 89.4478 62.1892 89.4478 62.1892L86.6086 62.5199C86.6086 62.5199 86.3493 62.194 85.9736 61.3262C85.5978 60.4584 86.0432 60.5563 86.4214 60.462C86.7995 60.3677 86.5606 60.1361 86.114 59.8556C85.6675 59.5751 85.9268 58.9449 85.9268 58.9449C85.9268 58.9449 86.6074 57.8014 86.3721 57.7083C86.1369 57.6151 86.114 56.0037 86.114 56.0037C86.114 56.0037 85.6447 54.0939 85.7623 53.5758C85.8799 53.0578 85.3865 51.8259 85.3865 51.8259L85.2221 50.3554C84.7198 49.5209 84.5365 48.5344 84.7059 47.5765V45.3086C84.7059 45.3086 84.048 40.9207 83.9544 38.7029C83.8944 37.2825 83.9112 35.344 83.9304 34.1348C83.9424 33.4568 83.9544 33.0068 83.9544 33.0068L94.096 31.9564C94.096 31.9564 94.0864 32.4219 94.2797 33.4545C94.3842 34.0083 94.5462 34.7257 94.8007 35.6221C95.5282 38.1897 95.0828 40.1031 95.0828 40.1031L94.988 43.3486C94.988 43.3486 95.88 45.5187 95.6927 46.2659C95.5795 46.7096 95.5159 47.1643 95.503 47.6219C95.503 47.6219 97.4982 52.3607 97.2869 53.7382C97.0756 55.1156 97.9436 57.2869 97.9436 57.2869C97.9436 57.2869 98.1813 58.8267 97.946 59.2469Z" fill="#464353"/>
<path opacity="0.05" d="M92.1479 47.0859L95.2356 46.6765C95.2356 46.6765 93.4865 48.4515 92.1479 47.0859Z" fill="black"/>
<path opacity="0.1" d="M94.7886 43.6769C94.7886 43.6769 94.8943 44.7631 94.2256 45.1713C94.2256 45.1713 95.4225 44.9851 94.7886 43.6769Z" fill="black"/>
<path opacity="0.1" d="M94.5989 40.2225C94.5989 40.2225 92.0179 42.3353 91.0791 42.1598C90.1403 41.9844 94.5989 40.2225 94.5989 40.2225Z" fill="black"/>
<path opacity="0.1" d="M88.3207 48.0767C88.3207 48.0767 86.3603 48.5195 86.3015 49.3025C86.2427 50.0856 88.3207 48.0767 88.3207 48.0767Z" fill="black"/>
<path opacity="0.05" d="M88.7517 57.8121C88.7517 57.8121 85.9822 58.3254 86.7685 58.6751C87.5548 59.0249 88.8465 59.3054 88.8465 59.3054C88.8465 59.3054 89.7409 59.3519 88.7517 57.8121Z" fill="black"/>
<g opacity="0.05">
<path opacity="0.05" d="M86.2088 59.2313C86.1392 59.1881 86.0803 59.1298 86.0364 59.0607C85.9926 58.9917 85.9649 58.9138 85.9555 58.8326L85.9267 58.8816C85.9267 58.8816 85.6686 59.5118 86.1152 59.7911C86.1656 59.8234 86.2148 59.8556 86.2593 59.8866C86.3421 59.8711 86.4309 59.8592 86.5162 59.8377C86.8943 59.7446 86.6554 59.5118 86.2088 59.2313Z" fill="black"/>
<path opacity="0.05" d="M89.7766 59.0439C89.8534 58.9746 89.8511 58.7956 89.8042 58.5664C89.6842 58.7466 89.6494 59.0283 89.647 59.242C89.6761 59.1678 89.7202 59.1004 89.7766 59.0439Z" fill="black"/>
<path opacity="0.05" d="M89.3503 47.4309C89.2484 47.707 89.1853 47.9958 89.1631 48.2892C89.2166 48.0865 89.2885 47.8892 89.3779 47.6995L89.3503 47.4309Z" fill="black"/>
<path opacity="0.05" d="M95.6942 46.2061C95.7126 46.1223 95.7211 46.0365 95.7194 45.9507C95.6846 46.125 95.6606 46.2861 95.6426 46.4281C95.6582 46.3553 95.675 46.2861 95.6942 46.2061Z" fill="black"/>
<path opacity="0.05" d="M89.2843 55.7303C89.3227 55.673 89.3443 55.4796 89.3539 55.2111C89.267 55.4189 89.221 55.6413 89.2183 55.8664C89.2347 55.8185 89.2568 55.7728 89.2843 55.7303Z" fill="black"/>
<path opacity="0.05" d="M89.8606 60.1326C89.7151 60.6008 89.6071 61.0797 89.5377 61.5649L86.6986 61.8908C86.6986 61.8908 86.4393 61.5649 86.0635 60.6972C86.0332 60.6301 86.0064 60.5616 85.9831 60.4919C85.8126 60.5694 85.743 60.7449 85.9687 61.257C86.3444 62.1212 86.6049 62.4506 86.6049 62.4506L89.4441 62.1236C89.4441 62.1236 89.6553 60.653 89.9363 60.3725C90.0803 60.2376 89.9915 60.1672 89.8606 60.1326Z" fill="black"/>
<path opacity="0.05" d="M86.1152 55.9404C86.1152 55.9404 86.138 57.5506 86.3733 57.6437C86.4933 57.3776 86.5714 57.1245 86.4657 57.0827C86.2256 56.9896 86.2076 55.3782 86.2076 55.3782C86.2076 55.3782 85.7382 53.4683 85.8559 52.9503C85.9735 52.4323 85.4801 51.2004 85.4801 51.2004L85.3157 49.7298C84.8133 48.8953 84.6301 47.9089 84.7995 46.951V44.6831C84.7995 44.6831 84.1416 40.2952 84.048 38.0774C83.9879 36.657 84.0047 34.7185 84.0239 33.5093C84.0239 33.2909 84.0311 33.0975 84.0347 32.934L83.9543 32.9423C83.9543 32.9423 83.9411 33.3911 83.9303 34.0703C83.9111 35.2795 83.8931 37.218 83.9543 38.6372C84.048 40.855 84.7046 45.2441 84.7046 45.2441V47.512C84.5361 48.4696 84.7198 49.4556 85.222 50.2896L85.3853 51.7602C85.3853 51.7602 85.8787 52.9969 85.761 53.5113C85.6434 54.0258 86.1152 55.9404 86.1152 55.9404Z" fill="black"/>
<path opacity="0.05" d="M94.4732 61.2617C94.2425 60.9297 94.0888 60.551 94.023 60.1528C93.7337 60.413 94.0662 61.4229 94.3831 61.8239C94.7109 62.2441 97.1527 62.5007 97.6244 61.7296V61.2856C96.9846 61.9099 94.7829 61.6592 94.4732 61.2617Z" fill="black"/>
<path opacity="0.05" d="M98.0408 58.6237C97.9121 58.8479 97.8021 59.0822 97.7119 59.3244V59.655C97.7659 59.5356 97.8416 59.3757 97.952 59.1871C98.0263 59.0033 98.0614 58.8062 98.0552 58.6082C98.0552 58.6082 98.0444 58.6189 98.0408 58.6237Z" fill="black"/>
<path opacity="0.05" d="M94.6172 58.9926C94.7065 58.8128 94.7839 58.6274 94.8489 58.4376C94.8489 58.4376 94.4491 58.5307 93.8153 57.7835C93.3543 57.2403 93.3279 56.2138 93.3939 55.543C93.2739 55.9405 93.0878 57.5972 93.7216 58.3445C94.1358 58.8327 94.4491 58.9616 94.6172 58.9926Z" fill="black"/>
<path opacity="0.05" d="M93.3926 53.8157C93.434 54.2756 93.4496 54.7375 93.4394 55.1991C93.4511 55.1263 93.4672 55.0541 93.4874 54.9831C93.6075 54.5856 93.4874 53.2559 93.4874 53.2559C93.4874 53.2559 93.5114 52.3212 93.3229 52.0181C93.1345 51.7149 92.7419 49.9865 92.7419 49.9865C92.7419 49.9865 92.7419 49.4028 92.413 49.0996C92.084 48.7964 91.8728 47.6051 91.8728 47.6051C91.6787 47.308 91.5939 46.9534 91.6327 46.6013C91.7035 46.0176 91.2341 45.3873 91.2341 45.3873L90.4358 42.8663L89.6843 40.9756L89.2605 42.0737C89.2605 42.0737 89.2605 42.2122 89.2461 42.4318L89.5894 41.5402L90.3409 43.4273L91.1393 45.9483C91.1393 45.9483 91.6086 46.5786 91.5378 47.1623C91.499 47.5144 91.5839 47.8691 91.7779 48.1661C91.7779 48.1661 91.9892 49.3598 92.3181 49.6606C92.6471 49.9614 92.6459 50.5475 92.6459 50.5475C92.6459 50.5475 93.0456 52.2747 93.2329 52.5767C93.4202 52.8787 93.3926 53.8157 93.3926 53.8157Z" fill="black"/>
</g>
<path d="M95.3639 10.8682L95.1874 11.7205L95.1983 12.1001L95.2055 12.3794L94.2258 12.4796L94.1166 12.2779C93.9137 11.9126 93.4923 11.1702 93.3567 11.0556C93.1754 10.9052 92.8525 8.53462 93.2366 8.67547C93.4731 8.76628 93.6673 8.94109 93.7817 9.16606C93.7817 9.16606 95.7109 9.38569 95.3639 10.8682Z" fill="#FFCDD3"/>
<path opacity="0.1" d="M95.2051 12.3794L94.2255 12.4797L94.1162 12.2779C94.248 12.1288 94.4276 12.0297 94.6247 11.9975C94.8217 11.9652 95.0238 12.0019 95.1967 12.1013L95.2051 12.3794Z" fill="black"/>
<path d="M95.4526 12.8413L94.1609 13.1385L94.1333 12.9475L94.0601 12.4331C94.0601 12.4331 94.5715 11.7551 95.3109 12.2636L95.3758 12.525L95.4526 12.8413Z" fill="#7A3CDF"/>
<path d="M74.5284 10.9613L73.149 11.6966L73.029 11.4388C72.8981 11.1654 72.7024 10.7536 72.6484 10.6032C72.5668 10.3764 71.9918 10.09 71.9918 10.09C70.5512 8.71846 72.2679 7.53914 72.2679 7.53914C73.1778 5.71882 74.1886 8.15745 74.1886 8.15745C74.1886 8.15745 74.3303 9.44301 74.2307 9.52895C74.131 9.61489 74.131 9.96702 74.131 9.96702C74.2625 10.2193 74.3737 10.4815 74.4636 10.7513C74.5056 10.8814 74.5284 10.9613 74.5284 10.9613Z" fill="#FFCDD3"/>
<path opacity="0.1" d="M74.5282 10.9614L73.1489 11.6966L73.0288 11.4388C73.2233 11.2765 73.9136 10.7226 74.1405 10.7453C74.2488 10.7587 74.3582 10.7615 74.467 10.7537C74.5054 10.8814 74.5282 10.9614 74.5282 10.9614Z" fill="black"/>
<path d="M74.6685 11.3755L73.1187 12.1347L73.0875 11.8041L73.0659 11.5749C73.0659 11.5749 73.9639 10.8098 74.2292 10.8396C74.3633 10.8589 74.4996 10.8589 74.6337 10.8396L74.6517 11.1165L74.6685 11.3755Z" fill="#7A3CDF"/>
<path d="M91.6073 16.5297C91.6073 16.5297 84.8509 17.2876 86.1138 16.8794C86.9926 16.5941 87.3419 16.0439 87.4152 15.4232C87.4752 14.9063 87.3407 14.3489 87.1643 13.8714C87.0055 13.4478 86.8044 13.0412 86.564 12.6575C86.564 12.6575 91.7261 9.83328 90.6949 12.4008C90.5359 12.7892 90.4371 13.1993 90.402 13.6172C90.371 14.0324 90.4161 14.4498 90.5352 14.849C90.73 15.4968 91.101 16.0784 91.6073 16.5297Z" fill="#FFCDD3"/>
<path opacity="0.1" d="M90.6912 12.3973C90.5322 12.7856 90.4334 13.1958 90.3983 13.6136C89.9121 14.0207 89.3791 13.9932 88.6936 13.9932C88.1678 13.9932 87.5844 14.1197 87.1642 13.8679C87.0054 13.4443 86.8043 13.0376 86.564 12.6539C86.564 12.6539 91.7248 9.82974 90.6912 12.3973Z" fill="black"/>
<path d="M88.6026 14.1722C90.1454 14.1722 91.3961 12.9286 91.3961 11.3946C91.3961 9.86053 90.1454 8.61694 88.6026 8.61694C87.0598 8.61694 85.8091 9.86053 85.8091 11.3946C85.8091 12.9286 87.0598 14.1722 88.6026 14.1722Z" fill="#FFCDD3"/>
<path opacity="0.1" d="M91.6073 16.5298C91.6073 16.5298 84.8509 17.2877 86.1138 16.8795C86.9926 16.5942 87.3419 16.0439 87.4152 15.4232C87.7513 15.0651 88.4272 14.799 88.8558 14.6605C89.252 14.528 89.6798 14.5209 90.0802 14.6402C90.2377 14.6874 90.3877 14.7565 90.5256 14.8455C90.7225 15.4956 91.0969 16.0787 91.6073 16.5298Z" fill="black"/>
<path opacity="0.1" d="M95.4526 12.8413L94.1609 13.1385L94.1333 12.9476C94.2716 12.7587 94.4651 12.6167 94.6874 12.5411C94.9098 12.4655 95.1501 12.4599 95.3758 12.525L95.4526 12.8413Z" fill="black"/>
<path opacity="0.1" d="M74.6684 11.3755L73.1186 12.1346L73.0874 11.804C73.5894 11.5356 74.1111 11.3054 74.648 11.1152L74.6684 11.3755Z" fill="black"/>
<path opacity="0.1" d="M94.2795 33.4569C91.6613 33.8723 87.9398 34.4023 87.3492 34.2232C86.8582 34.0752 85.2927 34.0907 83.9302 34.1373C83.9422 33.4593 83.9542 33.0093 83.9542 33.0093L94.0959 31.9589C94.0959 31.9589 94.0863 32.4244 94.2795 33.4569Z" fill="black"/>
<path d="M96.8896 32.8457C96.8896 32.8457 88.2737 34.3162 87.3493 34.0393C86.425 33.7624 81.6771 34.062 81.6771 34.062C79.5402 35.486 80.4322 33.3852 80.4322 33.3852C80.4322 33.3852 80.2449 32.2882 80.503 31.4013C80.6763 30.7502 80.7948 30.0858 80.8571 29.4151C80.8571 29.4151 80.8103 28.0138 81.0684 27.6867C81.3265 27.3596 81.6326 25.0261 81.6326 25.0261C81.6326 25.0261 81.8667 23.4385 81.8439 23.0888C81.8211 22.739 81.9136 21.7578 81.9136 21.7578L82.2197 20.1237C80.4586 19.891 75.1056 16.6227 75.1056 16.6227C74.8475 15.5258 72.8523 12.9582 72.8523 12.9582C72.8233 12.7423 72.768 12.5307 72.6879 12.328C72.5474 11.9544 74.6602 11.2072 74.6602 11.2072C74.6602 11.2072 76.2329 13.117 76.5618 13.635C76.8907 14.1531 78.0168 15.1056 78.0168 15.1056C78.1918 15.0877 78.3685 15.1106 78.533 15.1725L78.5606 15.1808C78.938 15.3281 79.2918 15.5292 79.611 15.7776C80.1404 15.7652 80.654 15.9578 81.0432 16.3148C81.0432 16.3148 82.0036 16.1739 82.1705 16.3375C82.3373 16.501 83.1561 16.3375 83.1561 16.3375C83.1561 16.3375 83.9772 14.6103 84.5174 15.1116C85.0576 15.6129 87.3493 15.589 87.3493 15.589C87.6543 15.1856 88.3974 14.8967 88.8619 14.7535C89.2583 14.6216 89.6859 14.6145 90.0864 14.7332C90.2592 14.7845 90.4217 14.8652 90.5666 14.9719L91.9604 16.3255C91.9604 16.3255 92.3589 15.8111 92.3121 15.6953C92.2653 15.5795 92.7815 15.4852 92.7815 15.4852C92.7815 15.4852 93.4622 15.2751 93.7203 15.2047C93.9784 15.1343 94.2149 15.4124 94.2365 15.4375C94.2281 15.4076 94.0516 14.8406 94.1164 14.4109C94.1813 13.9812 93.8343 13.5754 93.8343 13.5754C94.6555 11.5676 96.5102 13.2483 96.5102 13.2483C96.5102 13.2483 96.7215 14.3453 96.5342 14.7654C96.3469 15.1856 96.7215 16.0725 96.6747 16.3064C96.6279 16.5404 96.7695 16.9367 96.7695 17.3807C96.7695 17.8248 96.5294 18.6639 96.3938 19.0375C96.2581 19.4111 95.126 20.2515 95.126 20.2515C95.126 20.2515 95.0552 21.5824 94.5618 22.3523C94.0684 23.1222 94.3782 25.7554 94.3782 25.7554C94.3782 25.7554 94.8475 27.8097 95.4346 28.4638C96.0216 29.1179 96.8896 32.8457 96.8896 32.8457Z" fill="#3F3D56"/>
<path opacity="0.1" d="M84.3303 17.4857C84.3303 17.4857 84.0722 16.7158 83.8369 16.6502C83.6033 16.5647 83.3759 16.4634 83.1562 16.347L83.3075 16.0593C83.3075 16.0593 84.1887 16.2981 84.3303 16.5571C84.472 16.8161 84.3303 17.4857 84.3303 17.4857Z" fill="black"/>
<path opacity="0.1" d="M79.611 15.7824C79.5642 16.0212 77.4741 16.2253 77.4741 16.2253L78.5305 15.1725L78.557 15.182C78.9358 15.3301 79.2909 15.5324 79.611 15.7824Z" fill="black"/>
<path d="M73.5652 12.7649C73.6686 12.7649 73.7525 12.6815 73.7525 12.5787C73.7525 12.4758 73.6686 12.3925 73.5652 12.3925C73.4618 12.3925 73.3779 12.4758 73.3779 12.5787C73.3779 12.6815 73.4618 12.7649 73.5652 12.7649Z" fill="#575988"/>
<path d="M73.8055 13.1385C73.9089 13.1385 73.9927 13.0552 73.9927 12.9523C73.9927 12.8495 73.9089 12.7661 73.8055 12.7661C73.702 12.7661 73.6182 12.8495 73.6182 12.9523C73.6182 13.0552 73.702 13.1385 73.8055 13.1385Z" fill="#575988"/>
<path d="M74.0408 13.4835C74.1442 13.4835 74.2281 13.4001 74.2281 13.2973C74.2281 13.1945 74.1442 13.1111 74.0408 13.1111C73.9374 13.1111 73.8535 13.1945 73.8535 13.2973C73.8535 13.4001 73.9374 13.4835 74.0408 13.4835Z" fill="#575988"/>
<path d="M74.2869 13.8559C74.3903 13.8559 74.4742 13.7726 74.4742 13.6697C74.4742 13.5669 74.3903 13.4835 74.2869 13.4835C74.1835 13.4835 74.0996 13.5669 74.0996 13.6697C74.0996 13.7726 74.1835 13.8559 74.2869 13.8559Z" fill="#575988"/>
<path d="M96.4166 13.801C96.5008 13.801 96.5691 13.7331 96.5691 13.6494C96.5691 13.5657 96.5008 13.4978 96.4166 13.4978C96.3324 13.4978 96.2642 13.5657 96.2642 13.6494C96.2642 13.7331 96.3324 13.801 96.4166 13.801Z" fill="#575988"/>
<path d="M96.4405 14.146C96.5247 14.146 96.593 14.0781 96.593 13.9944C96.593 13.9106 96.5247 13.8428 96.4405 13.8428C96.3563 13.8428 96.2881 13.9106 96.2881 13.9944C96.2881 14.0781 96.3563 14.146 96.4405 14.146Z" fill="#575988"/>
<path d="M96.4611 14.4897C96.5453 14.4897 96.6135 14.4218 96.6135 14.3381C96.6135 14.2544 96.5453 14.1865 96.4611 14.1865C96.3769 14.1865 96.3086 14.2544 96.3086 14.3381C96.3086 14.4218 96.3769 14.4897 96.4611 14.4897Z" fill="#575988"/>
<path opacity="0.1" d="M84.3385 23.8122C84.3156 23.7848 89.6086 30.4298 93.7166 26.5898C93.7202 26.591 87.2292 27.466 84.3385 23.8122Z" fill="black"/>
<path opacity="0.1" d="M81.3013 27.2666C81.3013 27.2666 84.4681 27.3525 84.7995 28.2585V29.2015C84.7093 29.2513 84.6079 29.2774 84.5048 29.2774C84.4016 29.2774 84.3002 29.2513 84.21 29.2015C83.8907 29.0296 81.9759 28.0628 81.3013 28.5283V27.2666Z" fill="black"/>
<path d="M81.3604 27.2666C81.3604 27.2666 84.3892 27.349 84.7061 28.2132V29.1108C84.6198 29.1584 84.5227 29.1835 84.424 29.1835C84.3253 29.1835 84.2282 29.1584 84.1419 29.1108C83.8369 28.9485 82.0062 28.0258 81.3604 28.4698V27.2666Z" fill="#3F3D56"/>
<path opacity="0.1" d="M83.0298 20.4293C83.3533 21.174 83.7657 21.8773 84.2579 22.5242C84.7932 23.2392 85.4419 23.8629 86.1786 24.3708C86.1786 24.3708 83.0826 20.8614 83.0298 20.4293Z" fill="black"/>
<path opacity="0.1" d="M81.9937 16.7709C81.9937 16.7709 82.5219 19.0388 83.8832 19.8087L81.9937 16.7709Z" fill="black"/>
<path opacity="0.1" d="M81.1834 17C81.1702 16.9582 80.714 18.7905 82.9385 19.8086C82.9385 19.8086 81.9937 19.4899 81.1834 17Z" fill="black"/>
<path opacity="0.1" d="M95.012 15.4793C94.9772 15.4793 96.1093 16.1955 96.4178 16.5297C96.4178 16.5297 95.6807 15.4316 95.012 15.4793Z" fill="black"/>
<path d="M87.8477 13.912C87.8481 13.9726 87.8612 14.0324 87.886 14.0877C87.9109 14.1431 87.9471 14.1927 87.9922 14.2334C88.0373 14.2741 88.0904 14.3051 88.1482 14.3243C88.206 14.3436 88.2672 14.3507 88.3279 14.3453C89.179 14.3978 90.0662 14.4348 90.8489 14.1065C90.9957 14.0544 91.1276 13.9676 91.2331 13.8535C91.3723 13.6828 91.3999 13.4512 91.4563 13.2388C91.5668 12.8234 91.8021 12.4545 91.9714 12.0594C92.2577 11.3919 92.3537 10.6589 92.2487 9.9407C92.2265 9.72056 92.1534 9.50852 92.035 9.3212C91.8093 9.0001 91.3975 8.86999 91.0986 8.61455C90.7997 8.35911 90.6076 7.96879 90.2583 7.779C89.9437 7.60472 89.5584 7.62621 89.2042 7.68589C88.5077 7.80351 87.8402 8.0527 87.2379 8.41999C87.035 8.53935 86.8129 8.68617 86.58 8.64201C86.3759 8.60381 86.227 8.43312 86.0998 8.27317C85.9361 8.65515 85.8673 9.07073 85.8993 9.48473C85.9082 9.54548 85.9061 9.60731 85.8933 9.66735C85.864 9.73995 85.8193 9.80547 85.7625 9.85953C85.5524 10.0983 85.4215 10.4862 85.6292 10.7321C85.7192 10.8383 85.8585 10.8968 85.9461 11.0054C86.1034 11.2 86.0506 11.4829 86.047 11.7312C86.0383 11.8179 86.0604 11.9049 86.1094 11.9771C86.1548 12.0192 86.2104 12.0489 86.2708 12.0633C86.3311 12.0777 86.3942 12.0764 86.4539 12.0594C86.5729 12.0238 86.6977 12.012 86.8213 12.0248C86.9514 12.0669 87.0638 12.1509 87.1406 12.2635C87.5284 12.7661 87.682 13.3128 87.8477 13.912Z" fill="#2D293D"/>
<g opacity="0.1">
<path opacity="0.1" d="M91.3326 13.6423C91.2271 13.7564 91.0953 13.8433 90.9485 13.8954C90.161 14.2213 89.275 14.1843 88.4275 14.1341C88.3365 14.135 88.2465 14.115 88.1646 14.0756C88.0349 14.0004 87.9857 13.8429 87.9461 13.6996C87.7804 13.1028 87.628 12.5549 87.2342 12.0572C87.1583 11.9424 87.0459 11.8562 86.9149 11.8125C86.7913 11.8009 86.6667 11.8126 86.5475 11.8471C86.4879 11.8642 86.4249 11.8657 86.3645 11.8515C86.3042 11.8373 86.2485 11.8078 86.203 11.7659C86.154 11.6937 86.1319 11.6067 86.1406 11.52C86.1406 11.2694 86.197 10.9888 86.0397 10.7943C85.9521 10.6857 85.8128 10.6272 85.7228 10.5197C85.6641 10.4405 85.628 10.347 85.6185 10.249C85.609 10.1511 85.6264 10.0524 85.6688 9.9635C85.5187 10.2022 85.4551 10.5018 85.6292 10.7071C85.7192 10.8134 85.8585 10.8719 85.9461 10.9805C86.1034 11.1763 86.0505 11.458 86.0469 11.7062C86.0377 11.7928 86.0594 11.8798 86.1082 11.9521C86.1537 11.9944 86.2095 12.0242 86.2701 12.0387C86.3307 12.0531 86.394 12.0517 86.4539 12.0345C86.5728 11.9989 86.6977 11.9871 86.8212 11.9999C86.9514 12.042 87.0638 12.126 87.1406 12.2386C87.5331 12.7364 87.6868 13.283 87.8525 13.8823C87.8719 14.0297 87.9459 14.1646 88.0601 14.2606C88.1424 14.3001 88.2329 14.3197 88.3242 14.3179C89.1754 14.3705 90.0625 14.4087 90.8452 14.0792C90.9922 14.0275 91.1241 13.9406 91.2294 13.8262C91.2823 13.7589 91.3229 13.683 91.3494 13.6017C91.3506 13.6173 91.3422 13.6304 91.3326 13.6423Z" fill="black"/>
<path opacity="0.1" d="M85.899 9.59461C85.9367 9.55389 85.9657 9.50597 85.9842 9.45376C85.995 9.39336 85.995 9.33153 85.9842 9.27113C85.9608 8.93081 86.0053 8.58925 86.1151 8.26607L86.0995 8.24817C85.9352 8.62958 85.8664 9.0449 85.899 9.45853C85.9026 9.50382 85.9026 9.54932 85.899 9.59461Z" fill="black"/>
</g>
<path opacity="0.1" d="M87.3491 15.5951C87.3491 15.5951 90.8389 16.0558 91.1523 15.5342L87.3491 15.5951Z" fill="black"/>
<path opacity="0.1" d="M94.1333 14.1591C94.1333 14.1591 96.0733 14.1591 96.4995 14.8848L94.1333 14.1591Z" fill="black"/>
<path d="M104.987 78.6342C104.411 79.1456 103.664 79.4234 102.892 79.4124C102.695 79.4124 102.423 79.4494 102.421 79.6452C102.426 79.7026 102.446 79.7578 102.479 79.8051C102.723 80.2089 103.107 80.5093 103.559 80.649C103.98 80.7756 104.429 80.7541 104.867 80.7314L106.145 80.6658C106.385 80.6526 106.625 80.6407 106.866 80.6109C107.106 80.581 107.367 80.5321 107.618 80.4915C108.235 80.4043 108.858 80.3756 109.48 80.4055C109.646 80.4115 109.84 80.4055 109.939 80.2862C110.037 80.1668 109.987 79.9388 109.95 79.7598C109.873 79.3909 109.95 79.0042 109.879 78.6342C109.759 77.9848 109.193 77.4871 108.574 77.2519C107.998 77.0347 106.977 76.7852 106.432 77.1481C105.857 77.5288 105.505 78.1651 104.987 78.6342Z" fill="#3F3D56"/>
<path d="M106.257 56.8787C106.369 57.4123 106.889 57.8205 106.904 58.3648C106.917 58.8017 106.604 59.1681 106.378 59.5418C106.165 59.9287 105.986 60.3328 105.841 60.7497C105.416 61.8353 104.889 62.8785 104.266 63.8652C103.966 64.3426 103.63 64.8523 103.698 65.4074C103.746 65.6669 103.838 65.9164 103.971 66.145L104.871 67.9236C105.068 68.2787 105.223 68.6557 105.331 69.0468C105.409 69.3846 105.416 69.7344 105.462 70.0781C105.604 71.1691 106.119 72.2673 105.814 73.3249C105.787 73.4156 105.694 73.5254 105.62 73.4621C105.918 74.0148 106.157 74.571 106.134 75.1977C106.122 75.526 106.021 75.8685 106.143 76.1741C106.194 76.3018 106.284 76.4212 106.283 76.5585C106.283 76.6492 106.241 76.7339 106.231 76.8223C106.206 77.0741 106.439 77.2842 106.68 77.3642C106.922 77.4441 107.185 77.4382 107.428 77.511C107.896 77.6507 108.231 78.0517 108.629 78.3298C109.036 78.6091 109.517 78.7646 110.012 78.7775C110.082 78.7849 110.154 78.7708 110.216 78.7369C110.251 78.7062 110.279 78.6684 110.299 78.626C110.318 78.5836 110.328 78.5376 110.329 78.491C110.35 78.268 110.317 78.0432 110.23 77.8363C110.144 77.6294 110.008 77.4468 109.834 77.3045C109.758 77.257 109.695 77.1914 109.65 77.1135C109.628 77.0446 109.622 76.9714 109.634 76.8998C109.706 75.9215 109.688 74.9386 109.581 73.9635C109.532 73.6544 109.517 73.3411 109.534 73.0288C109.559 72.7686 109.638 72.5108 109.61 72.2518C109.581 71.9927 109.448 71.7564 109.369 71.5069C109.23 71.0629 109.269 70.5854 109.249 70.1211C109.225 69.3142 109.039 68.5216 108.854 67.7338C108.781 67.4246 108.701 67.1012 108.481 66.872C108.294 66.6774 107.991 66.4912 108.062 66.2322C108.101 66.1367 108.16 66.0502 108.234 65.9779C108.321 65.8694 108.385 65.7445 108.421 65.6107C108.458 65.4769 108.467 65.337 108.448 65.1997C108.526 65.2197 108.61 65.2118 108.684 65.1774C108.758 65.143 108.817 65.0842 108.852 65.0111C110.314 64.3247 111.493 62.952 112.019 61.4301C112.05 61.3171 112.098 61.2093 112.161 61.1102C112.296 60.9216 112.532 60.8405 112.74 60.7366C113.396 60.4083 113.848 59.7936 114.264 59.192C114.504 58.8435 114.744 58.483 114.852 58.0724C114.909 57.8068 114.936 57.5358 114.932 57.2643L114.97 55.8617C114.978 55.7694 114.969 55.6763 114.943 55.5872C114.908 55.5039 114.856 55.4285 114.791 55.3652C114.392 54.9453 113.867 54.6642 113.295 54.563C112.911 54.495 112.518 54.5081 112.129 54.4759C111.375 54.4138 110.631 54.1811 109.877 54.2372C108.692 54.3243 107.637 55.1408 107.079 56.184C106.883 56.5517 106.677 56.8716 106.257 56.8787Z" fill="#464353"/>
<path d="M99.6779 47.7592C99.6939 47.9757 99.6645 48.1932 99.5915 48.3978C99.499 48.5936 99.2673 48.7464 99.0645 48.6664C99.1257 48.5291 98.9636 48.3727 98.8124 48.3895C98.738 48.4065 98.6688 48.4413 98.6109 48.4908C98.553 48.5402 98.508 48.603 98.4798 48.6735C98.3795 48.874 98.3459 49.101 98.3838 49.3217C98.4318 49.5962 98.5915 49.86 98.5495 50.1358C98.5158 50.3649 98.3466 50.5929 98.4366 50.8054C98.495 50.9025 98.5683 50.9899 98.6539 51.0644C98.7725 51.2097 98.8305 51.3947 98.816 51.5812C98.8015 51.7678 98.7155 51.9417 98.5759 52.0671L100.847 52.1125C100.764 52.4896 100.935 52.8752 101.129 53.2106C101.674 54.1328 102.426 54.9169 103.327 55.5015C104.227 56.0862 105.252 56.4554 106.32 56.5803C106.262 56.6138 106.213 56.6597 106.175 56.7146C106.137 56.7695 106.112 56.832 106.102 56.8977C106.091 56.9634 106.096 57.0306 106.115 57.0944C106.134 57.1582 106.166 57.217 106.211 57.2666C106.396 57.4493 106.709 57.4266 106.941 57.3084C107.173 57.1902 107.354 56.9945 107.565 56.8429C107.938 56.5801 108.393 56.4582 108.848 56.4991C109.133 56.5266 109.409 56.6185 109.695 56.6328C110.535 56.677 111.255 56.0754 112.064 55.8295C112.654 55.6492 113.323 55.6492 113.817 55.2828C114.031 55.1252 114.206 54.8662 114.144 54.6108C114.092 54.464 114.01 54.3294 113.904 54.2157C113.619 53.8492 113.451 53.4088 113.247 52.9922C112.843 52.1674 112.286 51.4256 111.606 50.8054C111.093 50.3593 110.549 49.9493 109.978 49.5783C109.84 49.4771 109.693 49.3888 109.539 49.3145C109.339 49.2274 109.119 49.1856 108.938 49.0758C108.672 48.9087 108.518 48.6139 108.313 48.3763C107.863 47.8535 107.171 47.6136 106.617 47.203C106.245 46.9272 105.916 46.5644 105.471 46.4319C105.255 46.3662 105.026 46.3614 104.81 46.297C104.319 46.149 103.961 45.7157 103.48 45.5402C103.099 45.4017 102.679 45.4376 102.279 45.3886C101.829 45.3333 101.398 45.1703 101.025 44.9135C100.905 44.8161 100.77 44.738 100.625 44.682C100.016 44.4982 99.9672 45.625 99.9048 46.0153C99.8244 46.5954 99.6779 47.1719 99.6779 47.7592Z" fill="#7A3CDF"/>
<path d="M100.271 51.5383C100.373 52.6388 99.5377 53.7047 99.7814 54.7826C99.833 55.0118 99.9327 55.2302 99.9687 55.463C100.071 56.1016 99.6866 56.7068 99.3204 57.2415L96.1751 61.8311C96.0489 62.0326 95.8981 62.2178 95.7262 62.3826C95.1259 62.9137 94.2232 62.86 93.4332 63.0176C92.8783 63.131 92.3544 63.3614 91.8966 63.6932C91.876 63.709 91.8625 63.7323 91.8589 63.7579C91.8553 63.7836 91.8619 63.8096 91.8774 63.8305C92.0078 64.007 92.1806 64.1484 92.38 64.2416C92.5794 64.3348 92.7991 64.3769 93.0191 64.364C93.1019 64.4715 93.0191 64.6314 92.905 64.709C92.737 64.8284 92.5041 64.8558 92.4705 65.1411C92.4591 65.2402 92.4792 65.3404 92.5281 65.4276C92.6552 65.6199 92.8522 65.7559 93.0779 65.8072C94.1667 66.139 95.3432 65.5565 96.1583 64.7651C96.9735 63.9737 97.5581 62.9746 98.3576 62.1701C98.8006 61.7237 99.3036 61.3429 99.7598 60.9108C100.67 60.0478 101.378 59.001 102.06 57.9517C102.265 57.6354 102.473 57.3107 102.558 56.9443C102.643 56.5778 102.604 56.2066 102.701 55.8521C102.828 55.3878 103.17 55.0166 103.455 54.6274C104.013 53.8635 104.386 52.9289 104.312 51.9871C104.238 51.0453 103.652 50.1166 102.759 49.7967C102.482 49.6873 102.177 49.6689 101.888 49.7442C101.522 49.8564 101.252 50.1572 101.002 50.4461L100.402 51.1312C100.256 51.2829 100.141 51.4618 100.065 51.6576C100.026 51.7563 100.017 51.8639 100.038 51.9677C100.059 52.0714 100.11 52.1668 100.185 52.2425" fill="#FBBEBE"/>
<path d="M101.866 47.0239C101.453 47.0478 100.998 47.0884 100.706 47.382C100.584 47.5168 100.485 47.6709 100.413 47.838C100.13 48.4121 99.8538 49.0125 99.8333 49.6523C99.8165 50.1632 99.9654 50.6633 100.043 51.1682C100.108 51.5884 99.9438 52.0169 99.9126 52.4419C100.425 52.2855 101.102 52.073 101.567 51.8092C101.884 51.629 102.19 51.4237 102.536 51.3091C103.029 51.1456 103.856 51.4285 104.326 51.6553C104.351 51.3282 104.103 50.7576 104.13 50.4294C104.134 50.2912 104.158 50.1544 104.203 50.0235C104.273 49.8851 104.356 49.7537 104.452 49.6308C104.63 49.342 104.712 49.0043 104.686 48.6662C104.66 48.3281 104.527 48.0068 104.306 47.7484C103.89 47.2829 103.238 47.1086 102.616 47.0322C102.224 46.9871 101.83 46.9735 101.436 46.9917" fill="#7A3CDF"/>
</g>
<defs>
<linearGradient id="paint0_linear" x1="84.7803" y1="65.1949" x2="84.7803" y2="6.86593" gradientUnits="userSpaceOnUse">
<stop stop-color="#808080" stop-opacity="0.25"/>
<stop offset="0.54" stop-color="#808080" stop-opacity="0.12"/>
<stop offset="1" stop-color="#808080" stop-opacity="0.1"/>
</linearGradient>
<clipPath id="clip0">
<rect width="126" height="81" fill="white"/>
</clipPath>
</defs>
</svg>
