<svg width="104" height="84" viewBox="0 0 104 84" fill="none" xmlns="http://www.w3.org/2000/svg">
<g clip-path="url(#clip0)">
<path d="M59.2469 74.3128C58.5278 73.304 57.5543 72.5659 56.3304 72.2897C55.2632 72.0488 54.1658 72.0898 53.081 72.0982L39.3637 72.2042C38.189 72.2132 37.0626 73.2328 37.1171 74.4548C37.1713 75.6664 38.1045 76.7151 39.3637 76.7054C43.3819 76.6743 47.4001 76.6433 51.4183 76.6122C52.3656 76.6049 53.3135 76.5878 54.2608 76.5909C54.4736 76.5916 54.6854 76.6029 54.898 76.6053C54.9495 76.6059 54.9866 76.6054 55.0129 76.6043C55.0195 76.6063 55.025 76.6081 55.0336 76.6105C55.1444 76.641 55.2582 76.662 55.3697 76.691C55.3306 76.6921 55.4421 76.7618 55.498 76.7853C55.5057 76.8005 55.5221 76.8275 55.5494 76.8691C55.5876 76.9408 55.7007 77.1586 55.7053 77.1518C55.8752 77.582 56.0153 78.0235 56.1247 78.473C56.3858 79.4643 56.4432 79.6715 56.4808 80.6015C56.5283 81.7763 57.4801 82.9081 58.7274 82.8521C59.9039 82.7993 61.0249 81.8615 60.974 80.6015C60.8881 78.4783 60.5161 76.0933 59.2469 74.3128Z" fill="#E6E6E6"/>
<path d="M40.1699 79.3915C39.9122 77.8274 39.6595 76.2623 39.3968 74.6991C39.1303 73.1132 38.586 71.661 37.3541 70.6202C37.025 70.3421 36.6837 70.0825 36.3409 69.8237C36.2204 69.7327 36.1001 69.6416 35.981 69.5486C35.9739 69.543 35.9694 69.5396 35.9632 69.5347C35.9501 69.5234 35.9344 69.51 35.9133 69.4921C35.3998 69.0568 34.9037 68.6021 34.4311 68.1188C34.0115 67.6896 33.6101 67.2421 33.2271 66.7762C33.1314 66.6599 33.0369 66.5425 32.9437 66.424C32.9276 66.4037 32.8413 66.2918 32.7844 66.2189C32.7314 66.1458 32.6347 66.0139 32.6184 65.9909C32.5095 65.8366 32.4025 65.6808 32.2974 65.5236C31.5819 64.4496 30.9623 63.3145 30.4458 62.1315C30.3946 62.0141 30.3446 61.8961 30.2958 61.7774C30.2827 61.7412 30.2658 61.6947 30.2433 61.6327C30.1392 61.346 30.0353 61.0596 29.9402 60.7695C29.738 60.1533 29.5642 59.528 29.4187 58.8936C29.3468 58.5804 29.2821 58.2655 29.2245 57.9491C29.1948 57.7864 29.167 57.6233 29.1412 57.4599C29.1369 57.4328 29.1117 57.2565 29.0968 57.1568C29.0859 57.0567 29.0654 56.8795 29.0627 56.8521C29.0462 56.6874 29.0316 56.5226 29.0189 56.3575C28.9901 55.9862 28.9707 55.6142 28.9606 55.2416C28.9433 54.5794 28.9552 53.9173 28.9961 53.2552C29.0194 52.8832 29.0526 52.5122 29.0935 52.1418C29.0959 52.1191 29.0979 52.101 29.0996 52.0847C29.1021 52.0681 29.105 52.0493 29.1084 52.026C29.1387 51.8213 29.1705 51.6169 29.2061 51.4132C29.3408 50.6396 29.5161 49.8736 29.7311 49.1185C29.8329 48.7613 29.9435 48.4071 30.0629 48.0557C30.1161 47.8998 30.171 47.7444 30.2275 47.5896C30.2238 47.5996 30.3935 47.1654 30.3958 47.1508C31.0691 45.5572 32.1703 44.1045 32.1718 42.2943C32.1728 41.0686 31.1377 39.8945 29.9252 39.9512C29.3206 39.974 28.7485 40.231 28.3294 40.6681C27.9103 41.1052 27.677 41.6882 27.6786 42.2943C27.6786 42.3218 27.6784 42.3453 27.6784 42.368C27.6671 42.4062 27.6576 42.438 27.6491 42.4662C27.5178 42.752 27.357 43.0236 27.2129 43.3023C26.8182 44.0652 26.4814 44.8531 26.1614 45.6526C25.6376 46.9545 25.2366 48.3027 24.9638 49.6795C24.3708 52.6962 24.3247 55.7952 24.8279 58.8282C25.699 64.147 28.5715 69.2385 32.565 72.6608C32.9116 72.9578 33.2666 73.2448 33.625 73.526C33.7733 73.6423 33.9228 73.7566 34.0731 73.87C34.1441 73.9237 34.4384 74.1561 34.3089 74.0435C34.5873 74.2815 34.7045 74.4013 34.776 74.5765C34.7863 74.617 34.8005 74.6719 34.8196 74.7469C34.87 74.9445 34.9178 75.1418 34.9576 75.3422C35.3052 77.0937 35.5468 78.8745 35.8372 80.6373C36.0367 81.8484 37.5252 82.6367 38.6008 82.2737C39.8527 81.8512 40.3837 80.6893 40.1699 79.3915Z" fill="#E6E6E6"/>
<path d="M59.4745 83.9342C58.531 83.9367 57.6251 83.5641 56.9554 82.8983C56.2857 82.2325 55.9071 81.3277 55.9024 80.3825V77.8152C53.2193 78.1161 44.0315 78.0464 41.3979 77.6225V80.2798C41.3908 81.2243 41.0113 82.1276 40.3422 82.7929C39.6731 83.4582 38.7685 83.8316 37.8257 83.8316C36.883 83.8316 35.9784 83.4582 35.3093 82.7929C34.6402 82.1276 34.2607 81.2243 34.2536 80.2798V75.0624C30.6866 73.0773 27.7129 70.1745 25.6395 66.6537C23.5662 63.1329 22.4682 59.1216 22.459 55.0338C22.459 48.0246 25.6299 41.486 31.1588 37.0946C34.7536 34.2297 39.1212 32.5067 43.7008 32.147C44.3224 32.0982 44.9477 32.0735 45.5596 32.0735C47.7153 32.0735 57.4412 32.4071 59.8814 33.1104L65.4457 27.5793C65.5275 27.4969 65.6319 27.4407 65.7457 27.418C65.8595 27.3953 65.9774 27.4071 66.0845 27.4518C66.1924 27.4948 66.2848 27.5694 66.3496 27.666C66.4144 27.7626 66.4485 27.8765 66.4474 27.9928V28.8723L67.5309 27.7973C67.6125 27.7148 67.7169 27.6586 67.8306 27.6358C67.9443 27.6131 68.0622 27.6248 68.1693 27.6696C68.2773 27.7125 68.3697 27.7872 68.4346 27.8838C68.4994 27.9804 68.5336 28.0944 68.5326 28.2108V38.0382C71.3246 40.5597 73.4527 43.7323 74.7281 47.2748C76.0035 50.8173 76.3869 54.6203 75.8443 58.3467C75.3018 62.0731 73.85 65.6079 71.6176 68.6378C69.3853 71.6678 66.4413 74.0993 63.0466 75.7168V80.3825C63.042 81.3277 62.6633 82.2325 61.9937 82.8983C61.324 83.5641 60.418 83.9367 59.4745 83.9342ZM56.1833 77.4962V80.3825C56.1903 81.2523 56.5402 82.0841 57.1567 82.6966C57.7731 83.3091 58.6062 83.6529 59.4745 83.6529C60.3428 83.6529 61.1759 83.3091 61.7924 82.6966C62.4088 82.0841 62.7587 81.2523 62.7658 80.3825V75.5392L62.846 75.501C66.655 73.6903 69.8886 70.8575 72.1877 67.3171C75.1174 62.7992 76.3358 57.3799 75.6224 52.0401C74.909 46.7003 72.3109 41.7927 68.2984 38.2056L68.2517 38.1636V28.2108C68.2527 28.1504 68.2352 28.091 68.2015 28.0408C68.1678 27.9907 68.1196 27.952 68.0633 27.9301C68.0074 27.9062 67.9455 27.8997 67.8859 27.9116C67.8262 27.9235 67.7715 27.9531 67.729 27.9967L66.1666 29.5469V27.9928C66.1676 27.9324 66.1501 27.873 66.1164 27.8228C66.0827 27.7727 66.0345 27.734 65.9782 27.7121C65.9221 27.6882 65.8601 27.6818 65.8004 27.6938C65.7406 27.7057 65.6859 27.7355 65.6433 27.7792L59.9599 33.4287L59.8791 33.4033C57.6106 32.692 47.7317 32.3548 45.5596 32.3548C44.955 32.3548 44.337 32.3793 43.7228 32.4275C39.1989 32.7828 34.8843 34.4849 31.3333 37.315C25.872 41.6527 22.7398 48.111 22.7398 55.0338C22.7491 59.0854 23.8412 63.0606 25.9026 66.5465C27.964 70.0324 30.9194 72.9018 34.462 74.8566L34.5345 74.8968V80.2799C34.5417 81.1495 34.8916 81.9812 35.5081 82.5936C36.1245 83.206 36.9576 83.5496 37.8257 83.5496C38.6939 83.5496 39.5269 83.206 40.1434 82.5936C40.7598 81.9812 41.1098 81.1495 41.117 80.2799V77.2858L41.2834 77.3171C43.6502 77.7632 53.6161 77.8335 56.0246 77.517L56.1833 77.4962Z" fill="#3F3D56"/>
<path d="M40.4384 16.7554L24.8891 21.4366C24.3945 21.5861 23.9794 21.9262 23.735 22.3821C23.4905 22.838 23.4367 23.3725 23.5854 23.8681C23.7341 24.3637 24.073 24.7799 24.5279 25.0253C24.9827 25.2707 25.5161 25.3252 26.011 25.1769L39.6184 21.0794L39.9034 20.9936C39.9611 19.522 40.3596 18.0841 41.0674 16.7934C40.9786 16.7533 40.8837 16.7286 40.7866 16.7202C40.6694 16.7089 40.551 16.7208 40.4384 16.7554Z" fill="#3F51B5"/>
<path d="M25.7424 26.1748C25.5359 26.1743 25.3349 26.1089 25.1677 25.9877C25.0004 25.8665 24.8754 25.6957 24.8103 25.4995L23.838 22.5602C23.7974 22.4375 23.7813 22.3079 23.7907 22.1789C23.8001 22.05 23.8347 21.9241 23.8926 21.8086C23.9506 21.693 24.0307 21.59 24.1283 21.5055C24.226 21.4209 24.3393 21.3565 24.4619 21.3158L37.1174 17.1142C37.2399 17.0735 37.3693 17.0574 37.498 17.0668C37.6267 17.0762 37.7524 17.1109 37.8677 17.1689C37.983 17.2269 38.0859 17.3071 38.1703 17.4049C38.2547 17.5028 38.319 17.6163 38.3596 17.739L39.3319 20.6783C39.4128 20.9201 39.3966 21.1839 39.2867 21.4138C39.1768 21.6438 38.9819 21.8219 38.7432 21.9104C38.7315 21.9148 38.7197 21.9189 38.7078 21.9228L26.0525 26.1243C25.9525 26.1577 25.8478 26.1748 25.7424 26.1748Z" fill="#2F2E41"/>
<path d="M49.4431 11.5354C46.8889 11.5364 44.4352 12.533 42.6015 14.3143C40.7678 16.0956 39.698 18.5218 39.6184 21.0793C39.6156 21.1792 39.6143 21.2805 39.6143 21.3818C39.6143 23.3292 40.1907 25.2329 41.2707 26.8521C42.3507 28.4713 43.8858 29.7334 45.6818 30.4786C47.4778 31.2239 49.454 31.4188 51.3607 31.0389C53.2673 30.659 55.0186 29.7212 56.3932 28.3442C57.7678 26.9671 58.7039 25.2127 59.0832 23.3027C59.4624 21.3927 59.2678 19.4129 58.5238 17.6137C57.7799 15.8145 56.5201 14.2767 54.9038 13.1948C53.2874 12.1129 51.3871 11.5354 49.4431 11.5354ZM49.4431 30.9468C46.9116 30.9441 44.4846 29.9356 42.6946 28.1423C40.9045 26.3491 39.8977 23.9178 39.8951 21.3818C39.8951 21.2509 39.8979 21.1215 39.9035 20.9935C39.9795 19.1199 40.6037 17.31 41.6983 15.7888C42.7929 14.2677 44.3097 13.1024 46.0602 12.4379C47.8106 11.7734 49.7173 11.6391 51.5434 12.0515C53.3694 12.4639 55.0341 13.405 56.3305 14.7576C57.627 16.1103 58.4979 17.8148 58.835 19.6594C59.1722 21.5039 58.9606 23.407 58.2267 25.1321C57.4929 26.8571 56.269 28.328 54.7073 29.3619C53.1456 30.3957 51.315 30.9468 49.4431 30.9468Z" fill="#3F3D56"/>
<path d="M57.7273 21.3817C57.7273 23.5827 56.8545 25.6936 55.3009 27.25C53.7473 28.8064 51.6402 29.6808 49.443 29.6808C47.2459 29.6808 45.1387 28.8064 43.5851 27.25C42.0315 25.6936 41.1587 23.5827 41.1587 21.3817C41.1587 21.1186 41.1713 20.8598 41.1952 20.6038C41.3948 18.4796 42.4035 16.514 44.0117 15.1151C45.6199 13.7163 47.7042 12.9917 49.8317 13.0918C51.9592 13.1919 53.9665 14.109 55.4367 15.6527C56.907 17.1964 57.7273 19.248 57.7273 21.3817Z" fill="#E6E6E6"/>
<path d="M51.9103 21.9331C51.7094 21.6686 51.4453 21.4591 51.1422 21.324C50.7684 21.1662 50.3824 21.0392 49.988 20.9443V18.6852C50.5943 18.7768 51.1628 19.0365 51.6294 19.435L52.0872 18.4574C51.8239 18.2224 51.5217 18.0353 51.1941 17.9045C50.8311 17.7573 50.45 17.6594 50.061 17.6134V16.4684H49.0009V17.6246C48.5916 17.6707 48.1967 17.8035 47.8425 18.0143C47.5226 18.204 47.2533 18.4684 47.0576 18.7851C46.8708 19.0941 46.7741 19.4493 46.7782 19.8105C46.76 20.202 46.8732 20.5882 47.0997 20.9077C47.3083 21.1843 47.5837 21.4031 47.9001 21.5435C48.2798 21.7059 48.6725 21.8363 49.074 21.9331V24.0979C48.3585 24.0438 47.6769 23.7714 47.1208 23.3172L46.6631 24.2962C46.974 24.5537 47.3276 24.7546 47.7077 24.8898C48.1243 25.0392 48.5595 25.1301 49.001 25.1599V26.2951H50.061V25.1388C50.6499 25.0744 51.2021 24.8207 51.6351 24.4158C51.8257 24.2326 51.9764 24.0117 52.0774 23.7672C52.1785 23.5226 52.2277 23.2597 52.222 22.9951C52.2396 22.6161 52.1298 22.2422 51.9103 21.9331ZM49.074 20.7051C48.8157 20.6267 48.5756 20.4976 48.3676 20.3253C48.2852 20.2519 48.2201 20.1611 48.1769 20.0594C48.1337 19.9578 48.1135 19.8478 48.1177 19.7374C48.1101 19.4868 48.202 19.2435 48.3733 19.0608C48.5632 18.8691 48.8082 18.7417 49.074 18.6965V20.7051ZM50.6536 23.6984C50.4745 23.8825 50.2412 24.0042 49.988 24.0459V22.1835C50.23 22.2485 50.4564 22.3619 50.6536 22.5169C50.7283 22.5808 50.7877 22.6608 50.8273 22.7509C50.867 22.841 50.8858 22.9389 50.8825 23.0373C50.8922 23.2787 50.8105 23.5149 50.6536 23.6984Z" fill="#3F51B5"/>
<path d="M26.1932 38.0874C25.9762 38.087 25.7653 38.0149 25.5933 37.8823C25.4213 37.7496 25.2978 37.5638 25.2419 37.3537L24.7125 35.3465C24.6463 35.0942 24.6826 34.8258 24.8136 34.6003C24.9445 34.3749 25.1594 34.2106 25.4111 34.1436L42.1119 29.7226C42.3639 29.6568 42.6317 29.6936 42.8567 29.825C43.0817 29.9564 43.2456 30.1717 43.3125 30.4239L43.761 32.1245L43.677 32.131C39.3937 32.4646 35.2955 34.0203 31.8672 36.6141L31.8429 36.6259L26.4426 38.055C26.3612 38.0765 26.2774 38.0874 26.1932 38.0874Z" fill="#2F2E41"/>
<path d="M23.4275 48.0022C21.4684 47.7122 19.5947 47.0025 17.9342 45.9215C17.1116 45.3863 16.35 44.7623 15.6632 44.0608C14.9853 43.3681 14.3368 42.5808 14.001 41.6584C13.678 40.8049 13.6946 39.8597 14.0476 39.0182C14.3957 38.1819 15.0606 37.5179 15.8966 37.172C16.7376 36.836 17.7537 36.8 18.5722 37.168C18.9623 37.3393 19.2998 37.6114 19.5501 37.9565C19.6665 38.1156 19.7526 38.2948 19.8043 38.4852C19.8522 38.6576 19.8566 38.8393 19.817 39.0139C19.769 39.1882 19.6843 39.3502 19.5687 39.4891C19.4531 39.6279 19.3092 39.7404 19.1467 39.8189C18.7889 40.0028 18.4013 40.1212 18.002 40.1687C17.6004 40.2235 17.0235 40.2734 16.7007 39.9505C16.6342 39.8866 16.5819 39.8094 16.5473 39.7239C16.523 39.6585 16.5147 39.5881 16.5231 39.5188C16.5183 39.5494 16.5425 39.4524 16.5412 39.4562C16.536 39.4706 16.5139 39.5055 16.5454 39.4518C16.5552 39.4341 16.5661 39.4171 16.5781 39.4008C16.5674 39.4146 16.544 39.4377 16.5858 39.3981C16.6204 39.3602 16.6649 39.3327 16.7142 39.3187C16.7337 39.313 16.7534 39.3085 16.7729 39.3032C16.8224 39.2896 16.7235 39.3039 16.7742 39.3023C16.7937 39.3017 16.8135 39.3021 16.833 39.3013C16.8827 39.299 16.784 39.2877 16.8316 39.2997C16.8501 39.3043 16.8684 39.3089 16.8866 39.3146C16.9262 39.3271 16.8586 39.2855 16.8854 39.3167C16.9169 39.3532 16.8524 39.2812 16.8882 39.3165C16.9059 39.334 16.9227 39.3525 16.9384 39.372C17.0004 39.4333 17.084 39.4677 17.1711 39.4677C17.2582 39.4677 17.3418 39.4333 17.4038 39.372C17.4637 39.3092 17.4971 39.2257 17.4971 39.1388C17.4971 39.052 17.4637 38.9685 17.4038 38.9057C17.0793 38.5026 16.4382 38.6022 16.1099 38.9429C15.6912 39.3773 15.857 40.0658 16.2643 40.4448C16.7254 40.874 17.3784 40.9038 17.9715 40.8318C18.4727 40.7837 18.9612 40.6454 19.4134 40.4236C19.8627 40.2024 20.2142 39.8221 20.3996 39.3563C20.4834 39.1076 20.5135 38.844 20.4879 38.5829C20.4623 38.3218 20.3817 38.0691 20.2513 37.8415C19.7277 36.8553 18.6434 36.3497 17.5716 36.2621C17.0198 36.2188 16.465 36.2855 15.9391 36.4585C15.4132 36.6314 14.9268 36.9071 14.508 37.2696C13.7008 37.9976 13.2037 39.0086 13.1196 40.0934C13.026 41.2181 13.4616 42.3104 14.0967 43.2181C14.7616 44.1404 15.555 44.9624 16.4528 45.6591C18.2078 47.0628 20.2665 48.0354 22.4641 48.4991C22.7255 48.5532 22.9883 48.5995 23.2525 48.6381C23.3366 48.6585 23.4252 48.646 23.5004 48.6032C23.5757 48.5604 23.6318 48.4905 23.6574 48.4078C23.6799 48.3235 23.6685 48.2337 23.6254 48.1578C23.5824 48.0819 23.5113 48.026 23.4275 48.0022L23.4275 48.0022Z" fill="#3F3D56"/>
<path d="M54.7934 33.672C51.9231 33.6314 49.0618 33.7044 46.2096 33.8909C45.2346 33.9547 44.3911 34.2999 44.3911 34.8801C44.3911 35.3652 45.2279 35.9334 46.2096 35.8692C49.0603 35.6827 51.9216 35.6098 54.7934 35.6503C57.1346 35.6834 57.1332 33.7051 54.7934 33.672Z" fill="#CCCCCC"/>
<path d="M50.5512 35.5523C50.241 35.5523 42.9541 35.5407 42.9541 34.5323C42.9541 33.5241 50.241 33.5125 50.5512 33.5125C50.8614 33.5125 58.1483 33.5241 58.1483 34.5323C58.1483 35.5407 50.8614 35.5523 50.5512 35.5523ZM43.239 34.5323C43.4384 34.838 46.117 35.2709 50.5512 35.2709C54.9855 35.2709 57.664 34.838 57.8634 34.5323C57.664 34.2267 54.9855 33.7938 50.5512 33.7938C46.117 33.7938 43.4384 34.2267 43.239 34.5323V34.5323Z" fill="#3F3D56"/>
<path d="M73.6707 62.0601C75.2838 62.0153 77.2914 61.9592 78.838 60.8274C79.2986 60.4765 79.677 60.0291 79.9467 59.5163C80.2164 59.0035 80.371 58.4378 80.3995 57.8589C80.4311 56.9651 80.1087 56.1848 79.4917 55.6626C78.6839 54.9788 77.5044 54.8184 76.2331 55.1927L77.5502 45.5506L76.5834 45.4178L75.035 56.7534L75.8424 56.3822C76.7785 55.9521 78.0634 55.7333 78.8618 56.4092C79.0579 56.5859 79.2106 56.8055 79.3082 57.051C79.4057 57.2965 79.4455 57.5612 79.4243 57.8246C79.4006 58.2554 79.2846 58.6761 79.0841 59.058C78.8836 59.44 78.6033 59.7741 78.2624 60.0378C77.0588 60.9185 75.4585 61.0322 73.6436 61.083L73.6707 62.0601Z" fill="#3F3D56"/>
<path d="M70.9976 46.3821H65.7417V47.3597H70.9976V46.3821Z" fill="#3F3D56"/>
<path d="M28.572 42.5838C28.338 42.5831 28.112 42.4989 27.9343 42.3464C27.7567 42.1939 27.6391 41.983 27.6025 41.7515L27.2817 39.7004C27.2417 39.4424 27.3054 39.1791 27.4589 38.9681C27.6124 38.7572 27.8432 38.6159 28.1006 38.5752L45.1652 35.8966C45.4226 35.8565 45.6855 35.9203 45.8961 36.0741C46.1066 36.2279 46.2477 36.4591 46.2883 36.717L46.6091 38.7681C46.6492 39.026 46.5855 39.2894 46.432 39.5003C46.2785 39.7113 46.0477 39.8526 45.7903 39.8933L28.7257 42.5718C28.6749 42.5798 28.6234 42.5838 28.572 42.5838Z" fill="#2F2E41"/>
<path d="M21.5097 18.547C25.4646 18.547 28.6707 15.3352 28.6707 11.3732C28.6707 7.41127 25.4646 4.19946 21.5097 4.19946C17.5547 4.19946 14.3486 7.41127 14.3486 11.3732C14.3486 15.3352 17.5547 18.547 21.5097 18.547Z" fill="#3F51B5"/>
<path d="M25.5643 13.2293C25.7932 13.1491 26.0022 13.0208 26.1774 12.8529C26.2934 12.7332 26.3818 12.5896 26.4365 12.432C26.4912 12.2745 26.5108 12.1069 26.494 11.941C26.4843 11.8227 26.4474 11.7083 26.3862 11.6067C26.325 11.5051 26.2412 11.419 26.1413 11.3552C25.8822 11.1956 25.5397 11.2016 25.194 11.3622L25.1541 8.56189L24.8733 8.56589L24.9202 11.8579L25.1339 11.7175C25.3818 11.5549 25.7379 11.437 25.9942 11.5949C26.0576 11.6367 26.1105 11.6926 26.1488 11.7582C26.1871 11.8238 26.2097 11.8974 26.215 11.9732C26.2269 12.0968 26.2119 12.2215 26.1713 12.3389C26.1307 12.4562 26.0653 12.5634 25.9797 12.6531C25.6753 12.9557 25.2247 13.0571 24.7104 13.1498L24.7602 13.4267C25.0336 13.3851 25.3027 13.319 25.5643 13.2293Z" fill="#2F2E41"/>
<path d="M28.0457 8.36541L26.5503 8.59229L26.5923 8.8704L28.0878 8.64353L28.0457 8.36541Z" fill="#2F2E41"/>
<path d="M23.3255 9.08135L21.8301 9.30823L21.8721 9.58635L23.3675 9.35947L23.3255 9.08135Z" fill="#2F2E41"/>
<path d="M26.2418 42.4584C25.9843 42.4578 25.733 42.3787 25.5215 42.2316C25.3099 42.0845 25.1481 41.8763 25.0575 41.6348L20.1202 28.3888C19.5167 26.7642 19.5812 24.9662 20.2994 23.3892C21.0176 21.8122 22.3309 20.585 23.9512 19.9769L27.9659 18.4751C28.1211 18.4167 28.2864 18.3895 28.4521 18.3953C28.6178 18.4011 28.7808 18.4396 28.9316 18.5087C29.0821 18.576 29.2176 18.6727 29.3303 18.7932C29.4431 18.9136 29.5307 19.0553 29.5881 19.21L38.7341 36.5092C38.7935 36.6652 38.8215 36.8314 38.8165 36.9983C38.8115 37.1652 38.7736 37.3294 38.705 37.4816C38.6364 37.6337 38.5384 37.7708 38.4168 37.8848C38.2951 37.9989 38.1521 38.0878 37.996 38.1463L26.6835 42.3779C26.5423 42.431 26.3927 42.4582 26.2418 42.4584Z" fill="#2F2E41"/>
<path d="M26.748 18.9306L35.8228 31.0875L29.6823 19.0582C29.6316 18.9179 29.5538 18.7889 29.4533 18.6787C29.3528 18.5685 29.2316 18.4791 29.0967 18.4158C28.9618 18.3525 28.8157 18.3165 28.6668 18.3098C28.518 18.303 28.3693 18.3257 28.2292 18.3766L26.748 18.9306Z" fill="#E6E6E6"/>
<path d="M41.1163 28.1631L24.9134 27.1175C24.658 27.101 24.4084 27.0343 24.1787 26.9212C23.949 26.808 23.7439 26.6507 23.5749 26.4581C23.406 26.2656 23.2765 26.0416 23.194 25.7989C23.1114 25.5562 23.0774 25.2996 23.0939 25.0437C23.1103 24.7879 23.1769 24.5378 23.2899 24.3077C23.4028 24.0777 23.5598 23.8721 23.7521 23.7029C23.9443 23.5336 24.1679 23.4039 24.4102 23.3212C24.6524 23.2386 24.9086 23.2045 25.164 23.221L41.3669 24.2664C41.4865 24.2741 41.6034 24.3054 41.711 24.3584C41.8185 24.4113 41.9146 24.485 41.9937 24.5752C42.0729 24.6654 42.1335 24.7703 42.1721 24.8839C42.2108 24.9976 42.2267 25.1178 42.219 25.2376L42.0858 27.3094C42.0703 27.5514 41.9594 27.7773 41.7776 27.9374C41.5958 28.0975 41.3579 28.1786 41.1163 28.1631Z" fill="#3F51B5"/>
<path d="M36.7871 28.8333C36.7657 28.8333 36.7442 28.8326 36.7227 28.8313H36.7227L23.4178 27.9727C23.289 27.9644 23.163 27.9308 23.0472 27.8738C22.9314 27.8167 22.8279 27.7374 22.7427 27.6402C22.6575 27.5431 22.5922 27.4301 22.5506 27.3077C22.5089 27.1853 22.4918 27.0559 22.5001 26.9269L22.7276 23.3881C22.7359 23.2591 22.7695 23.1329 22.8265 23.0169C22.8834 22.9008 22.9626 22.7972 23.0596 22.7118C23.1565 22.6265 23.2693 22.5611 23.3915 22.5194C23.5137 22.4777 23.6429 22.4605 23.7717 22.4688L37.0766 23.3273C37.3366 23.3444 37.5793 23.4641 37.7513 23.6601C37.9233 23.8562 38.0107 24.1126 37.9943 24.3731L37.7668 27.912C37.7542 28.1016 37.6873 28.2836 37.5741 28.4361C37.4609 28.5885 37.3061 28.705 37.1284 28.7716C37.0193 28.8125 36.9036 28.8334 36.7871 28.8333Z" fill="#2F2E41"/>
<path d="M21.4272 6.60275C22.3693 5.79109 23.663 6.51718 24.7433 6.39007C25.7769 6.26846 26.5931 5.33967 26.8016 4.35295C27.0448 3.20177 26.4484 2.04845 25.5692 1.33071C24.6064 0.54461 23.3293 0.318939 22.1192 0.464374C20.7323 0.631059 19.4639 1.27872 18.3257 2.06209C17.2271 2.79482 16.2168 3.65243 15.315 4.61781C14.5075 5.51125 13.8233 6.57621 13.6049 7.77845C13.4063 8.87105 13.5579 10.0818 14.2027 11.0074C14.5446 11.4818 15.0027 11.8599 15.533 12.1053C16.0858 12.3772 16.6756 12.5717 17.2112 12.8792C18.0211 13.3441 18.8082 14.3081 18.5545 15.3113C18.5001 15.5305 18.3928 15.7329 18.2419 15.9007C18.0607 16.1023 17.7338 15.8359 17.9155 15.6339C18.2346 15.279 18.2221 14.8057 18.052 14.3819C17.8498 13.9045 17.4917 13.51 17.0363 13.2631C16.4757 12.942 15.8567 12.7437 15.282 12.4512C14.732 12.184 14.2546 11.7877 13.8903 11.2959C13.2026 10.3384 12.9968 9.09227 13.1528 7.93952C13.3216 6.69207 13.9614 5.5585 14.7634 4.60858C15.6363 3.57479 16.7084 2.69971 17.8037 1.91358C18.979 1.07005 20.2774 0.356901 21.7142 0.0989671C22.9597 -0.124621 24.3097 0.0130339 25.3988 0.692974C26.4154 1.32765 27.195 2.41943 27.2725 3.63938C27.3004 4.19446 27.1801 4.74694 26.924 5.23997C26.6679 5.73299 26.2853 6.14876 25.8156 6.44448C25.3336 6.73343 24.7732 6.86348 24.2135 6.8163C23.6151 6.77792 23.0161 6.59436 22.4139 6.64532C22.1414 6.6619 21.8818 6.767 21.6742 6.94472C21.4684 7.12206 21.2231 6.77864 21.4272 6.60276V6.60275Z" fill="#2F2E41"/>
<path d="M103.833 84H0.167192C0.122935 83.9999 0.0805354 83.9822 0.0492864 83.9508C0.0180374 83.9194 0.000488281 83.8768 0.000488281 83.8325C0.000488281 83.7882 0.0180374 83.7457 0.0492864 83.7143C0.0805354 83.6829 0.122935 83.6652 0.167192 83.665H103.833C103.877 83.665 103.92 83.6827 103.951 83.7141C103.982 83.7455 104 83.7881 104 83.8325C104 83.8769 103.982 83.9195 103.951 83.9509C103.92 83.9823 103.877 84 103.833 84Z" fill="#3F3D56"/>
</g>
<defs>
<clipPath id="clip0">
<rect width="104" height="84" fill="white"/>
</clipPath>
</defs>
</svg>
