<svg xmlns="http://www.w3.org/2000/svg" xmlns:xlink="http://www.w3.org/1999/xlink" viewBox="0 0 864 864">
  <defs>
    <linearGradient id="linear-gradient" x1="262.7898" y1="513.5861" x2="218.183" y2="436.3249" gradientUnits="userSpaceOnUse">
      <stop offset="0" stop-color="#d5bafe"/>
      <stop offset="0.2807" stop-color="#b98ef9"/>
      <stop offset="1" stop-color="#7c3bdd"/>
    </linearGradient>
    <linearGradient id="linear-gradient-2" x1="580.1638" y1="683.7919" x2="297.8857" y2="194.872" xlink:href="#linear-gradient"/>
    <linearGradient id="linear-gradient-3" x1="548.2152" y1="363.7146" x2="715.3792" y2="530.8786" gradientUnits="userSpaceOnUse">
      <stop offset="0" stop-color="#fedb9a"/>
      <stop offset="0.5535" stop-color="#fbc157"/>
      <stop offset="1" stop-color="#f6a717"/>
    </linearGradient>
  </defs>
  <title>ICONS</title>
  <g id="CASH_IN" data-name="CASH IN">
    <g>
      <path d="M267.6721,447.481H198.86v58.9817h68.812c15.7284,0,29.4908-13.7624,29.4908-29.4908S283.4005,447.481,267.6721,447.481Z" style="fill: url(#linear-gradient)"/>
      <path d="M670.7136,266.6039c0-33.423-27.5248-60.9478-62.9138-60.9478H293.2308c-29.4908,0-55.05,25.5588-55.05,55.05v31.4569c-23.5926,7.8642-39.3211,27.5248-39.3211,53.0835v64.88h68.812c37.355,0,68.812,31.4569,68.812,68.812s-31.457,68.8119-68.812,68.8119H200.8262V602.8c0,29.4908,25.5587,55.05,55.0495,55.05h353.89c33.4229,0,60.9477-29.4909,60.9477-62.9139Zm-39.3211,1.966h0a21.8186,21.8186,0,0,1-21.6266,21.6266H279.4684V260.7057c0-7.8642,7.8642-15.7284,15.7285-15.7284h314.569C621.5622,244.9773,631.3925,254.8075,631.3925,268.57Z" style="fill: url(#linear-gradient-2)"/>
    </g>
    <circle cx="631.7972" cy="447.2966" r="118.2028" style="fill: url(#linear-gradient-3)"/>
    <path d="M613.57,453.6756c0-18.5519-.1749-38.27.0586-57.9825.1688-14.2586,11.64-22.3041,24.7092-17.7514,7.28,2.536,11.0492,8.11,11.1257,17.3527.1411,17.0475.0455,34.0971.0484,51.1457,0,2.7033,0,5.4066,0,9.9906,2.7987-2.3744,4.4592-3.8455,6.1845-5.2363,8.1651-6.5818,17.7023-6.1181,24.5939,1.1706,6.5087,6.8837,6.8855,16.9533.0607,24.0628-11.8025,12.2953-23.8168,24.41-36.196,36.1209-7.9177,7.49-18.2864,6.9628-25.8946-.55q-17.4047-17.1867-34.5525-34.6324c-5.22-5.3183-7.4-11.6031-4.5219-18.9659,2.6846-6.8676,8.0468-11.7725,14.9778-11.3457C600.5031,447.4451,606.6367,451.1657,613.57,453.6756Z" style="fill: #fff"/>
  </g>
</svg>
