<svg xmlns="http://www.w3.org/2000/svg" xmlns:xlink="http://www.w3.org/1999/xlink" viewBox="0 0 864 864">
  <defs>
    <linearGradient id="linear-gradient" x1="564.8468" y1="516.7086" x2="465.6601" y2="688.5051" gradientUnits="userSpaceOnUse">
      <stop offset="0" stop-color="#fedb9a"/>
      <stop offset="0.4786" stop-color="#fbc157"/>
      <stop offset="1" stop-color="#f6a717"/>
    </linearGradient>
    <linearGradient id="linear-gradient-2" x1="554.8533" y1="583.2461" x2="468.1529" y2="733.4155" xlink:href="#linear-gradient"/>
    <linearGradient id="linear-gradient-3" x1="562.3767" y1="471.8054" x2="475.6974" y2="621.9385" xlink:href="#linear-gradient"/>
    <linearGradient id="linear-gradient-4" x1="243.115" y1="669.8479" x2="441.179" y2="326.791" gradientUnits="userSpaceOnUse">
      <stop offset="0" stop-color="#d5bafe"/>
      <stop offset="0.4786" stop-color="#b98ef9"/>
      <stop offset="1" stop-color="#7c3bdd"/>
    </linearGradient>
    <linearGradient id="linear-gradient-5" x1="340.9884" y1="399.9282" x2="433.8735" y2="239.0466" xlink:href="#linear-gradient-4"/>
    <linearGradient id="linear-gradient-6" x1="357.4222" y1="325.2523" x2="458.1725" y2="150.7477" xlink:href="#linear-gradient-4"/>
  </defs>
  <title>ICONS</title>
  <g id="FOOD">
    <g>
      <path d="M515.187,578.2325q73.9774,0,147.9548-.0077a28.4008,28.4008,0,0,1,7.6825.7774c9.3137,2.5894,15.3124,8.5073,17.8053,17.886a11.41,11.41,0,0,1,.3365,2.6162c.0495,1.9183-.0248,3.84.0292,5.758a12.6074,12.6074,0,0,1-.6685,4.3509c-3.043,9.1913-9.3316,14.8286-18.754,16.9317a34.6969,34.6969,0,0,1-4.84.4772c-.66.0517-1.3283.01-1.9928.01q-147.7333,0-295.4667.0035a27.6205,27.6205,0,0,1-8.7426-1.1121c-9.3867-3.0942-14.9748-9.5751-17.0121-19.1933-2.1156-14.545,7.4056-25.6187,19.3255-27.9973a29.2157,29.2157,0,0,1,5.502-.4773c7.8256-.051,15.6517-.0229,23.4777-.0229Q452.5053,578.2322,515.187,578.2325Z" style="fill: url(#linear-gradient)"/>
      <path d="M660.5576,644.2776c0,1.0411.0711,2.1437-.01,3.2349a57.2207,57.2207,0,0,1-41.251,51.1116,54.737,54.737,0,0,1-14.84,2.1708q-1.2181.0063-2.4363.0063-86.3777,0-172.7553-.0026c-1.6239,0-3.249-.0089-4.8714-.07a54.5825,54.5825,0,0,1-28.13-8.9123c-13.112-8.5208-21.3987-20.489-25.0024-35.7a65.5759,65.5759,0,0,1-1.3632-10.7443c-.0771-1.1407.2548-1.4639,1.3707-1.5188.5893-.029,1.1809-.0116,1.7715-.0116q142.191,0,284.3819.0106C658.43,643.8524,659.4924,643.6016,660.5576,644.2776Z" style="fill: url(#linear-gradient-2)"/>
      <path d="M660.1388,561.1476a12.49,12.49,0,0,1-1.4323.15q-143.9577-.02-287.9153-.0639a2.4932,2.4932,0,0,1-.7064-.2712,6.1978,6.1978,0,0,1-.1839-1.2371,56.4345,56.4345,0,0,1,5.7019-23.0285c8.3042-16.5073,21.5165-26.85,39.5029-31.0546a48.8067,48.8067,0,0,1,10.7611-1.1855c1.255-.01,2.51-.0244,3.7649-.0245q85.49-.0048,170.9794-.0021c2.0664,0,4.1359.0152,6.1989.1215a55.0674,55.0674,0,0,1,30.3939,10.8785,56.3327,56.3327,0,0,1,21.8723,32.834,54.2978,54.2978,0,0,1,1.5293,11.1594C660.6247,559.9946,660.7543,560.6164,660.1388,561.1476Z" style="fill: url(#linear-gradient-3)"/>
    </g>
    <g>
      <path d="M352.8618,641.7791a16.8813,16.8813,0,0,1,.2383,4.034c.0713,1.3268.0566,2.6592.1584,3.983.1074,1.3969.2754,2.7914.4773,4.1781.1913,1.3129.4393,2.6188.702,3.92s.552,2.5961.8708,3.8837.6541,2.574,1.0461,3.8411c.4139,1.3381.8738,2.6639,1.3684,3.9744.4685,1.2415.9879,2.465,1.522,3.68s1.0844,2.426,1.6833,3.6105,1.2437,2.3477,1.9111,3.4955q1.0569,1.8172,2.1993,3.5844,1.0839,1.6712,2.26,3.2816,1.1748,1.6092,2.4372,3.1539c.84,1.03,1.7027,2.0424,2.6006,3.0212.948,1.0332,1.9312,2.0357,2.9323,3.0179.9482.93,1.9425,1.8134,2.9107,2.7235.9467.89,2.013,1.6551,3.0787,2.6516a3.2044,3.2044,0,0,1-.7839.3472c-.7366.0382-1.4753.0436-2.2133.0437q-36.55.0026-73.1-.003c-1.2542,0-2.511-.0241-3.7622-.1054a13.1059,13.1059,0,0,1-11.8325-11.827c-.563-5.8012-1.1315-11.6019-1.669-17.4055-.3675-3.9672-.6658-7.9406-1.0319-11.9079s-.7975-7.9279-1.1645-11.8948-.6722-7.94-1.0371-11.9076-.7723-7.93-1.1568-11.8955c-.1708-1.7624-.3395-3.5251-.495-5.2888-.4925-5.5857-.9579-11.1738-1.4725-16.7573-.5079-5.51-1.0771-11.0138-1.5926-16.5229-.3643-3.8933-.6705-7.792-1.027-11.686-.3631-3.9673-.7562-7.9319-1.1359-11.8977-.1828-1.91-.3762-3.8182-.5453-5.7289-.4944-5.5854-.9577-11.1736-1.4733-16.757-.5088-5.51-1.0836-11.0131-1.5972-16.5222-.37-3.9669-.6674-7.9405-1.0325-11.9078s-.7906-7.9286-1.1593-11.8954c-.3619-3.8935-.6731-7.7918-1.03-11.6858-.3632-3.9673-.7546-7.9319-1.1337-11.8977-.1825-1.91-.3756-3.8182-.545-5.729-.4951-5.5853-.96-11.1733-1.4757-16.7566s-1.098-11.16-1.6134-16.7434-.9632-11.173-1.4792-16.7563c-.5092-5.51-1.0835-11.0134-1.5974-16.5227-.37-3.9668-.6694-7.94-1.0336-11.9078s-.7765-7.93-1.155-11.8955q-.4836-5.0676-.9329-10.1383a6.7,6.7,0,0,1,.066-.9771,9.8017,9.8017,0,0,1,1.2549-.2576c.5873-.0456,1.18-.0188,1.7712-.0188q124.27,0,248.541.008a8.4008,8.4008,0,0,1,3.0811.2206,7.6517,7.6517,0,0,1,.03,3.1055q-.37,4.1888-.7757,8.3742-.5577,5.8384-1.13,11.6754c-.184,1.91-.3713,3.8189-.54,5.73-.494,5.5854-.9589,11.1735-1.4741,16.757-.5084,5.51-1.08,11.0136-1.594,16.5229-.37,3.9668-.6724,7.94-1.0383,11.9072s-.7905,7.9284-1.1575,11.8953-.68,7.94-1.0441,11.907c-.357,3.8937-.7557,7.7835-1.1212,11.6765-.2276,2.4243-.4218,4.8516-.6424,7.2765-.1068,1.1749-.33,1.3886-1.4981,1.4357-.6635.0267-1.3289.0107-1.9934.0107q-36.1071.0006-72.2142.0061a84.7424,84.7424,0,0,0-9.5069.401,71.2326,71.2326,0,0,0-20.0793,5.1441c-19.2838,8.224-32.8677,22.1076-40.77,41.51a70.0633,70.0633,0,0,0-4.6595,18.8433c-.2765,2.5044-.36,5.0032-.4054,7.5118-.0106.59-.0061,1.1816-.0381,1.7709a1.1052,1.1052,0,0,1-.733,1.0134c-.8893.3586-1.803.6611-2.6773,1.0523-12.5788,5.628-20.99,14.9714-24.2153,28.4134-4.3512,18.1349,3.9113,35.5483,18.873,44.5579a44.8964,44.8964,0,0,0,6.7626,3.2815C351.6625,641.2545,352.26,641.5238,352.8618,641.7791Z" style="fill: url(#linear-gradient-4)"/>
      <path d="M387.4789,295.0937q69.8688,0,139.7375.0007c.8858,0,1.7756-.0418,2.6566.0259a5.2077,5.2077,0,0,1,4.9321,5.04c.0278.5154.0133,1.0332.0133,1.55q.0009,17.827,0,35.6541c0,.5167.0151,1.0348-.0164,1.55a5.0564,5.0564,0,0,1-3.9468,4.7418,11.2972,11.2972,0,0,1-1.9668.2564c-.6617.0429-1.3282.0119-1.9925.0119q-139.5162,0-279.0322,0c-.6644,0-1.3293.0154-1.993-.0066-3.81-.126-5.8536-2.182-5.86-5.987q-.0278-16.2768-.0073-32.5537c0-1.4764-.0034-2.9528.0034-4.4291a8.5637,8.5637,0,0,1,.059-1.3254,5.2921,5.2921,0,0,1,5.019-4.5045c.882-.06,1.7709-.0235,2.6567-.0236Q317.61,295.0933,387.4789,295.0937Z" style="fill: url(#linear-gradient-5)"/>
      <path d="M399.4437,242.8559a6.4192,6.4192,0,0,0,1.1466.2933c.81.0447,1.6235.031,2.4355.0311q36.9911.0015,73.982.01a17.9938,17.9938,0,0,1,3.7446.2272,10.1763,10.1763,0,0,1,7.1336,5.4689,25.9931,25.9931,0,0,1,1.0739,2.4271q4.8866,12.2262,9.7543,24.46c.2409.6052.4256,1.2327.6872,1.9984a4.5549,4.5549,0,0,1-1.0462.38c-.7337.0633-1.4745.0558-2.2124.0558q-108.758.0027-217.5159-.0028a9.0576,9.0576,0,0,1-3.1556-.2664c.1848-.6356.2859-1.1321.47-1.5956q5.19-13.0577,10.393-26.11a11.09,11.09,0,0,1,3.2963-4.6395,10.0706,10.0706,0,0,1,6.29-2.3937c.96-.0189,1.92-.0172,2.8794-.0172q40.4243-.0014,80.8485-.01a7.0917,7.0917,0,0,0,3.05-.2553,5.7136,5.7136,0,0,0,.7572-2.3094q4.18-20.1435,8.3361-40.2918,2.3234-11.2665,4.6166-22.5392c.1185-.5779.2524-1.1532.3963-1.7254a7.7594,7.7594,0,0,1,7.3107-6.018c.8119.007,1.6239-.0315,2.4359-.0315q40.4242-.0028,80.8486,0c.8119,0,1.6238.03,2.4358.0351a7.7161,7.7161,0,0,1,7.2876,6.5717,7.8229,7.8229,0,0,1-5.1792,8.76,11.5671,11.5671,0,0,1-2.5951.4773c-.8045.0794-1.6227.0233-2.4349.0233q-36.3264.0006-72.6529.0014c-.7382,0-1.4781-.0137-2.2141.03-.7915.0473-1.0543.2518-1.2387,1.0151-.3116,1.29-.5845,2.59-.8524,3.8895q-5.0911,24.699-10.1645,49.4017A9.6434,9.6434,0,0,0,399.4437,242.8559Z" style="fill: url(#linear-gradient-6)"/>
    </g>
  </g>
</svg>
