<svg xmlns="http://www.w3.org/2000/svg" xmlns:xlink="http://www.w3.org/1999/xlink" viewBox="0 0 864 864">
  <defs>
    <linearGradient id="linear-gradient" x1="431.9196" y1="664" x2="431.9196" y2="194.9763" gradientUnits="userSpaceOnUse">
      <stop offset="0.3094" stop-color="#b98ef9"/>
      <stop offset="1" stop-color="#7c3bdd"/>
    </linearGradient>
  </defs>
  <title>ICONS</title>
  <g id="FAVORITES">
    <path d="M617.3574,259.4088H457.979A43.1692,43.1692,0,0,1,428.09,247.5936L397.25,218.2723a85.2639,85.2639,0,0,0-59.1356-23.2956H246.4819c-46.1756.0434-83.597,35.645-83.6426,79.5752V584.4247c.0456,43.93,37.467,79.5319,83.6426,79.5753H617.3574c46.1756-.0434,83.597-35.645,83.6426-79.5753V338.9053C700.9088,295.0058,663.5007,259.4521,617.3574,259.4088ZM548.68,455.2257,505.213,495.4368l10.2457,56.7522c1.924,10.7205-5.6511,20.8949-16.92,22.7253a21.6291,21.6291,0,0,1-13.0933-1.97L431.92,546.1632l-53.609,26.7811a21.4107,21.4107,0,0,1-21.7955-1.4966,19.2611,19.2611,0,0,1-8.2794-19.2587l10.2457-56.7523-43.4668-40.211a19.0221,19.0221,0,0,1-.1631-27.8482,21.0925,21.0925,0,0,1,11.6508-5.6281l59.9221-8.29,26.908-51.652c6.0133-9.7445,19.1913-13.0063,29.4339-7.2855a21.0134,21.0134,0,0,1,7.6578,7.2855l26.8046,51.652,59.9221,8.29c11.3128,1.5631,19.1516,11.5552,17.5085,22.3178a19.3727,19.3727,0,0,1-6.0208,11.257Z" style="fill: url(#linear-gradient)"/>
  </g>
</svg>
