<svg xmlns="http://www.w3.org/2000/svg" xmlns:xlink="http://www.w3.org/1999/xlink" viewBox="0 0 864 864">
  <defs>
    <linearGradient id="linear-gradient" x1="432.9204" y1="682" x2="432.9204" y2="294.5844" gradientUnits="userSpaceOnUse">
      <stop offset="0" stop-color="#f6a717"/>
      <stop offset="0.1549" stop-color="#f9b538"/>
      <stop offset="0.2906" stop-color="#fabe4f"/>
      <stop offset="0.377" stop-color="#fbc157"/>
      <stop offset="0.5119" stop-color="#fbc35d"/>
      <stop offset="0.6993" stop-color="#fcca6f"/>
      <stop offset="0.9164" stop-color="#fdd68d"/>
      <stop offset="1" stop-color="#fedb9a"/>
    </linearGradient>
    <linearGradient id="linear-gradient-2" x1="432.9598" y1="407.1122" x2="432.9598" y2="181.0803" gradientUnits="userSpaceOnUse">
      <stop offset="0" stop-color="#b98ef9"/>
      <stop offset="0.2131" stop-color="#b68af8"/>
      <stop offset="0.4363" stop-color="#ad7df3"/>
      <stop offset="0.664" stop-color="#9d68ec"/>
      <stop offset="0.8935" stop-color="#884be2"/>
      <stop offset="1" stop-color="#7c3bdd"/>
    </linearGradient>
  </defs>
  <title>ICONS</title>
  <g id="REAL_ESTATE" data-name="REAL ESTATE">
    <path d="M432.8121,682q-72.7767,0-145.5536-.0007a82.1211,82.1211,0,0,1-11.7837-.6326c-25.46-3.6778-46.1749-21.6446-52.9226-44.86a60.6038,60.6038,0,0,1-2.4443-16.9447q-.0173-21.4839-.0059-42.9679,0-57.47-.0356-114.94a36.691,36.691,0,0,1,4.4533-17.7507,73.1191,73.1191,0,0,1,10.1334-14.1584,107.5954,107.5954,0,0,1,16.26-14.7917q73.95-54.6588,147.8845-109.3384a55.1881,55.1881,0,0,1,26.8811-10.5855,59.75,59.75,0,0,1,28.2425,3.3038,53.2132,53.2132,0,0,1,13.0988,7.2593q27.7359,20.519,55.4895,41.0142,37.7847,27.928,75.567,55.8591c5.6136,4.1494,11.2422,8.2786,16.842,12.4466a101.671,101.671,0,0,1,21.8186,21.6864,55.1459,55.1459,0,0,1,6.6986,11.8979,31.5461,31.5461,0,0,1,2.3352,11.7727q.0018.6713.0025,1.3427,0,78.1477.0014,156.2956a64.3172,64.3172,0,0,1-1.6191,15.4472,61.708,61.708,0,0,1-23.781,35.6553,65.9091,65.9091,0,0,1-32.8875,12.7134,69.8783,69.8783,0,0,1-7.51.2657Q506.3946,682.01,432.8121,682ZM376.8605,651.181c0-1.4759,0-2.6315,0-3.7871q0-64.7217.0006-129.4434c0-1.1637-.0246-2.3288.02-3.491a15.5188,15.5188,0,0,1,14.0766-14.7629c1.2483-.0892,2.5036-.1156,3.7556-.1159q38.269-.01,76.5382-.0023c1.0737,0,2.1478.0288,3.2212.0621A15.3969,15.3969,0,0,1,488.7,512.4383a32.298,32.298,0,0,1,.3567,5.075q.0282,64.7217.0151,129.4434c0,.8952-.023,1.7914.0137,2.6852.0207.5055.1415,1.0069.2428,1.68h3.319q43.1031,0,86.2061-.0007,1.3428,0,2.6855-.0139a34.1191,34.1191,0,0,0,16.6805-4.4386c8.72-4.9209,14.4631-12.1462,16.34-22.1211a36.41,36.41,0,0,0,.4346-6.6821q.0341-77.6122.0177-155.2247c0-.4476-.0254-.8967.0027-1.3425a5.2159,5.2159,0,0,0-.8954-3.31c-1.2962-1.9286-2.5327-3.909-3.97-5.7288a70.4061,70.4061,0,0,0-13.5823-12.912q-73.5236-54.3356-147.01-108.72a26.15,26.15,0,0,0-12.97-5.3428c-7.094-.7588-13.7325.3777-19.5409,4.84-.4257.327-.8654.6359-1.2971.9552q-65.8452,48.688-131.6884,97.3789c-5.9722,4.417-11.9921,8.774-17.8582,13.3284a61.9783,61.9783,0,0,0-13.3289,14.27,11.8652,11.8652,0,0,0-2.14,7.0142c.0941,21.8421.0528,43.6847.053,65.5272q.0006,44.9829.0022,89.9658a30.4254,30.4254,0,0,0,11.6628,24.59,34.93,34.93,0,0,0,22.8353,7.9716q44.4457-.0193,88.8916-.0084C374.965,651.316,375.7518,651.239,376.8605,651.181Z" style="fill: url(#linear-gradient)"/>
    <path d="M517.9375,233.1c.0548-1.3941.1158-2.2586.1182-3.1233.0133-4.7442-.007-9.4886.0215-14.2327a19.7911,19.7911,0,0,1,19.3176-19.4485c7.787-.0768,15.5753-.0278,23.363-.0313,2.954-.0013,5.9107.0843,8.8614-.0136a20.0166,20.0166,0,0,1,20.5647,20.48c-.0927,5.6379-.0143,11.2786-.0142,16.918q0,24.7061,0,49.4121v3.2058c.8.6047,1.5055,1.1507,2.2239,1.6793q38.1669,28.0857,76.3459,56.1551c4.177,3.0665,7.8105,6.5869,10.1076,11.2818,5.0364,10.2937,4.6982,20.4306-1.4167,30.1553a100.2354,100.2354,0,0,1-7.95,10.8069,29.7662,29.7662,0,0,1-40.1653,5.2559c-7.47-5.4007-14.8643-10.905-22.2887-16.3682q-74.2808-54.6588-148.54-109.3466a41.9716,41.9716,0,0,0-25.8176-8.298,42.5983,42.5983,0,0,0-17.4676,3.635,38.6568,38.6568,0,0,0-7.1351,4.2439q-37.5119,27.6171-75.0409,55.211-40.2255,29.5918-80.4493,59.1859-7.5689,5.5689-15.1271,11.1525a28.5842,28.5842,0,0,1-11.8658,5.3949c-11.3894,2.0957-21.1375-1.0111-28.8043-9.717a98.583,98.583,0,0,1-8.6-11.6554,29.7146,29.7146,0,0,1,6.2341-38.7984c.8274-.6833,1.6933-1.3214,2.5581-1.9577q105.3164-77.488,210.6115-155.0046a41.9634,41.9634,0,0,1,26.3769-8.1922,40.56,40.56,0,0,1,17.6329,4.062,43.6565,43.6565,0,0,1,6.3864,3.9283q28.4744,20.8728,56.8859,41.8313C515.7221,231.5388,516.5978,232.1456,517.9375,233.1Z" style="fill: url(#linear-gradient-2)"/>
  </g>
</svg>
