<svg width="34" height="40" viewBox="0 0 34 40" fill="none" xmlns="http://www.w3.org/2000/svg">
<rect width="34" height="40" fill="#E5E5E5"/>
<g clip-path="url(#clip0_0:1)">
<rect width="411" height="857" transform="translate(-189 -494)" fill="#F9F8FC"/>
<rect x="-189" y="-284" width="411" height="435" fill="white"/>
<rect x="-47" y="-31" width="126" height="126" fill="white"/>
<g clip-path="url(#clip1_0:1)">
<path d="M16.9764 4.58061V19.0658C16.9764 19.5078 16.6148 19.8694 16.1728 19.8694H5.08289C4.72126 19.8694 4.39981 19.6283 4.31945 19.2868C3.5962 16.6951 3.21448 14.003 3.21448 11.2908C3.21448 10.6077 3.23457 9.92465 3.29484 9.24158C3.31493 8.94023 3.51583 8.65896 3.7971 8.55851L15.8915 3.83726C16.4139 3.61627 16.9764 4.01808 16.9764 4.58061Z" fill="#F5BE53"/>
<path d="M28.3676 19.8694C28.9101 19.8694 29.3119 20.4118 29.1311 20.9342C28.4681 22.8629 27.5841 24.7313 26.5193 26.4992C24.4098 29.9949 21.5771 33.0688 18.2421 35.4796C17.7197 35.8613 16.9764 35.4796 16.9764 34.8166V20.673C16.9764 20.231 17.338 19.8694 17.78 19.8694H28.3676Z" fill="#F5BE53"/>
<path d="M33.1693 6.2481L17.2978 0.0401601C17.117 -0.0402015 16.896 -0.0402015 16.7152 0.0401601L0.803616 6.26819C0.542441 6.36864 0.341537 6.60972 0.301356 6.91108C0.100452 8.3375 0 9.8041 0 11.2908C0 23.4455 6.64992 34.0733 16.5746 39.8794C16.8157 40.0201 17.1371 40.0201 17.3782 39.8794C27.3029 34.0733 33.9528 23.4455 33.9528 11.2908C33.9528 9.8041 33.8523 8.3375 33.6514 6.89099C33.6313 6.60972 33.4505 6.36864 33.1693 6.2481ZM31.7227 17.5791C31.5821 18.2622 31.4214 18.9452 31.2205 19.6283C31.12 19.9698 31.0196 20.3114 30.9191 20.6328C30.1758 22.9633 29.1713 25.2335 27.9056 27.343C27.0618 28.7293 26.1175 30.0552 25.0929 31.3008C22.9232 33.9126 20.3114 36.1828 17.4184 37.9909C17.1572 38.1517 16.8358 38.1517 16.5746 37.9909C13.3802 36.002 10.5676 33.4706 8.27725 30.5374C7.47363 29.5128 6.75038 28.448 6.0673 27.343C4.98242 25.5349 4.07835 23.6062 3.37519 21.6373C2.20994 18.3224 1.60723 14.8267 1.60723 11.2908C1.60723 10.226 1.6675 9.14111 1.76796 8.07632C1.80814 7.77497 1.98895 7.53388 2.27022 7.41334L16.7152 1.78803C16.896 1.70766 17.117 1.70766 17.2978 1.78803L31.6826 7.41334C31.9638 7.51379 32.1647 7.77497 32.1848 8.07632C32.2853 9.14111 32.3456 10.226 32.3456 11.3109C32.3656 13.4204 32.1446 15.5098 31.7227 17.5791Z" fill="#3F51B5"/>
<path d="M16.9763 20.2019C14.6057 20.2019 12.677 18.2732 12.677 15.9026C12.677 13.5319 14.6057 11.6032 16.9763 11.6032C19.347 11.6032 21.2757 13.5319 21.2757 15.9026C21.2757 18.2732 19.347 20.2019 16.9763 20.2019ZM16.9763 13.2104C15.4897 13.2104 14.2842 14.4159 14.2842 15.9026C14.2842 17.3892 15.4897 18.5947 16.9763 18.5947C18.463 18.5947 19.6685 17.3892 19.6685 15.9026C19.6685 14.4159 18.463 13.2104 16.9763 13.2104Z" fill="#3F51B5"/>
<path d="M23.9077 27.1331C23.4657 27.1331 23.1041 26.7715 23.1041 26.3295C23.1041 22.9543 20.3517 20.2019 16.9765 20.2019C13.6013 20.2019 10.8489 22.9543 10.8489 26.3295C10.8489 26.7715 10.4873 27.1331 10.0453 27.1331C9.60333 27.1331 9.2417 26.7715 9.2417 26.3295C9.2417 22.0703 12.7173 18.5947 16.9765 18.5947C21.2357 18.5947 24.7113 22.0502 24.7113 26.3295C24.7113 26.7715 24.3698 27.1331 23.9077 27.1331Z" fill="#3F51B5"/>
</g>
</g>
<defs>
<clipPath id="clip0_0:1">
<rect width="411" height="857" fill="white" transform="translate(-189 -494)"/>
</clipPath>
<clipPath id="clip1_0:1">
<rect width="33.9729" height="40" fill="white"/>
</clipPath>
</defs>
</svg>
