<svg xmlns="http://www.w3.org/2000/svg" xmlns:xlink="http://www.w3.org/1999/xlink" viewBox="0 0 864 864">
  <defs>
    <linearGradient id="linear-gradient" x1="274.8425" y1="653.9788" x2="274.8425" y2="390.6659" gradientUnits="userSpaceOnUse">
      <stop offset="0" stop-color="#fedb9a"/>
      <stop offset="0.4643" stop-color="#fac45f"/>
      <stop offset="1" stop-color="#f6a717"/>
    </linearGradient>
    <linearGradient id="linear-gradient-2" x1="433.7791" y1="653.9788" x2="433.7791" y2="390.6659" xlink:href="#linear-gradient"/>
    <linearGradient id="linear-gradient-3" x1="597.4601" y1="653.9788" x2="597.4601" y2="390.6659" xlink:href="#linear-gradient"/>
    <linearGradient id="linear-gradient-4" x1="177.5828" y1="655.8933" x2="688.7894" y2="655.8933" gradientUnits="userSpaceOnUse">
      <stop offset="0" stop-color="#d5bafe"/>
      <stop offset="0.199" stop-color="#bb94f4"/>
      <stop offset="0.4394" stop-color="#a06eea"/>
      <stop offset="0.6611" stop-color="#8c52e3"/>
      <stop offset="0.855" stop-color="#8041df"/>
      <stop offset="1" stop-color="#7c3bdd"/>
    </linearGradient>
    <linearGradient id="linear-gradient-5" x1="144.3722" y1="695.6275" x2="719.6278" y2="695.6275" xlink:href="#linear-gradient-4"/>
    <linearGradient id="linear-gradient-6" x1="144.3722" y1="387.243" x2="722" y2="387.243" xlink:href="#linear-gradient-4"/>
    <linearGradient id="linear-gradient-7" x1="430.8139" y1="361.0135" x2="430.8139" y2="195.213" xlink:href="#linear-gradient-4"/>
  </defs>
  <title>ICONS</title>
  <g id="BANK">
    <rect x="239.2597" y="390.6659" width="71.1656" height="263.3129" rx="12" style="fill: url(#linear-gradient)"/>
    <rect x="398.1963" y="390.6659" width="71.1656" height="263.3129" rx="12" style="fill: url(#linear-gradient-2)"/>
    <rect x="561.8773" y="390.6659" width="71.1656" height="263.3129" rx="12" style="fill: url(#linear-gradient-3)"/>
    <rect x="177.5828" y="641.2026" width="511.2065" height="29.3815" rx="12" style="fill: url(#linear-gradient-4)"/>
    <rect x="144.3722" y="676.7854" width="575.2556" height="37.6842" rx="12" style="fill: url(#linear-gradient-5)"/>
    <rect x="144.3722" y="371.9592" width="577.6278" height="30.5676" rx="12" style="fill: url(#linear-gradient-6)"/>
    <polygon points="142 361.014 719.628 361.014 430.814 195.213 142 361.014" style="fill: url(#linear-gradient-7)"/>
    <circle cx="431.407" cy="285.1035" r="47.4438" style="fill: #fff"/>
    <g>
      <path d="M444.6145,259.8459c6.6207-.1109,12.2369,8.5357,12.1413,18.8509.0956,10.2793-5.5206,18.9992-12.1413,18.8508H426.1878V309.719H413.6642V259.8459Zm-3.1306,23.0821a2.2768,2.2768,0,0,0,1.912-1.2251,5.4238,5.4238,0,0,0,.8126-3.0061,5.2556,5.2556,0,0,0-.8126-3.0054,2.2441,2.2441,0,0,0-1.912-1.2616H426.1878v8.4982Z" style="fill: #3e0790"/>
      <rect x="402" y="274.6558" width="16.486" height="8.243" rx="4.1215" style="fill: #3e0790"/>
      <rect x="448.514" y="274.6558" width="16.486" height="8.243" rx="4.1215" style="fill: #3e0790"/>
    </g>
  </g>
</svg>
