<svg xmlns="http://www.w3.org/2000/svg" xmlns:xlink="http://www.w3.org/1999/xlink" viewBox="0 0 864 864">
  <defs>
    <linearGradient id="linear-gradient" x1="266.2965" y1="245.7575" x2="266.2965" y2="423.6099" gradientTransform="matrix(0.7824, 0.6228, -0.6228, 0.7824, 363.6872, -176.0064)" gradientUnits="userSpaceOnUse">
      <stop offset="0.3556" stop-color="#fedb9a"/>
      <stop offset="0.4455" stop-color="#fdd58b"/>
      <stop offset="0.6183" stop-color="#fbc564"/>
      <stop offset="0.8547" stop-color="#f7ad25"/>
      <stop offset="0.9037" stop-color="#f6a717"/>
    </linearGradient>
    <linearGradient id="linear-gradient-2" x1="597.2569" y1="250.7032" x2="597.2569" y2="428.5557" gradientTransform="matrix(0.7824, 0.6228, -0.6228, 0.7824, 363.6872, -176.0064)" gradientUnits="userSpaceOnUse">
      <stop offset="0.361" stop-color="#fedb9a"/>
      <stop offset="0.4693" stop-color="#fdd385"/>
      <stop offset="0.6913" stop-color="#f9bd50"/>
      <stop offset="0.9037" stop-color="#f6a717"/>
    </linearGradient>
    <linearGradient id="linear-gradient-3" x1="432.4992" y1="49.3908" x2="432.4992" y2="723.2098" gradientTransform="matrix(0.7824, 0.6228, -0.6228, 0.7824, 363.6872, -176.0064)" gradientUnits="userSpaceOnUse">
      <stop offset="0.4305" stop-color="#b082f5"/>
      <stop offset="0.519" stop-color="#a26eee"/>
      <stop offset="0.6714" stop-color="#8d52e5"/>
      <stop offset="0.8048" stop-color="#8041df"/>
      <stop offset="0.9037" stop-color="#7c3bdd"/>
    </linearGradient>
  </defs>
  <title>ICONS</title>
  <g id="AIRLINES">
    <path d="M228.4685,257.7912l-1.9894-1.5836c-1.7829-2.44-1.7909-2.5087-.0881-4.65,6.8658-8.6327,13.4557-17.4829,20.44-26.0211l2.3294-2.9263,2.7019-3.3942,1.6491-2.0718,2.675-3.36,1.65-2.0734,2.7012-3.3933,2.9241-3.6734,2.8952-3.637c.8334-1.2515,2.0843-2.1945,2.6378-3.654l1.3619-1.7108c2.6342-2.6292,6.0383-2.1657,9.7825-1.305q16.2916,3.7454,32.5983,7.3538c12.8683,2.8621,25.7314,5.7815,38.5982,8.66q21.2019,4.7438,42.4006,9.5224,27.8976,6.2929,55.7984,12.5522c13.9323,3.136,27.8605,6.32,41.8012,9.3629,2.5006.5458,4.4841,2.1776,6.7181,3.2785l2.9841,2.3754c1.0921,1.0971,1.7069,2.2492.9591,3.5584l-77.4,97.2331c-2.833,2.8377-6.6728,2.3481-10.5849,1.5136a29.0873,29.0873,0,0,1-6.8049-2.5321q-51.9406-25.7772-103.8943-51.5223c-21.917-10.8054-43.7861-21.727-65.7128-32.5078C234.4167,261.62,231.5757,259.4673,228.4685,257.7912Z" style="fill: url(#linear-gradient)"/>
    <path d="M643.81,594.7346l1.9894,1.5836c2.7777,1.19,2.8464,1.1828,4.551-.9567,6.8732-8.6269,14.02-17.0336,20.7747-25.755l2.3294-2.9263,2.7019-3.3943,1.6492-2.0717,2.675-3.36,1.65-2.0734,2.7012-3.3933,2.9241-3.6734,2.8951-3.637c1.0328-1.0929,1.6713-2.5233,2.9694-3.39l1.3619-1.7108c1.9716-3.1567.7565-6.37-.922-9.826q-7.3032-15.0369-14.4766-30.119c-5.6748-11.8988-11.4044-23.78-17.0953-35.6732Q653.111,444.76,643.7,425.1723q-12.3886-25.776-24.7452-51.5625c-6.18-12.8743-12.4069-25.7337-18.4983-38.6371-1.0926-2.3145-3.1277-3.8816-4.7014-5.8118l-2.9841-2.3754c-1.3141-.8182-2.5747-1.159-3.6829-.1367l-77.4,97.2331c-2.13,3.3972-.7919,7.0294.8986,10.6547a29.0861,29.0861,0,0,0,3.9936,6.0638q36.7682,44.8374,73.5082,89.6946c15.4451,18.9357,30.9926,37.7987,46.4158,56.7494C638.7445,589.7965,641.4794,592.0824,643.81,594.7346Z" style="fill: url(#linear-gradient-2)"/>
    <path d="M322.6288,338.5022a4.35,4.35,0,0,0-.4563-2.3744,1.2568,1.2568,0,0,0,.2062.1611Q324.232,337.2027,322.6288,338.5022Z" style="fill: #f5f0fc"/>
    <path d="M172.0826,556.75a15.6713,15.6713,0,0,0,1.6766-1.4888c4.3763-5.1328,8.6322-10.3717,13.1081-15.4154,5.1533-5.807,10.3613-11.58,15.8449-17.069a10.0752,10.0752,0,0,1,5.9762-2.4179c8.1544-.6186,16.3444-1.2865,24.5087-1.1559,21.0135.3362,41.9125,2.4823,62.7763,4.8854,2.3964.276,3.6485-.2968,4.89-2.4446,3.2955-5.7008,6.9513-11.1929,10.4471-16.7784,3.5688-5.7024,7.085-11.4381,10.6862-17.12,2.6462-4.1749,5.322-8.3345,8.1086-12.4163,5.6185-8.23,11.313-16.4084,16.9948-24.5951q2.5287-3.6435,5.1579-7.217Q362.89,429.047,373.5537,414.6c4.33-5.8682,8.6522-11.7425,13.0311-17.5742Q396.752,383.4854,407,370.0062c10.9127-14.2768,21.7512-28.6134,32.8635-42.7339q33.7332-42.8652,67.7417-85.5137c5.9123-7.4385,11.8869-14.8377,18.0983-22.0255,7.8646-9.1009,15.7428-18.2151,24.0753-26.8811,15.31-15.9226,31.7912-30.5323,50.53-42.3941,13.6938-8.6685,28.1137-15.7184,44.1471-18.9246,8.228-1.6454,16.5029-2.22,24.8177-.4458a4.383,4.383,0,0,1,3.3516,2.681c3.97,8.568,5.1644,17.6739,5.1577,26.9719-.0126,17.18-4.2822,33.5073-10.3552,49.42a245.3725,245.3725,0,0,1-21.512,43.0435c-5.8033,9.2425-11.7149,18.4438-18.0954,27.29-8.332,11.5523-17.0211,22.8571-25.8291,34.0539q-32.0643,40.76-64.3978,81.3084c-6.5993,8.3-13.3764,16.4595-20.1259,24.639q-12.75,15.4521-25.5983,30.8235-13.2,15.7415-26.5461,31.3606-10.0447,11.776-20.2374,23.4261c-6.7939,7.7586-13.6012,15.5084-20.5514,23.1264-6.8522,7.5106-13.7861,14.9529-20.8769,22.2375-7.1319,7.3268-14.5045,14.4191-21.7649,21.6211-2.73,2.7075-5.4013,5.4746-8.177,8.1337-1.2007,1.15-1.1308,2.2562-.62,3.6968,7.1057,20.0563,13.9114,40.2152,19.1341,60.8566,1.7361,6.8617,2.846,13.8833,4.2,20.84a16.6934,16.6934,0,0,1-3.3321,13.7309c-7.4384,10.064-14.6633,20.2858-21.9562,30.457a24.0463,24.0463,0,0,0-1.306,2.3035l-3.0886,3.88c-.6545.5883-1.36,1.1292-1.955,1.7728-3.199,3.462-6.2354,7.0872-9.5949,10.384-2.5906,2.5422-5.2231,5.3661-9.45,4.9336l-.3233-.2574c-1.198-1.823-2.4819-3.5957-3.5805-5.4767-9.4253-16.138-18.6393-32.4025-28.2724-48.415-8.493-14.1173-17.32-28.0391-26.2443-41.8894a42.0854,42.0854,0,0,0-17.07-15.6686c-11.1043-5.3617-22.7187-9.38-34.4307-13.09-21.7471-6.8894-43.5779-13.514-65.3535-20.314-4.2428-1.3249-8.393-2.9459-12.5859-4.43l-.3234-.2574a7.271,7.271,0,0,1,.7014-6.508c2.1768-3.8572,4.5333-7.6153,6.8911-11.3669,1.3754-2.1884,2.8975-4.2846,4.3535-6.4223Z" style="fill: url(#linear-gradient-3)"/>
  </g>
</svg>
