<svg xmlns="http://www.w3.org/2000/svg" xmlns:xlink="http://www.w3.org/1999/xlink" viewBox="0 0 864 864">
  <defs>
    <linearGradient id="linear-gradient" x1="431.7694" y1="712" x2="431.7694" y2="190.34" gradientUnits="userSpaceOnUse">
      <stop offset="0" stop-color="#d5bafe"/>
      <stop offset="0.1816" stop-color="#bd98f5"/>
      <stop offset="0.4313" stop-color="#a170eb"/>
      <stop offset="0.6595" stop-color="#8d53e3"/>
      <stop offset="0.8566" stop-color="#8041df"/>
      <stop offset="1" stop-color="#7c3bdd"/>
    </linearGradient>
    <linearGradient id="linear-gradient-2" x1="261.9678" y1="451.1297" x2="601.5487" y2="451.1297" gradientUnits="userSpaceOnUse">
      <stop offset="0" stop-color="#fedb9a"/>
      <stop offset="0.1978" stop-color="#fccc74"/>
      <stop offset="0.4425" stop-color="#f9bc4c"/>
      <stop offset="0.6663" stop-color="#f7b12f"/>
      <stop offset="0.8595" stop-color="#f6a91d"/>
      <stop offset="1" stop-color="#f6a717"/>
    </linearGradient>
  </defs>
  <title>ICONS</title>
  <g id="INSURANCE">
    <path d="M214.809,238.7244c2.1084-.4947,4.2557-1.0225,6.4148-1.5016Q271.9553,225.965,322.69,214.7192q49.2347-10.9127,98.4716-21.8154c2.2494-.4984,4.504-.9776,6.7424-1.5177.8963-.2162,1.7363-.6625,2.6373-.839a4.9807,4.9807,0,0,1,2.4737-.0742,62.5134,62.5134,0,0,0,7.9291,1.937q37.3487,8.3406,74.7168,16.602,34.6127,7.6794,69.2264,15.3548,30.9888,6.8758,61.9747,13.7625c.6537.1453,1.2894.3644,2.0742.59.0124,1.1343.0338,2.1857.0338,3.2372q.0026,87.2549.0015,174.51c0,1.3908-.0158,2.7819.0042,4.1725a264.5362,264.5362,0,0,1-1.282,29.4079,332.2733,332.2733,0,0,1-23.2691,94.4623,286.4574,286.4574,0,0,1-34.2727,61.3087,270.0091,270.0091,0,0,1-72.18,67.6875,316.0174,316.0174,0,0,1-71.81,33.9156c-3.5539,1.1787-7.1406,2.267-10.7107,3.401a15.249,15.249,0,0,0-1.9286.657,3.04,3.04,0,0,1-3.1991.1264,22.7776,22.7776,0,0,0-2.3962-.8466,333.7989,333.7989,0,0,1-63.7351-26.2547A273.1871,273.1871,0,0,1,249.3789,566.7781a315.8211,315.8211,0,0,1-24.6026-65.68A331.2533,331.2533,0,0,1,217.7056,465.7c-1.3645-9.5638-2.34-19.1656-2.8471-28.8141-.3226-6.1352-.2959-12.2661-.2957-18.4012q.0031-88.2366.0088-176.4733A9.3231,9.3231,0,0,1,214.809,238.7244Zm31.4641,123.0794c0,21.1907-.0307,42.3815.0206,63.5721.0136,5.6422.219,11.286.4423,16.9253a230.0688,230.0688,0,0,0,2.7959,26.5972,261.0818,261.0818,0,0,0,9.114,38.73,271.6126,271.6126,0,0,0,18.208,44.4882,231.6338,231.6338,0,0,0,56.868,70.1952,240.401,240.401,0,0,0,39.4536,26.876,246.8771,246.8771,0,0,0,50.3613,20.634,10.5236,10.5236,0,0,1,3.2622,1.3768,6.8569,6.8569,0,0,0,4.1388,1.0817c.8555-.0107,1.71-.0856,2.5657-.09a7.0551,7.0551,0,0,0,3.8737-1.1305,13.0138,13.0138,0,0,1,3.2729-1.361c3.6518-1.16,7.3277-2.2591,10.94-3.5243a254.0966,254.0966,0,0,0,61.028-30.9329,228.8549,228.8549,0,0,0,33.2865-27.6636,237.8,237.8,0,0,0,51.0144-77.6538,274.6749,274.6749,0,0,0,19.2148-77.7991c.8084-8.4746,1.1814-16.9744,1.1778-25.4907q-.0312-73.8813-.0115-147.7624a17.5175,17.5175,0,0,0-.0586-2.4516,7.4327,7.4327,0,0,0-5.2739-6.3617,15.1752,15.1752,0,0,0-1.7311-.4584q-30.249-6.6726-60.5-13.339-19.6248-4.33-39.2457-8.6758-31.6252-6.9745-63.25-13.9522c-3.9933-.8869-8.0385-1.5769-11.9381-2.853a12.3974,12.3974,0,0,0-7.8171.2c-.809.2621-1.6138.5532-2.4432.7379q-17.7408,3.9519-35.4886,7.8757Q357.0623,246.7958,324.571,254q-33.9882,7.5463-67.9715,15.1124c-1.4995.3335-3.013.6236-4.4895,1.034a7.4937,7.4937,0,0,0-5.8289,7.2214c-.0254.8175-.0078,1.6363-.0078,2.4544Q246.273,320.8133,246.2731,361.8038Z" style="fill: url(#linear-gradient)"/>
    <path d="M601.458,283.422c.0309.9378.0844,1.8233.0854,2.7088q.0108,9.94.004,19.88,0,59.3961.0013,118.7922c.0006,7.6927-.1868,15.38-.8419,23.0492a258.0412,258.0412,0,0,1-23.95,88.8638,220.8642,220.8642,0,0,1-30.5335,47.84,214.8039,214.8039,0,0,1-57.374,47.8255,262.0148,262.0148,0,0,1-55.3725,23.6937,5.279,5.279,0,0,1-3.2391.0689c-24.9747-7.5468-48.381-18.14-69.7627-32.6873a211.2075,211.2075,0,0,1-56.6948-56.87A239.2762,239.2762,0,0,1,276.63,512.01a256.6851,256.6851,0,0,1-11.1252-43.0425q-1.9794-11.749-2.8254-23.6338c-.543-7.515-.7057-15.036-.7069-22.563q-.01-67.9864-.0033-135.9729V283.751a3.99,3.99,0,0,1,2.2377-.9346q28.8689-6.3845,57.7366-12.7743,44.3606-9.8311,88.7176-19.6765c6.2475-1.3862,12.4977-2.7628,18.7325-4.2a10.5356,10.5356,0,0,1,4.794.0053q37.3532,8.32,74.72,16.5856,37.1092,8.238,74.2145,16.4928c5.4143,1.2026,10.835,2.3792,16.25,3.58C600.026,282.974,600.6628,283.1938,601.458,283.422Z" style="fill: url(#linear-gradient-2)"/>
    <path d="M542.9978,376.8153a25.3091,25.3091,0,0,1-2.43,11.293,35.6417,35.6417,0,0,1-4.92,7.8991,34.2138,34.2138,0,0,1-2.56,2.8187q-49.1176,49.1364-98.26,98.2479a34.5184,34.5184,0,0,1-10.0809,7.1266,29.4309,29.4309,0,0,1-7.3482,2.3318,26.2736,26.2736,0,0,1-5.4907.4513,23.1642,23.1642,0,0,1-7.7471-1.713,23.78,23.78,0,0,1-5.9139-3.4669,19.6941,19.6941,0,0,1-1.6319-1.4909Q378.3769,482.0857,360.147,463.85c-2.4368-2.4368-4.8479-4.9-7.317-7.3038a22.6466,22.6466,0,0,1-6.7713-17.4449,20.8379,20.8379,0,0,1,1.9232-8.0624,21.1786,21.1786,0,0,1,2.7294-4.51,21.8674,21.8674,0,0,1,8.6658-6.6583,20.2821,20.2821,0,0,1,4.8153-1.4222,23.2987,23.2987,0,0,1,6.8414-.1439,24.4724,24.4724,0,0,1,7.2576,2.1747,21.2277,21.2277,0,0,1,4.2416,2.6984,42.2021,42.2021,0,0,1,3.1573,2.919q13.619,13.6213,27.24,27.24.3915.3915.7924.7735a.4207.4207,0,0,0,.648-.0286c.2962-.2838.5866-.5736.8767-.8636q43.167-43.1664,86.3369-86.33a36.5356,36.5356,0,0,1,8.1124-6.1208,31.6108,31.6108,0,0,1,7.0446-2.8394,25.2726,25.2726,0,0,1,8.8794-.8387,19.4923,19.4923,0,0,1,10.1235,3.7407,17.9011,17.9011,0,0,1,5.8547,7.5838,20.9244,20.9244,0,0,1,1.3735,5.3285A22.4283,22.4283,0,0,1,542.9978,376.8153Z" style="fill: #fff"/>
  </g>
</svg>
