<svg xmlns="http://www.w3.org/2000/svg" xmlns:xlink="http://www.w3.org/1999/xlink" viewBox="0 0 864 864">
  <defs>
    <linearGradient id="linear-gradient" x1="153.2212" y1="274.0858" x2="564.4094" y2="685.274" gradientTransform="translate(-105.8703 143.6505) rotate(-17.885)" gradientUnits="userSpaceOnUse">
      <stop offset="0" stop-color="#b98ef9"/>
      <stop offset="0.1393" stop-color="#ac7df3"/>
      <stop offset="0.5638" stop-color="#8a4de3"/>
      <stop offset="0.7754" stop-color="#7c3bdd"/>
    </linearGradient>
    <linearGradient id="linear-gradient-2" x1="475.1492" y1="553.2329" x2="588.0734" y2="666.157" xlink:href="#linear-gradient"/>
    <linearGradient id="linear-gradient-3" x1="265.0657" y1="220.89" x2="356.5877" y2="312.4121" xlink:href="#linear-gradient"/>
    <linearGradient id="linear-gradient-4" x1="546.3544" y1="415.512" x2="546.3544" y2="215.4133" gradientUnits="userSpaceOnUse">
      <stop offset="0.2406" stop-color="#fedb9a"/>
      <stop offset="0.3496" stop-color="#fdd68d"/>
      <stop offset="0.5522" stop-color="#fbc86a"/>
      <stop offset="0.8241" stop-color="#f8b232"/>
      <stop offset="0.9465" stop-color="#f6a717"/>
    </linearGradient>
  </defs>
  <title>ICONS</title>
  <g id="TELECOMM">
    <g>
      <path d="M218.6463,243.2257c.5189,1.0524.9146,1.7827,1.2473,2.5406q5.9386,13.53,11.8587,27.0672c3.0075,6.885,5.9792,13.7855,8.9942,20.6671,3.6514,8.3342,7.3437,16.6506,10.9954,24.9847,3.0152,6.8815,5.9835,13.7835,8.9974,20.6656,2.98,6.8055,6.0051,13.5914,8.9853,20.3969,3.0138,6.8822,5.9826,13.7841,9.0022,20.6637.9032,2.0577,1.8685,4.0867,2.6344,6.2805-.6286.7413-1.2038,1.4431-1.8037,2.1231a52.4518,52.4518,0,0,0-8.8479,13.5911,42.1443,42.1443,0,0,0-2.0634,28.645,63.16,63.16,0,0,0,13.5052,24.8745,24.7227,24.7227,0,0,0,2.4752,2.4759c38.0794,33.4377,76.3639,66.6351,115.79,98.4884,9.9368,8.0281,19.9591,15.952,30.4568,23.2477,1.9877,1.3814,4.0044,2.7266,6.0623,4.0005a40.6653,40.6653,0,0,0,15.3263,5.8883,36.577,36.577,0,0,0,21.2219-3.1572A60.1679,60.1679,0,0,0,493.7,570.9978c.4931-.5652.9813-1.1348,1.4767-1.6979a.5764.5764,0,0,1,.1677-.1063,1.8562,1.8562,0,0,1,.28-.087.6246.6246,0,0,1,.2491.0109q74.9192,21.7535,149.8355,43.5158a7.7542,7.7542,0,0,1,.85.3833c-.3294.57-.5978,1.14-.9582,1.6434-3.8909,5.4363-8.1276,10.5958-12.5387,15.6149a295.6926,295.6926,0,0,1-30.8364,29.99q-10.6836,9.0791-22.0537,17.2795a58.7393,58.7393,0,0,1-9.34,5.3126,110.5652,110.5652,0,0,1-14.2014,5.6044,129.8156,129.8156,0,0,1-38.9864,5.7061,191.3106,191.3106,0,0,1-42.8941-5.196,303.3492,303.3492,0,0,1-46.8947-15.1723A502.2566,502.2566,0,0,1,367.7443,644c-20.8755-11.9782-41.0133-25.1154-60.8939-38.6611-6.9707-4.75-13.9225-9.5137-20.4437-14.8843A295.4205,295.4205,0,0,1,251.8214,556.42a461.7947,461.7947,0,0,1-35.8374-47.229c-10.1639-15.2007-19.5815-30.8526-28.3924-46.874-5.8324-10.6055-11.4805-21.3065-16.6957-32.2289-4.3154-9.0378-8.6087-18.0885-12.738-27.2122-3.0283-6.691-5.87-13.4712-8.6155-20.284a107.6645,107.6645,0,0,1-4.6645-15.0629,99.7569,99.7569,0,0,1-2.8771-23.0492,89.4311,89.4311,0,0,1,12.8981-46.7325,120.5473,120.5473,0,0,1,24.6251-29.1427,161.604,161.604,0,0,1,33.5035-22.6364C214.8,245.0683,216.5993,244.223,218.6463,243.2257Z" style="fill: url(#linear-gradient)"/>
      <path d="M500.7273,554.4806c.8587-1.0543,1.3732-1.7066,1.909-2.3409,7.1619-8.4794,14.3543-16.9333,21.4637-25.4565a8.7871,8.7871,0,0,1,4.2751-2.8437,32.5588,32.5588,0,0,1,11.8763-1.2456,51.988,51.988,0,0,1,10.3618,1.6748c10.3264,2.7328,20.6717,5.4025,30.9472,8.317,18.7087,5.3064,37.3714,10.7745,56.0554,16.1679a27.1123,27.1123,0,0,1,10.4359,5.7641,18.4772,18.4772,0,0,1,4.0788,5.0276,13.5516,13.5516,0,0,1,1.7619,5.4328c.6677,7.98,1.3509,15.9587,2.0025,23.94.2578,3.1591.4566,6.3231.6623,9.4862.042.6449-.0057,1.2957-.0143,2.17C604.6229,585.2351,552.88,569.9073,500.7273,554.4806Z" style="fill: url(#linear-gradient-2)"/>
      <path d="M231.7633,238.2075a4.7834,4.7834,0,0,1,2.2825-1.6227,30.7345,30.7345,0,0,1,10.8607-2.7723,61.8442,61.8442,0,0,1,23.9793,2.59,39.47,39.47,0,0,1,6.1878,2.6754,11.7948,11.7948,0,0,1,5.7328,6.3575c1.679,4.2713,3.5167,8.48,5.2947,12.7126q3.0062,7.156,6.025,14.3068,2.6676,6.3481,5.3224,12.7017,3.0069,7.1557,6.0247,14.307c1.81,4.3094,3.6037,8.6256,5.4143,12.9347,1.9722,4.6935,3.9643,9.3788,5.9316,14.0745s3.8975,9.4075,5.8843,14.0951a4.3825,4.3825,0,0,1,.1827,3.1408,139.632,139.632,0,0,1-4.9122,13.9274,12.6646,12.6646,0,0,1-.6538,1.3522,50.3114,50.3114,0,0,1-14.92,16.6226,14.7013,14.7013,0,0,1-3.7853,1.8884c-2.4463.8093-3.99.1861-5.2272-2.09-1.5528-2.8574-3.0413-5.7556-4.4207-8.7q-4.3009-9.1812-8.448-18.4345c-2.3239-5.1771-4.5549-10.3959-6.8227-15.5982q-3.6519-8.3769-7.2926-16.7588c-1.657-3.83-3.2854-7.6724-4.9223-11.5111q-4.0263-9.4429-8.0448-18.8892c-1.7606-4.1489-3.4958-8.3086-5.2484-12.4609-1.9473-4.6136-3.91-9.2206-5.85-13.8374q-2.7644-6.5791-5.4951-13.1724c-.8342-2.0033-1.6722-4.0052-2.4845-6.0174C232.1136,239.4217,231.9488,238.7823,231.7633,238.2075Z" style="fill: url(#linear-gradient-3)"/>
    </g>
    <path d="M689,251.9838v93.7118a5.8009,5.8009,0,0,0-.26,1.0849,35.1277,35.1277,0,0,1-2.5065,11.271,37.4749,37.4749,0,0,1-34.6973,23.71q-53.0879.0224-106.1755-.01a4.6475,4.6475,0,0,0-2.6252.7545c-1.9847,1.2631-4.0084,2.4658-6.0294,3.671-13.8207,8.2418-27.7732,16.2428-42.4349,22.9247a80.163,80.163,0,0,1-16.0611,5.7944c-1.0708.2337-2.1536.4121-3.2309.6161h-1.2467a3.512,3.512,0,0,0-.6558-.267c-2.3944-.4552-3.4181-1.8872-2.8563-4.23a25.7081,25.7081,0,0,1,1.3207-4.0228c3.3864-7.9885,6.8188-15.9575,10.231-23.9352.1551-.3625.2624-.7455.4513-1.29h-1.5056c-12.9469,0-25.894.0465-38.84-.0372a46.1608,46.1608,0,0,1-8.3243-.8148c-15.2535-2.9161-27.6026-16.382-29.3739-31.8674-.1282-1.12-.3127-2.2346-.471-3.3517V251.9838c.0934-.5744.21-1.1461.2748-1.7237.1075-.96.1206-1.9343.2791-2.8849a37.217,37.217,0,0,1,12.8866-22.9247,36.2374,36.2374,0,0,1,19.3469-8.5573q1.892-.2365,3.7831-.48H652.43a7.6279,7.6279,0,0,0,1.2049.2485,34.6776,34.6776,0,0,1,16.5033,4.9678c10.4776,6.3085,16.6757,15.5166,18.3881,27.6754C688.6982,249.5292,688.8426,250.7574,689,251.9838Z" style="fill: url(#linear-gradient-4)"/>
    <circle cx="496.5" cy="294.5" r="17.5" style="fill: #fff"/>
    <circle cx="545.5" cy="294.5" r="17.5" style="fill: #fff"/>
    <circle cx="595.5" cy="294.5" r="17.5" style="fill: #fff"/>
  </g>
</svg>
