<svg xmlns="http://www.w3.org/2000/svg" xmlns:xlink="http://www.w3.org/1999/xlink" viewBox="0 0 864 864">
  <defs>
    <linearGradient id="linear-gradient" x1="432.5871" y1="418.3097" x2="432.5871" y2="609.0531" gradientUnits="userSpaceOnUse">
      <stop offset="0" stop-color="#d5bafe"/>
      <stop offset="0.1351" stop-color="#cbacfa"/>
      <stop offset="0.3884" stop-color="#b288f1"/>
      <stop offset="0.7304" stop-color="#8a4fe2"/>
      <stop offset="0.8396" stop-color="#7c3bdd"/>
    </linearGradient>
    <linearGradient id="linear-gradient-2" x1="153.5858" y1="543.2534" x2="153.5858" y2="366.4985" gradientUnits="userSpaceOnUse">
      <stop offset="0" stop-color="#fedb9a"/>
      <stop offset="0.1497" stop-color="#fdd68e"/>
      <stop offset="0.4217" stop-color="#fbc96e"/>
      <stop offset="0.7823" stop-color="#f8b53a"/>
      <stop offset="1" stop-color="#f6a717"/>
    </linearGradient>
    <linearGradient id="linear-gradient-3" x1="432.4689" y1="262.767" x2="432.4689" y2="451.4638" gradientUnits="userSpaceOnUse">
      <stop offset="0" stop-color="#fedb9a"/>
      <stop offset="0.2551" stop-color="#fbcb71"/>
      <stop offset="0.5947" stop-color="#f9b740"/>
      <stop offset="0.8539" stop-color="#f7ab22"/>
      <stop offset="1" stop-color="#f6a717"/>
    </linearGradient>
  </defs>
  <title>ICONS</title>
  <g id="EDUCATION">
    <path d="M622.4924,489.03q0,33.4448,0,66.8894c0,.7-.0489,1.4039.01,2.0988a3.5463,3.5463,0,0,1-1.2075,2.9217,75.6941,75.6941,0,0,1-10.5511,8.8561,147.6309,147.6309,0,0,1-25.685,14.1705c-15.7932,6.9569-32.29,11.6906-49.1058,15.3621-8.484,1.8524-17.0383,3.3474-25.6462,4.5464-6.5269.9091-13.0582,1.737-19.6171,2.3779-4.8707.4759-9.7462.8538-14.6244,1.2344-8.4722.6611-16.9568.8878-25.4416,1.2345-8.8966.3635-17.788.3783-26.6817.2786-6.9941-.0784-13.99-.2926-20.9775-.6021-6.2851-.2784-12.5724-.6406-18.8378-1.2q-9.9886-.8921-19.9552-2.0671c-9.4277-1.1035-18.7842-2.6018-28.0959-4.3881a269.2435,269.2435,0,0,1-53.68-15.6993,143.7645,143.7645,0,0,1-28.88-15.7831,84.4287,84.4287,0,0,1-9.42-7.8817,3.9767,3.9767,0,0,1-1.4137-3.4363,17.6515,17.6515,0,0,0,.0087-1.7986q0-66.8895.0031-133.7789c0-4.7137-.4506-4.5572,4.3385-3.0655q30.7551,9.5787,61.52,19.1238c10.8726,3.3833,21.7338,6.8036,32.6057,10.1891q30.8982,9.6219,61.8052,19.2163a100.1968,100.1968,0,0,0,21.4411,4.0361,84.3654,84.3654,0,0,0,9.5768.3682,101.9446,101.9446,0,0,0,26.577-4.0031c12.0454-3.6456,24.0534-7.4152,36.0725-11.1477Q538.9834,443.93,581.33,430.7581c11.1584-3.4726,22.3025-6.9915,33.4559-10.4807,2.0967-.656,4.1994-1.2952,6.3135-1.8924.8757-.2474,1.314.1179,1.36,1.0569.0444.8978.0314,1.7988.0315,2.6984Q622.4932,455.5851,622.4924,489.03Z" style="fill: url(#linear-gradient)"/>
    <path d="M143,423.0609q0-26.6827-.004-53.3654c-.002-3.8587-.08-3.6165,3.3151-2.4154q7.4833,2.6477,14.9585,5.3186c.6582.2344,1.3117.4818,1.9667.7249a1.5225,1.5225,0,0,1,1.0482,1.6227c-.017.899.0049,1.7987.005,2.6981q.0007,48.8682-.0361,97.7365a13.736,13.736,0,0,0,1.7471,7.1c3.7288,6.611,7.2588,13.3343,10.8523,20.0214a27.1573,27.1573,0,0,1,3.2593,12.3255,27.5438,27.5438,0,0,1-3.0277,14.1765,25.9662,25.9662,0,0,1-18.6095,13.76,26.3744,26.3744,0,0,1-30.227-18.618,28.1837,28.1837,0,0,1,2.2672-21.7776c3.9088-7.1977,7.7613-14.4263,11.7114-21.6011a7.3206,7.3206,0,0,0,.7762-3.7419q-.0107-10.4932-.0028-20.9864Q143,439.55,143,423.0609Z" style="fill: url(#linear-gradient-2)"/>
    <path d="M431.7563,262.9688c2.0572-.4668,3.8422.0212,5.6371.0309a118.3482,118.3482,0,0,1,34.5041,5.3194c23.3808,7.2209,46.8381,14.1937,70.254,21.3014q42.0052,12.75,83.9953,25.5512,26.3769,8.0131,52.77,15.9738,23.8043,7.2028,47.6042,14.4195c2.6716.8146,5.281,1.8359,7.9078,2.7932a22.2,22.2,0,0,1,5.43,3.1447,15.3407,15.3407,0,0,1,1.5525,1.4071,5.6626,5.6626,0,0,1,.06,8.2883,21.9732,21.9732,0,0,1-6.7074,4.442,79.2215,79.2215,0,0,1-10.1824,3.5437q-18.6334,5.6691-37.2816,11.29-31.404,9.5052-62.807,19.0137-18.7833,5.692-37.5588,11.41-31.6848,9.6125-63.3718,19.2176c-14.718,4.4708-29.4149,9.0113-44.1475,13.4333-6.1178,1.8362-12.1527,3.9831-18.4547,5.174-3.8265.723-7.6578,1.3579-11.5409,1.7457a152.8238,152.8238,0,0,1-20.3436.9388c-10.7966-.3641-21.54-1.2676-31.9664-4.3619-7.2769-2.16-14.5245-4.4181-21.7893-6.619q-31.4016-9.5127-62.8056-19.0174-18.7823-5.6957-37.5524-11.4308-31.6852-9.61-63.3775-19.1958-21.9356-6.6552-43.8585-13.3524-15.6255-4.7465-31.2629-9.4534a45.3723,45.3723,0,0,1-8.842-3.6755,15.7561,15.7561,0,0,1-3.85-2.833c-2.7553-2.88-2.7665-5.8556-.0555-8.74a15.9969,15.9969,0,0,1,3.8346-2.8516,36.2916,36.2916,0,0,1,7.4187-3.2034q24.0767-7.3381,48.1753-14.6043,19.0679-5.7867,38.1256-11.6064,24.5165-7.4366,49.0424-14.8419,21.7937-6.607,43.579-13.2417,31.6853-9.61,63.3751-19.204c6.3084-1.9136,12.6037-3.87,18.91-5.7912a109.5951,109.5951,0,0,1,18.7772-3.7117,138.2438,138.2438,0,0,1,14.9635-.701C430.6155,262.961,431.3148,262.9688,431.7563,262.9688Z" style="fill: url(#linear-gradient-3)"/>
    <ellipse cx="432.5" cy="340.5" rx="19.5" ry="10.5" style="fill: #fff"/>
  </g>
</svg>
