<svg xmlns="http://www.w3.org/2000/svg" xmlns:xlink="http://www.w3.org/1999/xlink" viewBox="0 0 864 864">
  <defs>
    <linearGradient id="linear-gradient" x1="192.0044" y1="220.6049" x2="599.4998" y2="628.1004" gradientUnits="userSpaceOnUse">
      <stop offset="0" stop-color="#d5bafe"/>
      <stop offset="0.2807" stop-color="#b98ef9"/>
      <stop offset="1" stop-color="#7c3bdd"/>
    </linearGradient>
    <linearGradient id="linear-gradient-2" x1="472.6704" y1="396.6981" x2="616.2613" y2="540.289" gradientUnits="userSpaceOnUse">
      <stop offset="0" stop-color="#fedb9a"/>
      <stop offset="0.5535" stop-color="#fbc157"/>
      <stop offset="1" stop-color="#f6a717"/>
    </linearGradient>
  </defs>
  <title>ICONS</title>
  <g id="BILLS">
    <path d="M227.6668,190.0172A15.6239,15.6239,0,0,0,213.5091,205.64V643.0642A15.6238,15.6238,0,0,0,240.1972,654.13l30.5937-30.5937L301.3846,654.13a15.6239,15.6239,0,0,0,22.0955.0362l.0361-.0362L354.11,623.5363,384.7036,654.13a15.6239,15.6239,0,0,0,22.0955.0362l.0361-.0362,30.5937-30.5937L468.0226,654.13a15.6239,15.6239,0,0,0,22.0955.0362l.0361-.0362,30.5937-30.5937L551.3416,654.13A15.6238,15.6238,0,0,0,578.03,643.0642V205.64a15.6238,15.6238,0,0,0-15.6223-15.6223H229.1314Q228.4,189.9829,227.6668,190.0172Z" style="fill: url(#linear-gradient)"/>
    <circle cx="544.4659" cy="468.4936" r="101.5341" style="fill: url(#linear-gradient-2)"/>
    <path d="M612.1245,438.3717a17.5112,17.5112,0,0,1-1.6814,7.8138,24.66,24.66,0,0,1-3.4039,5.4653,23.6621,23.6621,0,0,1-1.7711,1.95q-33.9846,33.9977-67.9866,67.9781a23.8829,23.8829,0,0,1-6.9751,4.9309,20.367,20.367,0,0,1-5.0842,1.6134,18.1868,18.1868,0,0,1-3.799.3123,16.0281,16.0281,0,0,1-5.36-1.1853,16.4544,16.4544,0,0,1-4.0918-2.3987,13.6475,13.6475,0,0,1-1.1292-1.0316q-12.6191-12.6114-25.2325-25.2286c-1.6861-1.686-3.3543-3.39-5.0626-5.0535a15.6684,15.6684,0,0,1-4.6851-12.07,14.4179,14.4179,0,0,1,1.3306-5.5784,14.6547,14.6547,0,0,1,1.8885-3.12,15.13,15.13,0,0,1,5.9959-4.6069,14.0381,14.0381,0,0,1,3.3317-.9841,16.1223,16.1223,0,0,1,4.7336-.0995,16.9349,16.9349,0,0,1,5.0216,1.5047,14.6879,14.6879,0,0,1,2.9348,1.867,29.23,29.23,0,0,1,2.1845,2.02q9.423,9.4246,18.8476,18.8477.2709.2707.5483.5352a.291.291,0,0,0,.4483-.02c.2049-.1963.4059-.3968.6066-.5975q29.8674-29.8669,59.7369-59.7319a25.2761,25.2761,0,0,1,5.6129-4.235,21.8681,21.8681,0,0,1,4.8742-1.9647,17.4906,17.4906,0,0,1,6.1437-.58,13.4878,13.4878,0,0,1,7.0045,2.5882,12.3873,12.3873,0,0,1,4.0509,5.2473,14.4788,14.4788,0,0,1,.95,3.6868A15.5138,15.5138,0,0,1,612.1245,438.3717Z" style="fill: #fff"/>
    <rect x="237.9296" y="238.3496" width="151.0704" height="20.3068" rx="10.1534" style="fill: #fff"/>
    <rect x="237.9296" y="299.27" width="151.0704" height="20.3068" rx="10.1534" style="fill: #fff"/>
    <rect x="237.9296" y="360.1904" width="209.0704" height="20.3068" rx="10.1534" style="fill: #fff"/>
    <g>
      <path d="M515.3771,238.8466c11.2445-.1883,20.7832,14.4972,20.6209,32.0166.1623,17.4586-9.3764,32.2686-20.6209,32.0165H484.0809v20.6721h-21.27V238.8466ZM510.06,278.05a3.8669,3.8669,0,0,0,3.2474-2.0806,9.212,9.212,0,0,0,1.38-5.1057,8.9261,8.9261,0,0,0-1.38-5.1043,3.8117,3.8117,0,0,0-3.2474-2.1428H484.0809V278.05Z" style="fill: #fff"/>
      <rect x="443" y="264" width="28" height="14" rx="7" style="fill: #fff"/>
      <rect x="522" y="264" width="28" height="14" rx="7" style="fill: #fff"/>
    </g>
  </g>
</svg>
