<svg width="36" height="40" viewBox="0 0 36 40" fill="none" xmlns="http://www.w3.org/2000/svg">
<rect width="36" height="40" fill="#E5E5E5"/>
<g clip-path="url(#clip0_0:1)">
<rect width="411" height="857" transform="translate(-187 -367)" fill="#F9F8FC"/>
<rect x="-187" y="-157" width="411" height="435" fill="white"/>
<rect x="-45" y="-30" width="126" height="126" fill="white"/>
<g clip-path="url(#clip1_0:1)">
<path d="M23.42 38.4H1.6V1.6H30.02V27.58C30.02 28.02 30.38 28.38 30.82 28.38C31.26 28.38 31.62 28.02 31.62 27.58V1.6C31.62 0.72 30.9 0 30.02 0H1.6C0.72 0 0 0.72 0 1.6V38.4C0 39.28 0.72 40 1.6 40H23.42C23.86 40 24.22 39.64 24.22 39.2C24.22 38.76 23.86 38.4 23.42 38.4Z" fill="#3F51B5"/>
<path d="M5.7599 6.67999H15.0599C15.4799 6.67999 15.7999 6.31999 15.7999 5.87999C15.7999 5.43999 15.4599 5.07999 15.0599 5.07999H5.7599C5.3399 5.07999 5.0199 5.43999 5.0199 5.87999C5.0199 6.31999 5.3399 6.67999 5.7599 6.67999Z" fill="#3F51B5"/>
<path d="M5.7599 13.74H15.0599C15.4799 13.74 15.7999 13.38 15.7999 12.94C15.7999 12.5 15.4599 12.14 15.0599 12.14H5.7599C5.3399 12.14 5.0199 12.5 5.0199 12.94C5.0199 13.38 5.3399 13.74 5.7599 13.74Z" fill="#3F51B5"/>
<path d="M5.8199 20.8H25.7799C26.2199 20.8 26.5799 20.44 26.5799 20C26.5799 19.56 26.2199 19.2 25.7799 19.2H5.8199C5.3799 19.2 5.0199 19.56 5.0199 20C5.0199 20.44 5.3799 20.8 5.8199 20.8Z" fill="#3F51B5"/>
<path d="M5.89998 27.86H25.86C26.3 27.86 26.66 27.5 26.66 27.06C26.66 26.62 26.3 26.26 25.86 26.26H5.89998C5.45998 26.26 5.09998 26.62 5.09998 27.06C5.09998 27.5 5.45998 27.86 5.89998 27.86Z" fill="#3F51B5"/>
<path d="M23.4199 33.32H5.89994C5.43994 33.32 5.05994 33.72 5.09994 34.2C5.13994 34.62 5.51994 34.92 5.93994 34.92H23.4199C23.8599 34.92 24.2199 34.56 24.2199 34.12C24.2199 33.68 23.8599 33.32 23.4199 33.32Z" fill="#3F51B5"/>
<path d="M21.1399 13.74V10.62H22.1799C23.1399 10.62 23.8799 10.42 24.3799 9.97999C24.7199 9.69999 24.9399 9.27999 25.0599 8.73999H26.5599V6.93999H25.0599C24.9399 6.43999 24.7199 6.01999 24.3799 5.73999C23.8599 5.29999 23.1599 5.07999 22.2999 5.07999H19.3199V6.95999H17.8199V8.75999H19.3199V13.74H21.1399ZM21.1399 6.57999H21.9999C22.4199 6.57999 22.7399 6.67999 22.9799 6.85999C23.2199 7.05999 23.3399 7.37999 23.3399 7.81999C23.3399 8.25999 23.2199 8.59999 22.9799 8.79999C22.7399 8.99999 22.4199 9.11999 21.9999 9.11999H21.1399V6.57999Z" fill="#3F51B5"/>
<path d="M30.8199 30C28.0599 30 25.8199 32.24 25.8199 35C25.8199 37.76 28.0599 40 30.8199 40C33.5799 40 35.8199 37.76 35.8199 35C35.8199 32.24 33.5799 30 30.8199 30ZM33.5599 33.66L30.1399 37.08C30.0399 37.18 29.8799 37.18 29.7799 37.08L28.0799 35.38C27.9799 35.28 27.9799 35.12 28.0799 35.02L28.4399 34.66C28.5399 34.56 28.6999 34.56 28.7999 34.66L29.7999 35.66C29.8999 35.76 30.0599 35.76 30.1599 35.66L32.8599 32.96C32.9599 32.86 33.1199 32.86 33.2199 32.96L33.5799 33.32C33.6599 33.4 33.6599 33.56 33.5599 33.66Z" fill="#F2A819"/>
</g>
</g>
<defs>
<clipPath id="clip0_0:1">
<rect width="411" height="857" fill="white" transform="translate(-187 -367)"/>
</clipPath>
<clipPath id="clip1_0:1">
<rect width="35.82" height="40" fill="white"/>
</clipPath>
</defs>
</svg>
