<svg xmlns="http://www.w3.org/2000/svg" xmlns:xlink="http://www.w3.org/1999/xlink" viewBox="0 0 864 864">
  <defs>
    <linearGradient id="linear-gradient" x1="435.6215" y1="149.5202" x2="435.6215" y2="651.0951" gradientUnits="userSpaceOnUse">
      <stop offset="0.2968" stop-color="#d5bafe"/>
      <stop offset="0.3871" stop-color="#cdaffb"/>
      <stop offset="0.5466" stop-color="#b891f3"/>
      <stop offset="0.755" stop-color="#9761e7"/>
      <stop offset="0.9037" stop-color="#7c3bdd"/>
    </linearGradient>
    <linearGradient id="linear-gradient-2" x1="437.2454" y1="466.4229" x2="437.2454" y2="202.0611" gradientUnits="userSpaceOnUse">
      <stop offset="0.0561" stop-color="#fedb9a"/>
      <stop offset="0.6524" stop-color="#fbc157"/>
      <stop offset="0.7325" stop-color="#fabe4f"/>
      <stop offset="0.8594" stop-color="#f9b438"/>
      <stop offset="1" stop-color="#f6a717"/>
    </linearGradient>
  </defs>
  <title>ICONS</title>
  <g id="TRANSPORTATION">
    <path d="M240.2832,714c-1.5768-.3727-3.1566-.7325-4.73-1.12a24.8053,24.8053,0,0,1-18.6769-21.4661c-.2364-2.3334-.3825-4.687-.3853-7.0316q-.0417-35.0787-.0065-70.1576c.0193-12.7052,7.8022-22.6749,19.8768-25.4741a28.62,28.62,0,0,1,6.2816-.7256q20.4817-.0947,40.9643-.022c12.6822.043,22.6777,7.8719,25.4262,19.9374a29.8377,29.8377,0,0,1,.7107,6.5195q.0729,36.4912.0237,72.9827c-.0126,12.8352-7.8315,22.8309-19.9837,25.6631q-1.9094.445-3.8178.8945Z" style="fill: #3e0790"/>
    <path d="M581.1882,714c-1.5767-.3727-3.1566-.7325-4.73-1.12a24.805,24.805,0,0,1-18.6768-21.4661c-.2364-2.3334-.3825-4.687-.3853-7.0316q-.0417-35.0787-.0066-70.1576c.0194-12.7052,7.8019-22.6746,19.8769-25.4742a28.62,28.62,0,0,1,6.2816-.7256q20.4819-.0945,40.9643-.0219c12.6821.043,22.6779,7.872,25.4263,19.9374a29.8506,29.8506,0,0,1,.7107,6.5195q.0729,36.4912.0236,72.9828c-.0127,12.8353-7.8317,22.8309-19.9837,25.663q-1.91.445-3.8178.8945Z" style="fill: #3e0790"/>
    <path d="M189.9222,295.0311c2.9933.518,6.0285.864,8.9728,1.5826,16.0428,3.916,28.0089,17.6964,28.954,34.1716.6412,11.1776.4333,22.4083.4543,33.6155.0144,7.6775.0748,15.3753-.4228,23.029a38.0215,38.0215,0,0,1-28.7966,34.0944c-7.5405,1.85-15.2122,1.6219-22.8971,1.0644a37.5069,37.5069,0,0,1-26.2118-13.0595,36.6758,36.6758,0,0,1-9.38-21.8387A12.6807,12.6807,0,0,0,140,385.4562v-52.748a12.6694,12.6694,0,0,0,.5958-2.2314,38.4483,38.4483,0,0,1,28.83-33.8221c3.0153-.7409,6.1262-1.0925,9.193-1.6236Z" style="fill: #3e0790"/>
    <path d="M729.3958,385.4562c-.5,2.5928-.8881,5.2132-1.5188,7.7739a38.2306,38.2306,0,0,1-34.4309,29.3189c-8.2268.67-16.4426.8894-24.4865-1.3994-15.2-4.3248-26.6033-17.9341-27.4052-33.72-.64-12.5929-.4239-25.2323-.4628-37.8514-.0195-6.3439.0194-12.7025.4151-19.0305,1.0408-16.645,14.358-31.3957,30.8154-34.3823,2.3743-.4308,4.7672-.7588,7.1514-1.1344h11.3032a18.4609,18.4609,0,0,0,2.7315.5728c16.1662.9659,30.4507,13.1947,34.28,28.8783.6621,2.7111,1.0778,5.4825,1.6073,8.226Z" style="fill: #3e0790"/>
    <path d="M686.409,220.1645V580.4507a10.898,10.898,0,0,0-.5718,2.224,64.9019,64.9019,0,0,1-6.6628,26.1875c-11.5113,23.2521-30.0532,37.1143-55.7929,41.1243-2.8415.4427-5.7053.7425-8.5588,1.1086H256.42c-1.1448-.2047-2.2844-.4471-3.4355-.607-3.5519-.4935-7.16-.7142-10.6546-1.4676a72.304,72.304,0,0,1-56.4352-61.2173c-.3347-2.4534-.7065-4.9018-1.061-7.3525V220.1645c.2056-.897.4747-1.7848.6057-2.6925.5119-3.55.7312-7.1618,1.5038-10.6522a72.327,72.327,0,0,1,61.1481-56.2291c2.7742-.3718,5.5524-.7144,8.3287-1.0705h357.46c1.0691.1839,2.1333.4052,3.2082.5449,3.9434.5127,7.9517.7111,11.8262,1.54a72.3322,72.3322,0,0,1,56.4328,61.2065C685.68,215.2653,686.0543,217.7135,686.409,220.1645Z" style="fill: url(#linear-gradient)"/>
    <path d="M642.9307,239.104V429.1924c-.8526,3.7648-.7873,7.6933-2.5347,11.3077-6.8012,14.0672-17.7008,22.6931-33.1682,25.39a42.16,42.16,0,0,1-7.2729.5325q-162.7113-.0171-325.4226-.0024a43.6682,43.6682,0,0,1-41.4136-28.4219c-1.0266-2.8665-.713-5.9306-1.5587-8.8062V238.6166c.7574-4.0907.8334-8.286,2.71-12.1832a45.9239,45.9239,0,0,1,17.8009-19.6254c5.1171-3.1437,10.7087-4.2564,16.5316-4.7469H605.8879c4.1774.7182,8.4461.7481,12.4438,2.6209a46.1356,46.1356,0,0,1,19.7469,17.6756C641.3459,227.52,642.4032,233.2074,642.9307,239.104Z" style="fill: url(#linear-gradient-2)"/>
    <path d="M598.0894,601.7341c-.5731-.8875-1.5818-.7034-2.3919-.88-18.6932-4.0693-31.4439-20.71-30.7175-40.1453.6876-18.3967,15.1859-34.0972,33.7676-36.5676a38.9115,38.9115,0,0,1,43.3562,30.5819c.1914.885-.0383,1.9617.8269,2.6569v11.21a11.837,11.837,0,0,0-.5509,3.8031c-.4718,5.9421-3.5811,10.6746-6.9968,15.2609a37.7553,37.7553,0,0,1-7.6737,7.405,29.2646,29.2646,0,0,1-17.2609,6.43c-.3965.01-.8157-.0707-1.1487.2444Z" style="fill: #fff"/>
    <path d="M271.5273,601.7341c-.5739-.8876-1.5831-.7036-2.394-.88-18.7073-4.0726-31.471-20.7507-30.7142-40.1911.717-18.4163,15.1685-34.0114,33.8549-36.5339a38.9717,38.9717,0,0,1,13.362,76.7264c-.9708.2093-2.112.01-2.8984.8787Z" style="fill: #fff"/>
  </g>
</svg>
