<svg width="40" height="40" viewBox="0 0 40 40" fill="none" xmlns="http://www.w3.org/2000/svg">
<g clip-path="url(#clip0_3:1169)">
<path d="M39.68 29.66L30.48 22.66C30.42 22.62 30.38 22.58 30.32 22.56C29.46 22.18 21.8 18.88 19.7 18.88C16.86 18.88 15.2 20.72 15.12 20.8C14.96 20.98 14.88 21.22 14.92 21.46C14.96 21.7 15.1 21.9 15.32 22.02L22 25.72L13.96 27.3L2.35997 17.2C2.03997 16.92 1.55997 16.94 1.25997 17.24C0.419966 18.08 -0.0400337 19.22 -3.36706e-05 20.4C0.0399663 21.58 0.559966 22.68 1.47997 23.5L11.54 33.56C11.7 33.72 11.9 33.8 12.1 33.8H29.26L35.22 39.76C35.38 39.92 35.58 40 35.78 40C35.98 40 36.18 39.92 36.34 39.76C36.66 39.44 36.66 38.94 36.34 38.62L30.14 32.42C29.98 32.26 29.78 32.18 29.58 32.18H12.44L2.59997 22.34C2.57997 22.32 2.57997 22.32 2.55997 22.3C1.95997 21.78 1.61997 21.08 1.59997 20.34C1.57997 19.84 1.69997 19.36 1.93997 18.94L13.2 28.76C13.38 28.92 13.64 28.98 13.88 28.94L24.46 26.86C24.78 26.8 25.04 26.54 25.1 26.2C25.16 25.86 25 25.54 24.7 25.38L17.14 21.2C17.72 20.84 18.58 20.48 19.68 20.48C21 20.48 26.4 22.62 29.58 24L38.7 30.94C39.06 31.2 39.56 31.14 39.82 30.78C40.1 30.44 40.04 29.94 39.68 29.66Z" fill="#3F51B5"/>
<path d="M6.68013 14.92H33.3201C33.7601 14.92 34.1201 14.56 34.1201 14.12V0.8C34.1201 0.36 33.7601 0 33.3201 0H6.68013C6.24013 0 5.88013 0.36 5.88013 0.8V14.12C5.88013 14.56 6.24013 14.92 6.68013 14.92ZM7.48013 1.6H32.5201V13.32H7.48013V1.6Z" fill="#3F51B5"/>
<path d="M21.54 5.47996C21.24 5.21996 20.82 5.07996 20.32 5.07996H18.08V6.19996H16.96V7.27996H18.08V10.26H19.16V8.39996H20.24C20.8 8.39996 21.24 8.27996 21.54 8.01996C21.74 7.85996 21.88 7.59996 21.94 7.27996H23.06V6.19996H21.94C21.86 5.89996 21.74 5.65996 21.54 5.47996ZM20.72 7.29996C20.58 7.41996 20.4 7.47996 20.14 7.47996H19.16V5.95996H20.14C20.38 5.95996 20.58 6.01996 20.72 6.13996C20.86 6.25996 20.92 6.43996 20.92 6.71996C20.92 6.97996 20.84 7.17996 20.72 7.29996Z" fill="#3F51B5"/>
<path d="M6.8 12.6C9.45097 12.6 11.6 10.451 11.6 7.8C11.6 5.14903 9.45097 3 6.8 3C4.14903 3 2 5.14903 2 7.8C2 10.451 4.14903 12.6 6.8 12.6Z" fill="#F2A819" fill-opacity="0.75"/>
<path d="M11.5 19C12.8807 19 14 17.8807 14 16.5C14 15.1193 12.8807 14 11.5 14C10.1193 14 9 15.1193 9 16.5C9 17.8807 10.1193 19 11.5 19Z" fill="#F2A819" fill-opacity="0.75"/>
</g>
<defs>
<clipPath id="clip0_3:1169">
<rect width="40" height="39.98" fill="white"/>
</clipPath>
</defs>
</svg>
