<svg xmlns="http://www.w3.org/2000/svg" xmlns:xlink="http://www.w3.org/1999/xlink" viewBox="0 0 864 864">
  <defs>
    <linearGradient id="linear-gradient" x1="432" y1="550" x2="432" y2="160" gradientUnits="userSpaceOnUse">
      <stop offset="0.2112" stop-color="#fedb9a"/>
      <stop offset="0.3534" stop-color="#fdd387"/>
      <stop offset="0.6426" stop-color="#fac055"/>
      <stop offset="0.9626" stop-color="#f6a717"/>
    </linearGradient>
    <linearGradient id="linear-gradient-2" x1="431.5" y1="589.5" x2="431.5" y2="522.5" gradientUnits="userSpaceOnUse">
      <stop offset="0.2112" stop-color="#b98ef9"/>
      <stop offset="0.2814" stop-color="#b385f6"/>
      <stop offset="0.7395" stop-color="#8b50e4"/>
      <stop offset="0.9626" stop-color="#7c3bdd"/>
    </linearGradient>
    <linearGradient id="linear-gradient-3" x1="434" y1="656.5" x2="434" y2="589.5" gradientUnits="userSpaceOnUse">
      <stop offset="0.2112" stop-color="#b98ef9"/>
      <stop offset="0.5492" stop-color="#9861ea"/>
      <stop offset="0.8107" stop-color="#8445e0"/>
      <stop offset="0.9626" stop-color="#7c3bdd"/>
    </linearGradient>
  </defs>
  <title>ICONS</title>
  <g id="ELECTRIC_UTILITIES" data-name="ELECTRIC UTILITIES">
    <circle cx="432.5" cy="656.5" r="39.5" style="fill: #3e0790"/>
    <circle cx="432" cy="355" r="195" style="fill: url(#linear-gradient)"/>
    <rect x="324.5" y="522.5" width="214" height="67" rx="28.5" style="fill: url(#linear-gradient-2)"/>
    <rect x="331" y="589.5" width="206" height="67" rx="28.5" style="fill: url(#linear-gradient-3)"/>
    <path d="M417.9056,481.7081a3.4156,3.4156,0,0,1-.2089-2.1839c.0977-.9683.1845-1.9376.271-2.9069q.3118-3.4915.621-6.9833c.0233-.2587.0895-.5139.1072-.7726.1546-2.2676.2751-4.538.4605-6.8031s.434-4.523.655-6.7843c.0253-.2589.0556-.5173.0774-.7764.2559-3.04.5261-6.08.7608-9.1219.1747-2.266.2762-4.5378.46-6.803.1786-2.2.42-4.3938.6356-6.59.0253-.2587.0707-.5159.0879-.7751.1508-2.2679.2681-4.5384.4534-6.8034.18-2.1993.4283-4.3931.6468-6.5893.0257-.2588.0565-.5172.0783-.7763.2559-3.04.526-6.08.7606-9.1217.1747-2.266.2768-4.5376.46-6.8028.1777-2.2.4164-4.3946.63-6.5914.0252-.2588.0735-.5157.0908-.7748.1518-2.2678.2706-4.5382.4555-6.8032.18-2.2.4354-4.3928.6394-6.59.168-1.81.34-3.6208.45-5.4349.0626-1.028-.4147-1.4416-1.4273-1.3348-2.97.3133-5.9366.6586-8.9076.9607-1.8733.1906-3.7539.3088-5.6282.4912s-3.7437.4052-5.6155.6087c-1.4844.1614-2.9675.3378-4.454.476-1.8748.1743-3.7545.2962-5.6284.4785s-3.7424.4136-5.6138.6187c-1.4842.1626-2.9677.3353-4.4544.4722-1.8751.1725-3.7555.29-5.6293.4741s-3.7411.4275-5.6124.6345c-1.42.1572-2.84.3125-4.2623.4429-1.8753.1718-3.7549.2991-5.6291.4814s-3.743.4109-5.6147.6156c-1.4842.1623-2.9675.3372-4.4541.4743-1.875.1729-3.7552.291-5.6291.4738s-3.7416.4218-5.6132.6256c-1.6138.1759-3.2277.353-4.8447.4939a10.3454,10.3454,0,0,1-1.48-.0952,3.6592,3.6592,0,0,1,.2454-.97c.9975-1.6005,2.02-3.1856,3.0462-4.7681q7.5374-11.6241,15.08-23.2448,4.0858-6.3035,8.1562-12.6169,7.43-11.46,14.8692-22.9151,5.9936-9.2527,11.9647-18.52,6.4632-9.9943,12.9358-19.9828,6.4136-9.91,12.8254-19.8208c3.3953-5.24,6.8114-10.467,10.1976-15.7132,2.9626-4.59,5.8951-9.1992,8.8454-13.797.2427-.3782.52-.7339.76-1.07.5723.0552.504.4452.4742.7247-.1918,1.807-.42,3.61-.6218,5.4159-.1584,1.4195-.31,2.84-.4386,4.2625-.17,1.8753-.2924,3.7551-.4766,5.6289s-.4238,3.741-.63,5.6122c-.1565,1.42-.3135,2.84-.4441,4.2617-.1721,1.875-.2992,3.7543-.4816,5.6283s-.4111,3.7428-.6154,5.6144c-.1621,1.4844-.3347,2.9679-.4723,4.4545-.1736,1.8752-.2954,3.7552-.4782,5.6293s-.4162,3.7421-.622,5.6133c-.1632,1.4844-.3358,2.968-.4723,4.4549-.1722,1.8752-.2879,3.7558-.4725,5.63s-.4329,3.74-.6363,5.6111c-.1755,1.614-.3257,3.2306-.49,4.8458-.2424,2.3893-.5,4.777-.7265,7.1678-.1776,1.8745-.3066,3.7536-.48,5.6285-.0717.7755-.2349,1.5428-.2984,2.3186-.0841,1.0264.376,1.4891,1.3667,1.3841,2.9692-.3146,5.9347-.6649,8.9049-.97,1.8729-.1924,3.753-.3129,5.6272-.4941s3.7446-.3968,5.6165-.5994c1.4846-.1607,2.9672-.3424,4.4536-.4822,1.8747-.1763,3.7543-.3008,5.6284-.4824s3.743-.4068,5.6144-.6113c1.4842-.1622,2.967-.34,4.4535-.4781,1.8749-.174,3.7538-.3054,5.63-.4721,1.2933-.115,2.5847-.2517,3.8756-.3914,1.872-.2025,3.7423-.42,5.614-.6247,1.4845-.1625,2.9685-.3326,4.4556-.4689,1.8753-.1718,3.7557-.2894,5.63-.4736s3.7409-.4274,5.6121-.6342c1.42-.1569,2.84-.3117,4.262-.4416,1.8753-.1715,3.7546-.2983,5.6288-.48,2.0673-.2006,4.13-.4475,6.1961-.6618.6257-.065,1.2783-.2677,1.88.2029a3.0019,3.0019,0,0,1-.6733,1.8049c-1.5851,2.7642-3.2,5.5114-4.7964,8.2689q-3.9592,6.8379-7.9108,13.68c-2.9052,5.006-5.8321,9.9992-8.7335,15.0073-2.8034,4.839-5.5812,9.6928-8.38,14.5346-2.0179,3.4907-4.0578,6.9687-6.0768,10.4589-2.3118,3.9964-4.6046,8.0038-6.9179,11.9993-1.9878,3.4331-4.0013,6.8513-5.9883,10.2848-2.3126,3.996-4.5982,8.0076-6.915,12.0011-2.35,4.05-4.7327,8.0812-7.0837,12.1307-2.3182,3.9928-4.6092,8.0014-6.9225,11.9972-1.9874,3.433-3.9982,6.8524-5.9828,10.287-2.8307,4.8985-5.641,9.8088-8.4712,14.7076-1.8218,3.1533-3.6643,6.2947-5.497,9.4418q-4.0251,6.9123-8.0511,13.824C418.4324,480.9188,418.2483,481.1791,417.9056,481.7081Z" style="fill: #fff"/>
  </g>
</svg>
