<svg xmlns="http://www.w3.org/2000/svg" xmlns:xlink="http://www.w3.org/1999/xlink" viewBox="0 0 864 864">
  <defs>
    <linearGradient id="linear-gradient" x1="541.4923" y1="620.1918" x2="323.4009" y2="242.4466" gradientUnits="userSpaceOnUse">
      <stop offset="0.3117" stop-color="#b98ef9"/>
      <stop offset="0.3473" stop-color="#b588f7"/>
      <stop offset="0.6368" stop-color="#965ee9"/>
      <stop offset="0.8642" stop-color="#8345e0"/>
      <stop offset="1" stop-color="#7c3bdd"/>
    </linearGradient>
    <linearGradient id="linear-gradient-2" x1="255.3767" y1="584.9585" x2="593.5033" y2="584.9585" gradientUnits="userSpaceOnUse">
      <stop offset="0.2295" stop-color="#f6a717"/>
      <stop offset="0.793" stop-color="#fbc157"/>
    </linearGradient>
    <linearGradient id="linear-gradient-3" x1="270.3477" y1="277.9154" x2="609.4497" y2="277.9154" gradientUnits="userSpaceOnUse">
      <stop offset="0.2338" stop-color="#fbc157"/>
      <stop offset="0.5097" stop-color="#f9b53a"/>
      <stop offset="0.8163" stop-color="#f7ab21"/>
      <stop offset="1" stop-color="#f6a717"/>
    </linearGradient>
  </defs>
  <title>ICONS</title>
  <g id="SEND_RECEIVE" data-name="SEND/RECEIVE">
    <path d="M659.49,382.25q-15.975,87.54-31.93,175.09c-2.52,13.81-16.44,26.71-30.79,27.1-128.85,3.8-240.84-84.92-369.68-81.12-14.35.4-24.19-9.08-21.66-22.94q15.96-87.54,31.93-175.09c2.52-13.83,16.43-26.71,30.79-27.1,128.83-3.79,240.81,84.93,369.65,81.15C652.16,358.93,661.99,368.42,659.49,382.25Z" style="fill: url(#linear-gradient)"/>
    <g>
      <path d="M476.2421,380.045c14.88,2.764,23.5265,24.6875,18.619,47.75-4.463,23.069-21.0107,40.046-35.7732,36.7012l-41.2753-8.3841-5.538,27.2636-28.0526-5.6982,22.6921-111.7144Zm-17.5148,50.2787c1.6589.337,3.291-.2846,4.84-1.874a12.3972,12.3972,0,0,0,3.188-6.3641,12.0121,12.0121,0,0,0-.4528-7.1015c-.7892-2.152-2.05-3.3591-3.7088-3.696l-34.2628-6.96-3.8666,19.0357Z" style="fill: #fff"/>
      <rect x="371.796" y="397.3913" width="37.6822" height="18.8411" rx="7" transform="translate(88.7983 -69.6192) rotate(11.4821)" style="fill: #fff"/>
      <rect x="475.986" y="418.5551" width="37.6822" height="18.8411" rx="7" transform="translate(95.0963 -89.9358) rotate(11.4821)" style="fill: #fff"/>
    </g>
    <path d="M258.34,510.502c-16.4131,73.4795,38.1912,101.773,93.7045,114.173l132.8683,29.6787-6.0823,27.23c-1.2,5.3712,2.0312,8.163,7.1867,6.1738l42.0152-16.17c5.1555-1.9893,13.571-5.2311,18.74-7.1995l42.04-16.2c5.1348-1.976,6.2244-6.8542,2.4223-10.8443L560.08,604.8122c-3.84-3.9806-10.0761-10.4952-13.8914-14.5061l-31.1414-32.5106c-3.84-3.9807-7.9309-2.8423-9.1345,2.5459l-6.0823,27.23-119.8822-26.778c-39.1959-8.7552-99.1633-30.0556-89.3831-73.8407l.8163-3.6544c-9.053-1.0943-17.85-1.578-26.5846-1.78C262.0839,493.7427,259.5933,504.8929,258.34,510.502Z" style="fill: url(#linear-gradient-2)"/>
    <path d="M606.7039,350.7293c15.7646-73.6214-39.0835-101.4493-94.721-113.363L378.8582,208.86l5.8383-27.2653c1.1523-5.3815-2.1-8.1618-7.241-6.11l-41.8843,16.5188c-5.1378,2.0346-13.528,5.3676-18.6621,7.3852L275,215.9382c-5.1341,2.0175-6.1843,6.9222-2.3229,10.8482l31.4366,32.2725c3.8748,3.9466,10.1512,10.4024,14.0017,14.3794l31.4269,32.2348c3.8712,3.9637,7.952,2.7893,9.1116-2.6263l5.8384-27.2653,120.1137,25.72c39.2715,8.4092,99.4245,29.18,90.0343,73.0327l-.8679,4.0531c8.9906,1.2662,17.7865,2.0276,26.4267,2.435C602.8275,368.8323,605.3619,356.9964,606.7039,350.7293Z" style="fill: url(#linear-gradient-3)"/>
  </g>
</svg>
