<svg xmlns="http://www.w3.org/2000/svg" xmlns:xlink="http://www.w3.org/1999/xlink" viewBox="0 0 864 864">
  <defs>
    <linearGradient id="linear-gradient" x1="422.8117" y1="723.2816" x2="422.8117" y2="582.1083" gradientTransform="matrix(-1, 0, 0, 1, 864, 0)" gradientUnits="userSpaceOnUse">
      <stop offset="0" stop-color="#b98ef9"/>
      <stop offset="0.1543" stop-color="#b589f7"/>
      <stop offset="0.3477" stop-color="#aa79f2"/>
      <stop offset="0.562" stop-color="#9760e9"/>
      <stop offset="0.79" stop-color="#7d3cdd"/>
      <stop offset="0.7968" stop-color="#7c3bdd"/>
    </linearGradient>
    <linearGradient id="linear-gradient-2" x1="507.9016" y1="240.4768" x2="507.9016" y2="457.3458" gradientTransform="matrix(-1, 0, 0, 1, 864, 0)" gradientUnits="userSpaceOnUse">
      <stop offset="0" stop-color="#d5bafe"/>
      <stop offset="0.8663" stop-color="#7c3bdd"/>
    </linearGradient>
    <linearGradient id="linear-gradient-3" x1="656.686" y1="306.5127" x2="656.686" y2="459.1179" gradientTransform="matrix(-1, 0, 0, 1, 864, 0)" gradientUnits="userSpaceOnUse">
      <stop offset="0" stop-color="#fedb9a"/>
      <stop offset="0.0969" stop-color="#fed994"/>
      <stop offset="0.2302" stop-color="#fdd182"/>
      <stop offset="0.3846" stop-color="#fbc665"/>
      <stop offset="0.5534" stop-color="#f8b63d"/>
      <stop offset="0.6898" stop-color="#f6a717"/>
    </linearGradient>
    <linearGradient id="linear-gradient-4" x1="206.8176" y1="698.246" x2="206.8176" y2="554.2413" gradientTransform="matrix(-1, 0, 0, 1, 864, 0)" gradientUnits="userSpaceOnUse">
      <stop offset="0" stop-color="#fedb9a"/>
      <stop offset="0.1007" stop-color="#fed994"/>
      <stop offset="0.2391" stop-color="#fdd182"/>
      <stop offset="0.3995" stop-color="#fbc665"/>
      <stop offset="0.5748" stop-color="#f8b63d"/>
      <stop offset="0.7166" stop-color="#f6a717"/>
    </linearGradient>
  </defs>
  <title>ICONS</title>
  <g id="LOAN">
    <path d="M615.6959,683.3275q0-50.2656-.005-100.3527a5.09,5.09,0,0,0-.1321-.7753c-.58-.0332-1.1069-.0873-1.634-.09A102.4,102.4,0,0,0,599.5,583.1489a109.0061,109.0061,0,0,0-22.2477,5.5074,102.3219,102.3219,0,0,0-16.2512,7.4593,126.7982,126.7982,0,0,1-31.6978,12.9716,121.0855,121.0855,0,0,1-17.7868,3.1664,145.7336,145.7336,0,0,1-14.9969.6718q-29.3234-.03-58.6469-.0179a20.9144,20.9144,0,0,0-7.4455,1.258,19.9914,19.9914,0,0,0,1.9336,37.98,17.0305,17.0305,0,0,0,4.2858.6059c.6637-.0029,1.3274.0028,1.9911.0028q44.2568,0,88.5134.0109a13.14,13.14,0,0,1,3.0459.2679,6.7652,6.7652,0,0,1-.29,13.1963,13.091,13.091,0,0,1-2.5151.2109c-4.5251.02-9.05.01-13.5756.01q-37.65,0-75.3.0019a37.043,37.043,0,0,1-10.5445-1.3825,34.6958,34.6958,0,0,1-7.76-3.41,32.6058,32.6058,0,0,0-3.1979-1.6741q-45.09-20.0956-90.19-40.1681-16.1055-7.1724-32.2012-14.3667a21.2609,21.2609,0,0,0-9.278-2.0128,19.3246,19.3246,0,0,0-8.394,36.3864c6.0784,3.2048,12.25,6.2338,18.3851,9.3305q55.8627,28.1961,111.7208,56.4015a164.104,164.104,0,0,0,39.0326,14.0065,151.7276,151.7276,0,0,0,17.1335,2.7525,169.725,169.725,0,0,0,18.7865.961c5.312-.0479,10.6042-.3967,15.8882-.952a158.0716,158.0716,0,0,0,18.9006-3.147,161.8393,161.8393,0,0,0,20.9057-6.381q37.9731-14.3322,75.9523-28.6477C614.275,683.9147,614.8843,683.6548,615.6959,683.3275Z" style="fill: url(#linear-gradient)"/>
    <path d="M240.9465,322.9283c.1867,4.4627.3734,8.9253.5882,13.3786.14,3.1368.336,6.2644.4854,9.4013.2988,6.3858.5695,12.781.8776,19.1668.2894,6.1432.6068,12.2863.9149,18.4387q.21,4.0613.3921,8.1317c.29,6.33.56,12.66.859,18.98q.6582,13.4719,1.335,26.9346c.0093.2987.0561.5974.084.9615a7.3123,7.3123,0,0,0,.98.4108c13.2665,3.585,26.5143,7.2074,39.7995,10.7084q11.6373,3.0528,23.49,5.1348c6.18,1.0829,12.3888,1.9327,18.6533,2.3995a124.6112,124.6112,0,0,0,15.7312.2147c11.2126-.607,21.93-3.1277,31.8453-8.5986a62.3071,62.3071,0,0,0,8.3183-5.77c2.5581-2.0165,5.0975-4.0517,7.7583-5.9376a57.4229,57.4229,0,0,1,23.7042-9.7562,85.1509,85.1509,0,0,1,16.9449-1.1577c2.586.0747,5.1815.28,7.7675.4015a60.6673,60.6673,0,0,0,14.0694-.6162,27.5765,27.5765,0,0,0,8.5238-2.8941,15.49,15.49,0,0,0,3.8558-2.96,11.2149,11.2149,0,0,0,2.558-12.0715,12.667,12.667,0,0,0-9.56-8.5237c-4.7614-1.0551-9.57-1.9233-14.3589-2.8756-9.9242-1.97-19.867-3.893-29.7819-5.9377-6.2551-1.2977-12.4822-2.7168-18.7-4.2105a91.55,91.55,0,0,1-14.4336-4.6494,32.346,32.346,0,0,1-14.5361-11.8194,69.0687,69.0687,0,0,1-8.7946-16.9635,36.13,36.13,0,0,1-1.9512-13.1732,47.3484,47.3484,0,0,1,.7562-6.2738,11.1548,11.1548,0,0,1,1.2137-3.1929c1.279-2.3994,2.5954-4.7708,3.9958-7.0954,4.3133-7.1887,8.9906-14.1534,13.6586-21.118,11.3993-16.9729,23.1627-33.7031,34.87-50.4706,1.41-2.026,2.8288-4.0519,4.2292-6.0871.2988-.4294.5415-.8962.8869-1.4565a7.488,7.488,0,0,0-.9523-.3174c-3.6877-.6162-7.366-1.27-11.0631-1.8205q-4.0332-.5881-8.085-.9429a81.5574,81.5574,0,0,0-21.6409.6255,44.4187,44.4187,0,0,0-19.7831,8.8412,71.4763,71.4763,0,0,0-9.8215,9.3361c-3.5757,4.089-7.0767,8.2436-10.5871,12.38q-3.9771,4.6914-7.9169,9.42A79.5527,79.5527,0,0,1,307.41,298.8507a138.2772,138.2772,0,0,1-23.9283,11.0632,283.0853,283.0853,0,0,1-28.2508,8.3277c-4.388,1.083-8.7758,2.1473-13.1638,3.23-.3454.0841-.6722.2241-1.0456.3549A9.4644,9.4644,0,0,0,240.9465,322.9283Z" style="fill: url(#linear-gradient-2)"/>
    <path d="M317.53,469.4572c.6535.4855,1.111.85,1.5871,1.1857q13.8781,9.5088,27.7561,19.0268,45.8911,31.4673,91.7824,62.9436c.4948.3361.98.7,1.5125.99a3.195,3.195,0,0,0,4.21-.7843c.3455-.42.6349-.8868.943-1.335q31.7192-46.2693,63.4476-92.5388,57.5147-83.87,115.02-167.75L641.07,265.96c.2707-.392.56-.7842.7935-1.2043a2.9356,2.9356,0,0,0-.5508-3.641,14.0465,14.0465,0,0,0-1.5965-1.1763l-36.8586-25.2914q-45.8772-31.4951-91.7545-62.9715-7.31-5.0136-14.62-10.0362c-.3921-.2708-.7842-.57-1.2044-.8029a3.1034,3.1034,0,0,0-4.08.6909,16.8224,16.8224,0,0,0-1.055,1.475q-24.311,35.4442-48.6033,70.8885c-6.3019,9.2147-12.4917,18.4946-18.8121,27.6907-8.9533,13.0237-18.0279,25.9728-26.9718,39.006-6.3112,9.1958-12.51,18.4759-18.7374,27.7373-1.2043,1.8017-2.278,3.697-3.4637,5.5175a10.0811,10.0811,0,0,0-1.4844,4.78,23.8315,23.8315,0,0,0,1.3257,10.3256c.5042,1.3445,1.0923,2.6608,1.6712,3.9865l.0093.0094.8962,2.2032s6.666,8.9533,9.1307,11.5487q.3081.3081.6162.5882c.0279.028.056.0374.0747.056a12.4928,12.4928,0,0,0,4.836,2.6328c3.0622.8962,6.1338,1.7925,9.252,2.4927,6.1151,1.363,12.2582,2.6514,18.4013,3.94l3.6971.7842q11.5813,2.4507,23.172,4.8827c6.1338,1.2884,12.2769,2.5115,18.4013,3.8371a26.2759,26.2759,0,0,1,21.0621,25.7675,27.5966,27.5966,0,0,1-.168,3.0156c-.8963,8.4677-5.21,14.7416-12.3049,19.2321a38.7616,38.7616,0,0,1-12.0342,4.8081c-1.9979.4668-4.0051.8776-6.0124,1.251a14.5889,14.5889,0,0,1-2.6981.2521c-3.0715-.0467-6.1524-.084-9.224-.2427-5.06-.2708-10.1109-.6723-15.18-.4668a50.3438,50.3438,0,0,0-14.891,2.7168,51.1324,51.1324,0,0,0-15.5912,8.9625c-1.12.9243-2.2313,1.8486-3.3609,2.7541a69.6245,69.6245,0,0,1-18.0653,10.5777c-.0093.0093-.0186.0093-.0373.0187q-1.9606.7844-3.9772,1.4565a.9138.9138,0,0,0-.1493.0467c-.5042.1773-1.0364.3453-1.5872.5041-.3547.112-.7188.2148-1.0923.3174-10.0269,2.7261-26.3463,4.0893-26.3463,4.0893a108.2424,108.2424,0,0,1-15.5538-.5977c-2.6887-.2987-5.3775-.6441-8.0756-.9615A5.6969,5.6969,0,0,0,317.53,469.4572Z" style="fill: #3e0790"/>
    <path d="M165.0094,315.8906c.0108,1.4043-.0326,2.8167.0091,4.2214q.338,12.0021.7147,23.987c.0921,3.272.1612,6.535.2536,9.7983.1685,6.0293.36,12.05.5289,18.0794.1135,3.944.2037,7.8876.3017,11.8313.0077,0,.0156-.0084.0233-.0083q.2877,10.6536.5757,21.29.2785,10.4834.5882,20.95.3,10.6405.5989,21.29.0691,2.4477.1616,4.8954c.1457,3.8484,2.7523,6.764,6.1478,6.891.3552.0051.7027.0013,1.05-.0111q8.5292-.3359,17.0506-.6806c2.2945-.0893,4.5891-.1873,6.8835-.2679,3.0438-.1135,6.0871-.192,9.1233-.3143,5.1376-.2056,10.2755-.4374,15.4055-.6518,2.5417-.1032,5.0911-.1975,7.6328-.292,3.0438-.1135,6.08-.21,9.1234-.323.95-.0387,1.8929-.0863,2.8441-.1861,3.0545-.3227,5.4423-3.158,5.5922-6.6185.0133-.3923.0113-.7935.0015-1.1861q-.2565-8.7823-.5131-17.5647-.1181-3.8873-.2285-7.7744c-.154-5.9681-.3-11.936-.47-17.9129q-.3381-11.9889-.7069-23.9868c-.1-3.2634-.169-6.5351-.2614-9.7984-.1677-6.0816-.3587-12.1636-.5342-18.2453-.0719-2.53-.1437-5.0694-.2156-7.6q-.231-8.9517-.4695-17.9127-.1779-7.002-.4017-14.0219a11.2309,11.2309,0,0,0-.35-2.4909,6.294,6.294,0,0,0-5.6227-4.7466,10.9839,10.9839,0,0,0-1.1968,0q-2.77.1042-5.5316.2174c-5.0914.2238-10.1754.4562-15.2589.6626-5.1839.205-10.375.375-15.559.5885-5.0371.1984-10.067.4318-15.1043.6388q-3.9633.1658-7.9264.314-4.0443.1515-8.0806.2856a5.9744,5.9744,0,0,0-4.927,2.7555A6.6421,6.6421,0,0,0,165.0094,315.8906Z" style="fill: url(#linear-gradient-3)"/>
    <path d="M615.4017,695.0432a3.2987,3.2987,0,0,0,2.8961,3.1175,9.5474,9.5474,0,0,0,1.4821.0853h74.8044a9.6484,9.6484,0,0,0,1.3118-.06,3.363,3.363,0,0,0,3.0835-3.3049c.0256-.3323.017-.6644.017-.9881v-135.41a10.3139,10.3139,0,0,0-.0255-1.15,3.3366,3.3366,0,0,0-2.99-3.041,14.2821,14.2821,0,0,0-1.4821-.0511H619.8651a12.237,12.237,0,0,0-1.4821.0511,3.2418,3.2418,0,0,0-2.9473,2.8706,18.0327,18.0327,0,0,0-.0681,2.1465V693.0585C615.3676,693.7229,615.3506,694.3873,615.4017,695.0432Z" style="fill: url(#linear-gradient-4)"/>
    <path d="M371.072,466.0123q2.0166-.6721,3.9772-1.4565c-1.0177.3735-2.222.8123-3.65,1.3351C371.2867,465.9282,371.1841,465.9655,371.072,466.0123Z"/>
    <path d="M385.1041,366.6956a4.6492,4.6492,0,0,0,.6162.5882Q385.412,367.0038,385.1041,366.6956Z"/>
    <path d="M414.2512,355.1469a57.6366,57.6366,0,0,0,4.0331,21.2582l3.6971.7842q11.5813,2.4507,23.172,4.8827c6.1338,1.2884,12.2769,2.5115,18.4013,3.8371a26.2759,26.2759,0,0,1,21.0621,25.7675,57.887,57.887,0,1,0-70.3656-56.53Z" style="fill: #f6a717"/>
  </g>
</svg>
