<svg width="59" height="65" viewBox="0 0 59 65" fill="none" xmlns="http://www.w3.org/2000/svg">
<path d="M34.7002 52L50.3002 37.7H53.5502L56.1502 42.9L53.5502 47.45L40.5502 59.15L31.4502 61.1L34.7002 52Z" fill="#F5BE53"/>
<path d="M41.7461 27.9297C41.7461 26.5274 40.6094 25.3906 39.2071 25.3906H13.0547C11.6524 25.3906 10.5156 26.5274 10.5156 27.9297C10.5156 29.332 11.6524 30.4688 13.0547 30.4688H39.2071C40.6094 30.4688 41.7461 29.332 41.7461 27.9297Z" fill="#7A3CDF"/>
<path d="M13.0547 35.5469C11.6524 35.5469 10.5156 36.6836 10.5156 38.0859C10.5156 39.4883 11.6524 40.625 13.0547 40.625H28.9379C30.3402 40.625 31.477 39.4883 31.477 38.0859C31.477 36.6836 30.3402 35.5469 28.9379 35.5469H13.0547Z" fill="#7A3CDF"/>
<path d="M19.022 59.9219H10.5303C7.7302 59.9219 5.45215 57.6438 5.45215 54.8438V10.1562C5.45215 7.35617 7.7302 5.07812 10.5303 5.07812H41.7467C44.5467 5.07812 46.8248 7.35617 46.8248 10.1562V25.7715C46.8248 27.1738 47.9615 28.3105 49.3638 28.3105C50.7662 28.3105 51.9029 27.1738 51.9029 25.7715V10.1562C51.9029 4.55609 47.3468 0 41.7467 0H10.5303C4.93012 0 0.374023 4.55609 0.374023 10.1562V54.8438C0.374023 60.4439 4.93012 65 10.5303 65H19.022C20.4244 65 21.5611 63.8633 21.5611 62.4609C21.5611 61.0586 20.4244 59.9219 19.022 59.9219Z" fill="#7A3CDF"/>
<path d="M56.3999 36.7619C53.43 33.792 48.5976 33.7919 45.6296 36.7599L31.6898 50.6689C31.3937 50.9643 31.1753 51.3281 31.0537 51.7283L28.0179 61.7227C27.7487 62.6088 27.9832 63.571 28.6299 64.2338C29.1144 64.7303 29.7725 64.9998 30.4475 64.9998C30.6734 64.9998 30.9014 64.9696 31.1252 64.9075L41.3735 62.0687C41.7952 61.9519 42.1796 61.7281 42.4894 61.4189L56.4 47.5344C59.37 44.5645 59.37 39.7321 56.3999 36.7619ZM39.3745 57.3532L34.2187 58.7814L35.7275 53.8139L45.1333 44.4289L48.7248 48.0204L39.3745 57.3532ZM52.8111 43.9421L52.3191 44.4331L48.7283 40.8422L49.2185 40.3529C50.2085 39.3629 51.8193 39.3629 52.8093 40.3529C53.7993 41.3429 53.7993 42.9537 52.8111 43.9421Z" fill="#7A3CDF"/>
<path d="M39.2071 15.2344H13.0547C11.6524 15.2344 10.5156 16.3711 10.5156 17.7734C10.5156 19.1758 11.6524 20.3125 13.0547 20.3125H39.2071C40.6094 20.3125 41.7461 19.1758 41.7461 17.7734C41.7461 16.3711 40.6094 15.2344 39.2071 15.2344Z" fill="#7A3CDF"/>
</svg>
