<svg width="46" height="139" viewBox="0 0 46 139" fill="none" xmlns="http://www.w3.org/2000/svg">
<path d="M39.4175 111.771V115.027H35.1329V112.431C35.1365 109.186 33.8633 106.069 31.5883 103.754C29.4001 101.527 26.3823 100.145 23.0635 100.145C16.425 100.145 10.9941 105.673 10.9941 112.431V120.157H6.4668V111.771C6.4668 102.547 13.8807 95 22.9421 95C27.4723 95 31.5912 96.8863 34.5775 99.9268C37.684 103.086 39.4226 107.341 39.4175 111.771Z" fill="#28378F"/>
<path d="M19.7408 139H0C0.233234 136.544 1.37392 134.263 3.19917 132.603C5.02442 130.942 7.40309 130.022 9.8704 130.022C12.3377 130.022 14.7164 130.942 16.5416 132.603C18.3669 134.263 19.5076 136.544 19.7408 139V139Z" fill="#28378F"/>
<path d="M9.67315 134.659C14.2227 134.659 17.9108 130.971 17.9108 126.422C17.9108 121.872 14.2227 118.184 9.67315 118.184C5.12362 118.184 1.43549 121.872 1.43549 126.422C1.43549 130.971 5.12362 134.659 9.67315 134.659Z" fill="#25A9E1"/>
<path d="M9.62378 129.924C11.5853 129.924 13.1753 128.334 13.1753 126.372C13.1753 124.411 11.5853 122.821 9.62378 122.821C7.6623 122.821 6.0722 124.411 6.0722 126.372C6.0722 128.334 7.6623 129.924 9.62378 129.924Z" fill="white"/>
<path d="M41.5475 124.321C41.5474 125 41.3836 125.669 41.0698 126.271C40.756 126.873 40.3016 127.391 39.745 127.78C39.1885 128.169 38.5463 128.419 37.8729 128.507C37.1995 128.595 36.5148 128.519 35.8769 128.286C35.239 128.053 34.6668 127.67 34.2087 127.168C33.7506 126.667 33.4202 126.062 33.2456 125.406C33.0709 124.75 33.0572 124.061 33.2055 123.398C33.3538 122.736 33.6598 122.118 34.0975 121.599L37.2868 117L40.6427 121.708L40.6473 121.714C41.232 122.457 41.5491 123.375 41.5475 124.321Z" fill="#25A9E1"/>
<path d="M11.2975 9.48528L11.1499 9.36774C11.0175 9.18663 11.0169 9.18153 11.1433 9.02259C11.6529 8.38183 12.1421 7.72492 12.6605 7.09118L12.8334 6.87397L13.0339 6.62204L13.1563 6.46826L13.3549 6.21886L13.4774 6.06496L13.6779 5.8131L13.8949 5.54044L14.1098 5.27048C14.1717 5.17759 14.2645 5.1076 14.3056 4.99926L14.4067 4.87228C14.6022 4.67713 14.8549 4.71153 15.1328 4.77542C15.9389 4.96075 16.7455 5.1427 17.5524 5.32125C18.5075 5.53369 19.4623 5.75038 20.4173 5.96404C21.4665 6.19878 22.5155 6.43438 23.5645 6.67084C24.945 6.98223 26.3255 7.2928 27.7062 7.60253C28.7403 7.8353 29.7741 8.07163 30.8089 8.29749C30.9945 8.338 31.1417 8.45912 31.3075 8.54083L31.529 8.71715C31.6101 8.79858 31.6557 8.8841 31.6002 8.98127L25.8552 16.1984C25.6449 16.409 25.3599 16.3727 25.0695 16.3107C24.894 16.2694 24.7243 16.2063 24.5644 16.1228C21.9942 14.8473 19.4237 13.5725 16.8529 12.2986C15.2261 11.4965 13.6028 10.6859 11.9753 9.88566C11.739 9.76947 11.5282 9.60969 11.2975 9.48528Z" fill="#25A9E1"/>
<path d="M42.1261 34.4949L42.2738 34.6125C42.48 34.7008 42.4851 34.7003 42.6116 34.5415C43.1218 33.9011 43.6522 33.2771 44.1536 32.6298L44.3265 32.4126L44.5271 32.1606L44.6495 32.0069L44.848 31.7575L44.9705 31.6036L45.171 31.3517L45.388 31.0791L45.6029 30.8091C45.6796 30.728 45.727 30.6218 45.8233 30.5575L45.9244 30.4305C46.0707 30.1962 45.9806 29.9577 45.856 29.7012C45.4946 28.9571 45.1364 28.2119 44.7814 27.4656C44.3602 26.5824 43.935 25.7005 43.5125 24.8177C43.0485 23.8479 42.5837 22.8784 42.118 21.9092C41.505 20.6337 40.8927 19.3579 40.2813 18.0819C39.8226 17.1263 39.3604 16.1719 38.9082 15.2141C38.8271 15.0423 38.6761 14.926 38.5593 14.7827L38.3378 14.6064C38.2402 14.5457 38.1467 14.5204 38.0644 14.5963L32.3194 21.8134C32.1613 22.0655 32.2606 22.3351 32.3861 22.6042C32.4657 22.766 32.5653 22.9173 32.6825 23.0543C34.5019 25.273 36.3207 27.4922 38.1387 29.7119C39.2851 31.1174 40.4391 32.5175 41.5839 33.9241C41.7502 34.1284 41.9532 34.2981 42.1261 34.4949Z" fill="#25A9E1"/>
<path d="M18.2865 15.4761C18.2921 15.4153 18.2803 15.3542 18.2526 15.2998C18.2573 15.3043 18.2624 15.3084 18.2679 15.3118C18.3596 15.357 18.3658 15.4118 18.2865 15.4761Z" fill="#F5F0FC"/>
<path d="M7.11224 31.6755C7.15631 31.6417 7.1979 31.6048 7.23669 31.565C7.56152 31.184 7.87741 30.7952 8.20963 30.4208C8.59214 29.9898 8.9787 29.5613 9.38572 29.1538C9.50994 29.0471 9.66578 28.984 9.82931 28.9744C10.4346 28.9285 11.0425 28.8789 11.6485 28.8886C13.2082 28.9135 14.7594 29.0728 16.308 29.2512C16.4859 29.2717 16.5788 29.2292 16.671 29.0698C16.9156 28.6466 17.187 28.239 17.4464 27.8244C17.7113 27.4011 17.9723 26.9754 18.2396 26.5536C18.436 26.2438 18.6346 25.935 18.8415 25.632C19.2585 25.0212 19.6812 24.4141 20.1029 23.8065C20.228 23.6262 20.3557 23.4476 20.4858 23.2708C21.0119 22.5548 21.5388 21.8393 22.0664 21.1244C22.3878 20.6889 22.7086 20.2528 23.0337 19.82C23.5368 19.15 24.0419 18.4814 24.549 17.8145C25.359 16.7548 26.1635 15.6906 26.9883 14.6425C28.6575 12.5214 30.3335 10.4057 32.0164 8.29528C32.4552 7.74316 32.8987 7.19395 33.3597 6.66044C33.9435 5.98492 34.5283 5.30842 35.1467 4.66519C36.2831 3.48333 37.5064 2.39893 38.8973 1.51849C39.9137 0.875067 40.9841 0.351788 42.1741 0.113808C42.7849 -0.00832164 43.3991 -0.0509714 44.0162 0.0807186C44.0713 0.0897743 44.1231 0.112835 44.1666 0.147684C44.2102 0.182533 44.2441 0.227999 44.265 0.279716C44.5597 0.915675 44.6483 1.59156 44.6478 2.28171C44.6469 3.55689 44.33 4.76878 43.8792 5.9499C43.4529 7.06461 42.9181 8.13473 42.2825 9.14481C41.8517 9.83083 41.413 10.5138 40.9394 11.1704C40.3209 12.0279 39.676 12.867 39.0222 13.6981C37.4356 15.715 35.8422 17.7267 34.2423 19.7332C33.7524 20.3492 33.2494 20.9549 32.7484 21.562C32.1175 22.3266 31.4842 23.0892 30.8484 23.8499C30.1952 24.6288 29.5384 25.4047 28.878 26.1776C28.381 26.7603 27.8803 27.3399 27.3759 27.9164C26.8716 28.4923 26.3663 29.0675 25.8505 29.633C25.3419 30.1904 24.8272 30.7429 24.3009 31.2835C23.7715 31.8274 23.2243 32.3538 22.6854 32.8884C22.4827 33.0893 22.2845 33.2947 22.0784 33.4921C21.9893 33.5775 21.9945 33.6596 22.0324 33.7665C22.5598 35.2552 23.065 36.7515 23.4526 38.2836C23.5815 38.7929 23.6639 39.3141 23.7644 39.8304C23.8002 40.0081 23.7966 40.1914 23.7539 40.3675C23.7111 40.5436 23.6303 40.7081 23.5171 40.8496C22.965 41.5966 22.4287 42.3553 21.8874 43.1103C21.8519 43.1654 21.8196 43.2225 21.7904 43.2812L21.5612 43.5692C21.5126 43.6129 21.4602 43.6531 21.4161 43.7008C21.1786 43.9578 20.9532 44.2269 20.7039 44.4716C20.5116 44.6603 20.3162 44.8699 20.0025 44.8378L19.9785 44.8187C19.8895 44.6834 19.7942 44.5518 19.7127 44.4122C19.0131 43.2143 18.3292 42.0071 17.6142 40.8186C16.9838 39.7707 16.3286 38.7374 15.6662 37.7093C15.361 37.2107 14.922 36.8078 14.3992 36.5463C13.575 36.1483 12.7129 35.8501 11.8436 35.5747C10.2294 35.0633 8.609 34.5716 6.9927 34.0669C6.67778 33.9686 6.36973 33.8482 6.05851 33.7381L6.03451 33.719C6.00482 33.64 5.99407 33.5552 6.00311 33.4713C6.01215 33.3874 6.04074 33.3068 6.08657 33.2359C6.24814 32.9496 6.42305 32.6707 6.59806 32.3922C6.70015 32.2298 6.81313 32.0742 6.9212 31.9155L7.11224 31.6755Z" fill="#28378F"/>
</svg>
