<svg width="40" height="45" viewBox="0 0 40 45" fill="none" xmlns="http://www.w3.org/2000/svg">
<path d="M5.29753 9.48531L5.14987 9.36777C5.01753 9.18666 5.01694 9.18156 5.14333 9.02262C5.65295 8.38186 6.14208 7.72495 6.66049 7.09121L6.83339 6.874L7.03394 6.62207L7.15634 6.46829L7.35489 6.21889L7.47737 6.065L7.67786 5.81313L7.8949 5.54047L8.1098 5.27051C8.17166 5.17762 8.26451 5.10763 8.30559 4.9993L8.40668 4.87231C8.6022 4.67716 8.85487 4.71156 9.13278 4.77545C9.93895 4.96078 10.7455 5.14273 11.5524 5.32128C12.5075 5.53372 13.4623 5.75042 14.4173 5.96407C15.4665 6.19881 16.5155 6.43441 17.5645 6.67087C18.945 6.98227 20.3255 7.29283 21.7062 7.60256C22.7403 7.83533 23.7741 8.07166 24.8089 8.29752C24.9945 8.33803 25.1417 8.45915 25.3075 8.54087L25.529 8.71718C25.6101 8.79861 25.6557 8.88413 25.6002 8.9813L19.8552 16.1984C19.6449 16.4091 19.3599 16.3727 19.0695 16.3108C18.894 16.2695 18.7243 16.2063 18.5644 16.1228C15.9942 14.8473 13.4237 13.5725 10.8529 12.2986C9.22608 11.4966 7.60284 10.6859 5.97533 9.8857C5.73904 9.7695 5.52817 9.60972 5.29753 9.48531Z" fill="#25A9E1"/>
<path d="M36.1261 34.4949L36.2738 34.6125C36.48 34.7008 36.4851 34.7003 36.6116 34.5415C37.1218 33.9011 37.6522 33.2771 38.1536 32.6298L38.3265 32.4126L38.5271 32.1606L38.6495 32.0069L38.848 31.7575L38.9705 31.6036L39.171 31.3517L39.388 31.0791L39.6029 30.8091C39.6796 30.728 39.727 30.6218 39.8233 30.5575L39.9244 30.4305C40.0707 30.1962 39.9806 29.9577 39.856 29.7012C39.4946 28.9571 39.1364 28.2119 38.7814 27.4656C38.3602 26.5824 37.935 25.7005 37.5125 24.8177C37.0485 23.8479 36.5837 22.8784 36.118 21.9092C35.505 20.6337 34.8927 19.3579 34.2813 18.0819C33.8226 17.1263 33.3604 16.1719 32.9082 15.2141C32.8271 15.0423 32.6761 14.926 32.5593 14.7827L32.3378 14.6064C32.2402 14.5457 32.1467 14.5204 32.0644 14.5963L26.3194 21.8134C26.1613 22.0655 26.2606 22.3351 26.3861 22.6042C26.4657 22.766 26.5653 22.9173 26.6825 23.0543C28.5019 25.273 30.3207 27.4922 32.1387 29.7119C33.2851 31.1174 34.4391 32.5175 35.5839 33.9241C35.7502 34.1284 35.9532 34.2981 36.1261 34.4949Z" fill="#25A9E1"/>
<path d="M12.2864 15.476C12.292 15.4153 12.2803 15.3542 12.2526 15.2998C12.2572 15.3043 12.2624 15.3083 12.2679 15.3118C12.3596 15.357 12.3658 15.4117 12.2864 15.476Z" fill="#F5F0FC"/>
<path d="M1.11224 31.6755C1.15631 31.6417 1.1979 31.6048 1.23669 31.565C1.56152 31.184 1.87741 30.7952 2.20963 30.4208C2.59214 29.9898 2.9787 29.5613 3.38572 29.1538C3.50994 29.0471 3.66578 28.984 3.82931 28.9744C4.43457 28.9285 5.04247 28.8789 5.64846 28.8886C7.20819 28.9135 8.75942 29.0728 10.308 29.2512C10.4859 29.2717 10.5788 29.2292 10.671 29.0698C10.9156 28.6466 11.187 28.239 11.4464 27.8244C11.7113 27.4011 11.9723 26.9754 12.2396 26.5536C12.436 26.2438 12.6346 25.935 12.8415 25.632C13.2585 25.0212 13.6812 24.4141 14.1029 23.8065C14.228 23.6262 14.3557 23.4476 14.4858 23.2708C15.0119 22.5548 15.5388 21.8393 16.0664 21.1244C16.3878 20.6889 16.7086 20.2528 17.0337 19.82C17.5368 19.15 18.0419 18.4814 18.549 17.8145C19.359 16.7548 20.1635 15.6906 20.9883 14.6425C22.6575 12.5214 24.3335 10.4057 26.0164 8.29528C26.4552 7.74316 26.8987 7.19395 27.3597 6.66044C27.9435 5.98492 28.5283 5.30842 29.1467 4.66519C30.2831 3.48333 31.5064 2.39893 32.8973 1.51849C33.9137 0.875067 34.9841 0.351788 36.1741 0.113808C36.7849 -0.00832164 37.3991 -0.0509714 38.0162 0.0807186C38.0713 0.0897743 38.1231 0.112835 38.1666 0.147684C38.2102 0.182533 38.2441 0.227999 38.265 0.279716C38.5597 0.915675 38.6483 1.59156 38.6478 2.28171C38.6469 3.55689 38.33 4.76878 37.8792 5.9499C37.4529 7.06461 36.9181 8.13473 36.2825 9.14481C35.8517 9.83083 35.413 10.5138 34.9394 11.1704C34.3209 12.0279 33.676 12.867 33.0222 13.6981C31.4356 15.715 29.8422 17.7267 28.2423 19.7332C27.7524 20.3492 27.2494 20.9549 26.7484 21.562C26.1175 22.3266 25.4842 23.0892 24.8484 23.8499C24.1952 24.6288 23.5384 25.4047 22.878 26.1776C22.381 26.7603 21.8803 27.3399 21.3759 27.9164C20.8716 28.4923 20.3663 29.0675 19.8505 29.633C19.3419 30.1904 18.8272 30.7429 18.3009 31.2836C17.7715 31.8274 17.2243 32.3538 16.6854 32.8884C16.4827 33.0893 16.2845 33.2947 16.0784 33.4921C15.9893 33.5775 15.9945 33.6596 16.0324 33.7665C16.5598 35.2552 17.065 36.7515 17.4526 38.2836C17.5815 38.7929 17.6639 39.3141 17.7644 39.8304C17.8002 40.0081 17.7966 40.1914 17.7539 40.3675C17.7111 40.5436 17.6303 40.7081 17.5171 40.8496C16.965 41.5966 16.4287 42.3553 15.8874 43.1103C15.8519 43.1654 15.8196 43.2225 15.7904 43.2812L15.5612 43.5692C15.5126 43.6129 15.4602 43.6531 15.4161 43.7008C15.1786 43.9578 14.9532 44.2269 14.7039 44.4716C14.5116 44.6603 14.3162 44.8699 14.0025 44.8378L13.9785 44.8187C13.8895 44.6834 13.7942 44.5518 13.7127 44.4122C13.0131 43.2143 12.3292 42.0071 11.6142 40.8186C10.9838 39.7707 10.3286 38.7374 9.6662 37.7093C9.361 37.2107 8.92202 36.8078 8.39918 36.5463C7.57496 36.1483 6.71289 35.8501 5.84356 35.5747C4.22939 35.0633 2.609 34.5716 0.992702 34.0669C0.67778 33.9686 0.369731 33.8482 0.0585133 33.7381L0.0345094 33.719C0.00482138 33.64 -0.0059341 33.5552 0.00310737 33.4713C0.0121488 33.3874 0.0407354 33.3068 0.0865708 33.2359C0.248144 32.9496 0.423055 32.6707 0.598062 32.3922C0.700152 32.2298 0.813129 32.0742 0.921201 31.9155L1.11224 31.6755Z" fill="#28378F"/>
</svg>
