<svg width="46" height="41" viewBox="0 0 46 41" fill="none" xmlns="http://www.w3.org/2000/svg">
<path d="M30.0187 35.8896V37.069C30.0187 37.1893 29.9951 37.3084 29.949 37.4196C29.903 37.5308 29.8355 37.6318 29.7505 37.7168C29.6654 37.8019 29.5644 37.8694 29.4532 37.9154C29.3421 37.9614 29.2229 37.9851 29.1026 37.9851H14.1281C14.0078 37.9851 13.8886 37.9614 13.7775 37.9154C13.6663 37.8694 13.5653 37.8019 13.4802 37.7168C13.3952 37.6318 13.3277 37.5308 13.2816 37.4196C13.2356 37.3084 13.2119 37.1893 13.212 37.069V35.8896C13.2119 35.7693 13.2356 35.6501 13.2816 35.539C13.3277 35.4278 13.3952 35.3268 13.4802 35.2417C13.5653 35.1567 13.6663 35.0892 13.7775 35.0431C13.8886 34.9971 14.0078 34.9734 14.1281 34.9735H18.9438V28.8531H24.1898V34.9735H29.1026C29.2229 34.9735 29.3421 34.9971 29.4532 35.0431C29.5644 35.0892 29.6654 35.1567 29.7505 35.2417C29.8355 35.3268 29.903 35.4278 29.949 35.539C29.9951 35.6501 30.0187 35.7693 30.0187 35.8896Z" fill="#28378F"/>
<path d="M39.8194 0H3.50883C1.57096 0 0 1.57096 0 3.50883V27.3844C0 29.3223 1.57096 30.8932 3.50883 30.8932H39.8194C41.7573 30.8932 43.3282 29.3223 43.3282 27.3844V3.50883C43.3282 1.57096 41.7573 0 39.8194 0Z" fill="#28378F"/>
<path d="M42.3349 12.6293H32.761C31.2466 12.6293 30.0189 13.857 30.0189 15.3714V37.6717C30.0189 39.1861 31.2466 40.4138 32.761 40.4138H42.3349C43.8493 40.4138 45.0769 39.1861 45.0769 37.6717V15.3714C45.0769 13.857 43.8493 12.6293 42.3349 12.6293Z" fill="#25A9E1"/>
<path d="M28.2535 4.66315H4.67988C4.29506 4.66315 3.98309 4.97511 3.98309 5.35994V6.29792C3.98309 6.68275 4.29506 6.99471 4.67988 6.99471H28.2535C28.6383 6.99471 28.9503 6.68275 28.9503 6.29792V5.35994C28.9503 4.97511 28.6383 4.66315 28.2535 4.66315Z" fill="white"/>
<path d="M19.2187 8.45195H4.67988C4.29506 8.45195 3.98309 8.76391 3.98309 9.14874V10.0867C3.98309 10.4715 4.29506 10.7835 4.67988 10.7835H19.2187C19.6035 10.7835 19.9155 10.4715 19.9155 10.0867V9.14874C19.9155 8.76391 19.6035 8.45195 19.2187 8.45195Z" fill="white"/>
<path d="M41.4656 37.2079H33.6301C33.2453 37.2079 32.9333 37.5199 32.9333 37.9047V38.0655C32.9333 38.4503 33.2453 38.7623 33.6301 38.7623H41.4656C41.8504 38.7623 42.1624 38.4503 42.1624 38.0655V37.9047C42.1624 37.5199 41.8504 37.2079 41.4656 37.2079Z" fill="white"/>
<path d="M37.5479 16.5152C38.1649 16.5152 38.6651 16.015 38.6651 15.398C38.6651 14.781 38.1649 14.2808 37.5479 14.2808C36.9309 14.2808 36.4307 14.781 36.4307 15.398C36.4307 16.015 36.9309 16.5152 37.5479 16.5152Z" fill="white"/>
</svg>
