<svg width="52" height="42" viewBox="0 0 52 42" fill="none" xmlns="http://www.w3.org/2000/svg">
<path d="M47.7131 0H13.7517C11.384 0 9.46472 1.91933 9.46472 4.28693V22.3255C9.46472 24.6931 11.384 26.6124 13.7517 26.6124H47.7131C50.0807 26.6124 52 24.6931 52 22.3255V4.28693C52 1.91933 50.0807 0 47.7131 0Z" fill="#25A9E1"/>
<path d="M38.2484 15.3662H4.28693C1.91933 15.3662 0 17.2855 0 19.6531V37.6916C0 40.0592 1.91933 41.9786 4.28693 41.9786H38.2484C40.616 41.9786 42.5353 40.0592 42.5353 37.6916V19.6531C42.5353 17.2855 40.616 15.3662 38.2484 15.3662Z" fill="#28378F"/>
<path d="M24.5524 37.0792H4.62098C4.22126 37.0792 3.89722 37.4032 3.89722 37.803C3.89722 38.2027 4.22126 38.5267 4.62098 38.5267H24.5524C24.9522 38.5267 25.2762 38.2027 25.2762 37.803C25.2762 37.4032 24.9522 37.0792 24.5524 37.0792Z" fill="white"/>
<path d="M29.3405 37.0792H26.7795C26.3798 37.0792 26.0557 37.4032 26.0557 37.803C26.0557 38.2027 26.3798 38.5267 26.7795 38.5267H29.3405C29.7402 38.5267 30.0643 38.2027 30.0643 37.803C30.0643 37.4032 29.7402 37.0792 29.3405 37.0792Z" fill="white"/>
<path d="M52 5.4561H9.46472V9.24196H52V5.4561Z" fill="white"/>
</svg>
