<svg width="62" height="35" viewBox="0 0 62 35" fill="none" xmlns="http://www.w3.org/2000/svg">
<path d="M49.9549 22.5698C49.9549 24.7939 49.9549 27.018 49.9549 29.242C49.9549 29.3119 49.95 29.3821 49.9559 29.4514C49.9597 29.506 49.9508 29.5607 49.9299 29.6113C49.909 29.6619 49.8767 29.7069 49.8354 29.7428C49.5122 30.0687 49.1599 30.3644 48.7829 30.6262C47.978 31.1813 47.1197 31.6548 46.2209 32.0398C44.6455 32.7337 42.9999 33.2059 41.3225 33.5721C40.4763 33.7569 39.623 33.906 38.7643 34.0256C38.1133 34.1163 37.4618 34.1989 36.8075 34.2628C36.3217 34.3103 35.8353 34.348 35.3487 34.386C34.5036 34.4519 33.6573 34.4745 32.8109 34.5091C31.9235 34.5454 31.0366 34.5468 30.1494 34.5369C29.4517 34.5291 28.7539 34.5077 28.0569 34.4768C27.43 34.4491 26.8028 34.4129 26.1778 34.3571C25.5136 34.2978 24.8501 34.2291 24.1873 34.1509C23.2469 34.0409 22.3135 33.8914 21.3847 33.7132C19.5503 33.3785 17.7558 32.8537 16.0301 32.1472C15.0127 31.7344 14.0461 31.2062 13.1493 30.5728C12.8174 30.3339 12.5034 30.0712 12.2097 29.7866C12.16 29.7453 12.1212 29.6925 12.0967 29.6327C12.0721 29.573 12.0625 29.5082 12.0687 29.4439C12.072 29.3841 12.0723 29.3242 12.0695 29.2645C12.0695 24.8163 12.0696 20.3681 12.0698 15.92C12.0698 15.4498 12.0249 15.4654 12.5026 15.6142C14.5478 16.2512 16.5934 16.887 18.6392 17.5218C19.7238 17.8593 20.8072 18.2005 21.8917 18.5382C23.9464 19.178 26.0014 19.817 28.0568 20.455C28.7529 20.6666 29.4701 20.8016 30.1955 20.8576C30.513 20.8879 30.8319 20.9002 31.1508 20.8943C32.0482 20.8788 32.9397 20.7445 33.8019 20.495C35.0034 20.1314 36.2012 19.7553 37.4001 19.383C40.2166 18.5084 43.0329 17.6331 45.8489 16.7572C46.962 16.4108 48.0736 16.0598 49.1861 15.7117C49.3953 15.6463 49.605 15.5825 49.8159 15.5229C49.9033 15.4983 49.947 15.5347 49.9516 15.6284C49.956 15.7179 49.9547 15.8078 49.9547 15.8975C49.9549 18.1216 49.9549 20.3457 49.9549 22.5698Z" fill="#28378F"/>
<path d="M2.12536 15.9894C2.12536 14.215 2.12523 12.4406 2.12497 10.6662C2.12477 10.2813 2.11698 10.3054 2.45565 10.4252C2.95329 10.6013 3.45066 10.7781 3.94776 10.9558C4.01342 10.9791 4.0786 11.0038 4.14394 11.0281C4.1774 11.0388 4.20611 11.0608 4.22518 11.0903C4.24425 11.1198 4.25249 11.155 4.2485 11.1899C4.2468 11.2796 4.24899 11.3693 4.249 11.4591C4.24905 14.7088 4.24785 17.9586 4.2454 21.2083C4.23844 21.4558 4.29866 21.7005 4.41967 21.9165C4.79162 22.576 5.14374 23.2466 5.50219 23.9137C5.70659 24.2919 5.81803 24.7133 5.82731 25.1432C5.85471 25.633 5.75042 26.1213 5.52529 26.5573C5.34309 26.914 5.08062 27.2236 4.75852 27.4618C4.43642 27.7 4.06347 27.8602 3.66899 27.9298C3.02543 28.0511 2.35978 27.9279 1.80217 27.5845C1.24457 27.241 0.835109 26.702 0.653837 26.0727C0.544709 25.7138 0.508499 25.3367 0.547339 24.9637C0.586179 24.5906 0.699284 24.229 0.879992 23.9004C1.2699 23.1824 1.65418 22.4613 2.04821 21.7456C2.10661 21.6303 2.13333 21.5015 2.12563 21.3724C2.12492 20.6746 2.12483 19.9768 2.12535 19.279C2.12536 18.1824 2.12536 17.0859 2.12536 15.9894Z" fill="#25A9E1"/>
<path d="M30.9289 0.0201283C31.1341 -0.0264352 31.3121 0.0222414 31.4912 0.0232089C32.6584 0.0289597 33.8183 0.207775 34.933 0.55382C37.2652 1.27411 39.6051 1.96965 41.9408 2.67864C44.7342 3.52652 47.5271 4.3761 50.3194 5.22738C52.0735 5.76026 53.8281 6.29139 55.5832 6.82078C57.1662 7.29976 58.7491 7.77921 60.3318 8.25913C60.5983 8.34038 60.8585 8.44226 61.1206 8.53775C61.3151 8.61614 61.4974 8.72175 61.6622 8.85143C61.717 8.89464 61.7687 8.94153 61.8171 8.99179C61.8742 9.04424 61.92 9.10789 61.9514 9.17879C61.9829 9.24969 61.9994 9.32631 62 9.40387C62.0006 9.48144 61.9851 9.55829 61.9547 9.62963C61.9243 9.70097 61.8794 9.76528 61.8231 9.81855C61.6292 10.0062 61.4024 10.1564 61.154 10.2616C60.8238 10.4024 60.4845 10.5205 60.1383 10.6151C58.8992 10.9921 57.6596 11.3675 56.4194 11.7413C54.3311 12.3734 52.2427 13.0056 50.1544 13.6379C48.9053 14.0165 47.6565 14.3958 46.4079 14.7761C44.3009 15.4153 42.1938 16.0543 40.0866 16.693C38.6184 17.139 37.1524 17.5919 35.6828 18.033C35.0726 18.2162 34.4706 18.4303 33.842 18.5491C33.4603 18.6212 33.0781 18.6846 32.6908 18.7233C32.0172 18.7996 31.3392 18.8308 30.6615 18.8169C29.5845 18.7806 28.5129 18.6905 27.4728 18.3818C26.747 18.1663 26.024 17.9411 25.2993 17.7216C23.2111 17.089 21.1228 16.4566 19.0345 15.8246C17.7854 15.4458 16.5368 15.0657 15.2886 14.6843C13.1815 14.0453 11.0742 13.407 8.96666 12.7696C7.50794 12.327 6.04964 11.883 4.59177 11.4377C3.55267 11.122 2.51317 10.8077 1.47328 10.4947C1.16717 10.4039 0.871531 10.281 0.591289 10.128C0.449649 10.0539 0.320147 9.95862 0.20725 9.84544C-0.0675917 9.55816 -0.0687093 9.26135 0.201714 8.97363C0.314254 8.8602 0.443193 8.76431 0.584217 8.68918C0.818225 8.55545 1.06644 8.44827 1.32423 8.36964C2.92534 7.88165 4.52717 7.39606 6.12974 6.91286C7.39776 6.52804 8.66544 6.14212 9.93278 5.75511C11.5631 5.26058 13.1938 4.76708 14.8248 4.27463C16.2741 3.83526 17.7231 3.39497 19.1718 2.95376C21.2789 2.3147 23.3861 1.67616 25.4935 1.03816C26.1227 0.847276 26.7507 0.652125 27.3798 0.460484C27.9921 0.282681 28.6188 0.158795 29.2528 0.0902409C29.7487 0.0399736 30.247 0.0166321 30.7454 0.020317C30.8151 0.0193494 30.8848 0.0201283 30.9289 0.0201283Z" fill="#25A9E1"/>
<path d="M31.0031 8.80127C32.0773 8.80127 32.9482 8.33234 32.9482 7.75389C32.9482 7.17544 32.0773 6.70651 31.0031 6.70651C29.9288 6.70651 29.0579 7.17544 29.0579 7.75389C29.0579 8.33234 29.9288 8.80127 31.0031 8.80127Z" fill="white"/>
</svg>
