<svg width="33" height="44" viewBox="0 0 33 44" fill="none" xmlns="http://www.w3.org/2000/svg">
<path d="M16.5423 43.725C18.3882 43.725 19.8846 42.2823 19.8846 40.5027C19.8846 38.7231 18.3882 37.2805 16.5423 37.2805C14.6964 37.2805 13.2 38.7231 13.2 40.5027C13.2 42.2823 14.6964 43.725 16.5423 43.725Z" fill="#28378F"/>
<path d="M16.5 31.8148C25.6127 31.8148 33 24.6928 33 15.9074C33 7.12199 25.6127 0 16.5 0C7.3873 0 0 7.12199 0 15.9074C0 24.6928 7.3873 31.8148 16.5 31.8148Z" fill="#25A9E1"/>
<path d="M23.1 29.5715H9.81538C8.48352 29.5715 7.40384 30.6124 7.40384 31.8964V32.7122C7.40384 33.9962 8.48352 35.0371 9.81538 35.0371H23.1C24.4318 35.0371 25.5115 33.9962 25.5115 32.7122V31.8964C25.5115 30.6124 24.4318 29.5715 23.1 29.5715Z" fill="#28378F"/>
<path d="M22.9731 35.0371H10.3655C9.0336 35.0371 7.95392 36.078 7.95392 37.362V38.1778C7.95392 39.4618 9.0336 40.5027 10.3655 40.5027H22.9731C24.305 40.5027 25.3847 39.4618 25.3847 38.1778V37.362C25.3847 36.078 24.305 35.0371 22.9731 35.0371Z" fill="#28378F"/>
<path d="M15.3074 26.2438C15.2813 26.1879 15.2751 26.1253 15.2897 26.0657C15.298 25.9867 15.3053 25.9076 15.3126 25.8286C15.3302 25.6387 15.3477 25.4488 15.3652 25.2589C15.3672 25.2378 15.3728 25.217 15.3743 25.1958C15.3873 25.0109 15.3975 24.8257 15.4132 24.6409C15.4289 24.4561 15.4499 24.2719 15.4686 24.0874C15.4708 24.0663 15.4733 24.0452 15.4752 24.0241C15.4968 23.7761 15.5197 23.5281 15.5396 23.28C15.5544 23.0951 15.5629 22.9098 15.5785 22.725C15.5936 22.5455 15.614 22.3666 15.6323 22.1874C15.6344 22.1663 15.6383 22.1453 15.6397 22.1242C15.6525 21.9392 15.6624 21.754 15.6781 21.5692C15.6933 21.3898 15.7143 21.2108 15.7328 21.0317C15.735 21.0105 15.7376 20.9895 15.7394 20.9683C15.7611 20.7203 15.7839 20.4723 15.8038 20.2242C15.8186 20.0394 15.8272 19.8541 15.8427 19.6693C15.8577 19.4898 15.8779 19.3108 15.896 19.1316C15.8982 19.1104 15.9022 19.0895 15.9037 19.0684C15.9165 18.8834 15.9266 18.6981 15.9422 18.5134C15.9575 18.3339 15.9791 18.155 15.9963 17.9758C16.0106 17.8281 16.0251 17.6804 16.0344 17.5324C16.0397 17.4486 15.9993 17.4148 15.9137 17.4235C15.6623 17.4491 15.4113 17.4773 15.1599 17.5019C15.0014 17.5175 14.8423 17.5271 14.6837 17.542C14.5251 17.5569 14.3669 17.575 14.2085 17.5916C14.0829 17.6048 13.9574 17.6192 13.8317 17.6305C13.673 17.6447 13.514 17.6546 13.3554 17.6695C13.1969 17.6844 13.0388 17.7032 12.8804 17.72C12.7548 17.7332 12.6293 17.7473 12.5035 17.7585C12.3448 17.7726 12.1857 17.7821 12.0272 17.7972C11.8686 17.8122 11.7106 17.832 11.5523 17.8489C11.4321 17.8617 11.312 17.8744 11.1916 17.8851C11.0329 17.8991 10.8739 17.9095 10.7153 17.9243C10.5567 17.9392 10.3986 17.9578 10.2402 17.9745C10.1146 17.9878 9.98912 18.0021 9.86333 18.0132C9.70468 18.0273 9.54559 18.037 9.38702 18.0519C9.22846 18.0668 9.07043 18.0863 8.91206 18.1029C8.77551 18.1173 8.63895 18.1317 8.50212 18.1432C8.46024 18.1435 8.41839 18.1409 8.37689 18.1354C8.38002 18.1083 8.38701 18.0817 8.39766 18.0563C8.48206 17.9258 8.56858 17.7964 8.65541 17.6674C9.0806 17.0352 9.50593 16.4031 9.93141 15.7711C10.1619 15.4283 10.3919 15.0852 10.6216 14.7419C11.0407 14.1186 11.4601 13.4955 11.8797 12.8725C12.2178 12.3693 12.5553 11.8657 12.8921 11.3618C13.2567 10.8182 13.6216 10.2748 13.9867 9.73162C14.3485 9.19267 14.7102 8.6537 15.0719 8.11471C15.3592 7.68725 15.6483 7.26085 15.9348 6.83288C16.1855 6.45845 16.4336 6.08245 16.6832 5.70737C16.7038 5.67652 16.7272 5.6475 16.7475 5.62009C16.796 5.62459 16.7902 5.6564 16.7877 5.67921C16.7714 5.82661 16.7521 5.9737 16.7351 6.12101C16.7217 6.23681 16.7088 6.35269 16.6979 6.46873C16.6836 6.62171 16.6732 6.77506 16.6576 6.92792C16.642 7.08078 16.6218 7.2331 16.6043 7.38574C16.5911 7.50158 16.5778 7.61742 16.5667 7.7334C16.5522 7.88635 16.5414 8.03966 16.526 8.19254C16.5105 8.34541 16.4912 8.49786 16.4739 8.65054C16.4602 8.77163 16.4456 8.89265 16.4339 9.01392C16.4193 9.16689 16.4089 9.32026 16.3935 9.47314C16.378 9.62602 16.3583 9.77841 16.3408 9.93105C16.327 10.0521 16.3124 10.1732 16.3009 10.2945C16.2863 10.4474 16.2765 10.6009 16.2609 10.7537C16.2453 10.9066 16.2243 11.0588 16.2071 11.2115C16.1922 11.3431 16.1795 11.475 16.1656 11.6068C16.1451 11.8017 16.1233 11.9965 16.1041 12.1915C16.0891 12.3444 16.0782 12.4977 16.0635 12.6507C16.0574 12.7139 16.0436 12.7765 16.0383 12.8398C16.0311 12.9235 16.0701 12.9613 16.1539 12.9527C16.4052 12.927 16.6561 12.8985 16.9074 12.8736C17.0659 12.8579 17.225 12.8481 17.3835 12.8333C17.5421 12.8185 17.7004 12.8009 17.8588 12.7844C17.9844 12.7713 18.1099 12.7564 18.2356 12.745C18.3943 12.7307 18.5533 12.7205 18.7119 12.7057C18.8705 12.6909 19.0286 12.6725 19.1869 12.6558C19.3125 12.6426 19.438 12.6281 19.5638 12.6168C19.7224 12.6026 19.8814 12.5919 20.0402 12.5783C20.1496 12.5689 20.2589 12.5578 20.3681 12.5464C20.5265 12.5299 20.6848 12.5121 20.8431 12.4954C20.9687 12.4822 21.0943 12.4683 21.2201 12.4572C21.3788 12.4432 21.5379 12.4336 21.6965 12.4185C21.8551 12.4035 22.0131 12.3837 22.1714 12.3668C22.2916 12.354 22.4117 12.3414 22.532 12.3308C22.6907 12.3168 22.8497 12.3064 23.0083 12.2916C23.1832 12.2753 23.3578 12.2551 23.5326 12.2376C23.5855 12.2323 23.6408 12.2158 23.6917 12.2542C23.69 12.308 23.67 12.3597 23.6347 12.4014C23.5006 12.6269 23.3639 12.851 23.2289 13.076C23.0055 13.4478 22.7824 13.8198 22.5595 14.1919C22.3137 14.6003 22.066 15.0076 21.8205 15.4162C21.5833 15.8109 21.3482 16.2069 21.1114 16.6019C20.9407 16.8866 20.7681 17.1703 20.5972 17.4551C20.4016 17.7811 20.2076 18.108 20.0119 18.4339C19.8437 18.714 19.6733 18.9928 19.5052 19.2729C19.3095 19.5989 19.1161 19.9261 18.92 20.2519C18.7212 20.5823 18.5196 20.9112 18.3207 21.2415C18.1245 21.5672 17.9306 21.8942 17.7349 22.2202C17.5667 22.5002 17.3966 22.7792 17.2287 23.0594C16.9891 23.459 16.7514 23.8595 16.5119 24.2592C16.3577 24.5164 16.2018 24.7727 16.0467 25.0294C15.8197 25.4053 15.5926 25.7812 15.3655 26.1571C15.352 26.1794 15.3364 26.2007 15.3074 26.2438Z" fill="white"/>
</svg>
