<svg width="44" height="39" viewBox="0 0 44 39" fill="none" xmlns="http://www.w3.org/2000/svg">
<path d="M37.1614 5.26812H24.1306C23.2221 5.27265 22.3468 4.92664 21.6869 4.30211L19.1654 1.9048C17.8595 0.670511 16.1274 -0.0118273 14.3305 0.000155185H6.83862C3.0633 0.00370357 0.00372825 2.91449 0 6.50622V31.8414C0.00372825 35.4331 3.0633 38.3439 6.83862 38.3475H37.1614C40.9367 38.3439 43.9963 35.4332 44 31.8414V11.7678C43.9925 8.17853 40.9341 5.27166 37.1614 5.26812ZM31.5463 21.2781L27.9925 24.5658L28.8301 29.2058C28.9875 30.0823 28.3681 30.9142 27.4468 31.0638C27.0819 31.1234 26.7075 31.067 26.3763 30.9028L22 28.7132L17.617 30.9028C17.3363 31.0442 17.0227 31.1075 16.7092 31.086C16.3956 31.0644 16.0937 30.9589 15.835 30.7804C15.5821 30.6114 15.3837 30.3727 15.2635 30.0933C15.1434 29.8138 15.1068 29.5056 15.158 29.2058L15.9957 24.5658L12.4419 21.2781C12.2847 21.1335 12.1589 20.958 12.0725 20.7626C11.9861 20.5673 11.9408 20.3562 11.9396 20.1426C11.9383 19.9289 11.9811 19.7174 12.0652 19.521C12.1493 19.3246 12.273 19.1477 12.4285 19.0012C12.69 18.7518 13.0232 18.5909 13.3811 18.5411L18.2803 17.8633L20.4803 13.6402C20.972 12.8435 22.0494 12.5768 22.8869 13.0446C23.1429 13.1865 23.3584 13.3916 23.513 13.6402L25.7045 17.8633L30.6037 18.5411C31.5287 18.6689 32.1696 19.4858 32.0352 20.3658C31.9798 20.7194 31.8063 21.0438 31.543 21.2862L31.5463 21.2781Z" fill="#28378F"/>
</svg>
