<svg width="36" height="43" viewBox="0 0 36 43" fill="none" xmlns="http://www.w3.org/2000/svg">
<path d="M22.0642 32.731C26.0184 32.731 29.9726 32.7308 33.9269 32.7304C34.1341 32.723 34.3413 32.744 34.5428 32.7927C35.2896 33.0004 35.7705 33.4748 35.9704 34.2268C35.9875 34.2954 35.9965 34.3658 35.9974 34.4366C36.0014 34.5904 35.9954 34.7444 35.9997 34.8982C36.0025 35.0167 35.9843 35.1348 35.9461 35.2471C35.7021 35.984 35.1979 36.436 34.4425 36.6046C34.3142 36.6264 34.1845 36.6392 34.0544 36.6429C34.0015 36.647 33.9479 36.6437 33.8946 36.6437C25.9981 36.6437 18.1015 36.6438 10.2049 36.6439C9.96795 36.6519 9.73129 36.6218 9.50392 36.5548C8.75131 36.3067 8.30327 35.7871 8.13993 35.0159C7.9703 33.8497 8.73369 32.9619 9.6894 32.7712C9.8349 32.7445 9.98261 32.7317 10.1305 32.7329C10.758 32.7288 11.3854 32.7311 12.0129 32.7311C15.3633 32.731 18.7138 32.731 22.0642 32.731Z" fill="#25A9E1"/>
<path d="M33.7197 38.0263C33.7197 38.1098 33.7254 38.1982 33.7189 38.2857C33.6551 39.2257 33.3035 40.1233 32.7117 40.8565C32.12 41.5897 31.3169 42.1229 30.4115 42.3837C30.0247 42.496 29.6244 42.5546 29.2216 42.5578C29.1565 42.5581 29.0914 42.5583 29.0263 42.5583C24.4093 42.5583 19.7923 42.5582 15.1752 42.558C15.045 42.558 14.9147 42.5573 14.7847 42.5524C13.9815 42.5258 13.2012 42.2786 12.5293 41.8379C11.478 41.1547 10.8136 40.1951 10.5246 38.9755C10.4645 38.6919 10.428 38.4038 10.4153 38.1141C10.4092 38.0226 10.4358 37.9967 10.5252 37.9923C10.5725 37.99 10.6199 37.9914 10.6673 37.9914C18.2676 37.9914 25.868 37.9917 33.4683 37.9922C33.5491 37.9922 33.6343 37.9721 33.7197 38.0263Z" fill="#25A9E1"/>
<path d="M33.6861 31.3612C33.648 31.3674 33.6097 31.3714 33.5712 31.3732C25.8764 31.3721 18.1817 31.3704 10.4869 31.3681C10.467 31.3638 10.4479 31.3564 10.4303 31.3463C10.422 31.3139 10.4171 31.2806 10.4155 31.2472C10.4354 30.6063 10.5912 29.9769 10.8727 29.4008C11.5385 28.0773 12.5978 27.248 14.0399 26.9109C14.3231 26.8473 14.6125 26.8155 14.9027 26.8159C15.0034 26.8151 15.104 26.8139 15.2046 26.8139C19.7742 26.8136 24.3437 26.8136 28.9133 26.8137C29.079 26.8137 29.2449 26.8149 29.4103 26.8235C30.2915 26.8642 31.1403 27.168 31.8472 27.6957C32.73 28.3331 33.3527 29.268 33.6009 30.3282C33.6726 30.6214 33.7137 30.9213 33.7235 31.223C33.725 31.2687 33.7354 31.3186 33.6861 31.3612Z" fill="#25A9E1"/>
<path d="M9.0494 37.826C9.0687 37.9327 9.07511 38.0413 9.06851 38.1494C9.07423 38.2558 9.07305 38.3627 9.08121 38.4688C9.08982 38.5808 9.10329 38.6926 9.11948 38.8038C9.13482 38.909 9.1547 39.0138 9.17576 39.1181C9.19683 39.2224 9.22002 39.3262 9.24558 39.4295C9.27114 39.5327 9.29803 39.6358 9.32945 39.7374C9.36264 39.8447 9.39951 39.951 9.43917 40.0561C9.47673 40.1556 9.51838 40.2537 9.5612 40.3511C9.60402 40.4486 9.64814 40.5457 9.69616 40.6406C9.74418 40.7356 9.79588 40.8289 9.84939 40.9209C9.90588 41.018 9.96466 41.1138 10.0257 41.2083C10.0837 41.2976 10.1441 41.3853 10.2069 41.4714C10.2697 41.5574 10.3349 41.6417 10.4023 41.7243C10.4697 41.8068 10.5389 41.888 10.6108 41.9665C10.6869 42.0493 10.7657 42.1297 10.8459 42.2085C10.922 42.283 11.0017 42.3538 11.0793 42.4268C11.1552 42.4982 11.2407 42.5595 11.3262 42.6394C11.3066 42.6515 11.2854 42.6608 11.2633 42.6673C11.2043 42.6703 11.145 42.6707 11.0859 42.6708C9.1322 42.6709 7.17854 42.6708 5.22488 42.6705C5.12432 42.6705 5.02356 42.6686 4.92324 42.6621C4.67938 42.6393 4.45113 42.5321 4.2779 42.359C4.10468 42.1859 3.99738 41.9577 3.97454 41.7138C3.9294 41.2487 3.88382 40.7836 3.84072 40.3183C3.81126 40.0002 3.78734 39.6816 3.75799 39.3635C3.72864 39.0454 3.69405 38.7279 3.66462 38.4098C3.6352 38.0918 3.61073 37.7732 3.58147 37.4551C3.55221 37.137 3.51955 36.8193 3.48872 36.5014C3.47503 36.3601 3.4615 36.2187 3.44903 36.0773C3.40954 35.6295 3.37223 35.1814 3.33097 34.7338C3.29025 34.292 3.24461 33.8507 3.20328 33.409C3.17407 33.0969 3.14952 32.7843 3.12094 32.472C3.09183 32.154 3.06031 31.8361 3.02986 31.5181C3.01521 31.365 2.9997 31.212 2.98614 31.0588C2.9465 30.611 2.90936 30.1629 2.86802 29.7153C2.82723 29.2735 2.78114 28.8323 2.73996 28.3906C2.71029 28.0725 2.68645 27.7539 2.65718 27.4358C2.6279 27.1177 2.59379 26.8001 2.56423 26.4821C2.53521 26.1699 2.51026 25.8573 2.48164 25.5451C2.45252 25.227 2.42114 24.9092 2.39075 24.5912C2.37612 24.4381 2.36063 24.2851 2.34705 24.1319C2.30735 23.6841 2.27008 23.236 2.22873 22.7884C2.18739 22.3407 2.1407 21.8936 2.09938 21.4459C2.05805 20.9983 2.02215 20.5501 1.98078 20.1025C1.93995 19.6607 1.8939 19.2194 1.8527 18.7777C1.82304 18.4597 1.79903 18.1411 1.76983 17.823C1.74063 17.5048 1.70757 17.1872 1.67723 16.8692C1.65138 16.5983 1.62644 16.3274 1.60243 16.0564C1.60228 16.0301 1.60405 16.004 1.60772 15.978C1.64077 15.9689 1.67438 15.962 1.70833 15.9574C1.75542 15.9537 1.80294 15.9559 1.85034 15.9559C8.49278 15.9559 15.1352 15.9561 21.7777 15.9565C21.8605 15.9471 21.9442 15.9531 22.0248 15.9742C22.0426 16.0561 22.0434 16.1409 22.0272 16.2232C22.0074 16.4471 21.9867 16.6709 21.965 16.8946C21.9352 17.2067 21.905 17.5187 21.8744 17.8307C21.8596 17.9838 21.8446 18.1369 21.8311 18.2901C21.7915 18.7379 21.7542 19.186 21.7129 19.6336C21.6721 20.0754 21.6263 20.5167 21.5851 20.9584C21.5554 21.2765 21.5312 21.595 21.5018 21.9131C21.4725 22.2312 21.4385 22.5488 21.409 22.8668C21.3796 23.1849 21.3545 23.5034 21.3253 23.8215C21.2967 24.1337 21.2647 24.4456 21.2354 24.7577C21.2172 24.9521 21.2016 25.1467 21.1839 25.3411C21.1753 25.4353 21.1575 25.4524 21.0638 25.4562C21.0106 25.4584 20.9573 25.4571 20.904 25.4571C18.974 25.4571 17.044 25.4573 15.114 25.4576C14.8595 25.454 14.6051 25.4647 14.3518 25.4897C13.7979 25.548 13.2555 25.6869 12.7419 25.9022C11.1958 26.5615 10.1066 27.6747 9.47304 29.2303C9.27902 29.7142 9.15329 30.2226 9.09946 30.7411C9.07729 30.9419 9.07059 31.1423 9.06695 31.3434C9.0661 31.3907 9.06646 31.4381 9.0639 31.4854C9.06346 31.5033 9.0576 31.5206 9.04711 31.5351C9.03662 31.5496 9.02198 31.5606 9.00513 31.5666C8.93383 31.5954 8.86057 31.6197 8.79047 31.651C7.78193 32.1023 7.10754 32.8514 6.84895 33.9291C6.50008 35.3831 7.16255 36.7793 8.36214 37.5017C8.5352 37.6044 8.71657 37.6924 8.90435 37.7648C8.95325 37.784 9.00115 37.8055 9.0494 37.826Z" fill="#28378F"/>
<path d="M11.8249 10.0296C15.5595 10.0296 19.2941 10.0297 23.0287 10.0297C23.0997 10.0297 23.1711 10.0263 23.2417 10.0318C23.3463 10.0373 23.445 10.0819 23.5182 10.1567C23.5915 10.2316 23.6339 10.3312 23.6371 10.4359C23.6394 10.4772 23.6382 10.5187 23.6382 10.5601C23.6383 11.513 23.6383 12.4659 23.6382 13.4188C23.6382 13.4602 23.6394 13.5018 23.6369 13.5431C23.6335 13.6325 23.6006 13.7182 23.5434 13.787C23.4861 13.8558 23.4078 13.9037 23.3205 13.9233C23.2686 13.9347 23.2158 13.9416 23.1628 13.9438C23.1097 13.9473 23.0563 13.9448 23.003 13.9448C15.5456 13.9448 8.08827 13.9448 0.630916 13.9448C0.577646 13.9448 0.524336 13.946 0.471122 13.9442C0.165646 13.9341 0.00179573 13.7693 0.0012826 13.4642C-0.000203359 12.5942 -0.000397952 11.7242 0.000697806 10.8541C0.000697806 10.7358 0.00042542 10.6174 0.000970626 10.499C-0.00020292 10.4635 0.00137788 10.428 0.00570033 10.3928C0.0203066 10.2952 0.0684797 10.2057 0.141927 10.1398C0.215375 10.0739 0.309502 10.0356 0.408111 10.0316C0.478827 10.0268 0.550097 10.0297 0.621119 10.0297C4.3557 10.0296 8.0903 10.0296 11.8249 10.0296Z" fill="#28378F"/>
<path d="M12.7842 5.84135C12.8141 5.852 12.8448 5.85988 12.8761 5.86487C12.9411 5.86845 13.0063 5.86735 13.0714 5.86736C15.0486 5.86744 17.0259 5.86771 19.0031 5.86816C19.1035 5.86376 19.2042 5.86986 19.3033 5.88638C19.4259 5.91079 19.5412 5.96302 19.6403 6.03905C19.7395 6.11507 19.8199 6.21286 19.8753 6.32486C19.9073 6.38822 19.936 6.45317 19.9614 6.51946C20.2226 7.17297 20.4833 7.82668 20.7435 8.4806C20.7628 8.52912 20.7776 8.57944 20.7986 8.64083C20.772 8.65438 20.7438 8.66461 20.7147 8.67129C20.6559 8.67637 20.5965 8.67577 20.5373 8.67577C14.724 8.67591 8.91071 8.67584 3.09743 8.67554C3.01249 8.68334 2.92685 8.67611 2.84442 8.65419C2.85924 8.60322 2.86734 8.56342 2.8821 8.52625C3.15952 7.8283 3.43728 7.13049 3.71539 6.43282C3.76963 6.28795 3.86072 6.15973 3.97968 6.06084C4.1208 5.94092 4.29885 5.87316 4.48399 5.86892C4.56096 5.8674 4.63793 5.86754 4.71485 5.86754C6.8756 5.86746 9.03634 5.8672 11.1971 5.86674C11.2791 5.87779 11.3626 5.87081 11.4416 5.84627C11.4749 5.78961 11.4956 5.72647 11.5023 5.66111C11.7258 4.5844 11.9486 3.50757 12.1707 2.43061C12.2949 1.8284 12.4183 1.22602 12.5408 0.623475C12.5503 0.577141 12.5611 0.531016 12.5726 0.485138C12.6034 0.351295 12.6775 0.231386 12.7836 0.144107C12.8896 0.0568285 13.0215 0.00708458 13.1588 0.00262974C13.2239 0.00319098 13.289 0.000104619 13.3541 0.000104619C15.5148 -4.50455e-05 17.6756 -4.50455e-05 19.8363 0.000104619C19.9014 0.000104619 19.9665 0.00250956 20.0316 0.00291846C20.175 0.00932355 20.3117 0.0653911 20.4183 0.161518C20.5249 0.257644 20.5948 0.387847 20.6159 0.529821C20.6418 0.677178 20.6142 0.828952 20.5381 0.957748C20.4619 1.08654 20.3423 1.18388 20.2007 1.23217C20.133 1.25283 20.0632 1.26566 19.9926 1.27044C19.9281 1.27681 19.8625 1.27231 19.7974 1.27231C17.8557 1.27234 15.9139 1.27238 13.9722 1.27242C13.9131 1.27242 13.8537 1.27132 13.7947 1.27483C13.7313 1.27862 13.7102 1.29502 13.6954 1.35622C13.6704 1.45965 13.6485 1.56388 13.6271 1.66807C13.3549 2.98827 13.0833 4.30857 12.8121 5.62897C12.793 5.69813 12.7836 5.76961 12.7842 5.84135Z" fill="#28378F"/>
</svg>
