<svg width="49" height="55" viewBox="0 0 49 55" fill="none" xmlns="http://www.w3.org/2000/svg">
<path d="M46.2146 24.8743C44.8787 24.8899 43.5437 24.878 42.2078 24.878H41.5965V25.9037H6.94396V24.878H5.55447C4.54888 24.878 3.5433 24.8798 2.53771 24.878C1.26321 24.8752 0.356194 24.3409 0.0786368 23.4333C-0.198045 22.5247 0.261088 21.7305 1.36611 21.2144C7.96424 18.1328 14.5627 15.0518 21.1614 11.9713C21.675 11.7316 22.1782 11.4754 22.7056 11.2595C23.0178 11.1314 23.1034 10.9649 23.1025 10.6849C23.0913 7.50716 23.0982 4.33127 23.0921 1.15356C23.0921 0.756483 23.1976 0.408758 23.6092 0.172712C24.3493 -0.252769 25.3696 0.150751 25.3895 0.914763C25.4007 1.32739 25.6039 1.48202 26.0267 1.61105C27.5736 2.08775 29.1317 1.94959 30.6958 1.71897C32.3862 1.4701 34.0758 1.17548 35.8033 1.41519C36.4829 1.50852 37.1496 1.67596 37.8136 1.83425C37.9399 1.86538 38.1137 2.01634 38.1145 2.11333C38.1319 4.23882 38.1284 6.36523 38.1284 8.49808C38.0715 8.51444 38.0126 8.52154 37.9537 8.51913C35.8344 7.84662 33.6763 7.92256 31.4965 8.26293C30.6293 8.39743 29.7534 8.50448 28.8749 8.57676C27.7169 8.67766 26.5521 8.50644 25.4639 8.07535C25.4407 8.20512 25.4245 8.33618 25.4154 8.46789C25.412 9.20078 25.4327 9.9346 25.4042 10.6666C25.3929 10.9713 25.5313 11.125 25.84 11.2686C32.956 14.5827 40.0695 17.901 47.1804 21.2236C47.8539 21.5383 48.3278 21.9647 48.4713 22.6034C48.7376 23.7965 47.6923 24.8551 46.2146 24.8743Z" fill="#28378F"/>
<path d="M0.591797 55C1.38505 54.1671 2.10201 53.4163 2.81698 52.6633C3.47625 51.969 4.11994 51.2571 4.80069 50.5874C4.99424 50.4041 5.24146 50.2968 5.50089 50.2836C17.9997 50.2691 30.4985 50.2682 42.9973 50.2806C43.2256 50.2786 43.4473 50.3615 43.6237 50.5149C44.9905 51.9274 46.3364 53.3627 47.6873 54.7924C47.7414 54.8588 47.7922 54.9281 47.8396 55L0.591797 55Z" fill="#28378F"/>
<path d="M13.9958 26.6357H9.12832C8.49067 26.6357 7.97375 27.1827 7.97375 27.8574V45.8179C7.97375 46.4927 8.49067 47.0397 9.12832 47.0397H13.9958C14.6334 47.0397 15.1503 46.4927 15.1503 45.8179V27.8574C15.1503 27.1827 14.6334 26.6357 13.9958 26.6357Z" fill="#25A9E1"/>
<path d="M26.7061 26.6357H21.8386C21.201 26.6357 20.6841 27.1827 20.6841 27.8574V45.8179C20.6841 46.4927 21.201 47.0397 21.8386 47.0397H26.7061C27.3438 47.0397 27.8607 46.4927 27.8607 45.8179V27.8574C27.8607 27.1827 27.3438 26.6357 26.7061 26.6357Z" fill="#25A9E1"/>
<path d="M39.5026 26.6357H34.6352C33.9975 26.6357 33.4806 27.1827 33.4806 27.8574V45.8179C33.4806 46.4927 33.9975 47.0397 34.6352 47.0397H39.5026C40.1403 47.0397 40.6572 46.4927 40.6572 45.8179V27.8574C40.6572 27.1827 40.1403 26.6357 39.5026 26.6357Z" fill="#25A9E1"/>
<path d="M41.5148 47.6801H6.25209C6.00918 47.6801 5.81226 47.8885 5.81226 48.1455V49.3191C5.81226 49.5762 6.00918 49.7846 6.25209 49.7846H41.5148C41.7577 49.7846 41.9546 49.5762 41.9546 49.3191V48.1455C41.9546 47.8885 41.7577 47.6801 41.5148 47.6801Z" fill="#28378F"/>
</svg>
