<svg width="41" height="36" viewBox="0 0 41 36" fill="none" xmlns="http://www.w3.org/2000/svg">
<path d="M37.8181 18.5454C37.7759 18.5877 37.7328 18.6299 37.6896 18.6705L37.6913 18.6722L21.4705 34.8938L6.13748 19.5599L21.8036 3.89375C22.0074 3.6494 22.2244 3.41211 22.4546 3.18189C23.4634 2.1731 24.661 1.37289 25.9791 0.826944C27.2971 0.280996 28.7098 1.06292e-08 30.1364 0C31.563 -1.06292e-08 32.9757 0.280996 34.2937 0.826944C35.6118 1.37289 36.8094 2.1731 37.8181 3.18188C38.8269 4.19067 39.6271 5.38827 40.1731 6.7063C40.719 8.02434 41 9.437 41 10.8636C41 12.2903 40.719 13.7029 40.1731 15.021C39.6271 16.339 38.8269 17.5366 37.8181 18.5454Z" fill="#25A9E1"/>
<path d="M35.8203 20.5439L20.4559 35.9082L3.51653 18.968L3.56811 18.9164C3.43622 18.7972 3.30602 18.6729 3.17835 18.5452C2.13627 17.5022 1.31741 16.258 0.771653 14.8883C0.225892 13.5186 -0.03535 12.0522 0.00383822 10.5783C0.0430264 9.1044 0.381824 7.65392 0.999598 6.31518C1.61737 4.97644 2.50119 3.77746 3.59723 2.79127C4.69326 1.80508 5.97858 1.05231 7.37488 0.578825C8.77119 0.105334 10.2493 -0.0789726 11.7191 0.0371303C13.1889 0.153233 14.6197 0.567317 15.9244 1.25416C17.229 1.941 18.3802 2.88623 19.3078 4.03227L35.8203 20.5439Z" fill="#28378F"/>
</svg>
