<svg width="34" height="40" viewBox="0 0 34 40" fill="none" xmlns="http://www.w3.org/2000/svg">
<path d="M0.0226209 3.70922C0.187469 3.67129 0.355358 3.63082 0.52417 3.59408C3.16851 3.01858 5.81293 2.44339 8.45743 1.8685C11.0237 1.31064 13.5901 0.753043 16.1566 0.195697C16.3324 0.157479 16.5087 0.120734 16.6837 0.0793193C16.7538 0.0627411 16.8195 0.0285196 16.8899 0.0149856C16.9529 -0.00283928 17.0194 -0.00479651 17.0833 0.00929565C17.2865 0.0719977 17.4935 0.121613 17.7033 0.157825C19.65 0.584196 21.5973 1.00854 23.5451 1.43087C25.3493 1.82344 27.1534 2.21591 28.9577 2.60827C30.5729 2.95976 32.1881 3.31153 33.8032 3.66358C33.8543 3.67472 33.904 3.69152 33.9654 3.70882C33.9664 3.7958 33.968 3.87642 33.968 3.95705C33.9682 8.41753 33.9682 12.878 33.9682 17.3385C33.9682 17.4451 33.9669 17.5518 33.9685 17.6584C33.9778 18.4113 33.9443 19.1642 33.8683 19.9134C33.6275 22.4024 33.0144 24.843 32.0489 27.1568C31.3557 28.8257 30.4557 30.4046 29.3693 31.858C27.8302 33.9142 25.9169 35.6739 23.7258 37.0482C21.9732 38.1432 20.0868 39.017 18.1112 39.6489C17.8334 39.7393 17.5529 39.8227 17.2738 39.9097C17.2225 39.9232 17.1721 39.94 17.123 39.9601C17.0864 39.9843 17.0435 39.9981 16.9994 39.9998C16.9552 40.0015 16.9114 39.9911 16.8729 39.9698C16.8117 39.9447 16.7492 39.923 16.6855 39.9048C14.9581 39.4042 13.2881 38.7296 11.7023 37.8916C7.83573 35.8582 4.70142 32.7063 2.72551 28.8644C1.89565 27.2609 1.25047 25.5717 0.801927 23.8281C0.567483 22.9338 0.382931 22.0277 0.249094 21.1137C0.142409 20.3804 0.0661393 19.6441 0.0264911 18.9043C0.00126818 18.4338 0.00335574 17.9637 0.00337138 17.4933C0.00353297 12.9826 0.00376146 8.47193 0.00405857 3.96127C-0.00506428 3.87684 0.00122194 3.79149 0.0226209 3.70922ZM2.48268 13.147C2.48268 14.7719 2.48028 16.3968 2.48429 18.0217C2.48535 18.4543 2.50141 18.8871 2.51887 19.3195C2.55136 20.0029 2.62435 20.6839 2.73747 21.359C2.89763 22.3653 3.13585 23.3581 3.45006 24.3288C3.82087 25.5049 4.29727 26.6465 4.87368 27.7402C5.9812 29.8031 7.49203 31.6321 9.31997 33.1227C10.276 33.9083 11.3093 34.5987 12.4047 35.1836C13.6538 35.8517 14.9743 36.3823 16.3423 36.7658C16.4328 36.7866 16.519 36.8223 16.5973 36.8714C16.6934 36.9322 16.8068 36.9612 16.9209 36.9543C16.9878 36.9535 17.0546 36.9477 17.1215 36.9474C17.2289 36.9481 17.3342 36.9179 17.4244 36.8607C17.5044 36.8147 17.5905 36.7795 17.6803 36.7564C17.9658 36.6674 18.2532 36.5831 18.5356 36.4861C20.2279 35.9101 21.833 35.1122 23.3072 34.1142C24.2411 33.4893 25.1125 32.7791 25.9097 31.9929C27.6256 30.2846 28.981 28.2612 29.8984 26.0384C30.6938 24.1326 31.2 22.1227 31.4007 20.0728C31.4639 19.423 31.4931 18.7712 31.4928 18.1182C31.4912 14.3414 31.4909 10.5645 31.4919 6.78774C31.4948 6.72505 31.4933 6.66224 31.4873 6.59975C31.4755 6.48755 31.43 6.3813 31.3566 6.29447C31.2832 6.20763 31.1852 6.1441 31.075 6.11194C31.0306 6.09762 30.9854 6.08588 30.9396 6.07679C29.3629 5.73569 27.7862 5.39474 26.2093 5.05395C25.1864 4.8326 24.1636 4.61085 23.1409 4.38869C21.4924 4.03216 19.844 3.67554 18.1956 3.31884C17.8834 3.25083 17.5671 3.19792 17.2622 3.10007C17.0621 3.04038 16.8477 3.04576 16.651 3.11541C16.5878 3.1355 16.5248 3.15782 16.46 3.17199C15.5353 3.37401 14.6104 3.57531 13.6853 3.7759C11.9917 4.14406 10.2981 4.51228 8.6045 4.88056C6.83289 5.26632 5.06141 5.6526 3.29006 6.03938C3.17282 6.06495 3.05449 6.08719 2.93905 6.11866C2.8107 6.14734 2.69594 6.21756 2.61326 6.31802C2.53058 6.41847 2.4848 6.54331 2.48331 6.6724C2.48132 6.73509 2.4827 6.79787 2.4827 6.8606C2.48268 8.95607 2.48268 11.0515 2.48268 13.147Z" fill="#28378F"/>
<path d="M30.2533 7.13664C30.2557 7.20855 30.2599 7.27645 30.26 7.34435C30.2605 7.85249 30.2606 8.36062 30.2603 8.86875C30.2603 11.9051 30.2603 14.9414 30.2604 17.9777C30.2604 18.5676 30.2458 19.1571 30.1945 19.7452C29.9918 22.1082 29.3575 24.4163 28.322 26.5592C27.6904 27.8776 26.888 29.1106 25.9347 30.2276C24.6693 31.6976 23.151 32.9388 21.4488 33.8949C20.0817 34.6617 18.629 35.2713 17.1195 35.7117C17.0377 35.7395 16.9491 35.7413 16.8662 35.717C14.9135 35.1383 13.0835 34.326 11.4117 33.2105C9.66338 32.0483 8.15861 30.568 6.97897 28.8497C6.09235 27.5492 5.37898 26.1428 4.8562 24.6648C4.46947 23.5914 4.17843 22.487 3.98636 21.3643C3.88319 20.7637 3.80955 20.1596 3.76546 19.552C3.723 18.9758 3.71028 18.3991 3.71018 17.8219C3.70966 14.3464 3.70958 10.871 3.70993 7.3955V7.16187C3.75925 7.12076 3.8204 7.09571 3.88488 7.0902C5.38965 6.76383 6.89439 6.43732 8.39909 6.11067C10.7114 5.6081 13.0235 5.10517 15.3356 4.60187C15.8241 4.49558 16.3127 4.39002 16.8002 4.27982C16.9235 4.2517 17.0518 4.25184 17.175 4.28022C19.122 4.70554 21.0694 5.12947 23.0171 5.55201C24.9514 5.97314 26.8856 6.39469 28.8197 6.81668C29.243 6.90889 29.6668 6.99912 30.0902 7.09119C30.1413 7.10229 30.1911 7.11914 30.2533 7.13664Z" fill="#25A9E1"/>
<path d="M25.6825 14.298C25.6881 14.5972 25.623 14.8936 25.4925 15.164C25.3918 15.3815 25.2625 15.5851 25.1078 15.7697C25.0452 15.8453 24.9784 15.9175 24.9076 15.9858C22.3474 18.4977 19.7866 21.0089 17.2251 23.5195C16.998 23.7466 16.731 23.9317 16.4369 24.066C16.2542 24.15 16.061 24.2101 15.8624 24.2448C15.7209 24.271 15.577 24.2826 15.4331 24.2794C15.2249 24.2701 15.02 24.2256 14.8273 24.148C14.6609 24.0818 14.5052 23.9922 14.365 23.8822C14.3203 23.8464 14.2777 23.8083 14.2374 23.7678C13.2867 22.8361 12.3363 21.9041 11.3861 20.9719C11.1955 20.785 11.007 20.5961 10.814 20.4118C10.6336 20.2387 10.4931 20.0298 10.4018 19.7991C10.3105 19.5684 10.2705 19.3212 10.2845 19.0741C10.2919 18.8603 10.3431 18.65 10.4349 18.4559C10.4911 18.3324 10.5628 18.2162 10.6483 18.1101C10.8265 17.8864 11.0596 17.7107 11.3259 17.5995C11.4463 17.548 11.5727 17.5114 11.7023 17.4905C11.8791 17.461 12.0594 17.4573 12.2373 17.4794C12.4341 17.5058 12.6255 17.5621 12.8047 17.6462C12.9232 17.702 13.0345 17.7715 13.1363 17.8531C13.2224 17.9236 13.3048 17.9983 13.3832 18.0769C14.0931 18.7733 14.803 19.4695 15.513 20.1657C15.5334 20.1857 15.554 20.2055 15.5749 20.225C15.5782 20.2285 15.5822 20.2313 15.5867 20.2331C15.5911 20.235 15.596 20.2358 15.6008 20.2356C15.6056 20.2354 15.6104 20.2342 15.6147 20.2319C15.6189 20.2297 15.6227 20.2266 15.6256 20.2228C15.6488 20.2011 15.6715 20.1788 15.6941 20.1566C17.9442 17.9499 20.1943 15.7433 22.4445 13.5368C22.6326 13.3521 22.8461 13.1942 23.0788 13.0675C23.2528 12.9734 23.4377 12.9003 23.6296 12.8497C23.8553 12.7881 24.0904 12.7663 24.3238 12.7854C24.6099 12.8061 24.8843 12.9055 25.1153 13.0723C25.319 13.2217 25.4772 13.4228 25.5731 13.6538C25.6271 13.7848 25.6632 13.9221 25.6805 14.0624C25.6866 14.1408 25.6873 14.2195 25.6825 14.298Z" fill="white"/>
</svg>
