<svg width="50" height="53" viewBox="0 0 50 53" fill="none" xmlns="http://www.w3.org/2000/svg">
<path d="M42.1998 48.9669C42.1998 45.8292 42.1996 42.6972 42.1993 39.5706C42.1971 39.5461 42.1929 39.5219 42.1869 39.498C42.1326 39.4949 42.0833 39.4899 42.0339 39.4896C41.582 39.4902 41.1307 39.5227 40.6833 39.5869C39.9727 39.6851 39.2745 39.858 38.6002 40.1026C38.0736 40.2906 37.5644 40.5243 37.0786 40.801C36.1487 41.3383 35.1503 41.7468 34.1106 42.0156C33.5636 42.1558 33.0069 42.2549 32.4452 42.3121C31.9785 42.3572 31.5098 42.3782 31.041 42.375C29.2106 42.3731 27.3801 42.3725 25.5497 42.3733C25.3121 42.3699 25.0759 42.4099 24.8526 42.4911C24.4832 42.6321 24.168 42.8865 23.9521 43.2178C23.7362 43.549 23.6308 43.9401 23.6509 44.335C23.671 44.7298 23.8156 45.1082 24.064 45.4158C24.3124 45.7234 24.6518 45.9445 25.0336 46.0473C25.1644 46.0832 25.2993 46.1022 25.4349 46.104C25.4971 46.1037 25.5592 46.1043 25.6213 46.1043C28.3839 46.1043 31.1465 46.1046 33.9091 46.1053C34.0048 46.1025 34.1005 46.1109 34.1943 46.1304C34.3338 46.165 34.4574 46.2462 34.5448 46.3604C34.6321 46.4747 34.678 46.6153 34.6748 46.759C34.6716 46.9028 34.6197 47.0412 34.5274 47.1515C34.4351 47.2618 34.3081 47.3374 34.1671 47.366C34.0894 47.3801 34.0106 47.3867 33.9316 47.3857C33.5079 47.3876 33.0843 47.3866 32.6605 47.3866C30.3103 47.3866 27.9602 47.3867 25.61 47.3868C25.2764 47.3914 24.9438 47.3478 24.6227 47.2574C24.3683 47.181 24.1243 47.0738 23.8961 46.9381C23.7992 46.8804 23.6993 46.828 23.5967 46.7813C20.7821 45.5269 17.9672 44.2733 15.1519 43.0203C14.1466 42.5726 13.1416 42.1242 12.1368 41.6751C11.8652 41.5476 11.5682 41.4832 11.2681 41.4866C10.8697 41.5002 10.487 41.645 10.1793 41.8984C9.87166 42.1519 9.6563 42.4999 9.56669 42.8883C9.47709 43.2767 9.51826 43.6838 9.6838 44.0464C9.84934 44.4091 10.13 44.7069 10.4822 44.8936C11.0513 45.1937 11.6292 45.4773 12.2036 45.7672C15.6907 47.5273 19.1776 49.2876 22.6643 51.0483C23.8222 51.6382 25.0503 52.0789 26.3191 52.3597C26.8484 52.4762 27.3841 52.5622 27.9233 52.6174C28.5075 52.6799 29.0948 52.71 29.6823 52.7074C30.1797 52.7029 30.6752 52.6703 31.17 52.6183C31.7653 52.5559 32.3563 52.4575 32.9397 52.3236C33.6049 52.1688 34.2589 51.9692 34.8972 51.7262C37.2675 50.8315 39.638 49.9374 42.0088 49.0438C42.0667 49.0219 42.1238 48.9976 42.1998 48.9669Z" fill="#28378F"/>
<path d="M7.11108 15.2218C7.12857 15.6396 7.14605 16.0575 7.16616 16.4745C7.17927 16.7682 7.19762 17.061 7.21161 17.3547C7.23958 17.9527 7.26493 18.5515 7.29378 19.1494C7.32088 19.7246 7.3506 20.2998 7.37944 20.8758C7.39255 21.1293 7.40479 21.3831 7.41616 21.6372C7.44331 22.2299 7.46859 22.8226 7.49659 23.4144C7.53767 24.2553 7.57934 25.096 7.62159 25.9363C7.62246 25.9643 7.62684 25.9923 7.62945 26.0264C7.65907 26.0414 7.68973 26.0542 7.72121 26.0648C8.96339 26.4005 10.2038 26.7397 11.4477 27.0675C12.1742 27.258 12.9073 27.4183 13.6472 27.5483C14.2258 27.6497 14.8072 27.7292 15.3937 27.7729C15.8838 27.8107 16.3758 27.8174 16.8667 27.793C17.9166 27.7362 18.92 27.5002 19.8484 26.9879C20.1223 26.8293 20.3828 26.6486 20.6273 26.4477C20.8668 26.2589 21.1046 26.0683 21.3537 25.8917C22.0153 25.4239 22.774 25.1116 23.5732 24.9782C24.0972 24.8893 24.6287 24.853 25.1598 24.8698C25.402 24.8768 25.645 24.896 25.8871 24.9074C26.327 24.9394 26.7691 24.92 27.2045 24.8497C27.4835 24.8037 27.7532 24.7122 28.0026 24.5787C28.1368 24.5059 28.2586 24.4124 28.3636 24.3016C28.5097 24.1572 28.6102 23.9732 28.6528 23.7723C28.6954 23.5714 28.6781 23.3625 28.6031 23.1713C28.5383 22.9707 28.4212 22.7911 28.2639 22.6508C28.1065 22.5105 27.9147 22.4147 27.708 22.3732C27.2622 22.2744 26.8119 22.1931 26.3635 22.1039C25.4343 21.9195 24.5033 21.7394 23.575 21.548C22.9893 21.4265 22.4062 21.2936 21.824 21.1537C21.3623 21.0463 20.9103 20.9006 20.4726 20.7184C19.9197 20.4919 19.4461 20.1068 19.1115 19.6117C18.7648 19.123 18.4876 18.5884 18.2881 18.0234C18.1513 17.6271 18.0893 17.2089 18.1054 16.7899C18.1159 16.5928 18.1395 16.3965 18.1762 16.2025C18.1985 16.0976 18.2368 15.9968 18.2898 15.9036C18.4096 15.6789 18.5328 15.4569 18.664 15.2392C19.0678 14.5661 19.5058 13.914 19.9428 13.2619C21.0102 11.6726 22.1116 10.1062 23.2078 8.53617C23.3398 8.34647 23.4727 8.15678 23.6038 7.96622C23.6318 7.92601 23.6545 7.8823 23.6868 7.82984C23.6578 7.81795 23.628 7.80802 23.5977 7.80012C23.2524 7.74243 22.908 7.68121 22.5618 7.62966C22.3101 7.59295 22.0577 7.56353 21.8048 7.54138C21.1298 7.47077 20.4483 7.49046 19.7785 7.59995C19.1022 7.71874 18.4658 8.00315 17.9262 8.42777C17.5926 8.68938 17.2847 8.98208 17.0065 9.30193C16.6717 9.6848 16.3439 10.0738 16.0152 10.4611C15.767 10.754 15.5199 11.048 15.274 11.3431C14.7247 11.9912 14.0687 12.5405 13.3342 12.9673C12.6221 13.3832 11.8719 13.7301 11.0938 14.0032C10.2262 14.3089 9.34323 14.5691 8.44857 14.783C8.03771 14.8844 7.62687 14.984 7.21601 15.0854C7.18367 15.0933 7.15307 15.1064 7.11811 15.1186C7.11376 15.1528 7.11141 15.1873 7.11108 15.2218V15.2218Z" fill="#28378F"/>
<path d="M14.2817 28.9417C14.3429 28.9871 14.3858 29.0213 14.4303 29.0527C15.2966 29.6462 16.1629 30.2401 17.0292 30.8342C19.8938 32.7985 22.7584 34.763 25.623 36.7278C25.6694 36.7593 25.7148 36.7933 25.7647 36.8205C25.8278 36.8592 25.9031 36.8732 25.9759 36.8596C26.0487 36.846 26.1139 36.8059 26.1589 36.7471C26.1912 36.7077 26.2183 36.664 26.2472 36.6221C28.2271 33.7338 30.2074 30.8456 32.1879 27.9574C35.7781 22.7221 39.368 17.4865 42.9575 12.2505L44.5756 9.8877C44.601 9.85099 44.6281 9.81427 44.6499 9.77494C44.6815 9.72075 44.6936 9.6574 44.6842 9.59539C44.6749 9.53337 44.6446 9.47643 44.5984 9.43402C44.5512 9.39383 44.5012 9.35702 44.4489 9.32388L40.9977 6.95578C38.134 4.9898 35.2702 3.0244 32.4065 1.05959C31.9502 0.746635 31.4939 0.433395 31.0376 0.119876C31.0009 0.0945203 30.9642 0.0665052 30.9248 0.0446981C30.8643 0.00660584 30.7919 -0.00785489 30.7215 0.00407962C30.651 0.0160141 30.5874 0.0535067 30.5428 0.109389C30.5074 0.153616 30.4744 0.199719 30.444 0.247498C28.9265 2.45999 27.4095 4.67248 25.8932 6.88497C25.3031 7.74777 24.7235 8.61667 24.1317 9.47773C23.2934 10.6972 22.4437 11.9096 21.6063 13.13C21.0154 13.991 20.4349 14.8599 19.8519 15.7271C19.7391 15.8958 19.6386 16.0732 19.5275 16.2437C19.4443 16.3788 19.3965 16.5328 19.3886 16.6913C19.3582 17.0187 19.4006 17.3489 19.5127 17.6581C19.5599 17.784 19.615 17.9072 19.6692 18.0313L19.67 18.0322L19.7539 18.2385C19.7539 18.2385 20.3781 19.0768 20.6089 19.3198C20.6281 19.3391 20.6473 19.3574 20.6666 19.3749C20.6692 19.3775 20.6718 19.3784 20.6736 19.3802C20.8043 19.495 20.959 19.5792 21.1264 19.6267C21.4131 19.7106 21.7007 19.7945 21.9927 19.8601C22.5652 19.9877 23.1404 20.1083 23.7156 20.229L24.0618 20.3024C24.7847 20.4554 25.5079 20.6078 26.2315 20.7596C26.8058 20.8802 27.381 20.9948 27.9544 21.1189C28.5111 21.2316 29.0117 21.5334 29.3711 21.9732C29.7306 22.413 29.9268 22.9636 29.9265 23.5316C29.9264 23.6259 29.9212 23.7201 29.9108 23.8139C29.8269 24.6068 29.423 25.1942 28.7586 25.6147C28.411 25.8269 28.0301 25.9791 27.6319 26.0649C27.4448 26.1086 27.2568 26.147 27.0689 26.182C26.9856 26.1977 26.901 26.2056 26.8163 26.2056C26.5287 26.2012 26.2402 26.1977 25.9526 26.1829C25.4788 26.1575 25.0059 26.1199 24.5313 26.1392C24.0563 26.1532 23.5863 26.239 23.137 26.3935C22.6046 26.5848 22.1103 26.869 21.6771 27.2327C21.5723 27.3193 21.4682 27.4058 21.3624 27.4906C20.8517 27.9041 20.2815 28.238 19.6709 28.481C19.6701 28.4819 19.6692 28.4819 19.6674 28.4828C19.5451 28.5317 19.4209 28.5772 19.295 28.6191C19.2903 28.6202 19.2856 28.6217 19.2811 28.6235C19.2339 28.6401 19.184 28.6558 19.1324 28.6707C19.0992 28.6812 19.0651 28.6908 19.0302 28.7004C18.0913 28.9557 16.5633 29.0833 16.5633 29.0833C16.0771 29.0996 15.5904 29.0809 15.107 29.0274C14.8552 28.9994 14.6034 28.9671 14.3508 28.9373C14.3277 28.9373 14.3046 28.9387 14.2817 28.9417V28.9417Z" fill="#28378F"/>
<path d="M0.00088021 14.5628C0.00189144 14.6943 -0.00217275 14.8266 0.00173173 14.9581C0.0228303 15.7073 0.0451373 16.4559 0.0686516 17.204C0.0772751 17.5104 0.0837452 17.8159 0.0923969 18.1215C0.108174 18.686 0.126105 19.2498 0.141919 19.8143C0.152547 20.1836 0.160992 20.5528 0.170168 20.9221C0.170889 20.9221 0.171629 20.9213 0.17235 20.9213C0.190308 21.5863 0.208276 22.2508 0.226254 22.9148C0.243638 23.5692 0.261996 24.223 0.281328 24.8764C0.300055 25.5406 0.318747 26.205 0.337405 26.8698C0.341719 27.0226 0.346763 27.1754 0.352537 27.3282C0.366179 27.6885 0.610242 27.9615 0.928171 27.9734C0.961429 27.9739 0.993967 27.9735 1.02649 27.9724C1.55889 27.9514 2.09106 27.9302 2.62298 27.9086C2.83782 27.9003 3.05267 27.8911 3.2675 27.8836C3.5525 27.8729 3.83745 27.8656 4.12174 27.8541C4.60278 27.8349 5.08386 27.8132 5.56419 27.7931C5.80218 27.7834 6.04089 27.7746 6.27887 27.7658C6.56387 27.7551 6.84816 27.7461 7.13312 27.7355C7.22207 27.7319 7.31036 27.7274 7.39942 27.7181C7.68542 27.6879 7.909 27.4224 7.92303 27.0984C7.92428 27.0616 7.92409 27.0241 7.92317 26.9873C7.90716 26.4391 7.89115 25.8909 7.87513 25.3427C7.86776 25.1 7.86063 24.8574 7.85374 24.6148C7.83932 24.0559 7.82565 23.4972 7.80973 22.9375C7.78862 22.1892 7.76656 21.4405 7.74354 20.6916C7.73418 20.386 7.72772 20.0797 7.71906 19.7741C7.70336 19.2047 7.68548 18.6352 7.66905 18.0658C7.66231 17.8289 7.65559 17.5911 7.64886 17.3542C7.63444 16.7954 7.61979 16.2363 7.6049 15.6769C7.59379 15.2399 7.58126 14.8022 7.56729 14.364C7.56513 14.2853 7.55414 14.2071 7.53451 14.1308C7.50448 14.0109 7.43748 13.9034 7.34299 13.8236C7.24851 13.7439 7.13133 13.6959 7.00805 13.6864C6.97072 13.6843 6.93331 13.6843 6.89599 13.6864C6.72308 13.6929 6.55043 13.6997 6.37805 13.7067C5.90133 13.7277 5.4253 13.7494 4.94932 13.7688C4.46394 13.788 3.97788 13.8039 3.49249 13.8239C3.02085 13.8424 2.54989 13.8643 2.07823 13.8837C1.83084 13.894 1.58345 13.9038 1.33606 13.9131C1.08361 13.9225 0.831408 13.9315 0.579455 13.9398C0.48725 13.9415 0.396883 13.9659 0.316396 14.0109C0.235909 14.0559 0.167798 14.1201 0.118127 14.1978C0.0415866 14.3041 0.000554528 14.4318 0.00088021 14.5628V14.5628Z" fill="#25A9E1"/>
<path d="M42.1722 50.0639C42.1756 50.1367 42.2048 50.206 42.2544 50.2594C42.304 50.3128 42.371 50.347 42.4434 50.3558C42.4893 50.362 42.5357 50.3647 42.5821 50.3638H49.5863C49.6273 50.3647 49.6683 50.3628 49.7091 50.3582C49.7871 50.3517 49.8598 50.3164 49.9132 50.2592C49.9666 50.202 49.9967 50.1269 49.9978 50.0487C50.0002 50.0176 49.9994 49.9865 49.9994 49.9562V37.2774C50.0006 37.2415 49.9998 37.2055 49.997 37.1697C49.9909 37.097 49.9596 37.0288 49.9085 36.9768C49.8573 36.9248 49.7896 36.8923 49.717 36.885C49.6709 36.881 49.6246 36.8794 49.5783 36.8802H42.5901C42.5438 36.879 42.4974 36.8806 42.4513 36.885C42.3813 36.8909 42.3156 36.921 42.2652 36.97C42.2149 37.019 42.1832 37.084 42.1754 37.1538C42.1693 37.2206 42.1671 37.2877 42.169 37.3547V49.8781C42.169 49.9403 42.1674 50.0025 42.1722 50.0639Z" fill="#25A9E1"/>
<path d="M19.295 28.6191C19.4209 28.5772 19.5451 28.5317 19.6674 28.4827C19.5722 28.5177 19.4594 28.5588 19.3257 28.6078C19.3151 28.6112 19.3055 28.6147 19.295 28.6191Z" fill="black"/>
<path d="M20.609 19.3198C20.6265 19.3399 20.6458 19.3584 20.6667 19.3749C20.6475 19.3574 20.6282 19.3391 20.609 19.3198Z" fill="black"/>
<path d="M23.338 18.2385C23.3371 18.9199 23.4652 19.5953 23.7156 20.229L24.0618 20.3024C24.7847 20.4554 25.508 20.6078 26.2315 20.7596C26.8058 20.8802 27.381 20.9947 27.9544 21.1188C28.5111 21.2315 29.0117 21.5334 29.3711 21.9732C29.7306 22.4129 29.9268 22.9635 29.9265 23.5315C30.9244 23.3112 31.8396 22.8133 32.5667 22.0953C33.2938 21.3772 33.8031 20.4683 34.0358 19.4732C34.2685 18.4782 34.2152 17.4377 33.8821 16.4716C33.5489 15.5056 32.9494 14.6534 32.1527 14.0134C31.3561 13.3734 30.3948 12.9716 29.3796 12.8545C28.3645 12.7373 27.3369 12.9095 26.4154 13.3512C25.4939 13.7929 24.716 14.4861 24.1715 15.3508C23.627 16.2155 23.3381 17.2166 23.338 18.2385V18.2385Z" fill="#25A9E1"/>
</svg>
