<svg width="40" height="11" viewBox="0 0 40 11" fill="none" xmlns="http://www.w3.org/2000/svg">
<path d="M20.0995 10.0212C22.8667 10.0212 25.1101 7.77788 25.1101 5.0106C25.1101 2.24332 22.8667 0 20.0995 0C17.3322 0 15.0889 2.24332 15.0889 5.0106C15.0889 7.77788 17.3322 10.0212 20.0995 10.0212Z" fill="#25A9E1"/>
<path d="M5.0106 10.0212C7.77788 10.0212 10.0212 7.77788 10.0212 5.0106C10.0212 2.24332 7.77788 0 5.0106 0C2.24332 0 0 2.24332 0 5.0106C0 7.77788 2.24332 10.0212 5.0106 10.0212Z" fill="#28378F"/>
<path d="M34.9894 10.0212C37.7567 10.0212 40 7.77788 40 5.0106C40 2.24332 37.7567 0 34.9894 0C32.2221 0 29.9788 2.24332 29.9788 5.0106C29.9788 7.77788 32.2221 10.0212 34.9894 10.0212Z" fill="#28378F"/>
</svg>
