<svg width="41" height="41" viewBox="0 0 41 41" fill="none" xmlns="http://www.w3.org/2000/svg">
<path d="M20.3974 40.9989C16.4265 40.9989 12.4555 40.9989 8.48464 40.9989C8.16233 41.0048 7.84002 40.9875 7.52021 40.9471C5.43645 40.6461 3.74106 39.1756 3.1888 37.2756C3.05683 36.8251 2.98947 36.3582 2.98874 35.8887C2.9878 34.7165 2.98764 33.5443 2.98826 32.3721C2.98826 29.2363 2.98729 26.1006 2.98535 22.9649C2.98218 22.4576 3.10757 21.9578 3.34983 21.5121C3.57914 21.0942 3.85757 20.7052 4.17919 20.3533C4.58029 19.9054 5.02621 19.4998 5.50997 19.1427C9.54489 16.1604 13.5794 13.1775 17.6135 10.194C18.2569 9.71496 19.0163 9.41593 19.8135 9.32762C20.5946 9.23043 21.3875 9.32319 22.125 9.59802C22.5086 9.74454 22.8695 9.94456 23.1971 10.1922C24.7104 11.3117 26.2243 12.4307 27.7386 13.5489C29.8002 15.0728 31.8618 16.5967 33.9233 18.1207C34.3827 18.4603 34.8434 18.7982 35.3017 19.1394C35.9835 19.637 36.5857 20.2355 37.0874 20.9143C37.3098 21.2149 37.494 21.542 37.6357 21.888C37.7605 22.194 37.8253 22.5211 37.8268 22.8516C37.8269 22.8882 37.827 22.9248 37.827 22.9615C37.827 27.2254 37.827 31.4894 37.8271 35.7533C37.8342 36.1786 37.7897 36.6031 37.6946 37.0176C37.4153 38.1916 36.7249 39.2268 35.7483 39.9358C34.9622 40.5206 34.0317 40.8803 33.0566 40.9763C32.8523 40.9946 32.6471 41.0018 32.442 40.9981C28.4271 40.9992 24.4122 40.9995 20.3974 40.9989ZM15.818 38.4766C15.818 38.3558 15.818 38.2612 15.818 38.1666C15.818 34.6352 15.8181 31.1038 15.8181 27.5724C15.8181 27.4772 15.8161 27.3818 15.8197 27.2867C15.8334 26.9801 15.9576 26.6888 16.1694 26.4667C16.3812 26.2446 16.6662 26.1067 16.9718 26.0784C17.074 26.0711 17.1767 26.069 17.2792 26.069C19.3673 26.0684 21.4553 26.0684 23.5434 26.0688C23.6313 26.0688 23.7192 26.0711 23.807 26.0739C24.0908 26.0915 24.3603 26.2045 24.5717 26.3947C24.7831 26.5849 24.924 26.8409 24.9715 27.1213C24.9921 27.2588 25.0019 27.3976 25.0007 27.5366C25.0022 31.068 25.0026 34.5994 25.0019 38.1308C25.0019 38.2041 25 38.2775 25.003 38.3506C25.0047 38.392 25.0146 38.433 25.0229 38.4881H25.2945C27.6463 38.4881 29.9982 38.4881 32.35 38.488C32.4233 38.488 32.4965 38.4877 32.5698 38.4869C33.0485 38.4848 33.5186 38.3597 33.935 38.1236C34.6487 37.7209 35.1187 37.1295 35.2723 36.3132C35.3009 36.1323 35.3129 35.9493 35.3079 35.7663C35.3098 31.5315 35.3102 27.2968 35.3093 23.062C35.3093 23.0254 35.3073 22.9886 35.3096 22.9521C35.3164 22.8562 35.2905 22.7607 35.2363 22.6812C35.1302 22.5234 35.029 22.3613 34.9114 22.2124C34.5896 21.8121 34.2157 21.4567 33.7997 21.1556C29.7881 18.1909 25.7774 15.2249 21.7678 12.2575C21.4604 12.0178 21.0933 11.8666 20.7063 11.8202C20.1257 11.7581 19.5824 11.8511 19.107 12.2163C19.0721 12.2431 19.0361 12.2684 19.0008 12.2945C15.4081 14.9511 11.8155 17.6077 8.22288 20.2644C7.73409 20.6259 7.24139 20.9825 6.76129 21.3553C6.33823 21.6845 5.97003 22.0787 5.6704 22.5232C5.55286 22.6912 5.49155 22.8922 5.49525 23.0973C5.50295 24.8849 5.49957 26.6726 5.49959 28.4603C5.49962 30.9147 5.49968 33.3691 5.49977 35.8235C5.49172 36.21 5.57378 36.5931 5.73946 36.9424C5.90514 37.2917 6.14988 37.5977 6.4543 37.836C6.9797 38.2691 7.64244 38.5005 8.32324 38.4884C10.7483 38.4874 13.1734 38.4872 15.5985 38.4878C15.6629 38.4876 15.7273 38.4813 15.818 38.4766Z" fill="#25A9E1"/>
<path d="M27.3644 4.25906C27.3689 4.14497 27.3739 4.07421 27.3741 4.00344C27.3751 3.61515 27.3735 3.22685 27.3758 2.83858C27.3829 2.42048 27.5515 2.02134 27.8461 1.72467C28.1408 1.42799 28.5388 1.25677 28.9569 1.24683C29.5942 1.24054 30.2316 1.24455 30.869 1.24427C31.1107 1.24416 31.3527 1.25117 31.5942 1.24315C31.8163 1.23701 32.0374 1.27611 32.2439 1.35808C32.4504 1.44005 32.6381 1.56318 32.7956 1.71997C32.953 1.87676 33.0769 2.06394 33.1597 2.27013C33.2425 2.47631 33.2826 2.69719 33.2773 2.91932C33.2697 3.38075 33.2762 3.84241 33.2762 4.30396C33.2762 5.652 33.2762 7.00003 33.2762 8.34806V8.61044C33.3416 8.65993 33.3994 8.70461 33.4582 8.74788C35.5407 10.2803 37.6235 11.8123 39.7067 13.3438C40.0485 13.5948 40.3459 13.8829 40.5339 14.2672C40.9461 15.1097 40.9184 15.9393 40.418 16.7352C40.2211 17.0443 40.0037 17.3398 39.7673 17.6197C39.3748 18.093 38.8178 18.4004 38.2081 18.4802C37.5984 18.56 36.9811 18.4063 36.48 18.0499C35.8686 17.6079 35.2634 17.1574 34.6558 16.7102C30.6028 13.7279 26.5504 10.7448 22.4987 7.76085C21.8889 7.30689 21.1457 7.06804 20.3856 7.08171C19.8934 7.07885 19.4062 7.18024 18.956 7.37921C18.7495 7.47369 18.5537 7.59014 18.372 7.72655C16.3253 9.23341 14.2781 10.7396 12.2304 12.2453C10.0356 13.8599 7.8408 15.4745 5.64607 17.0893C5.23309 17.3931 4.8204 17.6974 4.40801 18.002C4.12262 18.2221 3.79026 18.3732 3.43686 18.4436C2.5047 18.6151 1.70688 18.3608 1.07939 17.6483C0.8217 17.348 0.586445 17.0292 0.375534 16.6944C0.0594424 16.1937 -0.0631299 15.5949 0.0308052 15.0103C0.12474 14.4257 0.42873 13.8954 0.885759 13.519C0.953476 13.463 1.02435 13.4108 1.09512 13.3587C6.84148 9.13076 12.5873 4.90202 18.3325 0.672495C18.9558 0.211803 19.7166 -0.0244981 20.4913 0.0020103C20.9912 0.00274082 21.4845 0.116385 21.9344 0.334461C22.1175 0.426443 22.2924 0.534009 22.4571 0.65597C24.0107 1.79485 25.5627 2.93607 27.1129 4.07962C27.1831 4.13129 27.2547 4.18095 27.3644 4.25906Z" fill="#28378F"/>
</svg>
