<svg width="47" height="41" viewBox="0 0 47 41" fill="none" xmlns="http://www.w3.org/2000/svg">
<path d="M6.56396 2.38181C6.6084 2.47193 6.64228 2.53447 6.67078 2.59938C7.00982 3.37184 7.34834 4.1445 7.68634 4.91737C7.94389 5.50699 8.19838 6.09794 8.45658 6.68727C8.76928 7.40099 9.08549 8.1132 9.39821 8.82691C9.65643 9.41623 9.91063 10.0073 10.1687 10.5967C10.4239 11.1795 10.683 11.7606 10.9382 12.3434C11.1963 12.9328 11.4506 13.5239 11.7092 14.113C11.7865 14.2893 11.8692 14.463 11.9348 14.6509C11.8809 14.7144 11.8317 14.7745 11.7803 14.8327C11.4689 15.1791 11.2133 15.5717 11.0226 15.9966C10.6783 16.7684 10.6157 17.6366 10.8459 18.4497C11.0653 19.2382 11.4607 19.9665 12.0024 20.58C12.068 20.6556 12.1388 20.7264 12.2144 20.792C15.4755 23.6555 18.7541 26.4985 22.1305 29.2264C22.9814 29.9139 23.8397 30.5925 24.7387 31.2173C24.909 31.3356 25.0817 31.4508 25.2579 31.5599C25.6566 31.8154 26.1032 31.987 26.5704 32.0641C27.1896 32.1577 27.8227 32.0635 28.3878 31.7938C29.0544 31.4756 29.6449 31.0179 30.1191 30.4517C30.1613 30.4033 30.2031 30.3545 30.2456 30.3063C30.2498 30.3024 30.2546 30.2993 30.2599 30.2972C30.2677 30.294 30.2757 30.2916 30.2839 30.2897C30.291 30.2886 30.2983 30.2889 30.3052 30.2906C34.5825 31.5326 38.8598 32.7748 43.1369 34.0173C43.1618 34.0267 43.1861 34.0377 43.2097 34.0501C43.1815 34.0989 43.1585 34.1477 43.1276 34.1908C42.7944 34.6564 42.4316 35.0982 42.0538 35.5281C41.2371 36.4471 40.3545 37.3055 39.4131 38.0964C38.8031 38.6147 38.1736 39.108 37.5244 39.5761C37.2723 39.7519 37.0045 39.9042 36.7246 40.0311C36.3307 40.2189 35.9243 40.3793 35.5084 40.5111C34.4268 40.8429 33.3009 41.0077 32.1696 40.9997C30.9323 40.9906 29.7 40.8413 28.4963 40.5547C27.1246 40.2313 25.7815 39.7967 24.4803 39.2554C22.7094 38.5204 20.9896 37.6679 19.3325 36.7035C17.5447 35.6777 15.8202 34.5526 14.1176 33.3926C13.5207 32.9858 12.9253 32.5778 12.3668 32.1179C11.3013 31.2292 10.3107 30.2544 9.40502 29.2032C8.29642 27.9222 7.27129 26.5712 6.33596 25.1586C5.46554 23.8569 4.65904 22.5165 3.90449 21.1444C3.40501 20.2362 2.92131 19.3198 2.47469 18.3844C2.10513 17.6104 1.73746 16.8353 1.38383 16.054C1.12449 15.481 0.881135 14.9003 0.646015 14.3169C0.48151 13.8973 0.347999 13.4661 0.246555 13.0269C0.0878409 12.3808 0.00514995 11.7184 0.000164002 11.053C-0.0071478 9.64275 0.375089 8.25783 1.10474 7.05095C1.67074 6.11236 2.38261 5.2699 3.21359 4.55521C4.08506 3.79146 5.04899 3.14018 6.08277 2.61667C6.23457 2.5396 6.38866 2.46721 6.56396 2.38181Z" fill="#28378F"/>
<path d="M30.7209 29.0372C30.7945 28.9469 30.8385 28.891 30.8844 28.8367C31.4978 28.1105 32.1137 27.3866 32.7225 26.6566C32.8176 26.5408 32.9451 26.456 33.0887 26.4131C33.4182 26.3152 33.763 26.279 34.1057 26.3064C34.4056 26.3242 34.7029 26.3722 34.9931 26.4499C35.8774 26.6839 36.7634 26.9125 37.6434 27.1621C39.2455 27.6166 40.8438 28.0848 42.4439 28.5467C42.7747 28.6429 43.08 28.8115 43.3376 29.0403C43.4784 29.1622 43.5967 29.3079 43.6869 29.4709C43.7696 29.6135 43.8211 29.7721 43.8378 29.9362C43.8949 30.6195 43.9534 31.3028 44.0092 31.9863C44.0313 32.2569 44.0483 32.5278 44.066 32.7987C44.0696 32.8539 44.0655 32.9097 44.0647 32.9846C39.6184 31.6709 35.1872 30.3583 30.7209 29.0372Z" fill="#28378F"/>
<path d="M7.68719 1.95206C7.73703 1.88728 7.8051 1.83888 7.88266 1.8131C8.17552 1.67761 8.49079 1.59714 8.81276 1.57568C9.5052 1.51413 10.203 1.58949 10.8663 1.79748C11.0492 1.8586 11.2264 1.93526 11.3962 2.0266C11.6223 2.1402 11.7975 2.33449 11.8872 2.57105C12.031 2.93683 12.1883 3.29726 12.3406 3.65973C12.5122 4.06829 12.6842 4.47669 12.8566 4.88494C13.0089 5.24737 13.1608 5.60995 13.3124 5.9727C13.484 6.38123 13.656 6.78964 13.8283 7.19793C13.9833 7.56698 14.1369 7.93661 14.292 8.30563C14.4609 8.70757 14.6315 9.10882 14.8 9.51095C14.9684 9.91308 15.1337 10.3166 15.3039 10.718C15.3422 10.8027 15.3478 10.8985 15.3195 10.987C15.2004 11.3917 15.06 11.7898 14.8989 12.1797C14.8825 12.2194 14.8638 12.2581 14.8429 12.2955C14.529 12.8598 14.0923 13.3463 13.5651 13.7191C13.4654 13.7883 13.3563 13.8428 13.241 13.8808C13.0315 13.9501 12.8993 13.8967 12.7933 13.7018C12.6603 13.4571 12.5329 13.2089 12.4147 12.9567C12.1692 12.4326 11.928 11.9063 11.6913 11.378C11.4923 10.9347 11.3012 10.4877 11.107 10.0422C10.8985 9.56398 10.6903 9.08558 10.4825 8.60704C10.3406 8.27904 10.2011 7.94998 10.0609 7.62124C9.83105 7.08213 9.6014 6.54291 9.37197 6.0036C9.2212 5.6483 9.0726 5.29207 8.92251 4.93647C8.75575 4.54137 8.58767 4.14683 8.42153 3.75146C8.2637 3.37584 8.10684 2.99982 7.95094 2.6234C7.8795 2.45184 7.80773 2.2804 7.73817 2.10808C7.71719 2.05604 7.70308 2.00129 7.68719 1.95206Z" fill="#28378F"/>
<path d="M46.8442 3.13185V11.1572C46.8339 11.1874 46.8264 11.2185 46.822 11.2501C46.8042 11.5815 46.7316 11.9076 46.6073 12.2153C46.3717 12.812 45.9627 13.3243 45.433 13.6863C44.9034 14.0482 44.2774 14.2431 43.6359 14.2458C40.605 14.2471 37.5741 14.2468 34.5432 14.2449C34.4635 14.2435 34.3852 14.266 34.3184 14.3096C34.1484 14.4177 33.9751 14.5207 33.802 14.6239C32.6185 15.3297 31.4236 16.0149 30.168 16.5872C29.7285 16.8011 29.2674 16.9674 28.7925 17.0834C28.7008 17.1034 28.6081 17.1187 28.5159 17.1362H28.4091C28.3912 17.1267 28.3724 17.119 28.3529 17.1133C28.1479 17.0743 28.0602 16.9517 28.1083 16.751C28.1365 16.6333 28.1743 16.5181 28.2214 16.4065C28.5114 15.7224 28.8054 15.04 29.0976 14.3568C29.1109 14.3257 29.1201 14.2929 29.1362 14.2463H29.0073C27.8985 14.2463 26.7898 14.2503 25.6811 14.2431C25.4419 14.2415 25.2032 14.2181 24.9682 14.1733C23.6619 13.9236 22.6044 12.7704 22.4527 11.4442C22.4417 11.3483 22.4259 11.2529 22.4124 11.1572V3.13185C22.4204 3.08266 22.4303 3.0337 22.4359 2.98423C22.4451 2.90202 22.4462 2.81858 22.4598 2.73717C22.5765 1.97027 22.9689 1.27224 23.5634 0.77394C24.0305 0.370305 24.6073 0.115153 25.2202 0.0411074C25.3282 0.027605 25.4362 0.013902 25.5442 0H43.7124C43.7462 0.00986037 43.7807 0.0169776 43.8156 0.0212815C44.315 0.0418981 44.8011 0.188229 45.2289 0.446716C46.1262 0.986966 46.657 1.77553 46.8037 2.81679C46.8184 2.92164 46.8308 3.02682 46.8442 3.13185Z" fill="#25A9E1"/>
<path d="M30.3588 8.27154C31.1865 8.27154 31.8575 7.60056 31.8575 6.77286C31.8575 5.94517 31.1865 5.27419 30.3588 5.27419C29.5311 5.27419 28.8601 5.94517 28.8601 6.77286C28.8601 7.60056 29.5311 8.27154 30.3588 8.27154Z" fill="white"/>
<path d="M34.5551 8.27154C35.3828 8.27154 36.0538 7.60056 36.0538 6.77286C36.0538 5.94517 35.3828 5.27419 34.5551 5.27419C33.7274 5.27419 33.0565 5.94517 33.0565 6.77286C33.0565 7.60056 33.7274 8.27154 34.5551 8.27154Z" fill="white"/>
<path d="M38.8369 8.27154C39.6646 8.27154 40.3356 7.60056 40.3356 6.77286C40.3356 5.94517 39.6646 5.27419 38.8369 5.27419C38.0092 5.27419 37.3383 5.94517 37.3383 6.77286C37.3383 7.60056 38.0092 8.27154 38.8369 8.27154Z" fill="white"/>
</svg>
