<svg width="44" height="43" viewBox="0 0 44 43" fill="none" xmlns="http://www.w3.org/2000/svg">
<path d="M7.48646 42.1399C7.36875 42.1121 7.25081 42.0853 7.13335 42.0563C6.76461 41.9646 6.43302 41.7615 6.1836 41.4749C5.93417 41.1882 5.77897 40.8317 5.73907 40.4538C5.72142 40.2796 5.71052 40.1039 5.71031 39.9289C5.70823 38.1831 5.70807 36.4373 5.70982 34.6914C5.71126 33.743 6.29228 32.9987 7.19368 32.7897C7.34751 32.7544 7.50478 32.7362 7.66262 32.7356C8.68196 32.7309 9.70133 32.7303 10.7207 32.7339C11.6675 32.7371 12.4137 33.3216 12.6188 34.2223C12.6544 34.3821 12.6722 34.5453 12.6719 34.709C12.6755 36.5251 12.6761 38.3412 12.6737 40.1574C12.6727 41.1155 12.089 41.8618 11.1818 42.0732C11.0868 42.0953 10.9918 42.1176 10.8968 42.14L7.48646 42.1399Z" fill="#28378F"/>
<path d="M32.936 42.1399C32.8183 42.1121 32.7003 42.0853 32.5829 42.0563C32.2141 41.9646 31.8825 41.7616 31.6331 41.4749C31.3837 41.1882 31.2285 40.8317 31.1886 40.4538C31.1709 40.2796 31.16 40.1039 31.1598 39.9289C31.1578 38.1831 31.1576 36.4373 31.1593 34.6914C31.1608 33.743 31.7418 32.9987 32.6432 32.7897C32.797 32.7544 32.9543 32.7362 33.1121 32.7356C34.1315 32.7309 35.1509 32.7303 36.1702 32.7339C37.117 32.7371 37.8632 33.3216 38.0684 34.2223C38.1039 34.3821 38.1217 34.5453 38.1214 34.709C38.1251 36.5251 38.1257 38.3412 38.1232 40.1574C38.1223 41.1156 37.5385 41.8618 36.6314 42.0732C36.5363 42.0953 36.4413 42.1176 36.3464 42.14L32.936 42.1399Z" fill="#28378F"/>
<path d="M3.72683 10.8628C3.95029 10.9015 4.17687 10.9273 4.39667 10.9809C5.59431 11.2733 6.48761 12.302 6.55817 13.5319C6.60603 14.3664 6.59051 15.2048 6.59208 16.0414C6.59316 16.6146 6.59767 17.1892 6.56052 17.7606C6.51619 18.3573 6.28443 18.9247 5.89836 19.3818C5.51228 19.8389 4.99163 20.1623 4.41077 20.3058C3.84785 20.444 3.27514 20.4269 2.70144 20.3853C2.32656 20.3623 1.96014 20.2642 1.62397 20.0967C1.2878 19.9292 0.988767 19.6958 0.744661 19.4104C0.336747 18.9597 0.0903905 18.3862 0.0444185 17.7801C0.0347222 17.7232 0.0198542 17.6674 0 17.6133V13.6755C0.0198668 13.6214 0.0347543 13.5657 0.0444777 13.5089C0.0976983 12.917 0.333324 12.3563 0.718833 11.904C1.10434 11.4517 1.62073 11.1303 2.19672 10.984C2.42182 10.9287 2.65405 10.9024 2.883 10.8628H3.72683Z" fill="#28378F"/>
<path d="M44 17.6133C43.9626 17.8068 43.9337 18.0024 43.8866 18.1936C43.7466 18.7844 43.422 19.3152 42.9597 19.7088C42.4975 20.1024 41.9217 20.3383 41.3162 20.3823C40.7021 20.4324 40.0887 20.4487 39.4882 20.2779C38.3535 19.955 37.5022 18.939 37.4424 17.7606C37.3946 16.8205 37.4107 15.8769 37.4078 14.9349C37.4063 14.4613 37.4093 13.9866 37.4388 13.5142C37.5165 12.2716 38.5107 11.1704 39.7392 10.9475C39.9165 10.9153 40.0951 10.8908 40.2731 10.8628H41.1169C41.1837 10.8822 41.2519 10.8964 41.3208 10.9055C42.5277 10.9776 43.5941 11.8906 43.8799 13.0614C43.9294 13.2638 43.9604 13.4707 43.9999 13.6755L44 17.6133Z" fill="#28378F"/>
<path d="M40.7909 5.27379V32.1701C40.7709 32.2238 40.7565 32.2795 40.7482 32.3362C40.7214 33.0155 40.5519 33.6816 40.2508 34.2911C39.3915 36.027 38.0072 37.0618 36.0857 37.3612C35.8736 37.3942 35.6598 37.4166 35.4468 37.4439H8.69104C8.60558 37.4286 8.5205 37.4106 8.43457 37.3986C8.16941 37.3618 7.90005 37.3453 7.63917 37.2891C6.55153 37.0544 5.56298 36.4894 4.80881 35.6713C4.05465 34.8533 3.57172 33.8221 3.42613 32.719C3.40114 32.5359 3.37339 32.3531 3.34692 32.1701V5.27379C3.36227 5.20683 3.38236 5.14055 3.39214 5.07279C3.43036 4.80777 3.44673 4.53814 3.5044 4.27757C3.74175 3.19362 4.3073 2.20911 5.1241 1.45802C5.94089 0.706936 6.96926 0.22574 8.06928 0.0799154C8.27638 0.0521595 8.48378 0.0265838 8.69104 0H35.3764C35.4562 0.0137286 35.5357 0.0302486 35.6159 0.0406776C35.9103 0.0789521 36.2095 0.0937638 36.4988 0.155643C37.5861 0.390544 38.5744 0.955545 39.3285 1.7734C40.0825 2.59126 40.5656 3.62206 40.7116 4.72487C40.7365 4.90805 40.7644 5.09082 40.7909 5.27379Z" fill="#28378F"/>
<path d="M37.5452 6.68767V20.8783C37.4816 21.1593 37.4864 21.4526 37.356 21.7224C36.8483 22.7726 36.0346 23.4165 34.8799 23.6179C34.7004 23.6468 34.5187 23.6601 34.3369 23.6576C26.2391 23.6568 18.1412 23.6567 10.0433 23.6574C9.37221 23.665 8.71518 23.4653 8.16185 23.0856C7.60853 22.7058 7.18589 22.1646 6.95163 21.5357C6.87499 21.3217 6.8984 21.0929 6.83527 20.8783V6.65128C6.89181 6.3459 6.89748 6.03271 7.03758 5.74178C7.32698 5.13346 7.78918 4.62388 8.36646 4.27669C8.74847 4.042 9.16589 3.95893 9.60059 3.92232H34.7799C35.0917 3.97593 35.4104 3.97817 35.7088 4.11798C36.3187 4.40418 36.8312 4.86296 37.183 5.43751C37.4269 5.82289 37.5058 6.24747 37.5452 6.68767Z" fill="#25A9E1"/>
<path d="M34.1976 33.759C34.1548 33.6927 34.0795 33.7065 34.019 33.6933C32.6235 33.3895 31.6717 32.1472 31.7259 30.6963C31.7772 29.323 32.8596 28.1509 34.2467 27.9665C34.975 27.8669 35.7139 28.0471 36.3145 28.4708C36.9151 28.8945 37.3328 29.5301 37.4834 30.2495C37.4977 30.3156 37.4805 30.3959 37.5451 30.4478V31.2847C37.5161 31.3765 37.5022 31.4724 37.504 31.5686C37.4688 32.0122 37.2367 32.3655 36.9817 32.7079C36.8178 32.9183 36.625 33.1044 36.4088 33.2607C36.0422 33.5552 35.5902 33.7236 35.1202 33.7407C35.0906 33.7414 35.0593 33.7354 35.0345 33.7589L34.1976 33.759Z" fill="white"/>
<path d="M9.81885 33.759C9.77601 33.6927 9.70067 33.7065 9.64013 33.6933C8.24358 33.3893 7.29074 32.1442 7.34723 30.6929C7.40076 29.3181 8.4796 28.1539 9.87459 27.9656C10.6195 27.8663 11.3739 28.0591 11.9798 28.5037C12.5857 28.9482 12.9962 29.6099 13.1251 30.3503C13.254 31.0906 13.0915 31.8521 12.6715 32.4753C12.2515 33.0985 11.6067 33.535 10.8721 33.6934C10.7996 33.709 10.7144 33.6941 10.6557 33.759L9.81885 33.759Z" fill="white"/>
</svg>
