<svg width="42" height="44" viewBox="0 0 42 44" fill="none" xmlns="http://www.w3.org/2000/svg">
<path d="M39.4175 16.7713V20.0269H35.1329V17.4313C35.1365 14.1856 33.8633 11.0686 31.5883 8.75364C29.4001 6.527 26.3823 5.14486 23.0635 5.14486C16.425 5.14486 10.9941 10.6735 10.9941 17.4313V25.157H6.4668V16.7713C6.4668 7.54708 13.8807 0 22.9421 0C27.4723 0 31.5912 1.88628 34.5775 4.92682C37.684 8.08597 39.4226 12.3407 39.4175 16.7713Z" fill="#28378F"/>
<path d="M19.7408 44H0C0.233234 41.5438 1.37392 39.2627 3.19917 37.6026C5.02442 35.9424 7.40309 35.0225 9.8704 35.0225C12.3377 35.0225 14.7164 35.9424 16.5416 37.6026C18.3669 39.2627 19.5076 41.5438 19.7408 44Z" fill="#28378F"/>
<path d="M9.67309 39.6592C14.2226 39.6592 17.9108 35.971 17.9108 31.4215C17.9108 26.872 14.2226 23.1838 9.67309 23.1838C5.12355 23.1838 1.43542 26.872 1.43542 31.4215C1.43542 35.971 5.12355 39.6592 9.67309 39.6592Z" fill="#25A9E1"/>
<path d="M9.62384 34.9238C11.5853 34.9238 13.1754 33.3337 13.1754 31.3722C13.1754 29.4107 11.5853 27.8206 9.62384 27.8206C7.66236 27.8206 6.07227 29.4107 6.07227 31.3722C6.07227 33.3337 7.66236 34.9238 9.62384 34.9238Z" fill="white"/>
<path d="M41.5475 29.3206C41.5474 29.9998 41.3836 30.6688 41.0698 31.2711C40.756 31.8734 40.3016 32.3911 39.745 32.7803C39.1885 33.1695 38.5463 33.4186 37.8729 33.5067C37.1995 33.5947 36.5148 33.519 35.8769 33.286C35.239 33.053 34.6668 32.6695 34.2087 32.1682C33.7506 31.6668 33.4202 31.0624 33.2456 30.4061C33.0709 29.7498 33.0572 29.0611 33.2055 28.3984C33.3538 27.7356 33.6598 27.1185 34.0975 26.5992L37.2868 22L40.6427 26.7077L40.6473 26.7138C41.232 27.4568 41.5491 28.3752 41.5475 29.3206Z" fill="#25A9E1"/>
</svg>
