<svg width="100" height="60" viewBox="0 0 100 60" fill="none" xmlns="http://www.w3.org/2000/svg">
<path d="M97.1154 21.346C98.7086 21.346 100 20.0544 100 18.4614V3.07683C100 1.48367 98.7084 0.192261 97.1154 0.192261H2.88457C1.2916 0.192261 0 1.48367 0 3.07683V18.4614C0 20.0546 1.2916 21.346 2.88457 21.346C7.65625 21.346 11.5385 25.228 11.5385 29.9999C11.5385 34.7718 7.65645 38.6538 2.88457 38.6538C1.2916 38.6538 0 39.9452 0 41.5384V56.9229C0 58.5161 1.2916 59.8075 2.88457 59.8075H97.1154C98.7086 59.8075 100 58.5159 100 56.9229V41.5384C100 39.9452 98.7084 38.6538 97.1154 38.6538C92.3438 38.6538 88.4615 34.7718 88.4615 29.9999C88.4615 25.228 92.3436 21.346 97.1154 21.346ZM94.2309 44.1331V54.0384H33.6539V45.3845C33.6539 43.7913 32.3623 42.4999 30.7693 42.4999C29.1764 42.4999 27.8848 43.7915 27.8848 45.3845V54.0384H5.76914V44.1331C12.3443 42.7928 17.3076 36.9649 17.3076 29.9999C17.3076 23.0348 12.3443 17.2067 5.76914 15.8667V5.9614H27.8846V14.6153C27.8846 16.2085 29.1762 17.4999 30.7691 17.4999C32.3621 17.4999 33.6537 16.2083 33.6537 14.6153V5.9614H94.2307V15.8667C87.6555 17.2069 82.6922 23.0348 82.6922 29.9999C82.6922 36.9649 87.6557 42.793 94.2309 44.1331Z" fill="#7A3CDF"/>
<g clip-path="url(#clip0)">
<path d="M70.9322 26.9736C70.762 26.4471 70.2951 26.0732 69.7426 26.0234L62.2383 25.342L59.2709 18.3965C59.0521 17.8875 58.5538 17.558 58.0001 17.558C57.4465 17.558 56.9482 17.8875 56.7294 18.3977L53.762 25.342L46.2565 26.0234C45.705 26.0744 45.2392 26.4471 45.068 26.9736C44.8968 27.5001 45.0549 28.0775 45.4721 28.4415L51.1445 33.4162L49.4718 40.7843C49.3494 41.326 49.5597 41.886 50.0092 42.2109C50.2508 42.3855 50.5335 42.4744 50.8186 42.4744C51.0643 42.4744 51.3081 42.4081 51.5269 42.2772L58.0001 38.4084L64.4709 42.2772C64.9444 42.562 65.5413 42.5361 65.9899 42.2109C66.4396 41.885 66.6496 41.3248 66.5272 40.7843L64.8546 33.4162L70.527 28.4425C70.9441 28.0775 71.1034 27.501 70.9322 26.9736Z" fill="#F2A819"/>
</g>
<defs>
<clipPath id="clip0">
<rect width="26" height="26" fill="white" transform="translate(45 17)"/>
</clipPath>
</defs>
</svg>
