<svg width="40" height="40" viewBox="0 0 40 40" fill="none" xmlns="http://www.w3.org/2000/svg">
<g clip-path="url(#clip0)">
<path d="M38.4008 15.1124C39.2804 15.1124 40 14.3928 40 13.5132V9.5952C40 8.95552 39.6202 8.37581 39.0405 8.13593L20.6497 0.13993C20.4498 0.05997 20.2299 0 20.01 0C19.7901 0 19.5702 0.03998 19.3703 0.13993L0.97951 8.13593C0.37981 8.37581 0 8.95552 0 9.5952V13.5332C0 14.4128 0.71964 15.1324 1.5992 15.1324H5.07746V33.3433H0.7996C0.35982 33.3433 0 33.7031 0 34.1429V39.2204C0 39.6602 0.35982 40.02 0.7996 40.02H39.1804C39.6202 40.02 39.98 39.6602 39.98 39.2204V34.1429C39.98 33.7031 39.6202 33.3433 39.1804 33.3433H34.9025V15.1124H38.4008ZM38.3808 34.9225V38.4008H1.5992V34.9225H5.87706H9.995H17.931H22.049H29.985H34.1029H38.3808ZM6.67666 33.3233V15.1324H9.1954V33.3233H6.67666ZM10.7946 33.3233V15.1124H17.1314V33.3233H10.7946ZM18.7306 33.3233V15.1324H21.2494V33.3233H18.7306ZM22.8486 33.3233V15.1124H29.1854V33.3233H22.8486ZM30.7846 33.3233V15.1324H33.3033V33.3233H30.7846ZM1.5992 13.5132V9.5952L19.99 1.5992L38.3808 9.5952V13.5332H1.5992V13.5132Z" fill="#7A3CDF"/>
<path d="M19.9899 10.6146C21.4693 10.6146 22.6686 9.41537 22.6686 7.93599C22.6686 6.4566 21.4693 5.25732 19.9899 5.25732C18.5105 5.25732 17.3113 6.4566 17.3113 7.93599C17.3113 9.41537 18.5105 10.6146 19.9899 10.6146Z" fill="#F5BA47"/>
</g>
<defs>
<clipPath id="clip0">
<rect width="40" height="40" fill="white"/>
</clipPath>
</defs>
</svg>
