<svg width="31" height="40" viewBox="0 0 31 40" fill="none" xmlns="http://www.w3.org/2000/svg">
<g clip-path="url(#clip0)">
<path d="M19.5469 26C19.1077 26 18.7283 26.36 18.7283 26.8V32.68H1.61726V7.48H18.7283V13.2C18.7283 13.64 19.0877 14 19.5469 14C19.9862 14 20.3655 13.64 20.3655 13.2V3.18C20.3456 1.42 18.908 0 17.131 0H3.21456C1.43757 0 0 1.42 0 3.18V36.82C0 38.58 1.43757 40 3.21456 40H17.111C18.888 40 20.3256 38.58 20.3256 36.82V26.8C20.3456 26.36 19.9862 26 19.5469 26ZM1.61726 3.18C1.61726 2.3 2.33605 1.6 3.21456 1.6H17.111C18.0095 1.6 18.7083 2.3 18.7083 3.18V5.88H1.61726V3.18ZM18.7283 36.82C18.7283 37.7 17.9896 38.4 17.131 38.4H3.21456C2.31608 38.4 1.61726 37.7 1.61726 36.82V34.28H18.7283V36.82Z" fill="#7A3CDF"/>
<path d="M8.92462 23.18V18.14H10.462L7.64678 14.92L4.83154 18.14H6.36894V23.18H8.92462Z" fill="#7A3CDF"/>
<path d="M15.3542 23.06H13.8367V18.02H11.2611V23.06H9.74365L12.5389 26.28L15.3542 23.06Z" fill="#7A3CDF"/>
<path d="M24.9577 18.2001H23.9194V19.8001H24.9577C25.2372 19.8001 25.4169 19.7401 25.5567 19.6201C25.6765 19.5001 25.7763 19.2801 25.7763 19.0201C25.7763 18.7201 25.7164 18.5401 25.5567 18.4201C25.3969 18.3001 25.2172 18.2001 24.9577 18.2001Z" fill="#F2A819"/>
<path d="M24.8381 14.14C21.6435 14.14 19.0679 16.72 19.0679 19.92C19.0679 23.12 21.6435 25.7 24.8381 25.7C28.0327 25.7 30.6083 23.12 30.6083 19.92C30.5884 16.74 28.0127 14.14 24.8381 14.14ZM28.0327 19.58H26.8547C26.7948 19.92 26.6351 20.2 26.4354 20.36C26.1159 20.64 25.6567 20.76 25.0777 20.76H23.9396V22.72H22.8016V19.58H21.6235V18.44H22.8016V17.26H25.1576C25.6767 17.26 26.1159 17.4 26.4354 17.68C26.655 17.86 26.7748 18.12 26.8547 18.44H28.0327V19.58Z" fill="#F2A819"/>
</g>
<defs>
<clipPath id="clip0">
<rect width="30.5882" height="40" fill="white"/>
</clipPath>
</defs>
</svg>
