<svg width="31" height="40" viewBox="0 0 31 40" fill="none" xmlns="http://www.w3.org/2000/svg">
<g clip-path="url(#clip0)">
<path d="M19.5704 26C19.1238 26 18.7584 26.36 18.7584 26.8V32.68H1.6241V7.48H18.7584V13.2C18.7584 13.64 19.1238 14 19.5704 14C20.017 14 20.3825 13.64 20.3825 13.2V3.18C20.3825 1.42 18.9411 0 17.1546 0H3.2279C1.44139 0 0 1.42 0 3.18V36.82C0 38.58 1.44139 40 3.2279 40H17.1546C18.9411 40 20.3825 38.58 20.3825 36.82V26.8C20.3825 26.36 20.017 26 19.5704 26ZM1.6241 3.18C1.6241 2.3 2.33464 1.6 3.2279 1.6H17.1546C18.0478 1.6 18.7584 2.3 18.7584 3.18V5.88H1.6241V3.18ZM18.7584 36.82C18.7584 37.7 18.0275 38.4 17.1546 38.4H3.2279C2.33464 38.4 1.6241 37.7 1.6241 36.82V34.28H18.7584V36.82Z" fill="#7A3CDF"/>
<path d="M30.1473 19.2001H26.0465H24.4427H17.8245L20.0779 16.9801C20.4027 16.6601 20.4027 16.1601 20.0779 15.8401C19.7531 15.5201 19.2456 15.5201 18.9208 15.8401L15.2665 19.4401C14.9417 19.7601 14.9417 20.2601 15.2665 20.5801L18.9208 24.1801C19.0832 24.3401 19.2862 24.4201 19.4892 24.4201C19.6922 24.4201 19.8952 24.3401 20.0576 24.1801C20.3824 23.8601 20.3824 23.3601 20.0576 23.0401L17.8245 20.8001H24.4427H26.0465H30.2083C30.6752 20.8001 31.0609 20.4001 31.0203 19.9201C30.9594 19.5001 30.5737 19.2001 30.1473 19.2001Z" fill="#7A3CDF"/>
<path opacity="0.8" d="M13.3562 20.0425C13.3562 18.3155 11.9414 16.9305 10.1961 16.9489C8.45085 16.9674 7.03604 18.3823 7.03604 20.1093C7.03604 21.8363 8.45085 23.2214 10.1961 23.2029C11.9414 23.1845 13.3562 21.7695 13.3562 20.0425Z" fill="#F2A819"/>
</g>
<defs>
<clipPath id="clip0">
<rect width="31" height="40" fill="white"/>
</clipPath>
</defs>
</svg>
