<svg width="30" height="40" viewBox="0 0 30 40" fill="none" xmlns="http://www.w3.org/2000/svg">
<g clip-path="url(#clip0)">
<path d="M20.08 11.5V3.18C20.08 1.42 18.66 0 16.9 0H3.18C1.42 0 0 1.42 0 3.18V36.82C0 38.58 1.42 40 3.18 40H16.92C18.68 40 20.1 38.58 20.1 36.82V28.48C20.1 28.04 19.74 27.68 19.3 27.68C18.86 27.68 18.5 28.04 18.5 28.48V32.66H1.6V7.46H18.48V11.5C18.48 11.94 18.84 12.3 19.28 12.3C19.72 12.3 20.08 11.94 20.08 11.5ZM18.48 34.28V36.82C18.48 37.7 17.76 38.4 16.9 38.4H3.18C2.3 38.4 1.6 37.7 1.6 36.82V34.28H18.48ZM1.6 5.88V3.18C1.6 2.3 2.3 1.6 3.18 1.6H16.9C17.78 1.6 18.48 2.3 18.48 3.18V5.88H1.6Z" fill="#7A3CDF"/>
<path d="M22.3399 26L6.45991 25.96C5.95991 25.96 5.57991 25.5 5.67991 25.02L7.59991 14.66C7.67991 14.28 7.99991 14 8.37991 14L24.2599 14.04C24.7599 14.04 25.1399 14.5 25.0399 14.98L23.1199 25.34C23.0599 25.72 22.7399 26 22.3399 26Z" fill="#F2A819" fill-opacity="0.75"/>
<path d="M27.4399 24.2801H18.3999C17.9599 24.2801 17.6199 23.9201 17.6199 23.5001V23.3601C17.6199 22.9201 17.9799 22.5801 18.3999 22.5801H27.4399C27.8799 22.5801 28.2199 22.9401 28.2199 23.3601V23.5001C28.2399 23.9201 27.8799 24.2801 27.4399 24.2801Z" fill="#7A3CDF"/>
<path d="M19.3 20.8599H16.18C15.74 20.8599 15.4 20.4999 15.4 20.0799V19.9399C15.4 19.4999 15.76 19.1599 16.18 19.1599H19.3C19.74 19.1599 20.08 19.5199 20.08 19.9399V20.0799C20.08 20.4999 19.72 20.8599 19.3 20.8599Z" fill="#7A3CDF"/>
<path d="M29.02 17.44H19.88C19.44 17.44 19.1 17.08 19.1 16.66V16.52C19.1 16.08 19.46 15.74 19.88 15.74H29.02C29.46 15.74 29.8 16.1 29.8 16.52V16.66C29.8 17.08 29.44 17.44 29.02 17.44Z" fill="#7A3CDF"/>
<path d="M28.1199 20.8599H22.3999C21.9599 20.8599 21.6199 20.4999 21.6199 20.0799V19.9399C21.6199 19.4999 21.9799 19.1599 22.3999 19.1599H28.1199C28.5599 19.1599 28.8999 19.5199 28.8999 19.9399V20.0799C28.8999 20.4999 28.5599 20.8599 28.1199 20.8599Z" fill="#7A3CDF"/>
</g>
<defs>
<clipPath id="clip0">
<rect width="29.8" height="40" fill="white"/>
</clipPath>
</defs>
</svg>
