<svg width="28" height="40" viewBox="0 0 28 40" fill="none" xmlns="http://www.w3.org/2000/svg">
<g clip-path="url(#clip0)">
<path d="M10.2001 28.3599C9.3201 28.3599 8.6001 27.6399 8.6001 26.7599V13.0199C8.6001 12.1399 9.3201 11.4199 10.2001 11.4199C11.0801 11.4199 11.8001 12.1399 11.8001 13.0199V26.7599C11.8001 27.6399 11.0801 28.3599 10.2001 28.3599Z" fill="#7A3CDF"/>
<path d="M19.58 27.2C19.14 27.2 18.76 27.56 18.76 28V32.68H1.62V7.48H18.76V12C18.76 12.44 19.12 12.8 19.58 12.8C20.02 12.8 20.4 12.44 20.4 12V3.18C20.38 1.42 18.94 0 17.16 0H3.22C1.44 0 0 1.42 0 3.18V36.82C0 38.58 1.44 40 3.22 40H17.14C18.92 40 20.36 38.58 20.36 36.82V28C20.38 27.56 20.02 27.2 19.58 27.2ZM1.62 3.18C1.62 2.3 2.34 1.6 3.22 1.6H17.14C18.04 1.6 18.74 2.3 18.74 3.18V5.88H1.62V3.18ZM18.76 36.82C18.76 37.7 18.02 38.4 17.16 38.4H3.22C2.32 38.4 1.62 37.7 1.62 36.82V34.28H18.76V36.82Z" fill="#7A3CDF"/>
<path d="M18.7202 18.2H17.6602V19.86H18.7202C19.0002 19.86 19.2002 19.8 19.3602 19.66C19.5002 19.52 19.5802 19.32 19.5802 19.02C19.5802 18.72 19.5202 18.52 19.3602 18.38C19.2002 18.28 18.9802 18.2 18.7202 18.2Z" fill="#F2A819"/>
<path d="M26.7802 14.6799C24.0202 15.8799 20.8402 15.7399 18.2002 14.2999C16.3202 13.2799 14.1602 12.9799 12.0802 13.4399L10.1802 13.8599H10.1602V25.2599H10.1802L11.8402 24.8799C14.1602 24.3599 16.6002 24.6999 18.6802 25.8399C21.0402 27.1399 23.8802 27.2599 26.3602 26.1799L27.8002 25.5599V14.2199L26.7802 14.6799ZM21.8402 19.7199H20.6202C20.5602 20.0599 20.4002 20.3599 20.1802 20.5199C19.8602 20.7999 19.3802 20.9399 18.7602 20.9399H17.6002V22.9599H16.4202V19.7199H15.2002V18.5399H16.4202V17.3199H18.8602C19.4002 17.3199 19.8602 17.4799 20.1802 17.7599C20.4002 17.9599 20.5202 18.2199 20.6202 18.5399H21.8402V19.7199Z" fill="#F2A819"/>
</g>
<defs>
<clipPath id="clip0">
<rect width="27.8" height="40" fill="white"/>
</clipPath>
</defs>
</svg>
