<svg width="49" height="40" viewBox="0 0 49 40" fill="none" xmlns="http://www.w3.org/2000/svg">
<g clip-path="url(#clip0)">
<path d="M25.4097 17.3577C25.1465 17.1395 24.7876 17.0183 24.357 17.0183H22.5864V19.8062H24.357C24.8355 19.8062 25.1465 19.685 25.4097 19.4668C25.6251 19.2486 25.7686 18.885 25.7686 18.4001C25.7686 17.9153 25.649 17.5759 25.4097 17.3577Z" fill="#F2A819"/>
<path d="M24.1179 9.98779C18.6388 9.98779 14.2124 14.4726 14.2124 20.0242C14.2124 25.5757 18.6388 30.0605 24.1179 30.0605C29.597 30.0605 34.0233 25.5757 34.0233 20.0242C34.0233 14.4726 29.597 9.98779 24.1179 9.98779ZM29.6209 19.4423H27.6111C27.4915 20.0242 27.2522 20.509 26.8933 20.7999C26.343 21.2848 25.5534 21.5029 24.5485 21.5029H22.6105V24.8969H20.6725V19.4423H18.6627V17.4787H20.6725V15.4423H24.716C25.6252 15.4423 26.3669 15.709 26.9172 16.1696C27.2761 16.509 27.4915 16.9454 27.635 17.4787H29.6448V19.4423H29.6209Z" fill="#F2A819"/>
<path d="M47.9721 19.3455C47.6133 18.9818 47.0151 18.9818 46.6323 19.3455L43.8808 22.1333V20.0242C43.8808 8.99394 35.0281 0 24.1177 0C23.5913 0 23.1606 0.436364 23.1606 0.969697C23.1606 1.50303 23.5913 1.93939 24.1177 1.93939C33.9753 1.93939 41.9906 10.0606 41.9906 20.0485V22.1576L39.2391 19.3455C38.8802 18.9818 38.282 18.9818 37.8992 19.3455C37.5403 19.7091 37.5403 20.3152 37.8992 20.703L42.2538 25.1152C42.2538 25.1152 42.2538 25.1152 42.2777 25.1152C42.3256 25.1636 42.3734 25.1879 42.4213 25.2364C42.4452 25.2606 42.4691 25.2606 42.493 25.2849C42.517 25.3091 42.5409 25.3091 42.5887 25.3333C42.6127 25.3576 42.6605 25.3576 42.6845 25.3576C42.7084 25.3576 42.7323 25.3818 42.7562 25.3818C42.828 25.4061 42.8759 25.4061 42.9476 25.4061C43.0194 25.4061 43.0673 25.4061 43.139 25.3818C43.163 25.3818 43.1869 25.3576 43.2108 25.3576C43.2348 25.3576 43.2826 25.3333 43.3065 25.3333C43.3305 25.3091 43.3544 25.3091 43.4022 25.2849C43.4262 25.2606 43.4501 25.2606 43.474 25.2364C43.5219 25.2121 43.5697 25.1636 43.6176 25.1152C43.6176 25.1152 43.6176 25.1152 43.6415 25.1152L47.9961 20.703C48.331 20.3152 48.331 19.7091 47.9721 19.3455Z" fill="#7A3CDF"/>
<path d="M24.1178 38.0849C14.2602 38.0849 6.24487 29.9637 6.24487 19.9758V17.8667L8.99639 20.6546C9.35528 21.0182 9.95344 21.0182 10.3363 20.6546C10.6951 20.291 10.6951 19.6849 10.3363 19.297L5.98168 14.8849C5.98168 14.8849 5.98168 14.8849 5.95775 14.8849C5.9099 14.8364 5.86205 14.8122 5.8142 14.7637C5.79027 14.7394 5.76634 14.7394 5.74242 14.7152C5.71849 14.691 5.69457 14.691 5.64671 14.6667C5.62279 14.6425 5.57493 14.6425 5.55101 14.6425C5.52708 14.6425 5.50316 14.6182 5.47923 14.6182C5.40745 14.594 5.3596 14.594 5.28782 14.594C5.21604 14.594 5.16819 14.594 5.09641 14.6182C5.07248 14.6182 5.04856 14.6425 5.02463 14.6425C5.0007 14.6425 4.95285 14.6667 4.92893 14.6667C4.905 14.691 4.88107 14.691 4.83322 14.7152C4.8093 14.7394 4.78537 14.7394 4.76144 14.7637C4.71359 14.7879 4.66574 14.8364 4.61788 14.8849C4.61788 14.8849 4.61789 14.8849 4.59396 14.8849L0.287237 19.297C-0.071657 19.6607 -0.071657 20.2667 0.287237 20.6546C0.64613 21.0182 1.24429 21.0182 1.62711 20.6546L4.37862 17.8667V19.9758C4.37862 31.0061 13.2313 40.0001 24.1417 40.0001C24.6681 40.0001 25.0987 39.5637 25.0987 39.0304C25.0748 38.497 24.6441 38.0849 24.1178 38.0849Z" fill="#7A3CDF"/>
</g>
<defs>
<clipPath id="clip0">
<rect width="48.2353" height="40" fill="white"/>
</clipPath>
</defs>
</svg>
