<svg width="45" height="45" viewBox="0 0 45 45" fill="none" xmlns="http://www.w3.org/2000/svg">
<path d="M40.136 0H33.8379C33.1098 0 32.5195 0.590273 32.5195 1.31836C32.5195 2.04645 33.1098 2.63672 33.8379 2.63672H40.136C41.3641 2.63672 42.3633 3.63586 42.3633 4.86387V11.1621C42.3633 11.8902 42.9536 12.4805 43.6816 12.4805C44.4097 12.4805 45 11.8902 45 11.1621V4.86387C45 2.18197 42.818 0 40.136 0Z" fill="#7A3CDF"/>
<path d="M1.31836 12.4805C2.04645 12.4805 2.63672 11.8902 2.63672 11.1621V4.86387C2.63672 3.63586 3.63586 2.63672 4.86396 2.63672H11.1621C11.8902 2.63672 12.4805 2.04645 12.4805 1.31836C12.4805 0.590273 11.8902 0 11.1621 0H4.86396C2.18197 0 0 2.18197 0 4.86387V11.1621C0 11.8902 0.590273 12.4805 1.31836 12.4805Z" fill="#7A3CDF"/>
<path d="M11.1621 42.3633H4.86396C3.63586 42.3633 2.63672 41.3641 2.63672 40.1361V33.8379C2.63672 33.1098 2.04645 32.5195 1.31836 32.5195C0.590273 32.5195 0 33.1098 0 33.8379V40.1361C0 42.818 2.18197 45 4.86396 45H11.1621C11.8902 45 12.4805 44.4097 12.4805 43.6816C12.4805 42.9536 11.8902 42.3633 11.1621 42.3633Z" fill="#7A3CDF"/>
<path d="M43.6816 32.5195C42.9536 32.5195 42.3633 33.1098 42.3633 33.8379V40.1361C42.3633 41.3642 41.3641 42.3633 40.136 42.3633H33.8379C33.1098 42.3633 32.5195 42.9536 32.5195 43.6816C32.5195 44.4097 33.1098 45 33.8379 45H40.136C42.818 45 45 42.818 45 40.1361V33.8379C45 33.1098 44.4097 32.5195 43.6816 32.5195Z" fill="#7A3CDF"/>
<g clip-path="url(#clip0)">
<path d="M12.3851 18.2415C11.758 18.2415 11.25 17.7335 11.25 17.1039V13.672C11.25 13.0447 11.758 12.5356 12.3851 12.5356C13.0123 12.5356 13.5203 13.0447 13.5203 13.6732V17.1051C13.5192 17.7335 13.0123 18.2415 12.3851 18.2415Z" fill="#F2A819"/>
<path d="M32.6161 18.2415C31.989 18.2415 31.481 17.7323 31.481 17.1039V13.672C31.481 13.0447 31.989 12.5356 32.6161 12.5356C33.2432 12.5356 33.7513 13.0447 33.7513 13.6732V17.1051C33.7501 17.7335 33.2432 18.2415 32.6161 18.2415Z" fill="#F2A819"/>
<path d="M21.4922 26.0757H20.1688C19.5417 26.0757 19.0337 25.5666 19.0337 24.9382C19.0337 24.3098 19.5417 23.8007 20.1688 23.8007H21.4922C21.5024 23.8007 22.4868 23.7654 22.4868 22.5347V13.6732C22.4856 13.0447 22.9937 12.5356 23.6208 12.5356C24.2479 12.5356 24.7559 13.0447 24.7559 13.6732V22.5359C24.7559 24.9757 22.8474 26.0757 21.4922 26.0757Z" fill="#F2A819"/>
<path d="M22.3996 34.0714C17.402 34.0714 14.9151 31.5566 14.8119 31.4509C14.3753 30.9997 14.3867 30.2804 14.8369 29.8429C15.2837 29.4099 15.9992 29.4167 16.4358 29.8633C16.539 29.9656 18.443 31.7975 22.3996 31.7975C26.3823 31.7975 28.2852 29.9406 28.3657 29.8633C28.8057 29.4213 29.5235 29.4145 29.9669 29.8542C30.4103 30.2918 30.4228 31.002 29.9884 31.4509C29.8852 31.5577 27.3984 34.0714 22.3996 34.0714Z" fill="#F2A819"/>
</g>
<defs>
<clipPath id="clip0">
<rect width="22.5" height="21.5357" fill="white" transform="translate(11.25 12.5356)"/>
</clipPath>
</defs>
</svg>
