<svg width="120" height="164" viewBox="0 0 120 164" fill="none" xmlns="http://www.w3.org/2000/svg">
<path d="M72.143 122.47H47.8564V149.671H72.143V122.47Z" fill="#FDCC9B"/>
<path d="M47.8574 125.674C47.8574 125.674 58.0735 132.179 72.144 130.672V122.47H47.8574V125.674Z" fill="#FCBC85"/>
<path d="M12.8367 93.8125C19.3815 93.8125 24.6871 87.7593 24.6871 80.2924C24.6871 72.8254 19.3815 66.7722 12.8367 66.7722C6.29192 66.7722 0.986328 72.8254 0.986328 80.2924C0.986328 87.7593 6.29192 93.8125 12.8367 93.8125Z" fill="#FCBC85"/>
<path d="M107.164 93.8125C113.709 93.8125 119.014 87.7593 119.014 80.2924C119.014 72.8254 113.709 66.7722 107.164 66.7722C100.619 66.7722 95.3135 72.8254 95.3135 80.2924C95.3135 87.7593 100.619 93.8125 107.164 93.8125Z" fill="#FCBC85"/>
<path d="M107.116 54.4682C107.116 34.554 92.5441 19.9812 60.0004 19.9812C27.4567 19.9812 12.8848 34.5531 12.8848 54.4682C12.8848 74.3832 9.4849 126.842 60.0004 126.842C110.516 126.842 107.116 74.3832 107.116 54.4682Z" fill="#FDCC9B"/>
<path d="M37.0514 82.6406C39.8682 82.6406 42.1516 80.1396 42.1516 77.0545C42.1516 73.9695 39.8682 71.4685 37.0514 71.4685C34.2346 71.4685 31.9512 73.9695 31.9512 77.0545C31.9512 80.1396 34.2346 82.6406 37.0514 82.6406Z" fill="#3B2519"/>
<path d="M34.8279 76.1136C35.6703 76.1136 36.3531 75.4308 36.3531 74.5884C36.3531 73.7461 35.6703 73.0632 34.8279 73.0632C33.9856 73.0632 33.3027 73.7461 33.3027 74.5884C33.3027 75.4308 33.9856 76.1136 34.8279 76.1136Z" fill="white"/>
<path d="M28.8927 63.2112C31.3044 64.4175 35.1768 59.1132 44.0413 63.7276C45.6574 64.5687 46.6215 56.533 37.1201 56.533C28.8927 56.533 27.4352 62.4833 28.8927 63.2112Z" fill="#51362A"/>
<path d="M83.5787 82.6406C86.3955 82.6406 88.6789 80.1396 88.6789 77.0545C88.6789 73.9695 86.3955 71.4685 83.5787 71.4685C80.762 71.4685 78.4785 73.9695 78.4785 77.0545C78.4785 80.1396 80.762 82.6406 83.5787 82.6406Z" fill="#3B2519"/>
<path d="M81.3553 76.1136C82.1976 76.1136 82.8805 75.4308 82.8805 74.5884C82.8805 73.7461 82.1976 73.0632 81.3553 73.0632C80.5129 73.0632 79.8301 73.7461 79.8301 74.5884C79.8301 75.4308 80.5129 76.1136 81.3553 76.1136Z" fill="white"/>
<path d="M91.1083 63.2112C88.6966 64.4175 84.8241 59.1132 75.9597 63.7276C74.3436 64.5687 73.3794 56.533 82.8817 56.533C91.1083 56.533 92.5649 62.4833 91.1083 63.2112Z" fill="#51362A"/>
<path d="M60.0002 96.7025C54.9603 96.7025 51.9248 92.9383 51.9248 94.7593C51.9248 96.581 53.3822 100.042 60.0002 100.042C66.6182 100.042 68.0756 96.581 68.0756 94.7593C68.0756 92.9375 65.0393 96.7025 60.0002 96.7025Z" fill="#FCBC85"/>
<path d="M60.0005 113.45C58.2572 113.45 57.207 112.148 57.207 112.778C57.207 113.409 57.711 114.605 60.0005 114.605C62.2899 114.605 62.7931 113.409 62.7931 112.778C62.7931 112.148 61.7429 113.45 60.0005 113.45Z" fill="#FCBC85"/>
<path d="M60.0002 108.809C52.0124 108.809 47.1997 105.556 47.1997 106.381C47.1997 107.205 49.5098 110.449 60.0002 110.449C70.4907 110.449 72.8008 107.205 72.8008 106.381C72.7999 105.556 67.9881 108.809 60.0002 108.809Z" fill="#F7945E"/>
<path d="M60.0003 133.399V164H0.986328C0.986328 151.614 32.0709 133.399 60.0003 133.399Z" fill="#F2A819"/>
<path d="M60 133.399V164H119.014C119.014 151.614 87.9293 133.399 60 133.399Z" fill="#F2A819"/>
<path d="M60.0003 133.399C54.0598 133.399 47.9772 134.229 42.0806 135.646C42.1202 135.698 48.6209 144.085 60.0003 144.085C70.5378 144.085 77.5433 136.903 78.5587 135.798C72.4629 134.285 66.1556 133.399 60.0003 133.399Z" fill="#7A3CDF"/>
<path d="M47.8564 134.458C47.8564 134.458 51.4083 138.863 59.9993 138.863C68.5903 138.863 72.143 134.458 72.143 134.458C72.143 134.458 59.5449 129.872 47.8564 134.458Z" fill="#FDCC9B"/>
<path d="M98.7364 15.732C98.7364 15.732 81.2505 -6.48978 44.907 1.88885C8.56435 10.2666 5.84115 32.1249 6.93423 53.3908C8.02731 74.6576 10.9414 87.1334 14.3883 85.5917C17.8353 84.0491 16.0416 70.0118 16.4059 66.7722C16.7703 63.5326 20.0487 48.8822 42.1524 51.0684C64.2552 53.2545 82.8814 45.2394 82.8814 45.2394C82.8814 45.2394 90.3793 54.7169 95.3134 56.5329C105.173 60.1608 101.94 84.3515 105.803 84.3515C109.666 84.3515 128.609 28.4822 98.7364 15.732Z" fill="#51362A"/>
</svg>
