<svg width="34" height="40" viewBox="0 0 34 40" fill="none" xmlns="http://www.w3.org/2000/svg">
<rect width="34" height="40" fill="#E5E5E5"/>
<g clip-path="url(#clip0)">
<rect width="411" height="857" transform="translate(-189 -494)" fill="#F9F8FC"/>
<rect x="-189" y="-284" width="411" height="435" fill="white"/>
<rect x="-47" y="-31" width="126" height="126" fill="white"/>
<g clip-path="url(#clip1)">
<path d="M16.9764 4.58067V19.0659C16.9764 19.5078 16.6148 19.8695 16.1728 19.8695H5.08287C4.72124 19.8695 4.3998 19.6284 4.31943 19.2868C3.59618 16.6952 3.21446 14.0031 3.21446 11.2909C3.21446 10.6078 3.23455 9.92472 3.29482 9.24164C3.31491 8.94029 3.51582 8.65902 3.79708 8.55857L15.8915 3.83732C16.4139 3.61633 16.9764 4.01814 16.9764 4.58067Z" fill="#F5BE53"/>
<path d="M28.3677 19.8694C28.9101 19.8694 29.3119 20.4118 29.1311 20.9342C28.4681 22.8629 27.5841 24.7313 26.5193 26.4992C24.4098 29.9949 21.5771 33.0688 18.2421 35.4796C17.7197 35.8613 16.9764 35.4796 16.9764 34.8166V20.673C16.9764 20.231 17.338 19.8694 17.78 19.8694H28.3677Z" fill="#F5BE53"/>
<path d="M33.1693 6.24819L17.2978 0.0402517C17.117 -0.0401099 16.896 -0.0401099 16.7152 0.0402517L0.803616 6.26828C0.542441 6.36873 0.341537 6.60981 0.301356 6.91117C0.100452 8.33759 0 9.80419 0 11.2909C0 23.4456 6.64992 34.0734 16.5746 39.8795C16.8157 40.0202 17.1371 40.0202 17.3782 39.8795C27.3029 34.0734 33.9528 23.4456 33.9528 11.2909C33.9528 9.80419 33.8523 8.33759 33.6514 6.89108C33.6313 6.60981 33.4505 6.36873 33.1693 6.24819ZM31.7227 17.5792C31.5821 18.2623 31.4214 18.9453 31.2205 19.6284C31.12 19.9699 31.0196 20.3115 30.9191 20.6329C30.1758 22.9634 29.1713 25.2336 27.9056 27.3431C27.0618 28.7294 26.1175 30.0553 25.0929 31.3009C22.9232 33.9127 20.3114 36.1829 17.4184 37.991C17.1572 38.1518 16.8358 38.1518 16.5746 37.991C13.3802 36.0021 10.5676 33.4707 8.27725 30.5375C7.47363 29.5129 6.75038 28.4481 6.0673 27.3431C4.98242 25.535 4.07835 23.6063 3.37519 21.6374C2.20994 18.3225 1.60723 14.8268 1.60723 11.2909C1.60723 10.2261 1.6675 9.14121 1.76796 8.07641C1.80814 7.77506 1.98895 7.53397 2.27022 7.41343L16.7152 1.78812C16.896 1.70776 17.117 1.70776 17.2978 1.78812L31.6826 7.41343C31.9638 7.51388 32.1647 7.77506 32.1848 8.07641C32.2853 9.14121 32.3456 10.2261 32.3456 11.311C32.3656 13.4205 32.1446 15.5099 31.7227 17.5792Z" fill="#7A3CDF"/>
<path d="M16.9763 20.202C14.6057 20.202 12.677 18.2733 12.677 15.9026C12.677 13.5319 14.6057 11.6033 16.9763 11.6033C19.347 11.6033 21.2757 13.5319 21.2757 15.9026C21.2757 18.2733 19.347 20.202 16.9763 20.202ZM16.9763 13.2105C15.4897 13.2105 14.2842 14.4159 14.2842 15.9026C14.2842 17.3893 15.4897 18.5947 16.9763 18.5947C18.463 18.5947 19.6685 17.3893 19.6685 15.9026C19.6685 14.4159 18.463 13.2105 16.9763 13.2105Z" fill="#7A3CDF"/>
<path d="M23.9077 27.1332C23.4657 27.1332 23.1041 26.7715 23.1041 26.3295C23.1041 22.9543 20.3517 20.202 16.9765 20.202C13.6013 20.202 10.8489 22.9543 10.8489 26.3295C10.8489 26.7715 10.4873 27.1332 10.0453 27.1332C9.60333 27.1332 9.2417 26.7715 9.2417 26.3295C9.2417 22.0704 12.7173 18.5947 16.9765 18.5947C21.2357 18.5947 24.7113 22.0503 24.7113 26.3295C24.7113 26.7715 24.3698 27.1332 23.9077 27.1332Z" fill="#7A3CDF"/>
</g>
</g>
<defs>
<clipPath id="clip0">
<rect width="411" height="857" fill="white" transform="translate(-189 -494)"/>
</clipPath>
<clipPath id="clip1">
<rect width="33.9729" height="40" fill="white"/>
</clipPath>
</defs>
</svg>
