<svg width="40" height="40" viewBox="0 0 40 40" fill="none" xmlns="http://www.w3.org/2000/svg">
<rect width="40" height="40" fill="#E5E5E5"/>
<g clip-path="url(#clip0)">
<rect width="411" height="857" transform="translate(-60 -494)" fill="#F9F8FC"/>
<rect x="-60" y="-284" width="411" height="435" fill="white"/>
<rect x="-44" y="-31" width="126" height="126" fill="white"/>
<g clip-path="url(#clip1)">
<path d="M0 0.8V10C0 10.44 0.36 10.8 0.8 10.8C1.24 10.8 1.6 10.44 1.6 10V2.4C1.6 1.96 1.96 1.6 2.4 1.6H10C10.44 1.6 10.8 1.24 10.8 0.8C10.8 0.36 10.44 0 10 0H0.8C0.36 0 0 0.36 0 0.8ZM37.58 38.4H25.86C25.42 38.4 25.06 38.76 25.06 39.2C25.06 39.64 25.42 40 25.86 40H39.18C39.62 40 39.98 39.64 39.98 39.2V30C39.98 29.56 39.62 29.2 39.18 29.2C38.74 29.2 38.38 29.56 38.38 30V37.6C38.38 38.04 38.02 38.4 37.58 38.4ZM29.14 0.8C29.14 1.24 29.5 1.6 29.94 1.6H37.58C38.02 1.6 38.38 1.96 38.38 2.4V10C38.38 10.44 38.74 10.8 39.18 10.8C39.62 10.8 39.98 10.44 39.98 10V0.8C39.98 0.36 39.62 0 39.18 0H29.94C29.5 0 29.14 0.36 29.14 0.8ZM1.6 37.6V30C1.6 29.56 1.24 29.2 0.8 29.2C0.36 29.2 0 29.56 0 30V39.2C0 39.64 0.36 40 0.8 40H10C10.44 40 10.8 39.64 10.8 39.2C10.8 38.76 10.44 38.4 10 38.4H2.4C1.96 38.4 1.6 38.04 1.6 37.6Z" fill="#7A3CDF"/>
<path d="M33.3001 34.12H6.68007C6.24007 34.12 5.88007 33.76 5.88007 33.32V6.51997C5.88007 6.07997 6.24007 5.71997 6.68007 5.71997H33.3201C33.7601 5.71997 34.1201 6.07997 34.1201 6.51997V33.32C34.1001 33.76 33.7401 34.12 33.3001 34.12Z" fill="#F5BE53"/>
<path d="M13.4001 26.5199V32.5199H7.48007V26.5199H13.4001ZM14.2001 24.9199H6.68007C6.24007 24.9199 5.88007 25.2799 5.88007 25.7199V33.3199C5.88007 33.7599 6.24007 34.1199 6.68007 34.1199H14.2001C14.6401 34.1199 15.0001 33.7599 15.0001 33.3199V25.7199C15.0001 25.2799 14.6401 24.9199 14.2001 24.9199Z" fill="#7A3CDF"/>
<path d="M32.5001 26.5199V32.5199H26.5801V26.5199H32.5001ZM33.3001 24.9199H25.7801C25.3401 24.9199 24.9801 25.2799 24.9801 25.7199V33.3199C24.9801 33.7599 25.3401 34.1199 25.7801 34.1199H33.3001C33.7401 34.1199 34.1001 33.7599 34.1001 33.3199V25.7199C34.1001 25.2799 33.7401 24.9199 33.3001 24.9199Z" fill="#7A3CDF"/>
<path d="M13.4001 7.31997V13.32H7.48007V7.31997H13.4001ZM14.2001 5.71997H6.68007C6.24007 5.71997 5.88007 6.07997 5.88007 6.51997V14.12C5.88007 14.56 6.24007 14.92 6.68007 14.92H14.2001C14.6401 14.92 15.0001 14.56 15.0001 14.12V6.51997C15.0001 6.07997 14.6401 5.71997 14.2001 5.71997Z" fill="#7A3CDF"/>
<path d="M32.5001 7.31997V13.32H26.5801V7.31997H32.5001ZM33.3001 5.71997H25.7801C25.3401 5.71997 24.9801 6.07997 24.9801 6.51997V14.12C24.9801 14.56 25.3401 14.92 25.7801 14.92H33.3001C33.7401 14.92 34.1001 14.56 34.1001 14.12V6.51997C34.1001 6.07997 33.7401 5.71997 33.3001 5.71997Z" fill="#7A3CDF"/>
<path d="M39.18 20.8H0.8C0.36 20.8 0 20.44 0 20C0 19.56 0.36 19.2 0.8 19.2H39.18C39.62 19.2 39.98 19.56 39.98 20C39.98 20.44 39.62 20.8 39.18 20.8Z" fill="#7A3CDF"/>
</g>
</g>
<defs>
<clipPath id="clip0">
<rect width="411" height="857" fill="white" transform="translate(-60 -494)"/>
</clipPath>
<clipPath id="clip1">
<rect width="39.98" height="40" fill="white"/>
</clipPath>
</defs>
</svg>
