<svg width="31" height="40" viewBox="0 0 31 40" fill="none" xmlns="http://www.w3.org/2000/svg">
<path d="M26.3101 30.9969C23.8435 30.9969 21.8291 33.0113 21.8291 35.4779C21.8291 37.9445 23.8435 39.9589 26.3101 39.9589C28.7767 39.9589 30.7911 37.9445 30.7911 35.4779C30.7911 32.9908 28.7767 30.9969 26.3101 30.9969ZM28.7561 34.2652L25.6934 37.3484C25.6112 37.4307 25.4673 37.4307 25.3646 37.3484L23.8435 35.8274C23.7613 35.7451 23.7613 35.6013 23.8435 35.4985L24.1724 35.1696C24.2546 35.0874 24.3985 35.0874 24.5012 35.1696L25.4057 36.074C25.4879 36.1562 25.6318 36.1562 25.7345 36.074L28.16 33.6485C28.2423 33.5663 28.3861 33.5663 28.4889 33.6485L28.8178 33.9774C28.8384 34.0391 28.8384 34.183 28.7561 34.2652Z" fill="#F1A81E"/>
<path d="M21.3979 12.2097V9.4142H22.3229C23.1862 9.4142 23.8439 9.22921 24.2962 8.83866C24.6045 8.592 24.7895 8.22201 24.9128 7.72869H26.2489V6.1254H24.9128C24.81 5.67319 24.6045 5.3032 24.2962 5.05654C23.8234 4.666 23.2067 4.46045 22.4462 4.46045H19.7741V6.14596H18.438V7.74925H19.7741V12.1891H21.3979V12.2097ZM21.3979 5.81708H22.1584C22.5284 5.81708 22.8162 5.8993 23.0423 6.06374C23.2479 6.24873 23.3712 6.5365 23.3712 6.92705C23.3712 7.31759 23.2684 7.62592 23.0423 7.81091C22.8368 7.99591 22.549 8.09868 22.1584 8.09868H21.3979V5.81708Z" fill="#7A3CDF"/>
<path d="M29.8458 0H0.822147C0.369938 0 -5.21904e-05 0.36999 -5.21904e-05 0.822199V38.9723C-5.21904e-05 39.0134 -5.21904e-05 39.0339 -5.21904e-05 39.075C-0.0206072 39.3011 0.0410578 39.5272 0.184943 39.7122C0.349383 39.8972 0.575487 40 0.801592 40C0.986587 40 1.19214 39.9383 1.33602 39.7945L4.11094 37.3895L6.86531 39.7945C7.17364 40.0617 7.6464 40.0617 7.95473 39.7945L10.6885 37.3895L13.4429 39.7945C13.7512 40.0617 14.224 40.0617 14.5323 39.7945L17.2661 37.3895L20.0205 39.7945C20.3699 40.1028 20.8838 40.0617 21.1716 39.7122C21.4799 39.3628 21.4388 38.8489 21.0894 38.5612L17.8006 35.6835C17.4922 35.4162 17.0195 35.4162 16.7112 35.6835L13.9773 38.0884L11.223 35.6835C10.9146 35.4162 10.4419 35.4162 10.1336 35.6835L7.39974 38.0884L4.64537 35.6835C4.33705 35.4162 3.86428 35.4162 3.55596 35.6835L1.64435 37.369V1.6444H29.0236V29.2292C29.0236 29.6814 29.3936 30.0514 29.8458 30.0514C30.298 30.0514 30.668 29.6814 30.668 29.2292V0.822199C30.668 0.36999 30.3185 0 29.8458 0Z" fill="#7A3CDF"/>
<path d="M5.05657 6.10485H15.4163C15.8685 6.10485 16.2385 5.73486 16.2385 5.28265C16.2385 4.83044 15.8685 4.46045 15.4163 4.46045H5.05657C4.60436 4.46045 4.23438 4.83044 4.23438 5.28265C4.23438 5.73486 4.60436 6.10485 5.05657 6.10485Z" fill="#7A3CDF"/>
<path d="M5.05657 12.5386H15.4163C15.8685 12.5386 16.2385 12.1686 16.2385 11.7164C16.2385 11.2642 15.8685 10.8942 15.4163 10.8942H5.05657C4.60436 10.8942 4.23438 11.2642 4.23438 11.7164C4.23438 12.1686 4.60436 12.5386 5.05657 12.5386Z" fill="#7A3CDF"/>
<path d="M25.5704 17.3279H5.05657C4.60436 17.3279 4.23438 17.6979 4.23438 18.1501C4.23438 18.6023 4.60436 18.9723 5.05657 18.9723H25.5704C26.0226 18.9723 26.3926 18.6023 26.3926 18.1501C26.3926 17.6979 26.0226 17.3279 25.5704 17.3279Z" fill="#7A3CDF"/>
<path d="M25.5704 23.741H5.05657C4.60436 23.741 4.23438 24.111 4.23438 24.5632C4.23438 25.0154 4.60436 25.3854 5.05657 25.3854H25.5704C26.0226 25.3854 26.3926 25.0154 26.3926 24.5632C26.3926 24.111 26.0226 23.741 25.5704 23.741Z" fill="#7A3CDF"/>
<path d="M5.05657 30.1747C4.60436 30.1747 4.23438 30.5447 4.23438 30.9969C4.23438 31.4491 4.60436 31.8191 5.05657 31.8191H20.555C21.0072 31.8191 21.3772 31.4491 21.3772 30.9969C21.3772 30.5447 21.0072 30.1747 20.555 30.1747H5.05657Z" fill="#7A3CDF"/>
</svg>
