<svg width="36" height="40" viewBox="0 0 36 40" fill="none" xmlns="http://www.w3.org/2000/svg">
<rect width="36" height="40" fill="#E5E5E5"/>
<g clip-path="url(#clip0)">
<rect width="411" height="857" transform="translate(-187 -367)" fill="#F9F8FC"/>
<rect x="-187" y="-157" width="411" height="435" fill="white"/>
<rect x="-45" y="-30" width="126" height="126" fill="white"/>
<g clip-path="url(#clip1)">
<path d="M23.42 38.4H1.6V1.6H30.02V27.58C30.02 28.02 30.38 28.38 30.82 28.38C31.26 28.38 31.62 28.02 31.62 27.58V1.6C31.62 0.72 30.9 0 30.02 0H1.6C0.72 0 0 0.72 0 1.6V38.4C0 39.28 0.72 40 1.6 40H23.42C23.86 40 24.22 39.64 24.22 39.2C24.22 38.76 23.86 38.4 23.42 38.4Z" fill="#7A3CDF"/>
<path d="M5.75993 6.68008H15.0599C15.4799 6.68008 15.7999 6.32008 15.7999 5.88008C15.7999 5.44008 15.4599 5.08008 15.0599 5.08008H5.75993C5.33993 5.08008 5.01993 5.44008 5.01993 5.88008C5.01993 6.32008 5.33993 6.68008 5.75993 6.68008Z" fill="#7A3CDF"/>
<path d="M5.75993 13.7399H15.0599C15.4799 13.7399 15.7999 13.3799 15.7999 12.9399C15.7999 12.4999 15.4599 12.1399 15.0599 12.1399H5.75993C5.33993 12.1399 5.01993 12.4999 5.01993 12.9399C5.01993 13.3799 5.33993 13.7399 5.75993 13.7399Z" fill="#7A3CDF"/>
<path d="M5.81993 20.8H25.7799C26.2199 20.8 26.5799 20.44 26.5799 20C26.5799 19.56 26.2199 19.2 25.7799 19.2H5.81993C5.37993 19.2 5.01993 19.56 5.01993 20C5.01993 20.44 5.37993 20.8 5.81993 20.8Z" fill="#7A3CDF"/>
<path d="M5.90001 27.86H25.86C26.3 27.86 26.66 27.5 26.66 27.06C26.66 26.62 26.3 26.26 25.86 26.26H5.90001C5.46001 26.26 5.10001 26.62 5.10001 27.06C5.10001 27.5 5.46001 27.86 5.90001 27.86Z" fill="#7A3CDF"/>
<path d="M23.4199 33.3201H5.89994C5.43994 33.3201 5.05994 33.7201 5.09994 34.2001C5.13994 34.6201 5.51994 34.9201 5.93994 34.9201H23.4199C23.8599 34.9201 24.2199 34.5601 24.2199 34.1201C24.2199 33.6801 23.8599 33.3201 23.4199 33.3201Z" fill="#7A3CDF"/>
<path d="M21.1399 13.7401V10.6201H22.1799C23.1399 10.6201 23.8799 10.4201 24.3799 9.98008C24.7199 9.70008 24.9399 9.28008 25.0599 8.74008H26.5599V6.94008H25.0599C24.9399 6.44008 24.7199 6.02008 24.3799 5.74008C23.8599 5.30008 23.1599 5.08008 22.2999 5.08008H19.3199V6.96008H17.8199V8.76008H19.3199V13.7401H21.1399ZM21.1399 6.58008H21.9999C22.4199 6.58008 22.7399 6.68008 22.9799 6.86008C23.2199 7.06008 23.3399 7.38008 23.3399 7.82008C23.3399 8.26008 23.2199 8.60008 22.9799 8.80008C22.7399 9.00008 22.4199 9.12008 21.9999 9.12008H21.1399V6.58008Z" fill="#7A3CDF"/>
<path d="M30.8199 30C28.0599 30 25.8199 32.24 25.8199 35C25.8199 37.76 28.0599 40 30.8199 40C33.5799 40 35.8199 37.76 35.8199 35C35.8199 32.24 33.5799 30 30.8199 30ZM33.5599 33.66L30.1399 37.08C30.0399 37.18 29.8799 37.18 29.7799 37.08L28.0799 35.38C27.9799 35.28 27.9799 35.12 28.0799 35.02L28.4399 34.66C28.5399 34.56 28.6999 34.56 28.7999 34.66L29.7999 35.66C29.8999 35.76 30.0599 35.76 30.1599 35.66L32.8599 32.96C32.9599 32.86 33.1199 32.86 33.2199 32.96L33.5799 33.32C33.6599 33.4 33.6599 33.56 33.5599 33.66Z" fill="#F2A819"/>
</g>
</g>
<defs>
<clipPath id="clip0">
<rect width="411" height="857" fill="white" transform="translate(-187 -367)"/>
</clipPath>
<clipPath id="clip1">
<rect width="35.82" height="40" fill="white"/>
</clipPath>
</defs>
</svg>
