<svg width="46" height="42" viewBox="0 0 46 42" fill="none" xmlns="http://www.w3.org/2000/svg">
<g clip-path="url(#clip0)">
<path d="M37.8702 5.29382C37.7621 4.89044 37.3436 4.64883 36.9402 4.75692L1.73567 14.19C1.33229 14.298 1.09068 14.7165 1.19876 15.1199L7.12389 37.2328C7.23197 37.6361 7.65045 37.8778 8.05384 37.7697L10.0158 37.244L10.851 40.361C10.905 40.5627 11.0507 40.7399 11.2367 40.8472C11.3995 40.9412 11.5976 40.9471 11.7809 40.898C11.8176 40.8881 11.8359 40.8832 11.8726 40.8734L43.3501 28.3121C43.3684 28.3072 43.3684 28.3072 43.3868 28.3022C43.4051 28.2973 43.4368 28.2692 43.4552 28.2643C43.4735 28.2593 43.4869 28.2361 43.5236 28.2263C43.5419 28.2214 43.5554 28.1981 43.5871 28.1699C43.6006 28.1467 43.6189 28.1418 43.6323 28.1185C43.6457 28.0953 43.6641 28.0904 43.6775 28.0671C43.6909 28.0439 43.7043 28.0206 43.7227 28.0157C43.7361 27.9925 43.7495 27.9692 43.7629 27.946C43.7764 27.9227 43.7898 27.8995 43.7849 27.8811C43.7983 27.8579 43.7934 27.8396 43.8068 27.8163C43.8202 27.7931 43.8153 27.7747 43.8287 27.7515C43.8422 27.7282 43.8372 27.7099 43.8274 27.6732C43.8225 27.6549 43.8359 27.6316 43.8261 27.595C43.8212 27.5766 43.8346 27.5534 43.8248 27.5167C43.8199 27.4984 43.81 27.4617 43.8051 27.4434C43.8002 27.425 43.8002 27.425 43.7953 27.4067L37.8702 5.29382ZM2.86214 15.4603L36.5999 6.4203L42.1319 27.0663L8.39422 36.1063L2.86214 15.4603ZM11.4826 36.8509L30.8085 31.6726L12.0967 39.1429L11.4826 36.8509Z" fill="#7A3CDF"/>
<path d="M20.327 26.6595L22.2339 26.1485L21.3545 22.8664L23.2614 22.3555C24.2515 22.0902 24.9627 21.6638 25.3765 21.0812C25.6463 20.6945 25.7667 20.1906 25.7428 19.5878L27.723 19.0572L27.2121 17.1503L25.2318 17.6809C24.961 17.1835 24.623 16.8024 24.1728 16.589C23.5133 16.2547 22.716 16.2129 21.8176 16.4536L17.8754 17.5099L18.406 19.4902L16.4441 20.0159L16.9501 21.9045L18.9121 21.3788L20.327 26.6595ZM20.2098 18.5942L21.9333 18.1324C22.3734 18.0145 22.7329 18.036 23.0253 18.1739C23.3177 18.3117 23.5394 18.6257 23.6622 19.0841C23.79 19.5608 23.755 19.9436 23.5756 20.2275C23.3962 20.5114 23.0773 20.7147 22.6555 20.8277L20.932 21.2895L20.2098 18.5942Z" fill="#7A3CDF"/>
<path d="M33.5204 25.3648C33.4569 25.4211 33.4215 25.5092 33.4461 25.6009L34.0749 27.9478L28.7392 29.3775C28.6292 29.407 28.5438 29.5282 28.5782 29.6565L29.4969 33.0853C29.5264 33.1953 29.6475 33.2808 29.7759 33.2464L35.1116 31.8167L35.7405 34.1636C35.765 34.2553 35.8397 34.3139 35.9228 34.3309C36.006 34.348 36.0928 34.3051 36.1465 34.2121L39.274 28.7951C39.3008 28.7486 39.3044 28.6887 39.2897 28.6337C39.2749 28.5787 39.2418 28.5286 39.1954 28.5017L33.7784 25.3743C33.6805 25.3022 33.5839 25.3085 33.5204 25.3648Z" fill="#F5BA47"/>
<path d="M11.4371 17.1718C11.5006 17.1154 11.536 17.0274 11.5114 16.9357L10.8875 14.607L16.2231 13.1773C16.3332 13.1479 16.4186 13.0267 16.3842 12.8984L15.4704 9.48792C15.4409 9.3779 15.3198 9.29245 15.1914 9.32684L9.85572 10.7565L9.22685 8.40957C9.20229 8.31789 9.12763 8.25928 9.04446 8.24227C8.96129 8.22525 8.87452 8.26815 8.81592 8.34281L5.68844 13.7598C5.66159 13.8063 5.658 13.8662 5.67274 13.9212C5.68747 13.9762 5.72055 14.0263 5.76705 14.0531L11.1889 17.199C11.277 17.2343 11.3736 17.2281 11.4371 17.1718Z" fill="#F2A819"/>
</g>
<defs>
<clipPath id="clip0">
<rect width="37.965" height="32.2703" fill="white" transform="translate(0 10.646) rotate(-15)"/>
</clipPath>
</defs>
</svg>
