<svg width="40" height="40" viewBox="0 0 40 40" fill="none" xmlns="http://www.w3.org/2000/svg">
<rect width="40" height="40" fill="#E5E5E5"/>
<g clip-path="url(#clip0)">
<rect width="411" height="857" transform="translate(-312 -367)" fill="#F9F8FC"/>
<rect x="-312" y="-157" width="411" height="435" fill="white"/>
<rect x="-44" y="-30" width="126" height="126" fill="white"/>
<g clip-path="url(#clip1)">
<path d="M39.6799 29.66L30.4799 22.66C30.4199 22.62 30.3799 22.58 30.3199 22.56C29.4599 22.18 21.7999 18.88 19.6999 18.88C16.8599 18.88 15.1999 20.72 15.1199 20.8C14.9599 20.98 14.8799 21.22 14.9199 21.46C14.9599 21.7 15.0999 21.9 15.3199 22.02L21.9999 25.72L13.9599 27.3L2.35994 17.2C2.03994 16.92 1.55994 16.94 1.25994 17.24C0.41994 18.08 -0.0400604 19.22 -6.03735e-05 20.4C0.0399396 21.58 0.55994 22.68 1.47994 23.5L11.5399 33.56C11.6999 33.72 11.8999 33.8 12.0999 33.8H29.2599L35.2199 39.76C35.3799 39.92 35.5799 40 35.7799 40C35.9799 40 36.1799 39.92 36.3399 39.76C36.6599 39.44 36.6599 38.94 36.3399 38.62L30.1399 32.42C29.9799 32.26 29.7799 32.18 29.5799 32.18H12.4399L2.59994 22.34C2.57994 22.32 2.57994 22.32 2.55994 22.3C1.95994 21.78 1.61994 21.08 1.59994 20.34C1.57994 19.84 1.69994 19.36 1.93994 18.94L13.1999 28.76C13.3799 28.92 13.6399 28.98 13.8799 28.94L24.4599 26.86C24.7799 26.8 25.0399 26.54 25.0999 26.2C25.1599 25.86 24.9999 25.54 24.6999 25.38L17.1399 21.2C17.7199 20.84 18.5799 20.48 19.6799 20.48C20.9999 20.48 26.3999 22.62 29.5799 24L38.6999 30.94C39.0599 31.2 39.5599 31.14 39.8199 30.78C40.0999 30.44 40.0399 29.94 39.6799 29.66Z" fill="#7A3CDF"/>
<path d="M6.68008 14.92H33.3201C33.7601 14.92 34.1201 14.56 34.1201 14.12V0.8C34.1201 0.36 33.7601 0 33.3201 0H6.68008C6.24008 0 5.88008 0.36 5.88008 0.8V14.12C5.88008 14.56 6.24008 14.92 6.68008 14.92ZM7.48008 1.6H32.5201V13.32H7.48008V1.6Z" fill="#7A3CDF"/>
<path d="M21.5399 5.48008C21.2399 5.22008 20.8199 5.08008 20.3199 5.08008H18.0799V6.20008H16.9599V7.28008H18.0799V10.2601H19.1599V8.40008H20.2399C20.7999 8.40008 21.2399 8.28008 21.5399 8.02008C21.7399 7.86008 21.8799 7.60008 21.9399 7.28008H23.0599V6.20008H21.9399C21.8599 5.90008 21.7399 5.66008 21.5399 5.48008ZM20.7199 7.30008C20.5799 7.42008 20.3999 7.48008 20.1399 7.48008H19.1599V5.96008H20.1399C20.3799 5.96008 20.5799 6.02008 20.7199 6.14008C20.8599 6.26008 20.9199 6.44008 20.9199 6.72008C20.9199 6.98008 20.8399 7.18008 20.7199 7.30008Z" fill="#7A3CDF"/>
<path d="M6.8 12.6C9.45097 12.6 11.6 10.451 11.6 7.8C11.6 5.14903 9.45097 3 6.8 3C4.14903 3 2 5.14903 2 7.8C2 10.451 4.14903 12.6 6.8 12.6Z" fill="#F2A819" fill-opacity="0.75"/>
<path d="M11.5 19C12.8807 19 14 17.8807 14 16.5C14 15.1193 12.8807 14 11.5 14C10.1193 14 9 15.1193 9 16.5C9 17.8807 10.1193 19 11.5 19Z" fill="#F2A819" fill-opacity="0.75"/>
</g>
</g>
<defs>
<clipPath id="clip0">
<rect width="411" height="857" fill="white" transform="translate(-312 -367)"/>
</clipPath>
<clipPath id="clip1">
<rect width="40" height="39.98" fill="white"/>
</clipPath>
</defs>
</svg>
