<svg width="45" height="45" viewBox="0 0 45 45" fill="none" xmlns="http://www.w3.org/2000/svg">
<g clip-path="url(#clip0)">
<path d="M40.8574 6.35449H4.14264C1.82786 6.35449 0 8.23447 0 10.4971V34.503C0 36.8176 1.87998 38.6455 4.14264 38.6455H40.8574C43.1721 38.6455 45 36.7655 45 34.5029V10.4971C45 8.18226 43.12 6.35449 40.8574 6.35449ZM42.3633 34.5029C42.3633 35.334 41.6902 36.0088 40.8574 36.0088H4.14264C3.31154 36.0088 2.63672 35.3357 2.63672 34.5029V10.4971C2.63672 9.66603 3.30979 8.99121 4.14264 8.99121H40.8574C41.6885 8.99121 42.3633 9.66428 42.3633 10.4971V34.5029Z" fill="#3F51B5"/>
<path d="M17.6432 25.7259C18.4092 24.8682 18.876 23.7378 18.876 22.5C18.876 19.8265 16.7009 17.6514 14.0274 17.6514C11.3538 17.6514 9.1788 19.8265 9.1788 22.5C9.1788 23.7378 9.64558 24.8682 10.4116 25.7258C8.40387 26.9498 7.06055 29.1603 7.06055 31.6787C7.06055 32.4068 7.65082 32.9971 8.37891 32.9971H19.6757C20.4038 32.9971 20.9941 32.4068 20.9941 31.6787C20.9941 29.1603 19.6508 26.9498 17.6432 25.7259ZM14.0274 20.2881C15.247 20.2881 16.2393 21.2804 16.2393 22.5C16.2393 23.7197 15.247 24.712 14.0274 24.712C12.8077 24.712 11.8155 23.7197 11.8155 22.5C11.8155 21.2804 12.8077 20.2881 14.0274 20.2881ZM9.9024 30.3604C10.4614 28.6155 12.0992 27.3487 14.0274 27.3487C15.9555 27.3487 17.5933 28.6154 18.1523 30.3604H9.9024Z" fill="#F2A819"/>
<path d="M36.6211 19.0635H26.7363C26.0082 19.0635 25.418 19.6537 25.418 20.3818C25.418 21.1099 26.0082 21.7002 26.7363 21.7002H36.6211C37.3492 21.7002 37.9395 21.1099 37.9395 20.3818C37.9395 19.6537 37.3492 19.0635 36.6211 19.0635Z" fill="#3F51B5"/>
<path d="M36.6212 12.0027H8.37891C7.65082 12.0027 7.06055 12.593 7.06055 13.321C7.06055 14.0491 7.65082 14.6394 8.37891 14.6394H36.6212C37.3492 14.6394 37.9395 14.0491 37.9395 13.321C37.9395 12.593 37.3492 12.0027 36.6212 12.0027Z" fill="#3F51B5"/>
<path d="M36.6211 24.7119H26.7363C26.0082 24.7119 25.418 25.3022 25.418 26.0303C25.418 26.7584 26.0082 27.3486 26.7363 27.3486H36.6211C37.3492 27.3486 37.9395 26.7584 37.9395 26.0303C37.9395 25.3022 37.3492 24.7119 36.6211 24.7119Z" fill="#3F51B5"/>
<path d="M33.7969 30.3604H26.7363C26.0082 30.3604 25.418 30.9506 25.418 31.6787C25.418 32.4068 26.0082 32.9971 26.7363 32.9971H33.7969C34.5249 32.9971 35.1152 32.4068 35.1152 31.6787C35.1152 30.9506 34.5249 30.3604 33.7969 30.3604Z" fill="#3F51B5"/>
</g>
<defs>
<clipPath id="clip0">
<rect width="45" height="45" fill="white"/>
</clipPath>
</defs>
</svg>
